<?xml version="1.0" encoding="UTF-8"?>
<!DOCTYPE svg PUBLIC "-//W3C//DTD SVG 1.1//EN" "http://www.w3.org/Graphics/SVG/1.1/DTD/svg11.dtd">
<!-- Creator: CorelDRAW X7 -->
<svg xmlns="http://www.w3.org/2000/svg" xml:space="preserve" width="6.8889in" height="4.44445in" version="1.1" style="shape-rendering:geometricPrecision; text-rendering:geometricPrecision; image-rendering:optimizeQuality; fill-rule:evenodd; clip-rule:evenodd"
viewBox="0 0 6889 4444"
 xmlns:xlink="http://www.w3.org/1999/xlink">
 <defs>
  <style type="text/css">
   <![CDATA[
    .str0 {stroke:#FEFEFE;stroke-width:27.7795}
    .fil15 {fill:none}
    .fil14 {fill:#2B2A29}
    .fil16 {fill:#E31E24}
    .fil17 {fill:#211816}
    .fil5 {fill:#394C81}
    .fil20 {fill:#3C5486}
    .fil1 {fill:#5065A1}
    .fil19 {fill:#5E1912}
    .fil6 {fill:#99ABD5}
    .fil7 {fill:#B8C9F1}
    .fil3 {fill:#D35400}
    .fil18 {fill:#DA251C}
    .fil0 {fill:#E67E22}
    .fil2 {fill:#FFA800}
    .fil4 {fill:#FFCD02}
    .fil13 {fill:#2B2A29;fill-rule:nonzero}
    .fil12 {fill:#2B2A29;fill-rule:nonzero}
    .fil10 {fill:#00A0E3;fill-rule:nonzero}
    .fil9 {fill:#394C81;fill-rule:nonzero}
    .fil8 {fill:#394C81;fill-rule:nonzero}
    .fil11 {fill:#FFC22B;fill-rule:nonzero}
   ]]>
  </style>
    <clipPath id="id0">
     <rect x="6110" y="3188" width="556" height="521"/>
    </clipPath>
 </defs>
 <g id="Layer_x0020_1">
  <metadata id="CorelCorpID_0Corel-Layer"/>
  <g id="_15240720064">
   <g>
    <path class="fil0" d="M1553 1611l-116 204c-42,-19 -243,-108 -296,-132 -35,-15 -65,-28 -94,-41l102 -259c17,-3 249,141 404,228z"/>
    <polygon class="fil1" points="1570,1432 1592,1556 1576,1564 1900,1606 1952,1600 "/>
    <polygon class="fil0" points="923,2515 9,2081 1091,2278 "/>
    <circle class="fil2" cx="1516" cy="895" r="183"/>
    <polygon class="fil3" points="1553,1611 881,1268 964,1114 1861,1173 1754,1329 "/>
    <path class="fil2" d="M1675 1923c-13,20 -111,180 -127,189l-612 -116c2,-27 100,-336 114,-361 6,15 -8,4 17,16l74 32c179,80 356,159 534,240z"/>
    <polygon class="fil3" points="1251,2051 923,2515 737,2427 936,1996 "/>
    <polygon class="fil0" points="1994,2892 1406,2085 1675,1923 "/>
    <polygon class="fil2" points="1640,1489 1861,1173 2354,1319 "/>
    <polygon class="fil4" points="2354,1319 2070,1235 2027,607 "/>
    <polygon class="fil5" points="1592,1556 1050,1704 1952,1600 "/>
    <polygon class="fil1" points="881,1549 1050,1704 1592,1556 "/>
    <polygon class="fil6" points="881,1549 447,1349 318,1310 1050,1704 "/>
    <polygon class="fil7" points="318,1310 291,1166 447,1349 "/>
    <polygon class="fil2" points="575,1899 691,1092 964,1114 "/>
   </g>
   <path class="fil8" d="M3155 2068c-34,0 -71,-5 -113,-16 -42,-10 -76,-22 -100,-37l57 -131c17,10 41,19 71,28 31,9 58,13 81,13 25,0 46,-5 61,-16 15,-10 23,-22 23,-35 0,-8 -6,-16 -17,-24 -11,-8 -29,-20 -54,-34l-30 -18c-43,-25 -77,-46 -101,-63 -25,-17 -46,-39 -66,-66 -19,-27 -28,-57 -28,-91 0,-36 10,-68 30,-96 20,-29 48,-51 85,-67 36,-16 79,-24 127,-24 33,0 67,5 102,14 35,10 65,23 90,40l-52 118c-34,-12 -60,-20 -78,-23 -18,-4 -38,-6 -60,-6 -19,0 -35,4 -46,13 -12,9 -18,20 -18,33 0,9 5,18 15,25 10,8 26,17 49,29l35 20c40,23 73,44 100,63 27,20 50,43 69,69 19,27 28,57 28,90 0,37 -10,70 -31,99 -22,29 -52,51 -91,68 -39,16 -85,25 -138,25z"/>
   <polygon id="1" class="fil8" points="3685,1860 3685,2055 3511,2055 3511,1403 3685,1403 3685,1630 3947,1389 4082,1487 3861,1694 4125,2055 3903,2055 3736,1812 "/>
   <path id="2" class="fil8" d="M4211 2055l0 -652 274 0c78,0 142,19 193,56 50,37 75,93 75,167 0,38 -7,72 -23,101 -16,29 -37,53 -65,71l144 257 -202 0 -106 -205 -116 0 0 205 -174 0zm362 -429c0,-28 -8,-50 -24,-64 -17,-14 -40,-22 -70,-22l-94 0 0 173 96 0c27,0 49,-8 66,-24 18,-17 26,-38 26,-63z"/>
   <polygon id="3" class="fil8" points="5356,1918 5373,2055 4895,2055 4895,1403 5356,1403 5373,1540 5070,1540 5070,1659 5270,1659 5287,1796 5070,1796 5070,1918 "/>
   <path id="4" class="fil8" d="M5402 2055l244 -652 174 0 244 645 -172 17 -47 -138 -225 0 -45 128 -173 0zm266 -265l128 0 -66 -178 -62 178z"/>
   <polygon id="5" class="fil8" points="6588,1740 6500,1859 6430,1868 6325,1740 6325,2055 6150,2055 6150,1403 6270,1403 6467,1652 6647,1403 6763,1403 6763,2055 6588,2055 "/>
   <polygon class="fil9" points="2959,1014 2959,1158 2900,1158 2900,742 2959,742 2959,935 3149,732 3191,767 3043,924 3222,1158 3150,1158 3004,967 "/>
   <path id="1" class="fil9" d="M3234 1179c15,-6 26,-11 33,-15 6,-5 11,-10 14,-18 2,-7 4,-18 4,-32l0 -372 59 0 0 383c0,18 -3,33 -8,44 -5,12 -14,22 -26,30 -12,8 -30,15 -52,22l-24 -42z"/>
   <path id="2" class="fil9" d="M3541 1166c-17,0 -39,-3 -65,-9 -26,-7 -43,-14 -52,-21l14 -47c13,7 29,13 48,19 20,5 38,8 55,8 29,0 51,-6 67,-17 16,-11 24,-25 24,-44 0,-13 -4,-24 -12,-34 -8,-10 -19,-19 -34,-28 -14,-8 -35,-18 -61,-29 -26,-12 -46,-23 -62,-34 -15,-11 -27,-23 -34,-38 -8,-14 -12,-32 -12,-52 0,-21 6,-39 17,-55 11,-17 26,-30 47,-39 21,-9 45,-14 73,-14 19,0 38,3 58,8 19,5 37,12 52,19l-20 47c-14,-7 -27,-12 -40,-16 -13,-4 -28,-6 -46,-6 -24,0 -44,5 -59,14 -16,9 -23,23 -23,40 0,14 4,26 12,36 7,10 18,19 33,27 14,8 35,19 63,31 37,17 64,34 82,52 17,18 26,42 26,70 0,22 -6,42 -18,59 -12,17 -29,30 -52,39 -22,10 -49,14 -81,14z"/>
   <path id="3" class="fil9" d="M3933 733c14,0 32,2 53,7 22,4 39,10 53,18l-19 42c-18,-6 -33,-11 -45,-13 -11,-2 -26,-4 -44,-4 -25,0 -48,7 -69,21 -20,15 -37,34 -48,60 -12,26 -18,55 -18,88 0,30 5,58 15,83 11,25 26,45 46,60 20,14 43,22 69,22 35,0 65,-6 92,-19l22 44c-13,7 -31,13 -52,18 -22,5 -42,7 -59,7 -41,0 -77,-9 -106,-28 -29,-19 -51,-45 -66,-78 -15,-32 -22,-68 -22,-109 0,-41 8,-79 24,-112 16,-33 39,-59 69,-78 30,-19 65,-29 105,-29z"/>
   <polygon id="4" class="fil9" points="4365,1112 4373,1158 4108,1158 4108,742 4365,742 4373,787 4167,787 4167,924 4308,924 4316,969 4167,969 4167,1112 "/>
   <path class="fil9" d="M3047 2449c-10,0 -20,3 -29,8 -8,4 -15,9 -19,15l-42 0 7 -164 165 0 -5 37 -120 0 -3 80c13,-8 28,-12 44,-12 33,0 59,9 76,27 17,19 26,42 26,70 0,19 -4,36 -13,52 -9,15 -22,27 -39,36 -17,9 -38,13 -61,13 -16,0 -32,-3 -49,-8 -17,-5 -32,-11 -46,-19l22 -32c13,8 24,13 36,16 11,4 24,5 39,5 20,0 37,-6 49,-17 12,-12 19,-27 19,-46 0,-19 -6,-34 -16,-44 -10,-11 -24,-17 -41,-17z"/>
   <polygon id="1" class="fil9" points="3386,2428 3506,2428 3511,2464 3390,2464 "/>
   <path id="2" class="fil9" d="M3660 2351c0,-14 4,-27 11,-39 8,-13 19,-22 33,-30 15,-7 31,-11 51,-11 19,0 36,4 51,11 14,8 25,17 33,30 7,12 11,25 11,39 0,14 -4,26 -13,38 -9,11 -20,20 -33,26 10,3 19,8 28,16 9,7 16,16 22,27 6,11 8,22 8,33 0,17 -4,32 -12,46 -9,13 -21,24 -37,32 -17,8 -36,12 -58,12 -22,0 -41,-4 -58,-12 -16,-8 -28,-19 -37,-32 -8,-14 -13,-29 -13,-46 0,-10 3,-21 9,-32 5,-11 12,-20 21,-28 9,-8 19,-14 29,-16 -14,-6 -25,-15 -33,-26 -9,-11 -13,-24 -13,-38zm147 1c0,-13 -4,-23 -14,-31 -10,-9 -23,-13 -39,-13 -16,0 -28,5 -38,13 -9,9 -14,19 -14,31 0,12 5,22 14,31 9,8 22,14 39,16 17,-2 30,-8 39,-16 9,-9 13,-19 13,-31zm13 140c0,-15 -6,-28 -17,-39 -11,-11 -27,-18 -48,-21 -21,3 -37,10 -48,21 -11,11 -17,24 -17,39 0,16 6,29 19,38 12,10 28,14 46,14 18,0 33,-4 46,-14 12,-10 19,-22 19,-38z"/>
   <path id="3" class="fil9" d="M4200 2591c12,-4 20,-8 25,-12 5,-3 9,-8 11,-13 2,-6 3,-14 3,-25l0 -287 45 0 0 295c0,14 -2,25 -5,34 -4,9 -11,17 -21,23 -9,6 -22,12 -40,17l-18 -32z"/>
   <path id="4" class="fil9" d="M5081 2326c13,-7 25,-13 38,-17 13,-5 29,-7 48,-7 31,0 55,6 73,19 17,14 26,32 26,57 0,19 -5,36 -15,53 -10,17 -28,37 -55,59l-60 50 137 0 8 35 -206 0 0 -30 100 -87c17,-15 29,-28 38,-40 8,-11 12,-23 12,-34 0,-16 -5,-27 -16,-34 -10,-8 -24,-12 -43,-12 -15,0 -28,3 -38,7 -10,4 -22,10 -36,18l-11 -37z"/>
   <path id="5" class="fil9" d="M5432 2581c-24,0 -46,-6 -66,-18 -19,-12 -34,-29 -45,-51 -11,-21 -16,-45 -16,-72 0,-26 5,-50 16,-71 11,-21 26,-38 45,-50 20,-11 41,-17 66,-17 24,0 46,6 65,17 19,12 34,29 45,49 11,21 16,45 16,71 0,27 -5,52 -16,73 -11,22 -26,39 -45,51 -19,12 -41,18 -65,18zm0 -241c-16,0 -31,5 -44,13 -12,8 -22,20 -29,35 -7,15 -11,32 -11,51 0,19 4,37 11,53 7,16 17,28 30,37 12,9 27,13 43,13 16,0 30,-4 43,-13 13,-8 23,-20 30,-36 7,-15 10,-33 10,-52 0,-19 -3,-36 -10,-52 -7,-15 -17,-27 -30,-36 -13,-8 -27,-13 -43,-13z"/>
   <polygon id="6" class="fil9" points="5693,2308 5693,2575 5648,2575 5647,2359 5598,2385 5577,2349 5662,2308 "/>
   <polygon id="7" class="fil9" points="5929,2327 5829,2608 5786,2595 5878,2345 5736,2345 5730,2308 5915,2308 "/>
   <path id="8" class="fil8" d="M3203 2226l21 0 7 17 -28 0 1 61c0,6 1,11 4,14 2,4 6,5 12,5 3,0 6,0 11,-2l6 17c-3,1 -6,2 -9,3 -4,1 -7,2 -11,2 -11,0 -20,-3 -26,-9 -7,-7 -10,-15 -10,-27l0 -64 -16 0 0 -17 16 0 0 -29 22 -5 0 34z"/>
   <path id="9" class="fil8" d="M3358 2263l0 76 -22 0 0 -73c0,-9 -2,-15 -4,-19 -3,-5 -8,-7 -15,-7 -6,0 -11,2 -18,5 -6,4 -12,8 -18,13l0 81 -23 0 0 -164 23 -3 0 65c6,-5 12,-9 19,-12 8,-3 15,-4 22,-4 12,0 21,4 27,11 6,8 9,18 9,31z"/>
   <path id="10" class="fil8" d="M3919 2226l21 0 7 17 -28 0 0 61c0,6 1,11 4,14 3,4 7,5 12,5 3,0 7,0 11,-2l6 17c-2,1 -5,2 -9,3 -4,1 -7,2 -10,2 -12,0 -20,-3 -27,-9 -7,-7 -10,-15 -10,-27l0 -64 -16 0 0 -17 16 0 0 -29 23 -5 0 34z"/>
   <path id="11" class="fil8" d="M4074 2263l0 76 -23 0 0 -73c0,-9 -1,-15 -4,-19 -3,-5 -8,-7 -15,-7 -5,0 -11,2 -17,5 -7,4 -13,8 -19,13l0 81 -23 0 0 -164 23 -3 0 65c6,-5 13,-9 20,-12 7,-3 14,-4 21,-4 12,0 22,4 28,11 6,8 9,18 9,31z"/>
   <path id="12" class="fil8" d="M4327 2575l121 -321 41 0 124 318 -45 7 -34 -90 -131 0 -32 86 -44 0zm89 -122l104 0 -53 -138 -51 138z"/>
   <polygon id="13" class="fil8" points="4705,2336 4705,2575 4660,2575 4660,2254 4700,2254 4867,2491 4866,2254 4912,2254 4912,2575 4872,2575 "/>
   <rect class="fil1" x="2578" y="607" width="30.144" height="2048.02"/>
   <g>
    <path class="fil10" d="M4399 3459l-7 0c-2,13 -5,23 -7,31 -3,8 -6,14 -9,19 -3,5 -7,8 -11,10 -4,1 -9,2 -15,2 -15,0 -27,-7 -35,-21 -3,-7 -6,-15 -7,-24 -2,-10 -3,-23 -3,-38 0,-30 4,-53 11,-67 8,-14 19,-21 35,-21 5,0 10,0 13,2 4,1 7,3 10,7 3,3 5,8 8,15 3,6 5,14 8,25 1,1 1,1 1,2 1,1 1,2 1,3l7 0 0 -49c-15,-8 -30,-11 -44,-11 -13,0 -24,2 -34,6 -10,5 -18,11 -25,19 -7,8 -13,18 -17,29 -3,12 -5,25 -5,39 0,13 2,26 5,37 4,11 10,21 17,29 7,7 15,14 25,18 10,4 21,6 33,6 15,0 30,-3 45,-10l0 -58z"/>
    <path class="fil10" d="M4492 3524l34 0 0 -6 -12 0 0 -85c0,-14 -4,-24 -11,-31 -8,-7 -18,-11 -33,-11 -15,0 -29,4 -42,11l0 41 7 0c2,-7 4,-12 6,-17 1,-4 3,-9 5,-12 3,-7 6,-11 9,-13 3,-2 8,-3 14,-3 15,0 23,9 23,28l0 18c-4,2 -7,3 -9,4 -3,1 -5,2 -8,3 -2,1 -5,1 -8,2 -2,1 -6,1 -9,2 -8,2 -15,3 -19,5 -4,2 -7,4 -11,6 -3,3 -6,7 -9,12 -2,5 -3,9 -3,15 0,10 3,18 10,25 7,6 15,9 26,9 20,0 33,-9 40,-26l0 23zm0 -56c0,16 -3,28 -9,37 -6,9 -14,14 -24,14 -12,0 -18,-9 -18,-27 0,-10 2,-16 5,-21 3,-4 9,-8 18,-10 4,-1 7,-2 9,-3 3,0 5,-1 7,-2 2,0 4,-1 6,-2 2,-1 4,-1 6,-2l0 16z"/>
    <path class="fil10" d="M4576 3395l-34 0 0 6 12 0 0 117 -12 0 0 6 50 0 0 -6 -16 0 0 -75c0,-13 3,-23 8,-31 5,-8 12,-12 20,-12 6,0 10,2 13,6 3,4 5,9 5,16l0 96 -17 0 0 6 51 0 0 -6 -12 0 0 -97c0,-10 -3,-17 -9,-22 -6,-5 -14,-8 -25,-8 -8,0 -15,2 -20,6 -6,4 -10,11 -14,19l0 -21z"/>
    <path class="fil10" d="M4744 3524l35 0 0 -6 -13 0 0 -85c0,-14 -3,-24 -11,-31 -7,-7 -18,-11 -32,-11 -15,0 -29,4 -42,11l0 41 7 0c2,-7 4,-12 5,-17 2,-4 4,-9 6,-12 3,-7 6,-11 9,-13 3,-2 7,-3 14,-3 15,0 22,9 22,28l0 18c-3,2 -6,3 -9,4 -2,1 -5,2 -7,3 -2,1 -5,1 -8,2 -3,1 -6,1 -9,2 -9,2 -15,3 -19,5 -4,2 -8,4 -11,6 -4,3 -7,7 -9,12 -2,5 -3,9 -3,15 0,10 3,18 10,25 6,6 15,9 26,9 19,0 33,-9 39,-26l0 23zm0 -56c0,16 -2,28 -8,37 -6,9 -14,14 -24,14 -12,0 -18,-9 -18,-27 0,-10 1,-16 5,-21 3,-4 9,-8 18,-10 3,-1 6,-2 9,-3 2,0 5,-1 7,-2 2,0 4,-1 5,-2 2,-1 4,-1 6,-2l0 16z"/>
    <path class="fil10" d="M4877 3445l0 -49c-3,-2 -5,-3 -8,-4 -2,0 -5,-1 -8,-1 -7,0 -13,2 -18,6 -5,4 -10,10 -14,19l0 -21 -35 0 0 6 13 0 0 117 -13 0 0 6 54 0 0 -6 -18 0 0 -62c0,-5 0,-10 1,-14 0,-4 0,-8 1,-11 1,-3 1,-6 2,-9 1,-3 2,-5 3,-8 2,-4 4,-7 7,-9 3,-3 5,-4 8,-4 1,0 2,0 2,0 1,1 2,1 2,2 1,1 2,3 2,4 1,2 2,4 3,7 2,5 4,10 5,15 1,4 3,9 4,16l7 0z"/>
    <path class="fil10" d="M4963 3524l34 0 0 -6 -12 0 0 -85c0,-14 -4,-24 -11,-31 -7,-7 -18,-11 -32,-11 -15,0 -29,4 -42,11l0 41 7 0c2,-7 3,-12 5,-17 2,-4 3,-9 5,-12 3,-7 6,-11 9,-13 3,-2 8,-3 14,-3 15,0 23,9 23,28l0 18c-3,2 -6,3 -9,4 -2,1 -5,2 -7,3 -3,1 -6,1 -8,2 -3,1 -6,1 -10,2 -8,2 -14,3 -18,5 -5,2 -8,4 -11,6 -4,3 -7,7 -9,12 -2,5 -3,9 -3,15 0,10 3,18 9,25 7,6 16,9 27,9 19,0 32,-9 39,-26l0 23zm0 -56c0,16 -3,28 -9,37 -6,9 -13,14 -23,14 -13,0 -19,-9 -19,-27 0,-10 2,-16 5,-21 4,-4 10,-8 18,-10 4,-1 7,-2 9,-3 3,0 5,-1 7,-2 2,0 4,-1 6,-2 2,-1 4,-1 6,-2l0 16z"/>
    <path class="fil10" d="M5074 3347l0 6 16 0 0 165 -16 0 0 6 56 0c11,0 20,-1 28,-2 8,-1 15,-3 20,-6 9,-4 16,-10 21,-17 5,-8 8,-16 8,-25 0,-8 -2,-14 -6,-21 -3,-6 -8,-11 -14,-14 -5,-3 -10,-5 -15,-6 -5,-1 -12,-2 -20,-3 13,-2 24,-7 32,-14 7,-7 11,-17 11,-28 0,-6 -1,-12 -4,-17 -3,-6 -8,-11 -13,-15 -5,-3 -11,-5 -17,-7 -6,-1 -15,-2 -25,-2l-62 0zm42 81l0 -75 19 0c11,0 19,3 24,9 5,6 8,15 8,28 0,14 -3,24 -10,30 -6,5 -16,8 -31,8l-10 0zm0 90l0 -84 20 0c8,0 14,1 19,3 6,1 10,3 13,7 4,3 6,7 8,12 1,5 2,11 2,19 0,15 -4,26 -11,33 -7,6 -20,10 -37,10l-14 0z"/>
    <path class="fil10" d="M5297 3524l35 0 0 -6 -13 0 0 -85c0,-14 -4,-24 -11,-31 -7,-7 -18,-11 -32,-11 -15,0 -29,4 -42,11l0 41 7 0c2,-7 3,-12 5,-17 2,-4 4,-9 5,-12 3,-7 6,-11 9,-13 4,-2 8,-3 14,-3 16,0 23,9 23,28l0 18c-3,2 -6,3 -9,4 -2,1 -5,2 -7,3 -3,1 -5,1 -8,2 -3,1 -6,1 -10,2 -8,2 -14,3 -18,5 -4,2 -8,4 -11,6 -4,3 -7,7 -9,12 -2,5 -3,9 -3,15 0,10 3,18 10,25 6,6 15,9 26,9 19,0 32,-9 39,-26l0 23zm0 -56c0,16 -3,28 -9,37 -5,9 -13,14 -23,14 -12,0 -19,-9 -19,-27 0,-10 2,-16 5,-21 4,-4 10,-8 18,-10 4,-1 7,-2 10,-3 2,0 4,-1 6,-2 2,0 4,-1 6,-2 2,-1 4,-1 6,-2l0 16z"/>
    <path class="fil10" d="M5382 3395l-35 0 0 6 13 0 0 117 -13 0 0 6 50 0 0 -6 -15 0 0 -75c0,-13 2,-23 7,-31 5,-8 12,-12 21,-12 5,0 10,2 13,6 3,4 4,9 4,16l0 96 -16 0 0 6 50 0 0 -6 -12 0 0 -97c0,-10 -3,-17 -8,-22 -6,-5 -14,-8 -26,-8 -8,0 -15,2 -20,6 -5,4 -10,11 -13,19l0 -21z"/>
    <path class="fil10" d="M5510 3347l-34 0 0 6 12 0 0 165 -12 0 0 6 50 0 0 -6 -16 0 0 -171zm1 109l46 68 33 0 0 -6 -10 0 -51 -73 37 -44 12 0 0 -6 -37 0 0 6 16 0 -46 55z"/>
    <path class="fil10" d="M4020 3138l205 377c24,41 -1,82 -48,75 -14,-2 -109,-15 -229,-31l34 -46 162 17c14,2 20,-2 12,-16 0,0 -153,-308 -154,-312 -5,-9 -11,-6 -16,2 0,0 -150,273 -152,276 -5,11 -3,16 13,18l59 6 -34 42 -77 -12c-19,-2 -26,-15 -15,-34 8,-15 187,-342 187,-342 4,-7 7,-12 11,-18 10,-19 30,-24 42,-2z"/>
    <path class="fil11" d="M3577 3428l268 -48 -23 42 -185 31c-9,2 -8,6 -2,10 0,0 161,112 177,122 12,9 19,12 30,-1 0,0 131,-161 138,-172 10,-14 14,-19 -2,-16l-91 15 23 -42 123 -22c27,-5 39,14 25,35 -12,17 -205,277 -205,277 -13,19 -22,18 -37,5 -18,-15 -247,-205 -247,-205 -15,-12 -10,-28 8,-31z"/>
    <path class="fil10" d="M3413 3437l-1 -1c-4,-8 -11,-13 -18,-13 -1,0 -1,0 -2,0 -4,0 -8,3 -12,10 -3,6 -5,16 -5,28 0,14 2,23 5,29 4,7 7,10 15,10 8,0 13,-3 17,-11l1 -52zm-82 -36l0 117 11 0 0 6 -46 0 0 -6 13 0 0 -25c-2,2 -3,4 -5,6 -5,6 -13,8 -23,8 -5,0 -11,-1 -16,-3 -4,-2 -9,-5 -12,-9 -4,-4 -7,-9 -9,-14 -2,-5 -3,-11 -3,-18l0 -1c0,-6 1,-12 3,-17 2,-5 5,-10 9,-14 3,-4 8,-7 12,-9 5,-2 11,-3 16,-3 10,0 18,2 23,8 2,2 3,4 5,6l0 -32 -63 0 0 -6 250 0 0 6 -63 0 0 29c1,-1 2,-2 3,-3 5,-6 12,-9 22,-9 6,0 11,2 16,4 4,2 8,5 12,9 3,4 6,9 8,14 2,5 3,11 3,17 0,7 -1,13 -3,18 -2,6 -5,11 -9,14 -4,4 -13,13 -23,13 -7,0 -10,-2 -14,-4 -1,0 -2,0 -2,-1l0 -29 4 0c1,6 2,7 3,12 1,3 2,6 3,10 2,2 3,6 6,6 4,0 7,-5 9,-10 3,-6 4,-14 4,-26 0,-14 -2,-25 -6,-32 -3,-6 -8,-9 -16,-9 -8,0 -12,3 -17,10 -1,2 -2,4 -3,7l0 77 11 0 0 6 -42 0 0 -6 11 0 0 -19c-5,5 -13,8 -22,8 -6,0 -11,-1 -16,-3 -5,-3 -9,-6 -12,-10 -4,-3 -6,-8 -8,-13 -2,-6 -3,-12 -3,-18 0,-6 1,-12 3,-18 2,-5 5,-10 9,-14 3,-4 8,-7 13,-9 5,-2 11,-3 17,-3 8,0 14,3 18,8l1 -26 -82 0zm-24 82l-43 -34c0,5 -1,9 -1,15 0,13 2,23 6,29 4,7 10,9 16,9 8,0 14,-4 19,-12 1,-1 2,-3 3,-5 0,-1 0,-1 0,-2zm-41 -41l43 33 0 -24c-1,-4 -2,-7 -2,-8 -1,-3 -2,-5 -3,-7 -5,-7 -11,-12 -17,-12 -8,0 -14,4 -18,10 -1,2 -2,5 -3,8zm-332 -12l-1 0 -1 0 -2 0c-3,0 -6,1 -8,3 -3,2 -5,4 -6,8 -1,2 -1,5 -2,8 0,3 0,7 0,12 0,6 0,12 1,15 0,4 1,6 3,9 1,2 2,3 4,4 2,2 5,2 7,2 3,0 6,0 8,-2 2,-1 4,-3 5,-5 1,-3 2,-6 3,-10 0,-4 1,-9 1,-15 0,-5 -1,-10 -1,-13 -1,-4 -1,-7 -3,-9 -1,-2 -3,-4 -5,-5 -1,-1 -2,-1 -3,-2zm-145 7l-1 -1c-4,-8 -11,-13 -17,-13 -1,0 -2,0 -2,0 -5,0 -8,3 -12,10 -4,6 -5,16 -5,28 0,14 1,23 5,29 4,7 7,10 15,10 7,0 12,-3 17,-11l0 -52zm0 -42l21 0 376 0 0 6 -17 0 0 117 12 0 0 6 -45 0 0 -6 11 0 0 -117 -14 0 -32 1c10,1 28,4 28,23 0,8 -3,15 -7,19 -4,4 -13,9 -21,9l-24 0 0 47c0,14 2,19 13,19 4,0 8,-1 10,-2 2,-2 5,-5 7,-9 1,-3 2,-5 3,-9 1,-3 3,-7 4,-11l5 0 0 29c-9,5 -20,8 -31,8 -10,0 -19,-3 -24,-8 -5,-5 -9,-12 -9,-22l0 -42 -17 0 0 -7 6 0 43 0c13,0 17,-13 17,-21 0,-7 -2,-19 -11,-23 -2,0 -4,0 -6,-1l-18 0 -12 0 -42 0 0 117 11 0 0 6 -44 0 0 -6 11 0 0 -87 -43 0c3,2 6,2 8,4 4,3 6,6 8,10 2,4 3,9 3,14 0,5 -1,10 -3,15 -2,5 -5,9 -8,12 -3,3 -8,6 -12,8 -5,2 -10,3 -16,3 -5,0 -10,-1 -15,-3 -5,-2 -10,-5 -13,-8 -3,-4 -6,-7 -8,-11 -1,-4 -2,-9 -2,-14 0,-6 1,-10 3,-15 2,-4 5,-8 8,-11 4,-3 8,-6 13,-7 4,-2 10,-3 15,-3l1 0 61 0 0 -24 -183 0 0 29c1,-1 2,-2 3,-3 5,-6 12,-9 22,-9 5,0 10,2 15,4 5,2 9,5 12,9 4,4 7,9 9,14 1,5 2,11 2,17 0,7 -1,13 -3,18 -2,6 -5,11 -8,14 -4,4 -13,13 -24,13 -6,0 -9,-2 -14,-4 0,0 -1,0 -2,-1l0 -29 5 0c1,6 1,7 3,12 1,3 2,6 3,10 1,2 3,6 6,6 3,0 6,-5 9,-10 2,-6 3,-14 3,-26 0,-14 -1,-25 -5,-32 -4,-6 -9,-9 -17,-9 -7,0 -12,3 -16,10 -1,2 -2,4 -3,7l0 77 11 0 0 6 -43 0 0 -6 11 0 0 -19c-5,5 -12,8 -22,8 -5,0 -11,-1 -15,-3 -5,-3 -9,-6 -13,-10 -3,-3 -6,-8 -8,-13 -2,-6 -3,-12 -3,-18 0,-6 1,-12 3,-18 3,-5 5,-10 9,-14 4,-4 8,-7 14,-9 5,-2 10,-3 16,-3 9,0 14,3 19,8l0 -26 -54 0 0 -6 54 0z"/>
    <path class="fil10" d="M2778 3379c-6,-3 -11,-7 -15,-12 -5,-5 -8,-11 -11,-18 -1,-3 -2,-5 -2,-8l-10 0 0 -5 43 0 0 5 -11 0c2,25 12,38 26,38l5 0c14,0 23,-13 25,-38l-10 0 0 -5 42 0 0 5 -9 0c-1,3 -2,5 -3,8 -2,7 -6,13 -10,18 -5,5 -10,9 -16,12 -6,3 -15,5 -22,5 -7,0 -16,-2 -22,-5z"/>
    <path class="fil10" d="M3301 3379c-6,-3 -11,-7 -16,-12 -4,-5 -8,-11 -10,-18 -1,-3 -2,-5 -2,-8l-10 0 0 -5 43 0 0 5 -11 0c2,25 11,38 25,38l5 0c14,0 24,-13 26,-38l-10 0 0 -5 42 0 0 5 -10 0c0,3 -1,5 -2,8 -3,7 -6,13 -10,18 -5,5 -10,9 -16,12 -6,3 -16,5 -22,5 -7,0 -16,-2 -22,-5z"/>
    <path class="fil10" d="M3323 3343c-3,0 -6,2 -9,4 -2,2 -3,5 -3,8 0,4 1,7 4,9 2,2 5,4 8,4 4,0 6,-1 9,-4 2,-2 3,-5 3,-8 0,-4 -1,-7 -4,-9 -2,-2 -5,-4 -8,-4z"/>
    <path class="fil12" d="M4838 3684l0 67 -11 0 0 -67 -23 0 0 -9 58 0 0 9 -24 0zm16 39c0,-9 2,-16 6,-21 5,-5 11,-8 18,-8 8,0 14,3 19,8 4,5 6,12 6,21 0,9 -2,16 -6,21 -5,5 -11,8 -19,8 -7,0 -13,-3 -18,-8 -4,-5 -6,-12 -6,-21zm10 0c0,14 5,21 14,21 5,0 9,-2 11,-6 3,-4 4,-9 4,-15 0,-14 -5,-21 -15,-21 -4,0 -8,2 -10,6 -3,3 -4,8 -4,15zm47 43l6 -8c5,4 11,6 15,6 5,0 8,-1 11,-3 2,-1 4,-3 4,-5 0,-5 -4,-7 -10,-7 -1,0 -3,0 -6,1 -3,0 -5,1 -7,1 -7,0 -11,-3 -11,-9 0,-2 1,-4 2,-5 2,-2 4,-3 7,-3 -8,-4 -11,-10 -11,-19 0,-6 2,-11 6,-15 4,-4 8,-6 14,-6 6,0 10,1 13,4l5 -6 6 6 -6 4c3,3 4,8 4,13 0,6 -2,10 -5,14 -4,4 -8,6 -14,7l-8 0c-1,1 -2,1 -4,2 -1,0 -2,1 -2,2 0,1 2,2 5,2 2,0 4,0 7,-1 3,0 5,0 7,0 5,0 9,1 12,3 3,3 5,7 5,11 0,5 -2,9 -7,13 -4,3 -10,4 -17,4 -3,0 -7,0 -11,-2 -4,-1 -7,-2 -10,-4zm21 -64c-3,0 -6,1 -8,4 -2,2 -3,5 -3,9 0,3 1,7 3,9 2,3 4,4 8,4 3,0 6,-1 8,-4 2,-2 3,-5 3,-9 0,-4 -1,-7 -3,-9 -2,-3 -5,-4 -8,-4zm80 22l-39 0c0,6 1,11 5,15 3,3 7,4 12,4 5,0 10,-1 14,-5l4 8c-2,1 -4,2 -7,3 -4,2 -8,3 -13,3 -7,0 -13,-3 -18,-7 -5,-6 -8,-13 -8,-21 0,-10 3,-17 9,-22 4,-5 10,-8 17,-8 8,0 14,2 18,7 5,4 7,10 7,17 0,2 0,4 -1,6zm-24 -21c-4,0 -8,1 -10,4 -3,2 -5,6 -5,10l30 0c0,-4 -1,-7 -4,-10 -2,-3 -6,-4 -11,-4zm38 0l-6 0 0 -8 6 0 0 -11 10 -4 0 15 15 0 0 8 -15 0 0 28c0,4 1,7 3,9 1,2 4,3 7,3 2,0 5,0 8,-2l1 9c-4,1 -8,2 -13,2 -4,0 -8,-2 -11,-5 -3,-4 -5,-8 -5,-13l0 -31zm72 48l0 -35c0,-4 -1,-8 -3,-10 -2,-2 -5,-3 -8,-3 -3,0 -5,0 -7,2 -3,1 -5,3 -6,5l0 41 -10 0 0 -78 10 0 0 28c1,-2 4,-3 6,-5 3,-1 6,-2 9,-2 6,0 11,2 14,6 3,4 5,9 5,16l0 35 -10 0zm70 -27l-40 0c0,6 2,11 6,15 3,3 7,4 12,4 5,0 10,-1 13,-5l5 8c-2,1 -4,2 -7,3 -4,2 -9,3 -13,3 -7,0 -13,-3 -18,-7 -5,-6 -8,-13 -8,-21 0,-10 3,-17 8,-22 5,-5 11,-8 18,-8 8,0 14,2 18,7 4,4 7,10 7,17 0,2 -1,4 -1,6zm-24 -21c-4,0 -8,1 -11,4 -2,2 -4,6 -4,10l30 0c0,-4 -1,-7 -4,-10 -3,-3 -6,-4 -11,-4zm64 2c-2,-2 -4,-2 -6,-2 -3,0 -6,1 -9,4 -3,4 -4,7 -4,12l0 32 -10 0 0 -56 10 0 0 9c4,-6 9,-10 16,-10 2,0 4,1 7,1l-4 10zm101 47l-3 0 -18 -53 -16 53 -4 0 -23 -77 10 0 15 53 17 -53 3 0 17 53 15 -53 11 0 -24 77zm72 -28l-39 0c0,6 2,11 5,15 3,3 7,4 12,4 6,0 10,-1 14,-5l4 8c-1,1 -4,2 -7,3 -4,2 -8,3 -13,3 -7,0 -12,-3 -17,-7 -6,-6 -8,-13 -8,-21 0,-10 2,-17 8,-22 5,-5 11,-8 17,-8 8,0 14,2 19,7 4,4 6,10 6,17 0,2 0,4 -1,6zm-23 -21c-5,0 -8,1 -11,4 -3,2 -4,6 -5,10l30 0c0,-4 -1,-7 -3,-10 -3,-3 -7,-4 -11,-4zm114 -25l-3 9c-3,-3 -8,-4 -15,-4 -7,0 -12,3 -16,9 -4,5 -6,13 -6,22 0,8 2,15 6,21 4,5 9,8 16,8 7,0 12,-3 16,-8l6 8c-6,6 -14,9 -23,9 -10,0 -18,-4 -23,-11 -6,-7 -9,-16 -9,-28 0,-11 3,-21 9,-28 6,-8 14,-11 23,-11 8,0 15,1 19,4zm45 66c-3,5 -9,8 -17,8 -5,0 -8,-2 -12,-5 -3,-3 -4,-7 -4,-12 0,-5 2,-10 7,-14 5,-4 11,-6 19,-6 2,0 4,1 6,1 0,-8 -3,-13 -11,-13 -6,0 -11,2 -14,5l-4 -8c1,-2 4,-3 7,-4 3,-1 7,-2 9,-2 8,0 14,2 18,6 3,3 5,9 5,17l0 20c0,5 2,8 4,10l0 5c-3,0 -6,-1 -8,-2 -2,-1 -4,-3 -5,-6zm-1 -21c-3,0 -5,-1 -6,-1 -5,0 -9,2 -12,4 -3,3 -5,6 -5,9 0,6 4,9 10,9 5,0 10,-2 13,-7l0 -14zm59 28l0 -33c0,-5 -1,-10 -3,-12 -1,-2 -4,-3 -8,-3 -3,0 -5,0 -7,2 -3,1 -5,3 -6,5l0 41 -10 0 0 -56 7 0 3 7c3,-5 9,-8 16,-8 12,0 18,8 18,22l0 35 -10 0z"/>
    <path class="fil12" d="M4586 3621c0,0 0,1 0,1 0,1 0,1 0,1 0,0 -1,0 -1,0 0,0 -1,0 -2,0 -1,0 -1,0 -2,0 0,0 0,0 -1,0 0,0 0,0 0,0 0,0 0,-1 0,-1l-4 -11 -19 0 -4 11c0,0 0,0 0,1 0,0 -1,0 -1,0 0,0 0,0 -1,0 0,0 -1,0 -1,0 -1,0 -2,0 -2,0 0,0 -1,0 -1,0 0,0 0,-1 0,-1 0,0 0,-1 0,-1l15 -43c1,0 1,0 1,0 0,0 0,-1 0,-1 1,0 1,0 2,0 0,0 1,0 1,0 1,0 2,0 2,0 1,0 1,0 1,0 1,0 1,1 1,1 0,0 0,0 1,0l15 43zm916 1c0,0 0,1 0,1 0,0 0,0 0,0 0,0 -1,0 -1,0 -1,0 -1,0 -2,0 0,0 -1,0 -1,0 -1,0 -1,0 -1,0 -1,0 -1,0 -1,0 0,0 0,-1 0,-1l-14 -17 0 17c0,0 0,1 0,1 0,0 0,0 0,0 -1,0 -1,0 -1,0 -1,0 -1,0 -2,0 0,0 -1,0 -1,0 -1,0 -1,0 -1,0 0,0 0,0 -1,0 0,0 0,-1 0,-1l0 -47c0,0 0,0 0,0 1,-1 1,-1 1,-1 0,0 0,0 1,0 0,0 1,0 1,0 1,0 1,0 2,0 0,0 0,0 1,0 0,0 0,0 0,1 0,0 0,0 0,0l0 29 12 -13c0,-1 1,-1 1,-1 0,0 0,0 1,0 0,-1 0,-1 1,-1 0,0 0,0 1,0 1,0 1,0 1,0 1,0 1,0 1,1 1,0 1,0 1,0 0,0 0,0 0,0 0,1 0,1 0,1 0,0 0,1 -1,1l-11 12 13 17c0,0 0,0 0,1 0,0 0,0 0,0zm13 0c0,0 0,1 0,1 0,0 0,0 -1,0 0,0 0,0 0,0 -1,0 -1,0 -2,0 0,0 -1,0 -1,0 -1,0 -1,0 -1,0 0,0 -1,0 -1,0 0,0 0,-1 0,-1l0 -32c0,0 0,0 0,0 0,0 1,0 1,0 0,-1 0,-1 1,-1 0,0 1,0 1,0 1,0 1,0 2,0 0,0 0,0 0,1 1,0 1,0 1,0 0,0 0,0 0,0l0 32zm1 -42c0,1 -1,2 -1,2 -1,1 -2,1 -3,1 -1,0 -2,0 -3,-1 0,0 -1,-1 -1,-2 0,-2 1,-3 1,-3 1,-1 2,-1 3,-1 2,0 2,0 3,1 0,0 1,1 1,3zm37 42c0,0 0,1 0,1 0,0 0,0 0,0 -1,0 -1,0 -1,0 -1,0 -1,0 -2,0 0,0 -1,0 -1,0 -1,0 -1,0 -1,0 0,0 0,0 -1,0 0,0 0,-1 0,-1l0 -18c0,-2 0,-4 0,-5 0,-1 -1,-2 -1,-3 -1,0 -2,-1 -2,-2 -1,0 -2,0 -3,0 -2,0 -3,0 -5,1 -1,1 -3,3 -4,5l0 22c0,0 0,1 0,1 -1,0 -1,0 -1,0 0,0 0,0 -1,0 0,0 -1,0 -1,0 -1,0 -1,0 -2,0 0,0 0,0 -1,0 0,0 0,0 0,0 0,0 0,-1 0,-1l0 -32c0,0 0,0 0,0 0,0 0,0 0,0 1,-1 1,-1 1,-1 1,0 1,0 2,0 0,0 0,0 1,0 0,0 0,0 1,1 0,0 0,0 0,0 0,0 0,0 0,0l0 5c2,-2 4,-4 5,-5 2,-1 4,-1 6,-1 2,0 4,0 5,1 2,1 3,2 4,3 1,1 1,2 2,4 0,2 0,4 0,6l0 19zm37 -30c0,1 0,1 0,2 0,0 0,0 -1,0l-4 0c0,1 1,2 1,3 1,1 1,2 1,3 0,2 0,4 -1,5 -1,1 -1,3 -3,4 -1,1 -2,1 -3,2 -2,0 -4,1 -5,1 -2,0 -3,-1 -4,-1 -1,0 -2,-1 -3,-1 0,0 -1,1 -1,1 0,1 0,2 0,2 0,1 0,2 1,2 1,1 2,1 3,1l8 1c2,0 3,0 5,0 1,1 2,1 3,2 1,1 2,1 2,2 1,2 1,3 1,4 0,2 0,3 -1,4 0,2 -1,3 -3,4 -1,1 -3,2 -4,2 -2,1 -5,1 -7,1 -3,0 -5,0 -7,-1 -2,0 -3,-1 -4,-1 -2,-1 -2,-2 -3,-3 0,-1 -1,-2 -1,-4 0,0 0,-1 1,-2 0,-1 0,-1 0,-2 1,-1 1,-1 2,-2 0,0 1,-1 2,-2 -1,0 -2,-1 -3,-2 0,-1 0,-2 0,-3 0,-1 0,-2 0,-4 1,-1 2,-2 3,-3 -1,0 -2,-1 -2,-3 -1,-1 -1,-2 -1,-4 0,-1 1,-3 1,-4 1,-2 2,-3 3,-4 1,-1 2,-2 4,-2 1,-1 3,-1 5,-1 1,0 1,0 2,0 1,0 2,0 3,1l9 0c1,0 1,0 1,0 0,0 0,1 0,2zm-9 8c0,-2 0,-4 -1,-5 -2,-1 -3,-2 -6,-2 -1,0 -2,1 -2,1 -1,0 -2,1 -3,1 0,1 -1,2 -1,3 0,1 0,2 0,2 0,3 0,4 2,5 1,2 2,2 5,2 1,0 2,0 3,0 0,-1 1,-1 2,-2 0,-1 1,-1 1,-2 0,-1 0,-2 0,-3zm3 25c0,-1 0,-2 -1,-3 -2,0 -3,-1 -5,-1l-8 0c-1,0 -2,1 -2,1 -1,1 -1,1 -1,2 0,0 -1,1 -1,1 0,1 0,1 0,2 0,1 1,3 2,3 2,1 4,2 7,2 2,0 3,-1 4,-1 1,0 2,-1 3,-1 1,-1 1,-2 2,-2 0,-1 0,-2 0,-3zm-532 -48c0,1 -1,1 -1,1 0,1 0,1 0,1 0,0 0,0 0,0 0,0 0,0 0,0 0,0 -1,0 -1,0 0,0 0,0 -1,0 0,0 -1,0 -1,0 -1,-1 -1,-1 -2,-1 -1,0 -1,1 -2,1 -1,0 -1,1 -1,1 -1,1 -1,2 -1,3 0,0 -1,2 -1,3l0 4 8 0c0,0 0,0 0,0 0,0 0,0 0,0 0,0 1,1 1,1 0,0 0,0 0,1 0,1 0,1 -1,2 0,0 0,0 0,0l-8 0 0 28c0,0 0,1 0,1 0,0 0,0 0,0 0,0 -1,0 -1,0 0,0 -1,0 -1,0 -1,0 -2,0 -2,0 0,0 -1,0 -1,0 0,0 0,0 0,0 0,0 0,-1 0,-1l0 -28 -5 0c0,0 -1,0 -1,0 0,-1 0,-1 0,-2 0,-1 0,-1 0,-1 0,0 0,-1 0,-1 0,0 0,0 1,0 0,0 0,0 0,0l5 0 0 -4c0,-2 0,-4 0,-6 1,-1 1,-2 2,-3 1,-1 2,-2 3,-3 2,0 3,0 5,0 1,0 1,0 2,0 1,0 2,0 2,0 0,0 1,1 1,1 0,0 0,0 0,0 0,1 0,1 0,1 0,0 1,1 1,1zm27 45c0,0 0,1 0,1 0,0 0,0 0,0 -1,0 -1,0 -1,0 -1,0 -1,0 -2,0 0,0 -1,0 -1,0 -1,0 -1,0 -1,0 0,0 -1,0 -1,0 0,0 0,-1 0,-1l0 -44c0,0 0,0 0,0 0,0 1,0 1,-1 0,0 0,0 1,0 0,0 1,0 1,0 1,0 1,0 2,0 0,0 0,0 1,0 0,1 0,1 0,1 0,0 0,0 0,0l0 44zm39 0c0,0 0,1 0,1 0,0 0,0 0,0 -1,0 -1,0 -1,0 -1,0 -1,0 -2,0 0,0 -1,0 -1,0 -1,0 -1,0 -1,0 0,0 0,0 -1,0 0,0 0,-1 0,-1l0 -18c0,-2 0,-4 0,-5 0,-1 -1,-2 -1,-3 -1,0 -2,-1 -2,-2 -1,0 -2,0 -3,0 -2,0 -3,0 -5,1 -1,1 -3,3 -4,5l0 22c0,0 0,1 -1,1 0,0 0,0 0,0 0,0 0,0 -1,0 0,0 -1,0 -1,0 -1,0 -1,0 -2,0 0,0 0,0 -1,0 0,0 0,0 0,0 0,0 0,-1 0,-1l0 -32c0,0 0,0 0,0 0,0 0,0 0,0 1,-1 1,-1 1,-1 0,0 1,0 1,0 1,0 1,0 2,0 0,0 0,0 1,1 0,0 0,0 0,0 0,0 0,0 0,0l0 5c2,-2 4,-4 5,-5 2,-1 4,-1 6,-1 2,0 4,0 5,1 2,1 3,2 4,3 1,1 1,2 2,4 0,2 0,4 0,6l0 19zm38 0c0,0 0,1 0,1 0,0 0,0 -1,0 0,0 0,0 0,0 -1,0 -1,0 -2,0 0,0 0,0 -1,0 0,0 0,0 -1,0 0,0 0,0 0,0 0,0 0,-1 0,-1l0 -4c-2,2 -4,3 -5,4 -2,1 -4,2 -6,2 -3,0 -5,-1 -6,-2 -2,-1 -3,-2 -4,-3 -1,-2 -2,-4 -3,-6 0,-2 0,-4 0,-6 0,-3 0,-6 1,-8 0,-2 1,-4 2,-5 1,-2 3,-3 5,-4 1,-1 3,-1 5,-1 2,0 4,0 6,1 1,1 3,2 4,4l0 -19c0,0 0,0 0,0 0,0 1,-1 1,-1 0,0 0,0 1,0 0,0 0,0 1,0 1,0 1,0 1,0 1,0 1,0 1,0 1,0 1,1 1,1 0,0 0,0 0,0l0 47zm-6 -22c-1,-2 -3,-4 -4,-5 -2,-1 -3,-1 -5,-1 -1,0 -3,0 -4,1 -1,1 -2,1 -2,3 -1,1 -1,2 -2,4 0,1 0,3 0,4 0,2 0,3 0,5 0,1 1,3 1,4 1,1 2,2 3,3 1,0 2,1 4,1 1,0 1,0 2,-1 1,0 1,0 2,-1 1,0 2,-1 3,-2 0,0 1,-1 2,-2l0 -13zm23 22c0,0 0,1 0,1 -1,0 -1,0 -1,0 0,0 0,0 -1,0 0,0 -1,0 -1,0 -1,0 -1,0 -2,0 0,0 0,0 -1,0 0,0 0,0 0,0 0,0 0,-1 0,-1l0 -32c0,0 0,0 0,0 0,0 0,0 0,0 1,-1 1,-1 1,-1 1,0 1,0 2,0 0,0 1,0 1,0 1,0 1,0 1,1 0,0 0,0 1,0 0,0 0,0 0,0l0 32zm0 -42c0,1 0,2 0,2 -1,1 -2,1 -3,1 -2,0 -3,0 -3,-1 -1,0 -1,-1 -1,-2 0,-2 0,-3 1,-3 0,-1 1,-1 3,-1 1,0 2,0 3,1 0,0 0,1 0,3zm34 42c0,1 0,1 0,1 0,0 0,0 -1,0 0,0 0,0 -1,0 -1,0 -1,0 -2,0 0,0 0,0 0,0 -1,0 -1,0 -1,-1l0 -3c-1,2 -3,3 -4,4 -2,0 -4,1 -6,1 -1,0 -3,0 -4,-1 -2,0 -3,-1 -4,-2 -1,-1 -1,-2 -2,-3 0,-1 -1,-2 -1,-4 0,-2 1,-3 1,-5 1,-1 2,-2 4,-3 1,-1 3,-1 5,-2 2,0 4,-1 6,-1l5 0 0 -2c0,-1 -1,-2 -1,-3 0,-1 0,-2 -1,-3 -1,0 -1,-1 -2,-1 -1,0 -2,-1 -4,-1 -1,0 -2,1 -4,1 -1,0 -2,1 -3,1 0,1 -1,1 -2,1 0,1 -1,1 -1,1 0,0 0,0 0,0 -1,0 -1,-1 -1,-1 0,0 0,0 0,0 0,-1 0,-1 0,-1 0,-1 0,-1 0,-2 0,0 0,0 1,-1 0,0 0,0 1,-1 1,0 2,-1 3,-1 1,0 2,-1 3,-1 1,0 3,0 4,0 2,0 4,0 6,1 1,0 3,1 4,2 1,1 1,2 2,4 0,1 0,3 0,5l0 21zm-5 -14l-5 0c-2,0 -3,0 -5,0 -1,0 -2,1 -2,1 -1,1 -2,1 -2,2 -1,1 -1,2 -1,3 0,1 1,3 2,4 1,1 2,1 4,1 2,0 3,0 4,-1 2,-1 3,-2 5,-4l0 -6zm68 -2c0,3 -1,5 -2,8 -1,2 -2,4 -3,5 -2,2 -4,3 -6,4 -2,0 -4,1 -7,1 -3,0 -5,-1 -7,-1 -2,-1 -4,-2 -5,-4 -2,-1 -3,-3 -4,-5 -1,-2 -1,-5 -1,-7l0 -29c0,0 0,0 0,0 0,0 0,0 1,-1 0,0 0,0 1,0 0,0 0,0 1,0 1,0 1,0 2,0 0,0 0,0 1,0 0,1 0,1 0,1 0,0 0,0 0,0l0 28c0,2 0,4 1,5 0,2 1,3 2,4 1,1 2,2 4,3 1,0 3,1 4,1 2,0 4,-1 5,-1 1,-1 3,-2 3,-3 1,-1 2,-2 3,-3 0,-2 0,-4 0,-6l0 -28c0,0 0,0 1,0 0,0 0,0 0,-1 0,0 1,0 1,0 0,0 1,0 2,0 0,0 1,0 1,0 0,0 1,0 1,0 0,1 0,1 0,1 0,0 1,0 1,0l0 28zm38 16c0,0 0,1 0,1 0,0 0,0 0,0 -1,0 -1,0 -1,0 -1,0 -1,0 -2,0 0,0 -1,0 -1,0 0,0 -1,0 -1,0 0,0 0,0 0,0 -1,0 -1,-1 -1,-1l0 -18c0,-2 0,-4 0,-5 0,-1 -1,-2 -1,-3 -1,0 -1,-1 -2,-2 -1,0 -2,0 -3,0 -2,0 -3,0 -5,1 -1,1 -3,3 -4,5l0 22c0,0 0,1 0,1 0,0 -1,0 -1,0 0,0 0,0 -1,0 0,0 -1,0 -1,0 -1,0 -1,0 -2,0 0,0 0,0 0,0 -1,0 -1,0 -1,0 0,0 0,-1 0,-1l0 -32c0,0 0,0 0,0 0,0 0,0 0,0 1,-1 1,-1 1,-1 1,0 1,0 2,0 0,0 1,0 1,0 0,0 1,0 1,1 0,0 0,0 0,0 0,0 0,0 0,0l0 5c2,-2 4,-4 6,-5 1,-1 3,-1 5,-1 2,0 4,0 5,1 2,1 3,2 4,3 1,1 1,2 2,4 0,2 0,4 0,6l0 19zm38 0c0,0 0,1 0,1 0,0 0,0 0,0 -1,0 -1,0 -1,0 0,0 -1,0 -1,0 -1,0 -1,0 -2,0 0,0 0,0 0,0 -1,0 -1,0 -1,0 0,0 0,-1 0,-1l0 -4c-2,2 -3,3 -5,4 -2,1 -4,2 -6,2 -2,0 -4,-1 -6,-2 -2,-1 -3,-2 -4,-3 -1,-2 -2,-4 -2,-6 -1,-2 -1,-4 -1,-6 0,-3 0,-6 1,-8 0,-2 1,-4 2,-5 2,-2 3,-3 5,-4 1,-1 3,-1 6,-1 2,0 3,0 5,1 1,1 3,2 4,4l0 -19c0,0 0,0 0,0 1,0 1,-1 1,-1 0,0 0,0 1,0 0,0 1,0 1,0 1,0 1,0 2,0 0,0 0,0 1,0 0,0 0,1 0,1 0,0 0,0 0,0l0 47zm-6 -22c-1,-2 -3,-4 -4,-5 -2,-1 -3,-1 -5,-1 -1,0 -3,0 -4,1 -1,1 -1,1 -2,3 -1,1 -1,2 -2,4 0,1 0,3 0,4 0,2 0,3 0,5 1,1 1,3 2,4 0,1 1,2 2,3 1,0 2,1 4,1 1,0 1,0 2,-1 1,0 2,0 2,-1 1,0 2,-1 3,-2 1,0 1,-1 2,-2l0 -13zm44 5c0,1 0,1 -1,2 0,0 -1,0 -1,0l-21 0c0,2 0,4 0,5 1,2 1,3 2,4 1,1 2,2 3,2 2,1 3,1 5,1 2,0 3,0 4,0 1,-1 3,-1 3,-1 1,0 2,-1 2,-1 1,0 1,0 2,0 0,0 0,0 0,0 0,0 0,0 0,0 1,0 1,1 1,1 0,0 0,0 0,1 0,0 0,0 0,1 0,0 0,0 0,0 0,0 -1,1 -1,1 0,0 0,0 0,0 0,0 0,1 -1,1 -1,0 -2,0 -3,1 -1,0 -2,0 -3,0 -1,1 -3,1 -4,1 -3,0 -5,-1 -7,-1 -2,-1 -4,-2 -5,-4 -1,-1 -2,-3 -3,-5 -1,-2 -1,-5 -1,-8 0,-2 0,-5 1,-7 1,-2 2,-4 3,-5 1,-2 3,-3 5,-4 2,-1 4,-1 6,-1 3,0 5,0 6,1 2,1 4,2 5,3 1,2 2,3 2,5 1,2 1,4 1,6l0 1zm-6 -2c0,-3 0,-5 -2,-7 -1,-2 -3,-3 -6,-3 -2,0 -3,1 -4,1 -1,1 -2,1 -3,2 0,1 -1,2 -1,3 -1,2 -1,3 -1,4l17 0zm34 -11c0,1 0,1 0,2 0,0 0,0 -1,1 0,0 0,0 0,0 0,0 0,0 0,0 0,0 -1,0 -1,0 0,0 -1,0 -1,0 0,0 -1,0 -1,-1 0,0 -1,0 -1,0 -1,0 -2,0 -2,1 -1,0 -1,0 -2,1 -1,0 -1,1 -2,2 -1,1 -1,2 -2,3l0 21c0,0 0,1 0,1 0,0 -1,0 -1,0 0,0 0,0 -1,0 0,0 0,0 -1,0 -1,0 -1,0 -1,0 -1,0 -1,0 -1,0 -1,0 -1,0 -1,0 0,0 0,-1 0,-1l0 -32c0,0 0,0 0,0 0,0 0,0 1,0 0,-1 0,-1 0,-1 1,0 1,0 2,0 0,0 1,0 1,0 0,0 1,0 1,1 0,0 0,0 0,0 0,0 0,0 0,0l0 5c1,-1 2,-2 3,-3 1,-1 1,-2 2,-2 1,0 1,-1 2,-1 1,0 1,0 2,0 0,0 1,0 1,0 0,0 1,0 1,0 1,0 1,0 1,0 1,0 1,1 1,1 0,0 0,0 0,0 0,0 1,0 1,0 0,1 0,1 0,1 0,0 0,1 0,1zm23 28c0,1 0,1 0,1 0,1 -1,1 -1,1 0,1 0,1 -1,1 0,0 0,0 -1,0 0,0 -1,1 -1,1 -1,0 -2,0 -2,0 -2,0 -3,-1 -4,-1 -1,0 -2,-1 -3,-2 -1,-1 -2,-2 -2,-3 0,-2 0,-3 0,-5l0 -19 -5 0c0,0 0,0 -1,0 0,-1 0,-1 0,-2 0,-1 0,-1 0,-1 0,0 0,-1 0,-1 0,0 1,0 1,0 0,0 0,0 0,0l5 0 0 -8c0,0 0,0 0,-1 0,0 0,0 0,0 0,0 1,0 1,0 1,0 1,0 2,0 0,0 1,0 1,0 0,0 1,0 1,0 0,0 0,0 0,0 0,1 0,1 0,1l0 8 9 0c0,0 0,0 0,0 0,0 0,0 0,0 1,0 1,1 1,1 0,0 0,0 0,1 0,1 0,1 -1,2 0,0 0,0 0,0l-9 0 0 18c0,2 1,4 1,5 1,1 2,2 4,2 0,0 1,0 1,0 1,-1 1,-1 1,-1 1,0 1,0 1,0 1,0 1,0 1,0 0,0 0,0 0,0 0,0 0,0 1,0 0,0 0,1 0,1 0,0 0,0 0,1zm31 2c0,1 -1,1 -1,1 0,0 0,0 0,0 -1,0 -1,0 -2,0 -1,0 -1,0 -1,0 -1,0 -1,0 -1,0 0,0 0,0 0,-1l0 -3c-2,2 -3,3 -5,4 -2,0 -4,1 -6,1 -1,0 -3,0 -4,-1 -1,0 -3,-1 -4,-2 0,-1 -1,-2 -2,-3 0,-1 -1,-2 -1,-4 0,-2 1,-3 2,-5 0,-1 1,-2 3,-3 1,-1 3,-1 5,-2 2,0 4,-1 6,-1l5 0 0 -2c0,-1 0,-2 -1,-3 0,-1 0,-2 -1,-3 0,0 -1,-1 -2,-1 -1,0 -2,-1 -3,-1 -2,0 -3,1 -4,1 -1,0 -2,1 -3,1 -1,1 -2,1 -3,1 0,1 -1,1 -1,1 0,0 0,0 0,0 0,0 -1,-1 -1,-1 0,0 0,0 0,0 0,-1 0,-1 0,-1 0,-1 0,-1 0,-2 0,0 0,0 1,-1 0,0 1,0 1,-1 1,0 2,-1 3,-1 1,0 2,-1 3,-1 2,0 3,0 4,0 2,0 4,0 6,1 1,0 3,1 4,2 1,1 1,2 2,4 0,1 1,3 1,5l0 21zm-6 -14l-5 0c-2,0 -3,0 -4,0 -2,0 -2,1 -3,1 -1,1 -2,1 -2,2 0,1 -1,2 -1,3 0,1 1,3 2,4 1,1 3,1 4,1 2,0 3,0 5,-1 1,-1 2,-2 4,-4l0 -6zm-894 -25l0 0 -8 23 16 0 -8 -23zm78 1c0,0 0,0 0,1 0,0 0,0 0,1 0,0 0,0 0,0 -1,0 -1,0 -1,0 0,0 -1,0 -1,0 -1,-1 -2,-1 -3,-2 -1,0 -2,-1 -4,-1 -1,-1 -3,-1 -5,-1 -3,0 -5,0 -7,1 -2,1 -4,2 -5,4 -2,2 -3,4 -4,6 0,2 -1,5 -1,7 0,3 1,6 2,8 0,2 2,4 3,6 1,1 3,2 5,3 2,1 4,1 7,1 1,0 3,0 4,0 1,0 3,-1 4,-2l0 -13 -11 0c0,0 0,0 0,-1 -1,0 -1,-1 -1,-1 0,-1 0,-1 0,-2 0,0 0,0 1,0 0,-1 0,-1 0,-1 0,0 0,0 0,0l15 0c0,0 0,0 1,0 0,0 0,0 0,1 1,0 1,0 1,0 0,1 0,1 0,2l0 17c0,1 0,1 0,2 0,0 -1,0 -2,1 0,0 -1,0 -2,1 -1,0 -2,1 -4,1 -1,0 -2,0 -3,1 -1,0 -2,0 -4,0 -3,0 -6,-1 -9,-2 -3,-1 -5,-3 -7,-5 -2,-2 -3,-4 -4,-7 -2,-3 -2,-6 -2,-9 0,-4 1,-7 2,-10 1,-3 2,-6 4,-8 2,-2 5,-3 7,-5 3,-1 6,-1 10,-1 1,0 3,0 5,0 1,0 3,1 4,1 1,1 2,1 3,2 1,0 1,0 1,1 1,0 1,0 1,1 0,0 0,1 0,2zm40 22c0,3 0,5 -1,7 0,2 -1,4 -3,6 -1,1 -3,3 -5,3 -2,1 -4,2 -7,2 -2,0 -5,-1 -7,-1 -2,-1 -3,-2 -5,-4 -1,-1 -2,-3 -2,-5 -1,-2 -1,-5 -1,-7 0,-3 0,-5 1,-8 0,-2 1,-4 3,-5 1,-2 3,-3 5,-4 2,-1 4,-1 7,-1 2,0 5,0 7,1 2,1 3,2 5,3 1,2 2,4 2,6 1,2 1,4 1,7zm-6 0c0,-1 0,-3 0,-5 0,-1 -1,-2 -2,-4 0,-1 -1,-2 -3,-2 -1,-1 -3,-1 -4,-1 -2,0 -4,0 -5,1 -1,0 -2,1 -3,2 -1,1 -1,3 -2,4 0,2 0,3 0,5 0,2 0,4 0,5 1,2 1,3 2,4 1,1 2,2 3,3 1,0 3,1 4,1 2,0 4,0 5,-1 1,-1 2,-2 3,-3 1,-1 1,-2 2,-4 0,-1 0,-3 0,-5zm41 -16c0,0 0,1 0,1 0,0 0,0 0,0 0,0 0,0 0,0 0,0 0,1 0,1l-11 30c0,0 -1,1 -1,1 0,0 0,0 0,0 -1,0 -1,0 -2,0 0,0 -1,0 -1,0 -1,0 -2,0 -2,0 -1,0 -1,0 -1,0 -1,0 -1,0 -1,0 0,-1 0,-1 0,-1l-11 -30c0,0 0,-1 0,-1 0,0 0,0 0,0 0,-1 0,-1 0,-1 0,0 0,0 0,0 0,0 0,0 0,-1 0,0 1,0 1,0 0,0 1,0 1,0 1,0 2,0 2,0 0,0 1,0 1,1 0,0 0,0 0,0 1,0 1,0 1,0l9 27 0 0 0 0 9 -27c0,0 0,0 0,0 0,0 0,0 1,0 0,-1 0,-1 1,-1 0,0 0,0 1,0 1,0 1,0 1,0 1,0 1,0 1,1 0,0 1,0 1,0 0,0 0,0 0,0zm33 15c0,1 0,1 -1,2 0,0 -1,0 -1,0l-21 0c0,2 0,4 0,5 1,2 1,3 2,4 1,1 2,2 3,2 2,1 3,1 5,1 2,0 3,0 4,0 1,-1 2,-1 3,-1 1,0 2,-1 2,-1 1,0 1,0 1,0 1,0 1,0 1,0 0,0 0,0 0,0 0,0 0,1 0,1 0,0 0,0 0,1 0,0 0,0 0,1 0,0 0,0 0,0 0,0 0,1 0,1 0,0 0,0 0,0 0,0 -1,1 -1,1 -1,0 -2,0 -3,1 -1,0 -2,0 -3,0 -2,1 -3,1 -5,1 -2,0 -4,-1 -6,-1 -2,-1 -4,-2 -5,-4 -2,-1 -3,-3 -3,-5 -1,-2 -1,-5 -1,-8 0,-2 0,-5 1,-7 0,-2 1,-4 3,-5 1,-2 3,-3 5,-4 1,-1 4,-1 6,-1 2,0 4,0 6,1 2,1 3,2 5,3 1,2 1,3 2,5 1,2 1,4 1,6l0 1zm-6 -2c0,-3 -1,-5 -2,-7 -2,-2 -4,-3 -6,-3 -2,0 -3,1 -4,1 -1,1 -2,1 -3,2 -1,1 -1,2 -2,3 0,2 0,3 0,4l17 0zm33 -11c0,1 0,1 0,2 0,0 0,0 0,1 0,0 0,0 0,0 0,0 0,0 -1,0 0,0 0,0 0,0 0,0 -1,0 -1,0 0,0 -1,0 -1,-1 -1,0 -1,0 -2,0 0,0 -1,0 -1,1 -1,0 -2,0 -2,1 -1,0 -1,1 -2,2 -1,1 -2,2 -2,3l0 21c0,0 0,1 -1,1 0,0 0,0 0,0 0,0 0,0 -1,0 0,0 -1,0 -1,0 -1,0 -1,0 -2,0 0,0 0,0 -1,0 0,0 0,0 0,0 0,0 0,-1 0,-1l0 -32c0,0 0,0 0,0 0,0 0,0 0,0 1,-1 1,-1 1,-1 0,0 1,0 1,0 1,0 1,0 2,0 0,0 0,0 1,1 0,0 0,0 0,0 0,0 0,0 0,0l0 5c1,-1 2,-2 3,-3 0,-1 1,-2 2,-2 0,0 1,-1 2,-1 0,0 1,0 2,0 0,0 0,0 1,0 0,0 1,0 1,0 0,0 1,0 1,0 0,0 1,1 1,1 0,0 0,0 0,0 0,0 0,0 0,0 0,1 0,1 0,1 0,0 0,1 0,1zm34 30c0,0 0,1 0,1 0,0 0,0 0,0 0,0 -1,0 -1,0 0,0 -1,0 -2,0 0,0 -1,0 -1,0 0,0 -1,0 -1,0 0,0 0,0 0,0 0,0 0,-1 0,-1l0 -18c0,-2 -1,-4 -1,-5 0,-1 -1,-2 -1,-3 -1,0 -1,-1 -2,-2 -1,0 -2,0 -3,0 -2,0 -3,0 -5,1 -1,1 -3,3 -4,5l0 22c0,0 0,1 0,1 0,0 -1,0 -1,0 0,0 0,0 -1,0 0,0 0,0 -1,0 -1,0 -1,0 -1,0 -1,0 -1,0 -1,0 -1,0 -1,0 -1,0 0,0 0,-1 0,-1l0 -32c0,0 0,0 0,0 0,0 0,0 1,0 0,-1 0,-1 0,-1 1,0 1,0 2,0 0,0 1,0 1,0 0,0 1,0 1,1 0,0 0,0 0,0 0,0 0,0 0,0l0 5c2,-2 4,-4 6,-5 1,-1 3,-1 5,-1 2,0 4,0 5,1 2,1 3,2 4,3 1,1 1,2 2,4 0,2 0,4 0,6l0 19zm58 0c0,0 0,1 0,1 0,0 0,0 0,0 -1,0 -1,0 -1,0 -1,0 -1,0 -2,0 0,0 -1,0 -1,0 0,0 -1,0 -1,0 0,0 0,0 0,0 -1,0 -1,-1 -1,-1l0 -19c0,-1 0,-3 0,-4 0,-1 -1,-2 -1,-3 -1,0 -1,-1 -2,-2 -1,0 -2,0 -3,0 -1,0 -3,0 -4,1 -1,1 -3,3 -4,5l0 22c0,0 0,1 -1,1 0,0 0,0 0,0 0,0 -1,0 -1,0 0,0 -1,0 -1,0 -1,0 -1,0 -2,0 0,0 0,0 -1,0 0,0 0,0 0,0 0,0 0,-1 0,-1l0 -19c0,-1 0,-3 -1,-4 0,-1 0,-2 -1,-3 0,0 -1,-1 -2,-2 -1,0 -1,0 -3,0 -1,0 -2,0 -4,1 -1,1 -2,3 -4,5l0 22c0,0 0,1 0,1 0,0 0,0 -1,0 0,0 0,0 -1,0 0,0 0,0 -1,0 -1,0 -1,0 -1,0 -1,0 -1,0 -1,0 -1,0 -1,0 -1,0 0,0 0,-1 0,-1l0 -32c0,0 0,0 0,0 0,0 0,0 1,0 0,-1 0,-1 0,-1 1,0 1,0 2,0 0,0 1,0 1,0 0,0 1,0 1,1 0,0 0,0 0,0 0,0 0,0 0,0l0 5c2,-2 4,-4 6,-5 1,-1 3,-1 5,-1 1,0 2,0 3,0 1,1 2,1 3,2 1,0 1,1 2,2 1,0 1,1 1,2 2,-1 3,-2 3,-3 1,-1 2,-1 3,-2 1,0 2,-1 3,-1 1,0 1,0 2,0 2,0 4,0 5,1 2,1 3,2 4,3 1,1 1,2 2,4 0,2 0,3 0,5l0 20zm38 -17c0,1 0,1 -1,2 0,0 -1,0 -1,0l-21 0c0,2 0,4 0,5 1,2 1,3 2,4 1,1 2,2 3,2 2,1 3,1 5,1 2,0 3,0 4,0 1,-1 2,-1 3,-1 1,0 2,-1 2,-1 1,0 1,0 2,0 0,0 0,0 0,0 0,0 0,0 0,0 0,0 0,1 1,1 0,0 0,0 0,1 0,0 0,0 0,1 0,0 -1,0 -1,0 0,0 0,1 0,1 0,0 0,0 0,0 0,0 -1,1 -1,1 -1,0 -2,0 -3,1 -1,0 -2,0 -3,0 -1,1 -3,1 -4,1 -3,0 -5,-1 -7,-1 -2,-1 -4,-2 -5,-4 -2,-1 -3,-3 -3,-5 -1,-2 -1,-5 -1,-8 0,-2 0,-5 1,-7 0,-2 1,-4 3,-5 1,-2 3,-3 5,-4 2,-1 4,-1 6,-1 2,0 5,0 6,1 2,1 4,2 5,3 1,2 2,3 2,5 1,2 1,4 1,6l0 1zm-6 -2c0,-3 -1,-5 -2,-7 -1,-2 -3,-3 -6,-3 -2,0 -3,1 -4,1 -1,1 -2,1 -3,2 -1,1 -1,2 -2,3 0,2 0,3 0,4l17 0zm42 19c0,0 0,1 0,1 0,0 0,0 0,0 -1,0 -1,0 -1,0 -1,0 -1,0 -2,0 0,0 -1,0 -1,0 0,0 -1,0 -1,0 0,0 0,0 0,0 -1,0 -1,-1 -1,-1l0 -18c0,-2 0,-4 0,-5 0,-1 -1,-2 -1,-3 -1,0 -1,-1 -2,-2 -1,0 -2,0 -3,0 -2,0 -3,0 -5,1 -1,1 -3,3 -4,5l0 22c0,0 0,1 0,1 0,0 -1,0 -1,0 0,0 0,0 -1,0 0,0 -1,0 -1,0 -1,0 -1,0 -2,0 0,0 0,0 -1,0 0,0 0,0 0,0 0,0 0,-1 0,-1l0 -32c0,0 0,0 0,0 0,0 0,0 0,0 1,-1 1,-1 1,-1 1,0 1,0 2,0 0,0 1,0 1,0 0,0 0,0 1,1 0,0 0,0 0,0 0,0 0,0 0,0l0 5c2,-2 4,-4 6,-5 1,-1 3,-1 5,-1 2,0 4,0 5,1 2,1 3,2 4,3 1,1 1,2 2,4 0,2 0,4 0,6l0 19zm27 -2c0,1 0,1 0,1 0,1 -1,1 -1,1 0,1 0,1 -1,1 0,0 0,0 -1,0 0,0 -1,1 -1,1 -1,0 -2,0 -2,0 -2,0 -3,-1 -4,-1 -1,0 -2,-1 -3,-2 -1,-1 -2,-2 -2,-3 0,-2 0,-3 0,-5l0 -19 -5 0c0,0 0,0 -1,0 0,-1 0,-1 0,-2 0,-1 0,-1 0,-1 0,0 0,-1 0,-1 0,0 1,0 1,0 0,0 0,0 0,0l5 0 0 -8c0,0 0,0 0,-1 0,0 0,0 0,0 0,0 1,0 1,0 1,0 1,0 2,0 0,0 1,0 1,0 0,0 1,0 1,0 0,0 0,0 0,0 0,1 1,1 1,1l0 8 8 0c0,0 0,0 0,0 0,0 0,0 0,0 1,0 1,1 1,1 0,0 0,0 0,1 0,1 0,1 -1,2 0,0 0,0 0,0l-8 0 0 18c0,2 0,4 0,5 1,1 2,2 4,2 0,0 1,0 1,0 1,-1 1,-1 1,-1 1,0 1,0 1,0 1,0 1,0 1,0 0,0 0,0 0,0 0,0 0,0 1,0 0,0 0,1 0,1 0,0 0,0 0,1zm53 -14c0,3 0,5 -1,7 0,2 -1,4 -3,6 -1,1 -3,3 -5,3 -2,1 -4,2 -7,2 -2,0 -5,-1 -7,-1 -2,-1 -3,-2 -5,-4 -1,-1 -2,-3 -2,-5 -1,-2 -1,-5 -1,-7 0,-3 0,-5 1,-8 0,-2 1,-4 3,-5 1,-2 3,-3 5,-4 2,-1 4,-1 7,-1 2,0 5,0 7,1 2,1 3,2 5,3 1,2 2,4 2,6 1,2 1,4 1,7zm-6 0c0,-1 0,-3 0,-5 0,-1 -1,-2 -2,-4 0,-1 -1,-2 -3,-2 -1,-1 -3,-1 -4,-1 -2,0 -4,0 -5,1 -1,0 -2,1 -3,2 -1,1 -1,3 -2,4 0,2 0,3 0,5 0,2 0,4 0,5 1,2 1,3 2,4 1,1 2,2 3,3 1,0 3,1 4,1 2,0 4,0 5,-1 1,-1 2,-2 3,-3 1,-1 1,-2 2,-4 0,-1 0,-3 0,-5z"/>
    <path class="fil12" d="M2729 3573c0,-3 1,-5 3,-7 2,-1 4,-2 7,-2 2,0 5,1 7,3 2,1 3,3 3,6l0 18 17 0 0 -18 -14 0 0 -5 28 0 0 5 -9 0 0 44 -5 0 0 -21 -17 0 0 4c0,0 -1,1 -1,1 -1,1 -1,1 -2,1 -1,0 -3,-1 -5,-4 -3,-2 -4,-4 -4,-5 0,0 0,-1 1,-1 0,-1 1,-1 1,-1l4 0 0 -18c0,-1 0,-2 -1,-3 -1,-1 -2,-1 -3,-1 -1,0 -3,0 -4,1 0,1 -1,1 -1,3 0,1 1,2 1,2 1,1 3,1 4,1l0 4c-3,0 -5,0 -7,-2 -2,-1 -3,-3 -3,-5zm49 0l0 -5 23 0 0 5 -9 0 0 44 -5 0 0 -44 -9 0zm20 0l0 -5 37 0 0 5 -8 0 0 11c0,3 -1,5 -3,7 -2,2 -4,4 -7,4 -1,0 -3,-1 -5,-1 5,7 11,14 19,20l-4 3c-11,-9 -20,-20 -26,-33l5 -2c1,2 2,4 4,5 2,2 4,3 7,3 1,0 3,-1 4,-2 1,-1 1,-3 1,-4l0 -11 -24 0zm34 0l0 -5 50 0 0 5 -9 0 0 44 -5 0 0 -30 -20 0c-2,0 -3,0 -4,1 -1,2 -2,3 -2,5 0,3 1,7 4,10 2,4 5,8 10,11l-4 3c-5,-4 -8,-8 -11,-12 -3,-4 -4,-8 -4,-12 0,-3 1,-6 3,-8 2,-2 5,-3 8,-3l20 0 0 -9 -36 0zm79 0l0 -5 57 0 0 5 -8 0 0 44 -6 0 0 -23 -14 0 -3 -5 17 0 0 -16 -18 0 0 13c0,2 -1,5 -2,6 -2,2 -4,3 -7,3 0,0 0,0 -1,0 0,0 -1,0 -1,0l16 20 -4 2 -24 -31 5 -3c1,2 2,4 3,5 2,2 3,2 5,2 1,0 3,0 4,-1 1,-1 1,-2 1,-3l0 -13 -20 0zm55 0l0 -5 36 0 0 5 -7 0 0 11c0,3 -1,5 -3,7 -2,2 -5,4 -8,4 0,0 -2,-1 -4,-1 5,7 11,14 18,20l-3 3c-11,-9 -20,-20 -26,-33l5 -2c0,2 2,4 4,5 2,2 4,3 6,3 2,0 3,-1 4,-2 2,-1 2,-3 2,-4l0 -11 -24 0zm34 0l0 -5 62 0 0 5 -28 0 0 13c2,-2 3,-3 5,-5 2,-1 4,-1 6,-1 4,0 6,1 9,4 2,2 3,5 3,9 0,3 -1,6 -2,9 -2,3 -4,6 -8,9l-4 -3c3,-2 5,-4 7,-7 1,-2 2,-5 2,-8 0,-2 -1,-4 -2,-6 -1,-1 -3,-2 -5,-2 -2,0 -4,1 -7,2 -2,2 -3,4 -4,7l0 23 -5 0 0 -15c-1,2 -3,3 -4,4 -2,0 -4,1 -6,1 -4,0 -8,-2 -10,-4 -3,-3 -5,-6 -5,-10 0,-3 2,-7 5,-9 2,-3 6,-4 10,-4 2,0 4,0 6,1l-1 5c-2,-1 -3,-1 -5,-1 -3,0 -5,1 -7,2 -2,2 -3,4 -2,6 0,3 0,5 2,6 2,2 4,3 7,3 2,0 4,-1 6,-2 2,-1 3,-3 4,-5l0 -22 -29 0zm60 0l0 -5 23 0 0 5 -9 0 0 44 -5 0 0 -44 -9 0zm21 0l0 -5 36 0 0 5 -7 0 0 11c0,3 -2,5 -4,7 -2,2 -4,4 -7,4 -1,0 -3,-1 -4,-1 4,7 10,14 18,20l-3 3c-12,-9 -21,-20 -27,-33l5 -2c1,2 2,4 4,5 2,2 4,3 7,3 1,0 3,-1 4,-2 1,-1 1,-3 1,-4l0 -11 -23 0zm34 0l0 -5 51 0 0 5 -9 0 0 44 -5 0 0 -15c-1,2 -3,4 -6,5 -2,1 -4,1 -6,1 -4,0 -7,-1 -10,-3 -3,-3 -4,-5 -4,-9 0,-2 0,-4 1,-6 2,-2 3,-3 5,-4l-15 0 0 -5 30 0 0 5 -7 0c-3,1 -5,2 -7,4 -1,2 -2,4 -2,6 0,2 1,4 3,5 1,2 3,2 6,2 2,0 4,0 7,-2 2,-1 4,-3 5,-6l0 -22 -37 0zm49 0l0 -5 23 0 0 5 -9 0 0 44 -5 0 0 -44 -9 0zm52 0l0 -5 40 0 0 5 -6 0 0 14c0,2 -1,5 -2,7 -1,2 -3,3 -4,3l-4 -3c2,0 3,-1 4,-2 0,-2 1,-4 1,-5l0 -14 -18 0 0 18c0,1 0,2 1,4 0,1 1,2 2,2l18 17c1,0 2,1 2,2 1,1 1,2 1,3 0,2 0,3 -1,4 -1,2 -3,3 -4,3l-4 -3c1,0 2,-1 3,-2 1,0 1,-1 1,-2 0,0 0,-1 0,-1 -1,-1 -1,-1 -2,-2l-19 -17c-1,-1 -2,-2 -2,-3 -1,-2 -1,-3 -1,-5l0 -18 -6 0zm38 0l0 -5 61 0 0 5 -27 0 0 13c1,-2 3,-3 5,-5 2,-1 4,-1 6,-1 3,0 6,1 8,4 3,2 4,5 4,9 0,3 -1,6 -3,9 -1,3 -4,6 -7,9l-5 -3c3,-2 6,-4 7,-7 2,-2 2,-5 3,-8 0,-2 -1,-4 -2,-6 -2,-1 -3,-2 -5,-2 -3,0 -5,1 -7,2 -2,2 -3,4 -4,7l0 23 -5 0 0 -15c-2,2 -3,3 -5,4 -2,0 -3,1 -6,1 -4,0 -7,-2 -10,-4 -3,-3 -4,-6 -4,-10 0,-3 1,-7 4,-9 3,-3 6,-4 10,-4 2,0 4,0 7,1l-2 5c-1,-1 -3,-1 -5,-1 -2,0 -4,1 -6,2 -2,2 -3,4 -3,6 0,3 1,5 3,6 2,2 4,3 6,3 2,0 4,-1 6,-2 2,-1 4,-3 5,-5l0 -22 -29 0zm90 0l0 -5 52 0 0 5 -11 0c2,2 3,4 3,7 0,2 -1,4 -2,6 -1,1 -2,3 -3,4 2,0 3,2 5,4 1,2 2,5 2,8 0,4 -2,7 -4,9 -3,3 -6,4 -10,4 -6,0 -11,-2 -16,-8 -5,-5 -9,-12 -13,-22l4 -2c4,9 8,16 12,20 4,5 8,8 13,8 2,0 4,-1 6,-3 2,-2 3,-4 3,-6 0,-3 -1,-5 -3,-7 -1,-2 -3,-3 -6,-3l-10 0 0 -5 9 0c2,0 4,0 5,-2 2,-1 3,-3 3,-5 0,-1 -1,-2 -2,-4 -1,-1 -2,-2 -3,-3l-34 0zm50 0l0 -5 57 0 0 5 -8 0 0 44 -6 0 0 -13c-3,3 -6,5 -10,7 -3,1 -7,2 -10,2 -4,0 -8,-1 -10,-3 -3,-2 -5,-5 -5,-8 0,-2 0,-3 1,-4 1,-1 1,-2 2,-3 -2,0 -4,-1 -5,-3 -2,-1 -2,-3 -2,-5 0,-2 1,-4 3,-6 2,-2 4,-3 7,-3l10 0 0 -5 -24 0zm23 35c3,0 7,-1 10,-3 4,-2 7,-4 10,-8l0 -24 -14 0 0 10 -15 0c-2,0 -3,1 -4,1 -1,1 -1,2 -1,3 0,1 0,2 2,3 1,1 2,1 4,2 1,-1 2,-1 3,-1 0,0 2,0 3,0l4 0 3 4 -7 0c-2,0 -4,1 -5,2 -2,1 -2,3 -3,5 0,2 1,3 3,4 2,2 4,2 7,2zm32 -35l0 -5 48 0 0 5 -9 0 0 44 -5 0 0 -21 -19 0 0 4c0,1 0,1 -1,2 0,0 0,0 -1,0 -1,0 -3,-1 -6,-3 -3,-3 -4,-4 -4,-5 0,-1 0,-2 1,-2 0,-1 1,-1 2,-1l4 0 0 -18 -10 0zm15 18l19 0 0 -18 -19 0 0 18z"/>
   </g>
   <path class="fil13" d="M3882 2995c0,7 -2,12 -4,17 -3,4 -6,8 -11,11 -4,2 -9,4 -15,4 -2,0 -4,-1 -6,-1 -2,-1 -5,-2 -7,-3l0 31 -12 0 0 -89 7 0 3 3c2,-1 5,-3 8,-3 2,-1 5,-2 7,-2 6,0 11,1 16,4 4,3 8,6 10,11 2,5 4,11 4,17zm-13 0c0,-6 -1,-12 -4,-16 -3,-4 -8,-6 -13,-6 -5,0 -9,2 -13,5l0 34c4,3 8,4 13,4 5,0 10,-2 13,-5 3,-4 4,-9 4,-16zm57 -21c-3,0 -7,1 -10,3 -4,3 -8,5 -11,8l0 40 -12 0 0 -60 7 0 3 10c3,-3 7,-5 10,-7 4,-2 8,-3 11,-3l2 9zm34 -11c9,0 15,3 20,9 4,6 6,13 6,22l0 4 -42 0c0,5 2,10 5,13 4,4 8,6 15,6 3,0 6,-1 8,-2 3,0 6,-2 10,-4l4 9c-8,4 -15,7 -22,7 -11,0 -19,-3 -24,-9 -6,-6 -9,-13 -9,-23 0,-6 1,-12 4,-17 2,-5 5,-8 10,-11 4,-3 9,-4 15,-4zm0 10c-5,0 -9,2 -11,5 -3,2 -5,6 -5,11l31 0c-2,-10 -7,-16 -15,-16zm54 54c-3,0 -6,-1 -10,-2 -4,-1 -7,-2 -10,-4l4 -8c6,3 11,4 16,4 4,0 7,-1 10,-2 2,-2 3,-3 3,-6 0,-4 -4,-7 -13,-10 -13,-5 -20,-11 -20,-18 0,-6 2,-10 6,-13 4,-3 10,-5 17,-5 3,0 6,1 10,2 4,1 7,2 9,4l-3 8c-3,-1 -6,-2 -8,-3 -3,-1 -5,-1 -8,-1 -3,0 -6,1 -8,2 -2,1 -3,3 -3,5 0,2 1,4 3,5 2,1 5,3 9,4 14,5 21,11 21,20 0,5 -2,10 -7,13 -4,3 -10,5 -18,5zm61 -64c9,0 15,3 20,9 4,6 6,13 6,22l0 4 -42 0c0,5 2,10 5,13 4,4 8,6 15,6 3,0 6,-1 8,-2 3,0 6,-2 10,-4l4 9c-7,4 -15,7 -22,7 -11,0 -19,-3 -24,-9 -6,-6 -9,-13 -9,-23 0,-6 1,-12 4,-17 2,-5 5,-8 10,-11 4,-3 9,-4 15,-4zm0 10c-5,0 -8,2 -11,5 -3,2 -4,6 -5,11l31 0c-2,-10 -7,-16 -15,-16zm69 0c-3,0 -6,1 -10,3 -3,1 -6,4 -9,6l0 43 -12 0 0 -60 8 0 2 8c3,-3 7,-6 11,-7 4,-2 8,-3 12,-3 7,0 12,2 15,6 3,4 5,9 5,16l0 40 -12 0 0 -39c0,-4 -1,-7 -3,-10 -1,-2 -4,-3 -7,-3zm51 -8l11 0 4 10 -15 0 0 31c0,4 1,6 2,8 1,2 4,3 6,3 2,0 4,-1 6,-2l3 10c-1,0 -2,1 -4,1 -2,1 -4,1 -6,1 -6,0 -10,-1 -14,-5 -3,-3 -5,-8 -5,-14l0 -33 -9 0 0 -10 9 0 0 -15 12 -2 0 17zm53 -2c8,0 15,3 19,9 5,6 7,13 7,22l0 4 -43 0c1,5 2,10 6,13 3,4 8,6 14,6 4,0 6,-1 9,-2 2,0 5,-2 10,-4l3 9c-7,4 -14,7 -22,7 -10,0 -18,-3 -24,-9 -6,-6 -8,-13 -8,-23 0,-6 1,-12 3,-17 2,-5 6,-8 10,-11 4,-3 10,-4 16,-4zm-1 10c-4,0 -8,2 -11,5 -2,2 -4,6 -5,11l31 0c-1,-10 -6,-16 -15,-16zm90 52l-7 0 -3 -5c-2,2 -5,4 -8,5 -3,1 -6,2 -8,2 -6,0 -11,-2 -16,-4 -4,-3 -8,-7 -10,-12 -2,-4 -4,-10 -4,-17 0,-6 2,-11 4,-16 3,-5 6,-8 11,-11 4,-3 9,-4 15,-4 2,0 4,0 7,1 2,1 4,2 7,3l0 -28 12 -2 0 88zm-26 -9c3,0 5,0 8,-1 2,-1 4,-2 6,-4l0 -33c-2,-2 -4,-3 -7,-4 -2,0 -4,-1 -7,-1 -5,0 -10,2 -13,6 -3,4 -4,9 -4,15 0,7 1,12 4,16 3,4 8,6 13,6zm126 -21c0,7 -1,12 -4,17 -2,4 -6,8 -10,11 -5,2 -10,4 -16,4 -2,0 -5,-1 -7,-2 -3,-1 -6,-2 -8,-4l-3 4 -6 0 0 -86 12 -2 0 30c2,-1 4,-2 6,-3 2,-1 4,-1 6,-1 6,0 11,1 16,4 4,3 8,6 10,11 3,5 4,11 4,17zm-12 0c0,-6 -2,-12 -5,-16 -3,-4 -7,-6 -13,-6 -5,0 -9,2 -12,5l0 34c3,3 7,4 12,4 6,0 10,-2 13,-5 3,-4 5,-9 5,-16zm73 -30l-22 59 0 30 -12 0 0 -29 -22 -58 11 -5 17 46 16 -43 12 0z"/>
   <path class="fil13" d="M764 3016c4,0 7,0 9,-1 3,0 5,-1 8,-3l4 9c-3,2 -6,3 -10,4 -4,1 -8,2 -11,2 -6,0 -11,-2 -16,-4 -4,-3 -8,-7 -10,-12 -3,-4 -4,-10 -4,-16 0,-6 1,-12 4,-17 2,-5 6,-8 11,-11 4,-3 10,-4 16,-4 2,0 6,1 10,2 4,1 7,2 10,4l-4 8c-3,-1 -6,-2 -8,-3 -3,0 -5,-1 -8,-1 -6,0 -10,2 -14,6 -3,4 -4,10 -5,16 0,6 2,11 5,15 3,4 8,6 13,6zm58 11c-6,0 -12,-2 -16,-4 -5,-3 -8,-7 -10,-12 -3,-4 -4,-10 -4,-16 0,-6 1,-12 4,-17 2,-5 6,-8 10,-11 5,-3 10,-4 16,-4 6,0 12,1 16,4 5,3 8,6 11,11 2,5 3,11 3,17 0,6 -1,12 -3,16 -3,5 -6,9 -11,12 -5,2 -10,4 -16,4zm18 -32c0,-6 -1,-12 -5,-16 -3,-4 -7,-6 -13,-6 -5,0 -10,2 -13,6 -3,4 -5,10 -5,16 0,6 2,11 5,15 3,4 7,6 13,6 5,0 10,-2 13,-6 3,-4 5,-9 5,-15zm20 -9l31 0 2 10 -32 0 -1 -10zm60 41c-2,0 -6,-1 -10,-2 -4,-1 -7,-2 -9,-4l3 -8c6,3 11,4 16,4 4,0 8,-1 10,-2 2,-2 4,-3 4,-6 0,-4 -5,-7 -14,-10 -13,-5 -20,-11 -20,-18 0,-6 2,-10 6,-13 5,-3 10,-5 17,-5 3,0 6,1 10,2 4,1 7,2 10,4l-4 8c-3,-1 -6,-2 -8,-3 -3,-1 -5,-1 -8,-1 -3,0 -6,1 -8,2 -2,1 -3,3 -3,5 0,2 1,4 3,5 3,1 6,3 10,4 13,5 20,11 20,20 0,5 -2,10 -6,13 -5,3 -11,5 -19,5zm91 -32c0,7 -1,12 -3,17 -3,4 -6,8 -11,11 -5,2 -10,4 -16,4 -2,0 -3,-1 -6,-1 -2,-1 -4,-2 -6,-3l0 31 -12 0 0 -89 7 0 2 3c3,-1 5,-3 8,-3 3,-1 5,-2 7,-2 6,0 12,1 16,4 5,3 8,6 11,11 2,5 3,11 3,17zm-12 0c0,-6 -1,-12 -5,-16 -3,-4 -7,-6 -13,-6 -5,0 -9,2 -12,5l0 34c3,3 7,4 12,4 6,0 10,-2 13,-5 3,-4 5,-9 5,-16zm50 32c-6,0 -12,-2 -16,-4 -5,-3 -8,-7 -11,-12 -2,-4 -3,-10 -3,-16 0,-6 1,-12 3,-17 3,-5 6,-8 11,-11 5,-3 10,-4 16,-4 6,0 11,1 16,4 4,3 8,6 10,11 3,5 4,11 4,17 0,6 -1,12 -4,16 -2,5 -6,9 -10,12 -5,2 -10,4 -16,4zm18 -32c0,-6 -2,-12 -5,-16 -3,-4 -7,-6 -13,-6 -5,0 -10,2 -13,6 -3,4 -5,10 -5,16 0,6 1,11 5,15 3,4 7,6 13,6 5,0 10,-2 13,-6 3,-4 5,-9 5,-15zm54 -22c-3,0 -6,1 -9,3 -3,1 -7,4 -10,6l0 43 -12 0 0 -60 9 0 2 8c3,-3 7,-6 11,-7 4,-2 8,-3 12,-3 6,0 11,2 14,6 4,4 5,9 5,16l0 40 -12 0 0 -39c0,-4 -1,-7 -2,-10 -1,-2 -4,-3 -8,-3zm53 54c-3,0 -6,-1 -10,-2 -4,-1 -7,-2 -10,-4l4 -8c6,3 11,4 16,4 4,0 7,-1 10,-2 2,-2 3,-3 3,-6 0,-4 -4,-7 -13,-10 -13,-5 -20,-11 -20,-18 0,-6 2,-10 6,-13 4,-3 10,-5 17,-5 3,0 6,1 10,2 4,1 7,2 9,4l-3 8c-3,-1 -6,-2 -8,-3 -3,-1 -5,-1 -8,-1 -3,0 -6,1 -8,2 -2,1 -3,3 -3,5 0,2 1,4 3,5 2,1 5,3 9,4 14,5 21,11 21,20 0,5 -2,10 -7,13 -4,3 -10,5 -18,5zm62 0c-6,0 -11,-2 -16,-4 -4,-3 -8,-7 -10,-12 -3,-4 -4,-10 -4,-16 0,-6 1,-12 4,-17 2,-5 6,-8 10,-11 5,-3 10,-4 17,-4 6,0 11,1 15,4 5,3 8,6 11,11 2,5 4,11 4,17 0,6 -2,12 -4,16 -3,5 -6,9 -11,12 -4,2 -10,4 -16,4zm18 -32c0,-6 -1,-12 -4,-16 -4,-4 -8,-6 -13,-6 -6,0 -10,2 -14,6 -3,4 -5,10 -5,16 0,6 2,11 5,15 3,4 8,6 13,6 6,0 10,-2 13,-6 4,-4 5,-9 5,-15zm57 -21c-3,0 -7,1 -11,3 -4,3 -7,5 -10,8l0 40 -12 0 0 -60 6 0 4 10c3,-3 6,-5 10,-7 4,-2 8,-3 10,-3l3 9zm34 -11c9,0 15,3 20,9 4,6 6,13 6,22l0 4 -43 0c1,5 3,10 6,13 3,4 8,6 15,6 3,0 6,-1 8,-2 2,0 6,-2 10,-4l4 9c-8,4 -15,7 -22,7 -11,0 -19,-3 -25,-9 -5,-6 -8,-13 -8,-23 0,-6 1,-12 3,-17 3,-5 6,-8 11,-11 4,-3 9,-4 15,-4zm-1 10c-4,0 -8,2 -10,5 -3,2 -5,6 -5,11l31 0c-2,-10 -7,-16 -16,-16zm90 52l-7 0 -2 -5c-3,2 -6,4 -9,5 -3,1 -5,2 -7,2 -6,0 -12,-2 -16,-4 -5,-3 -8,-7 -11,-12 -2,-4 -3,-10 -3,-17 0,-6 1,-11 3,-16 3,-5 6,-8 11,-11 5,-3 10,-4 16,-4 2,0 4,0 6,1 2,1 5,2 7,3l0 -28 12 -2 0 88zm-25 -9c2,0 5,0 7,-1 2,-1 4,-2 6,-4l0 -33c-2,-2 -4,-3 -6,-4 -2,0 -5,-1 -7,-1 -6,0 -10,2 -13,6 -4,4 -5,9 -5,15 0,7 1,12 5,16 3,4 7,6 13,6zm125 -21c0,7 -1,12 -3,17 -3,4 -6,8 -11,11 -5,2 -10,4 -16,4 -2,0 -4,-1 -7,-2 -3,-1 -5,-2 -8,-4l-2 4 -7 0 0 -86 12 -2 0 30c2,-1 4,-2 7,-3 2,-1 4,-1 5,-1 6,0 12,1 16,4 5,3 8,6 11,11 2,5 3,11 3,17zm-12 0c0,-6 -1,-12 -5,-16 -3,-4 -7,-6 -13,-6 -5,0 -9,2 -12,5l0 34c3,3 8,4 12,4 6,0 10,-2 13,-5 4,-4 5,-9 5,-16zm74 -30l-23 59 0 30 -11 0 0 -29 -23 -58 12 -5 16 46 16 -43 13 0z"/>
   <polygon class="fil0" points="2570,2904 2582,2904 2582,3838 2570,3838 "/>
   <g>
    <g>
     <path class="fil14" d="M2321 3301c0,6 -2,11 -6,15 -4,4 -9,6 -15,6 -5,0 -10,-2 -14,-6 -4,-4 -6,-9 -6,-15 0,-5 2,-10 6,-14 4,-4 9,-6 14,-6 6,0 11,2 15,6 4,4 6,9 6,14zm-3 0c0,-5 -1,-9 -5,-12 -3,-4 -8,-6 -13,-6 -5,0 -9,2 -12,6 -4,3 -6,7 -6,12 0,5 2,10 6,13 3,4 7,5 12,5 5,0 10,-1 13,-5 4,-3 5,-8 5,-13zm-25 -11l8 0c3,0 6,0 7,1 1,1 2,3 2,5 0,1 -1,3 -2,4 -1,1 -3,1 -5,2 1,0 2,1 2,1 1,0 1,1 2,2 1,1 1,2 2,3l2 4 -4 0 -2 -4c-1,-3 -3,-5 -3,-5 -1,-1 -3,-1 -5,-1l-1 0 0 10 -3 0 0 -22zm3 2l0 8 2 0c3,0 6,-1 7,-1 0,0 1,0 1,-1 1,-1 1,-1 1,-2 0,-1 0,-2 -1,-3 -1,-1 -3,-1 -6,-1l-4 0z"/>
     <path class="fil14" d="M2246 3442l75 0 0 121c-43,0 -84,0 -126,0 -57,-6 -97,-41 -112,-84 -12,-35 -7,-73 14,-104 24,-36 69,-61 119,-61 40,0 76,15 101,39l-50 51 -2 -2c-11,-12 -29,-19 -49,-19 -35,0 -58,25 -58,57 0,32 23,51 58,51l30 0 0 -49zm-1040 115l0 -72 97 0c15,0 22,-1 22,-8 0,-5 -8,-14 -17,-22 -16,-15 -29,-30 -38,-48 -12,-23 -15,-43 -2,-67 17,-31 50,-26 86,-26l348 0 0 73 -106 0 0 174 -78 0 0 -174 -133 0c-26,0 -28,3 -13,21 16,18 40,30 53,75 12,43 -11,74 -53,74l-166 0zm0 31l502 0 96 -307 56 0 34 0 56 0 84 307 287 0 0 27 -355 0 0 0 -31 0 -59 -264 -70 264 -69 0 0 0 -531 0 0 -27z"/>
     <g>
      <path class="fil15 str0" d="M1878 3428l-6 0 -6 -1 -6 -1 -6 0 -6 -1 -6 0 -5 0 -6 -1 -6 0 -5 0 -6 0 -5 0 -6 1 -5 0 -6 0 -5 1 -6 0 -5 1 -5 1 -6 1 -5 1 -6 1 -5 2 -5 1 -6 2 -5 2 -6 1 -5 2 -6 2 -6 3 -5 2 -6 3 -1 -1 -2 0 -1 -1 -1 0 -1 -1 -1 0 -2 -1 -1 -1 -2 -1 -1 -1 -2 -2 -1 -1 -3 -2 -2 -2 -1 -1 0 0 -1 0 0 0 -1 0 0 0 0 0 -1 0 0 0 0 1 -1 0 0 0 0 1 0 0 -1 1 0 1 0 2 0 1 0 2 0 2 0 2 1 2 0 3 1 3 0 2 1 3 1 1 0 1 0 1 0 1 0 0 0 1 -1 1 0 1 0 0 0 1 -1 1 0 1 -1 0 0 1 -1 1 0 1 -3 2 -2 3 -2 2 -2 2 -2 2 -2 2 -2 2 -2 2 -2 2 -3 1 -2 2 -2 1 -2 2 -3 1 -2 1 -2 1 -3 1 -2 1 -3 1 -2 1 -3 0 -2 1 -3 1 -2 0 -3 1 -3 0 -2 0 -3 0 -3 0 -2 1 -3 0 -3 0 -4 -1 -4 0 -4 0 -4 0 -4 0 -4 1 -4 0 -3 1 -4 0 -3 1 -4 1 -3 1 -3 1 -3 1 -3 1 -3 1 -3 2 -3 1 -3 2 -3 2 -3 1 -2 2 -3 2 -3 2 -2 3 -3 2 -2 2 -2 3 -3 2 -2 3 -2 2 -3 3 1 1 0 1 1 0 1 1 0 0 1 1 1 0 1 0 1 1 2 0 1 0 1 0 2 0 1 0 2 0 1 0 2 -2 2 -2 2 -2 2 -2 2 -3 2 -2 2 -2 3 -1 2 -2 2 -2 2 -2 3 -2 2 -1 2 -2 3 -2 3 -1 0 0 1 -1 1 0 1 0 0 1 1 0 1 0 0 0 0 1 0 0 0 0 0 1 0 0 0 1 0 1 -1 1 -1 1 -1 1 -1 2 -1 2 -2 2 -1 2 -2 2 -1 2 -2 2 -2 1 -3 4 -4 4 -4 3 -3 4 0 1 0 0 1 1 0 0 1 0 0 1 1 0 0 1 1 0 0 0 1 0 1 1 1 0 2 0 0 0 1 0 1 0 1 0 0 0 1 0 1 -1 1 0 1 0 0 -1 1 0 1 0 1 -1 0 -1 1 0 1 -1 2 -4 3 -4 4 -4 3 -3 3 -3 3 -2 4 -3 3 -2 4 -2 4 -2 4 -1 3 -2 4 -1 4 -1 4 -1 4 -1 4 0 4 -1 4 0 4 -1 8 -1 9 0 3 -1 5 0 3 -1 4 0 4 -1 4 -1 4 -1 3 -1 4 0 4 -1 4 -1 4 0 4 -1 4 -1 4 -2 4 -1 3 -1 4 -2 4 -1 4 -2 3 -1 4 -2 4 -2 3 -2 1 -1 0 0 1 -1 0 0 1 -1 0 0 1 -1 0 0 1 0 1 -1 0 0 1 0 2 0 1 0 2 0 2 0 2 0 3 0 5 1 7 0 4 1 4 0 4 0 3 0 4 0 5 0 3 0 4 0 5 0 4 0 4 -1 4 0 4 0 4 -1 4 0 4 -1 8 0 8 -2 9 -1 8 -1 8 -2 9 -2 8 -2 9 -2 1 -1 2 -1 1 0 2 -1 1 0 2 0 1 0 1 0 1 0 2 1 1 0 1 1 1 0 1 1 1 1 1 1 5 4 4 4 1 1 1 1 2 1 1 2 2 0 1 1 1 1 2 1 1 0 2 0 2 0 1 0 2 0 2 0 2 0 2 0 4 -1 4 0 5 -1 5 -1 5 -1 5 -1 6 -2 5 -1 6 -1 6 -1 5 -1 6 -1 2 -1 2 0 2 0 2 0 1 0 2 -1 2 1 1 0 2 0 1 0 2 0 1 1 4 0 4 1 56 14 2 0 2 0 1 0 2 0 1 0 2 0 1 -1 1 0 1 0 1 0 1 -1 1 0 1 -1 1 0 1 -1 0 0 1 0 0 -1 1 -1 0 0 0 -1 0 0 0 -1 0 0 -1 -1 0 0 -1 -1 0 -1 -1 0 -1 -1 -1 0 -1 -1 -48 -15 -1 -1 -1 0 -1 0 -1 0 -1 -1 0 0 -1 0 0 -1 0 0 -1 0 0 0 0 -1 0 0 0 -1 0 0 0 0 0 0 1 -1 0 0 1 0 0 -1 1 0 0 0 1 0 2 -1 1 0 2 0 3 0 4 1 4 0 4 1 3 0 4 1 4 1 4 0 4 1 4 1 4 1 4 1 3 1 4 1 4 1 4 1 3 1 1 0 1 1 1 0 1 0 1 0 1 0 1 0 1 0 2 -1 2 0 1 0 1 -1 0 0 1 0 1 -1 1 0 0 -1 1 0 1 -1 0 0 1 -1 0 0 0 -1 1 0 0 -1 0 -1 0 0 0 -1 -1 0 0 -1 -5 -2 -6 -2 -6 -1 -6 -2 -7 -2 -7 -2 -3 -1 -3 -1 -4 0 -3 -1 -4 -1 -4 0 -3 -1 -4 0 -4 0 -4 0 -4 0 -4 0 -4 0 -4 0 -4 0 -5 1 -4 1 -4 1 -4 1 -5 1 -1 0 -1 0 -1 0 -1 0 -2 1 -2 1 -2 1 -2 1 -1 0 -1 0 -1 0 -1 0 -2 1 -1 0 -2 1 -2 0 -2 1 -2 0 -2 0 -3 0 -2 0 -2 0 -3 0 -2 0 -3 0 -2 -1 -2 0 -3 0 -2 -1 -2 -1 -2 0 -2 -1 -2 0 -1 -1 -1 -1 -2 -1 -1 -1 0 -1 -1 -1 0 -1 0 -1 1 -1 0 -1 2 -1 2 -2 2 -2 2 -2 2 -2 3 -2 2 -2 3 -2 2 -2 3 1 3 0 3 0 2 0 3 0 3 0 3 -1 2 0 3 -1 2 -1 3 0 3 -1 2 -2 3 -1 2 -1 3 -2 4 0 4 0 4 -1 4 0 3 0 5 1 4 0 4 0 1 0 1 0 1 -1 1 0 1 -1 1 0 1 -1 1 0 1 -1 1 0 0 -1 1 -1 0 -1 0 0 1 -1 0 -1 0 0 0 -1 -1 -1 0 -1 0 0 -1 -1 0 0 -1 -1 -1 0 -1 -1 -1 0 -2 -1 -1 0 -2 -1 -2 0 -2 0 -1 0 -2 0 -2 0 -2 -1 -2 0 -3 -1 -2 -1 -2 -1 -2 -1 -2 -1 -2 -1 -2 -1 -2 -1 -2 -2 -1 -1 -2 -2 -36 -3 -1 0 -2 0 -1 -1 -2 0 -1 0 -1 -1 -1 -1 -1 0 -1 -1 -1 0 -1 -1 -1 -1 -2 -1 -1 -2 -1 -1 0 0 -1 -1 -1 0 0 0 -1 -1 0 0 -1 1 0 0 -1 0 0 0 -1 1 0 1 0 0 0 1 0 1 0 5 1 4 0 2 0 1 0 1 0 0 -1 1 0 0 0 0 -1 0 0 0 0 0 -1 0 -1 0 0 0 -1 0 -2 -1 -2 -2 -2 -1 -3 -3 0 0 -1 0 -1 -1 -1 0 0 0 -1 0 0 0 -1 0 0 1 0 0 0 1 0 0 0 1 0 1 0 1 0 1 1 1 0 1 1 2 1 1 1 2 1 3 1 1 0 2 0 1 1 1 0 2 0 1 0 2 0 2 -2 1 -1 1 -1 1 -1 1 -2 1 -1 0 -2 1 -1 1 -2 0 -2 1 -1 0 -2 1 -2 0 -2 1 -2 0 -2 0 -2 0 -3 1 -2 0 -2 0 -5 0 -6 0 -6 0 -6 -1 -7 0 -7 -1zm132 -28c0,0 0,0 0,1 0,1 -1,3 -3,3 -1,0 -9,-2 -9,-3 0,0 0,0 1,-1l0 0 8 0 2 0 1 0z"/>
      <path id="1" class="fil16" d="M1878 3428l-6 0 -6 -1 -6 -1 -6 0 -6 -1 -6 0 -5 0 -6 -1 -6 0 -5 0 -6 0 -5 0 -6 1 -5 0 -6 0 -5 1 -6 0 -5 1 -5 1 -6 1 -5 1 -6 1 -5 2 -5 1 -6 2 -5 2 -6 1 -5 2 -6 2 -6 3 -5 2 -6 3 -1 -1 -2 0 -1 -1 -1 0 -1 -1 -1 0 -2 -1 -1 -1 -2 -1 -1 -1 -2 -2 -1 -1 -3 -2 -2 -2 -1 -1 0 0 -1 0 0 0 -1 0 0 0 0 0 -1 0 0 0 0 1 -1 0 0 0 0 1 0 0 -1 1 0 1 0 2 0 1 0 2 0 2 0 2 1 2 0 3 1 3 0 2 1 3 1 1 0 1 0 1 0 1 0 0 0 1 -1 1 0 1 0 0 0 1 -1 1 0 1 -1 0 0 1 -1 1 0 1 -3 2 -2 3 -2 2 -2 2 -2 2 -2 2 -2 2 -2 2 -2 2 -3 1 -2 2 -2 1 -2 2 -3 1 -2 1 -2 1 -3 1 -2 1 -3 1 -2 1 -3 0 -2 1 -3 1 -2 0 -3 1 -3 0 -2 0 -3 0 -3 0 -2 1 -3 0 -3 0 -4 -1 -4 0 -4 0 -4 0 -4 0 -4 1 -4 0 -3 1 -4 0 -3 1 -4 1 -3 1 -3 1 -3 1 -3 1 -3 1 -3 2 -3 1 -3 2 -3 2 -3 1 -2 2 -3 2 -3 2 -2 3 -3 2 -2 2 -2 3 -3 2 -2 3 -2 2 -3 3 1 1 0 1 1 0 1 1 0 0 1 1 1 0 1 0 1 1 2 0 1 0 1 0 2 0 1 0 2 0 1 0 2 -2 2 -2 2 -2 2 -2 2 -3 2 -2 2 -2 3 -1 2 -2 2 -2 2 -2 3 -2 2 -1 2 -2 3 -2 3 -1 0 0 1 -1 1 0 1 0 0 1 1 0 1 0 0 0 0 1 0 0 0 0 0 1 0 0 0 1 0 1 -1 1 -1 1 -1 1 -1 2 -1 2 -2 2 -1 2 -2 2 -1 2 -2 2 -2 1 -3 4 -4 4 -4 3 -3 4 0 1 0 0 1 1 0 0 1 0 0 1 1 0 0 1 1 0 0 0 1 0 1 1 1 0 2 0 0 0 1 0 1 0 1 0 0 0 1 0 1 -1 1 0 1 0 0 -1 1 0 1 0 1 -1 0 -1 1 0 1 -1 2 -4 3 -4 4 -4 3 -3 3 -3 3 -2 4 -3 3 -2 4 -2 4 -2 4 -1 3 -2 4 -1 4 -1 4 -1 4 -1 4 0 4 -1 4 0 4 -1 8 -1 9 0 3 -1 5 0 3 -1 4 0 4 -1 4 -1 4 -1 3 -1 4 0 4 -1 4 -1 4 0 4 -1 4 -1 4 -2 4 -1 3 -1 4 -2 4 -1 4 -2 3 -1 4 -2 4 -2 3 -2 1 -1 0 0 1 -1 0 0 1 -1 0 0 1 -1 0 0 1 0 1 -1 0 0 1 0 2 0 1 0 2 0 2 0 2 0 3 0 5 1 7 0 4 1 4 0 4 0 3 0 4 0 5 0 3 0 4 0 5 0 4 0 4 -1 4 0 4 0 4 -1 4 0 4 -1 8 0 8 -2 9 -1 8 -1 8 -2 9 -2 8 -2 9 -2 1 -1 2 -1 1 0 2 -1 1 0 2 0 1 0 1 0 1 0 2 1 1 0 1 1 1 0 1 1 1 1 1 1 5 4 4 4 1 1 1 1 2 1 1 2 2 0 1 1 1 1 2 1 1 0 2 0 2 0 1 0 2 0 2 0 2 0 2 0 4 -1 4 0 5 -1 5 -1 5 -1 5 -1 6 -2 5 -1 6 -1 6 -1 5 -1 6 -1 2 -1 2 0 2 0 2 0 1 0 2 -1 2 1 1 0 2 0 1 0 2 0 1 1 4 0 4 1 56 14 2 0 2 0 1 0 2 0 1 0 2 0 1 -1 1 0 1 0 1 0 1 -1 1 0 1 -1 1 0 1 -1 0 0 1 0 0 -1 1 -1 0 0 0 -1 0 0 0 -1 0 0 -1 -1 0 0 -1 -1 0 -1 -1 0 -1 -1 -1 0 -1 -1 -48 -15 -1 -1 -1 0 -1 0 -1 0 -1 -1 0 0 -1 0 0 -1 0 0 -1 0 0 0 0 -1 0 0 0 -1 0 0 0 0 0 0 1 -1 0 0 1 0 0 -1 1 0 0 0 1 0 2 -1 1 0 2 0 3 0 4 1 4 0 4 1 3 0 4 1 4 1 4 0 4 1 4 1 4 1 4 1 3 1 4 1 4 1 4 1 3 1 1 0 1 1 1 0 1 0 1 0 1 0 1 0 1 0 2 -1 2 0 1 0 1 -1 0 0 1 0 1 -1 1 0 0 -1 1 0 1 -1 0 0 1 -1 0 0 0 -1 1 0 0 -1 0 -1 0 0 0 -1 -1 0 0 -1 -5 -2 -6 -2 -6 -1 -6 -2 -7 -2 -7 -2 -3 -1 -3 -1 -4 0 -3 -1 -4 -1 -4 0 -3 -1 -4 0 -4 0 -4 0 -4 0 -4 0 -4 0 -4 0 -4 0 -5 1 -4 1 -4 1 -4 1 -5 1 -1 0 -1 0 -1 0 -1 0 -2 1 -2 1 -2 1 -2 1 -1 0 -1 0 -1 0 -1 0 -2 1 -1 0 -2 1 -2 0 -2 1 -2 0 -2 0 -3 0 -2 0 -2 0 -3 0 -2 0 -3 0 -2 -1 -2 0 -3 0 -2 -1 -2 -1 -2 0 -2 -1 -2 0 -1 -1 -1 -1 -2 -1 -1 -1 0 -1 -1 -1 0 -1 0 -1 1 -1 0 -1 2 -1 2 -2 2 -2 2 -2 2 -2 3 -2 2 -2 3 -2 2 -2 3 1 3 0 3 0 2 0 3 0 3 0 3 -1 2 0 3 -1 2 -1 3 0 3 -1 2 -2 3 -1 2 -1 3 -2 4 0 4 0 4 -1 4 0 3 0 5 1 4 0 4 0 1 0 1 0 1 -1 1 0 1 -1 1 0 1 -1 1 0 1 -1 1 0 0 -1 1 -1 0 -1 0 0 1 -1 0 -1 0 0 0 -1 -1 -1 0 -1 0 0 -1 -1 0 0 -1 -1 -1 0 -1 -1 -1 0 -2 -1 -1 0 -2 -1 -2 0 -2 0 -1 0 -2 0 -2 0 -2 -1 -2 0 -3 -1 -2 -1 -2 -1 -2 -1 -2 -1 -2 -1 -2 -1 -2 -1 -2 -2 -1 -1 -2 -2 -36 -3 -1 0 -2 0 -1 -1 -2 0 -1 0 -1 -1 -1 -1 -1 0 -1 -1 -1 0 -1 -1 -1 -1 -2 -1 -1 -2 -1 -1 0 0 -1 -1 -1 0 0 0 -1 -1 0 0 -1 1 0 0 -1 0 0 0 -1 1 0 1 0 0 0 1 0 1 0 5 1 4 0 2 0 1 0 1 0 0 -1 1 0 0 0 0 -1 0 0 0 0 0 -1 0 -1 0 0 0 -1 0 -2 -1 -2 -2 -2 -1 -3 -3 0 0 -1 0 -1 -1 -1 0 0 0 -1 0 0 0 -1 0 0 1 0 0 0 1 0 0 0 1 0 1 0 1 0 1 1 1 0 1 1 2 1 1 1 2 1 3 1 1 0 2 0 1 1 1 0 2 0 1 0 2 0 2 -2 1 -1 1 -1 1 -1 1 -2 1 -1 0 -2 1 -1 1 -2 0 -2 1 -1 0 -2 1 -2 0 -2 1 -2 0 -2 0 -2 0 -3 1 -2 0 -2 0 -5 0 -6 0 -6 0 -6 -1 -7 0 -7 -1zm132 -28c0,0 0,0 0,1 0,1 -1,3 -3,3 -1,0 -9,-2 -9,-3 0,0 0,0 1,-1l0 0 8 0 2 0 1 0z"/>
     </g>
    </g>
    <g>
     <path class="fil17" d="M425 3468c3,3 9,15 13,20 4,7 8,14 12,21 8,14 17,32 29,40 13,8 39,8 51,-7 9,-12 6,-44 6,-61 0,-14 1,-90 -1,-100 -7,-30 -53,-27 -60,1 -4,14 -1,50 -2,67l-37 -63c-4,-7 -9,-14 -16,-19 -7,-5 -15,-7 -27,-6 -37,3 -31,41 -31,71 0,22 0,45 0,67 0,24 -2,43 17,52 14,7 39,4 44,-17 4,-11 2,-52 2,-66z"/>
     <path class="fil17" d="M623 3467l38 64c4,7 9,13 16,18 16,9 40,6 50,-7 10,-12 7,-43 7,-61 0,-23 0,-45 0,-67 0,-24 2,-44 -17,-51 -17,-6 -39,-2 -45,19 -3,13 0,52 -1,67l-37 -63c-5,-8 -9,-14 -16,-19 -16,-11 -39,-8 -50,5 -11,12 -8,41 -8,60 0,22 0,45 0,67 0,24 -2,43 16,52 13,6 40,5 45,-17 4,-13 1,-50 2,-67z"/>
     <path class="fil17" d="M824 3499l-1 -19c16,0 33,1 48,0 14,-1 23,-10 23,-25 0,-33 -36,-25 -70,-25l0 -15c16,0 31,0 47,0 17,0 28,-1 34,-14 6,-14 0,-29 -9,-34 -11,-6 -31,-4 -45,-4 -15,0 -31,0 -47,0 -42,0 -46,11 -46,50l0 96c0,43 17,43 52,43 17,0 33,0 49,0 14,0 31,2 42,-5 9,-6 13,-23 6,-36 -6,-11 -18,-12 -35,-12 -16,0 -32,0 -48,0z"/>
     <path class="fil17" d="M258 3499l0 -18c30,-2 70,9 71,-26 0,-15 -8,-23 -23,-25 -15,-1 -32,1 -47,0l-1 -15c15,-1 33,0 48,0 16,0 28,-1 34,-14 4,-10 2,-26 -9,-33 -11,-7 -30,-5 -44,-5 -16,0 -31,0 -47,0 -16,0 -30,0 -39,10 -9,9 -8,24 -8,39l0 96c0,43 15,44 52,44 16,0 32,0 48,0 14,0 33,2 43,-5 9,-7 13,-23 6,-36 -12,-20 -53,-8 -84,-12z"/>
     <path class="fil17" d="M996 3509c2,1 10,16 12,20 4,7 7,15 13,19 15,12 36,6 45,-7 12,-17 0,-35 -8,-47l-25 -40 24 -37c8,-12 19,-27 8,-44 -10,-14 -33,-16 -44,-7 -6,5 -8,9 -13,17 -1,2 -9,18 -11,20 -11,-19 -18,-51 -51,-41 -8,2 -14,7 -18,13 -10,17 3,34 10,45l19 29c3,6 2,5 -1,10l-24 39c-4,6 -9,12 -11,20 -2,10 1,20 6,26 10,12 30,16 45,4 6,-6 8,-10 13,-19 3,-6 7,-14 11,-20z"/>
     <path class="fil18" d="M415 3439l9 -1c1,12 11,30 18,40l28 48c4,6 9,13 17,16 9,4 20,4 28,0 9,-3 12,-12 12,-22 0,-11 0,-22 0,-33 0,-13 1,-91 -1,-101 -1,-9 -7,-15 -17,-16 -28,-2 -26,17 -26,40l0 50c0,6 1,11 1,16l-9 2c-4,-15 -24,-49 -35,-66l-12 -21c-4,-7 -9,-14 -16,-18 -13,-7 -40,-5 -40,20 -1,17 -1,127 0,134 0,5 2,9 5,12 9,10 30,7 36,-2 4,-8 3,-21 3,-31l-1 -51c0,-4 -1,-12 0,-16z"/>
     <path class="fil18" d="M612 3439l9 -2c10,27 7,21 22,46l25 42c4,7 8,13 16,17 11,5 39,7 41,-20 0,-11 0,-24 0,-35 0,-11 1,-93 0,-100 -4,-24 -34,-20 -42,-8 -4,8 -2,21 -2,31l1 66 -9 2c-2,-4 -6,-18 -16,-34l-31 -53c-4,-7 -9,-14 -16,-18 -12,-7 -40,-5 -41,20 0,11 0,23 0,34 0,12 0,92 1,100 2,23 33,22 41,10 4,-8 2,-21 2,-31l0 -51c0,-5 -1,-11 -1,-16z"/>
     <path class="fil17" d="M65 3419c1,15 0,64 0,83 0,12 -2,28 4,38 11,19 45,19 57,1 6,-10 4,-26 4,-38 0,-13 -1,-77 0,-84 15,0 34,2 45,-5 14,-9 16,-40 -5,-49 -7,-3 -14,-2 -22,-2l-100 0c-18,0 -29,1 -36,14 -6,14 -2,30 8,37 12,9 29,3 45,5z"/>
     <path class="fil18" d="M814 3508l0 -37c14,1 29,0 43,0 16,0 28,1 28,-16 0,-18 -12,-16 -28,-16 -14,0 -29,1 -43,0l0 -33c43,-5 88,13 84,-20 -1,-6 -4,-10 -10,-12 -7,-3 -70,-2 -83,-2 -39,0 -38,6 -38,47l0 84c0,39 4,39 44,39 14,0 28,0 43,0 9,0 32,2 40,-1 10,-5 10,-23 1,-29 -7,-6 -27,-4 -39,-4 -13,0 -28,1 -42,0z"/>
     <path class="fil18" d="M320 3509l-71 0 0 -38 59 -1c9,-1 12,-7 11,-16 0,-10 -4,-14 -14,-15 -17,-1 -38,1 -56,0l0 -33c17,-1 61,3 73,-1 13,-4 12,-19 8,-25 -5,-10 -18,-8 -30,-8 -18,0 -61,0 -76,1 -27,1 -22,24 -22,52 0,25 0,50 0,75 0,32 -1,43 33,42 25,0 51,0 76,0 12,0 23,1 25,-12 2,-12 -4,-21 -16,-21z"/>
     <path class="fil18" d="M970 3454c-1,3 -3,6 -5,9l-30 47c-4,6 -7,14 -4,23 3,7 9,12 18,13 18,1 24,-14 32,-29 4,-7 6,-13 11,-20 3,-1 5,-1 8,0 3,6 7,12 11,18 8,14 12,30 28,30 21,0 27,-19 19,-33l-33 -54c-4,-5 -3,-4 0,-9l29 -44c21,-33 -19,-45 -32,-27 -2,3 -4,6 -5,9l-16 28c-9,1 -8,0 -10,-3l-15 -29c-3,-6 -8,-13 -16,-13 -10,-1 -17,1 -22,7 -11,13 1,28 9,41l23 36z"/>
     <path class="fil18" d="M74 3410c2,19 -2,101 0,118 4,22 43,24 46,1 3,-16 -1,-110 1,-119 13,-4 48,7 54,-10 2,-5 2,-14 0,-18 -6,-12 -20,-10 -34,-10l-85 0c-14,0 -30,-2 -35,9 -4,6 -5,25 11,28 11,2 29,0 42,1z"/>
     <path class="fil17" d="M1076 3285c-15,3 -28,17 -25,35 3,15 17,28 35,25 15,-3 28,-17 25,-36 -3,-14 -18,-27 -35,-24zm-4 28c7,0 18,2 18,-5 1,-8 -11,-6 -17,-6l-1 11zm25 20c0,-1 0,-1 -1,-1 0,1 0,0 -1,0 -5,-1 -3,0 -8,-9 -5,-6 -5,-6 -14,-6 -1,4 1,11 -1,15l-4 0 0 -34c7,0 32,-3 26,13 -1,3 -4,4 -8,6 9,7 7,9 12,14 7,-3 10,-23 0,-33 -9,-8 -24,-9 -33,0 -9,9 -11,23 -1,33 10,10 21,10 33,2z"/>
     <path class="fil19" d="M320 3509c0,-2 -12,-2 -16,-2l-55 0 1 -35 45 0c2,0 12,1 13,-2l-59 1 0 38 71 0z"/>
    </g>
   </g>
   <g style="clip-path:url(#id0)">
    <image x="6110" y="3188" width="556" height="521" xlink:href="kjsce_logo_Images\kjsce_logo_ImgID1.png"/>
   </g>
   <polygon class="fil0" points="5749,2904 5761,2904 5761,3838 5749,3838 "/>
   <path class="fil13" d="M5928 2960c0,2 -1,3 -2,5 -2,1 -4,2 -6,2 -2,0 -3,-1 -5,-2 -1,-2 -2,-3 -2,-5 0,-2 1,-4 2,-6 2,-1 3,-2 5,-2 2,0 4,1 6,2 1,2 2,4 2,6zm-1 18l0 60 -12 0 0 -60 12 0zm46 8c-3,0 -6,1 -10,3 -3,2 -6,4 -9,7l0 42 -12 0 0 -60 8 0 2 8c3,-3 7,-5 11,-7 4,-2 8,-3 12,-3 7,0 11,2 15,6 3,4 4,10 4,16l0 40 -12 0 0 -38c0,-5 0,-8 -2,-10 -1,-3 -4,-4 -7,-4zm87 1c-5,0 -11,1 -17,4l-4 -9c3,-2 6,-3 10,-4 5,-1 8,-2 11,-2 5,0 9,1 12,3 4,2 7,5 9,8 2,3 3,7 3,10l0 41 -8 0 -1 -5c-3,2 -5,3 -9,5 -3,1 -6,2 -9,2 -7,0 -12,-2 -16,-5 -3,-4 -5,-8 -5,-14 0,-6 2,-11 6,-14 4,-3 9,-5 16,-5l14 0c0,-5 -1,-8 -2,-11 -2,-3 -5,-4 -10,-4zm-2 23c-4,0 -6,1 -8,3 -2,2 -3,5 -3,8 0,2 0,5 2,7 2,1 4,2 8,2 3,0 5,0 8,-2 3,-1 5,-3 7,-6l0 -12 -14 0zm57 30c-2,0 -6,-1 -10,-2 -4,-1 -7,-2 -9,-4l3 -8c6,3 11,4 16,4 4,0 8,-1 10,-2 2,-1 4,-3 4,-6 0,-4 -5,-7 -14,-10 -13,-4 -20,-10 -20,-18 0,-6 2,-10 6,-13 5,-3 10,-5 17,-5 3,0 6,1 10,2 4,1 7,2 10,4l-4 8c-3,-1 -6,-2 -8,-3 -2,-1 -5,-1 -8,-1 -3,0 -6,1 -8,2 -2,2 -3,3 -3,6 0,1 1,3 3,4 3,2 6,3 10,4 13,5 20,12 20,20 0,6 -2,10 -6,13 -5,3 -11,5 -19,5zm53 0c-3,0 -7,-1 -11,-2 -4,-1 -7,-2 -9,-4l4 -8c5,3 11,4 16,4 4,0 7,-1 9,-2 3,-1 4,-3 4,-6 0,-4 -5,-7 -14,-10 -13,-4 -19,-10 -19,-18 0,-6 2,-10 6,-13 4,-3 10,-5 17,-5 2,0 6,1 10,2 3,1 7,2 9,4l-4 8c-3,-1 -5,-2 -8,-3 -2,-1 -5,-1 -8,-1 -3,0 -5,1 -7,2 -2,2 -3,3 -3,6 0,1 1,3 3,4 2,2 5,3 9,4 14,5 20,12 20,20 0,6 -2,10 -6,13 -4,3 -10,5 -18,5zm62 0c-6,0 -12,-1 -16,-4 -5,-3 -8,-6 -11,-11 -2,-5 -3,-11 -3,-17 0,-6 1,-12 4,-16 2,-5 6,-9 10,-12 5,-2 10,-4 16,-4 6,0 11,2 16,4 5,3 8,7 10,12 3,4 4,10 4,16 0,6 -1,12 -4,17 -2,5 -6,8 -10,11 -5,3 -10,4 -16,4zm18 -32c0,-6 -2,-11 -5,-15 -3,-4 -7,-6 -13,-6 -5,0 -10,2 -13,6 -3,4 -5,9 -5,15 0,6 2,12 5,16 3,4 7,6 13,6 5,0 10,-2 13,-6 3,-4 5,-10 5,-16zm50 22c3,0 6,-1 8,-1 3,-1 6,-2 8,-3l4 8c-2,2 -6,3 -10,4 -4,1 -8,2 -10,2 -6,0 -12,-1 -16,-4 -5,-3 -8,-6 -11,-11 -2,-5 -3,-11 -3,-17 0,-6 1,-12 3,-16 3,-5 6,-9 11,-12 5,-2 10,-4 16,-4 3,0 6,1 10,2 5,1 8,3 10,4l-3 9c-4,-2 -6,-3 -9,-3 -2,-1 -5,-1 -8,-1 -6,0 -10,2 -13,6 -3,4 -5,9 -5,15 0,6 1,12 5,16 3,4 7,6 13,6zm44 -70c0,2 0,3 -2,5 -1,1 -3,2 -5,2 -2,0 -4,-1 -5,-2 -2,-2 -2,-3 -2,-5 0,-2 0,-4 2,-6 1,-1 3,-2 5,-2 2,0 4,1 5,2 2,2 2,4 2,6zm-1 18l0 60 -12 0 0 -60 12 0zm38 9c-6,0 -11,1 -18,4l-3 -9c2,-2 5,-3 10,-4 4,-1 8,-2 11,-2 4,0 8,1 12,3 4,2 7,5 9,8 2,3 3,7 3,10l0 41 -8 0 -2 -5c-2,2 -5,3 -8,5 -3,1 -6,2 -10,2 -6,0 -12,-2 -15,-5 -4,-4 -6,-8 -6,-14 0,-6 2,-11 6,-14 4,-3 10,-5 17,-5l14 0c0,-5 -1,-8 -3,-11 -2,-3 -5,-4 -9,-4zm-3 23c-3,0 -6,1 -8,3 -2,2 -3,5 -3,8 0,2 1,5 3,7 1,1 4,2 7,2 3,0 6,0 9,-2 2,-1 5,-3 7,-6l0 -12 -15 0zm56 -31l11 0 4 9 -15 0 0 32c0,3 1,5 2,7 2,2 4,3 7,3 1,0 3,0 6,-1l3 9c-1,0 -3,1 -5,2 -2,0 -4,0 -5,0 -6,0 -11,-1 -14,-5 -4,-3 -6,-7 -6,-14l0 -33 -8 0 0 -9 8 0 0 -15 12 -3 0 18zm41 -19c0,2 -1,3 -2,5 -2,1 -3,2 -5,2 -2,0 -4,-1 -6,-2 -1,-2 -2,-3 -2,-5 0,-2 1,-4 2,-6 2,-1 4,-2 6,-2 2,0 3,1 5,2 1,2 2,4 2,6zm-1 18l0 60 -12 0 0 -60 12 0zm41 62c-6,0 -11,-1 -16,-4 -4,-3 -8,-6 -10,-11 -3,-5 -4,-11 -4,-17 0,-6 1,-12 4,-16 2,-5 6,-9 10,-12 5,-2 10,-4 16,-4 6,0 12,2 16,4 5,3 8,7 11,12 2,4 3,10 3,16 0,6 -1,12 -3,17 -3,5 -6,8 -11,11 -5,3 -10,4 -16,4zm18 -32c0,-6 -1,-11 -5,-15 -3,-4 -7,-6 -13,-6 -5,0 -9,2 -13,6 -3,4 -5,9 -5,15 0,6 2,12 5,16 3,4 7,6 13,6 6,0 10,-2 13,-6 3,-4 5,-10 5,-16zm55 -22c-3,0 -6,1 -10,3 -3,2 -6,4 -9,7l0 42 -12 0 0 -60 8 0 2 8c3,-3 7,-5 11,-7 4,-2 8,-3 12,-3 7,0 11,2 15,6 3,4 4,10 4,16l0 40 -11 0 0 -38c0,-5 -1,-8 -3,-10 -1,-3 -4,-4 -7,-4zm143 -8l-19 60 -11 0 -13 -43 -12 43 -11 0 -19 -58 12 -4 12 44 12 -42 13 0 12 42 12 -42 12 0zm22 -18c0,2 -1,3 -2,5 -1,1 -3,2 -5,2 -2,0 -4,-1 -6,-2 -1,-2 -2,-3 -2,-5 0,-2 1,-4 2,-6 2,-1 4,-2 6,-2 2,0 4,1 5,2 1,2 2,4 2,6zm-1 18l0 60 -12 0 0 -60 12 0zm30 1l11 0 3 9 -14 0 0 32c0,3 0,5 2,7 1,2 3,3 6,3 2,0 4,0 6,-1l3 9c-1,0 -3,1 -5,2 -1,0 -3,0 -5,0 -6,0 -11,-1 -14,-5 -3,-3 -5,-7 -5,-14l0 -33 -9 0 0 -9 9 0 0 -15 12 -3 0 18zm81 19l0 40 -12 0 0 -38c0,-5 0,-8 -2,-10 -1,-3 -4,-4 -8,-4 -2,0 -5,1 -9,3 -3,2 -6,4 -10,7l0 42 -12 0 0 -86 12 -2 0 35c4,-3 7,-5 11,-7 4,-1 7,-2 11,-2 6,0 11,2 15,6 3,4 4,10 4,16z"/>
   <path class="fil20" d="M4969 888c4,7 2,11 4,18 4,-2 15,-15 19,-20 3,-4 5,-4 11,-4 4,6 5,9 13,11 4,-5 2,-11 11,-16 11,-2 11,11 19,14 7,-5 7,-24 18,-26 17,4 4,79 11,114 4,22 12,22 8,33 -9,8 -37,-5 -36,-35 2,-24 10,-46 12,-69 -8,4 -6,10 -17,10 -8,-4 -8,-12 -13,-14 -2,4 -2,4 -4,8 -2,4 -5,6 -7,6 -13,0 -8,-6 -17,-10 -7,2 -11,11 -19,15 -11,8 -18,-2 -24,-5 -31,29 -35,14 -43,14 -5,6 -11,10 -18,0 -6,-3 -11,-13 -15,-14 -8,7 -2,22 -15,27 -13,-3 -7,-22 -15,-26 -11,13 0,38 -20,34 -6,-6 -6,-9 -6,-21 0,-9 -2,-16 -7,-18 0,15 3,22 -6,35 -4,8 -19,21 -30,15 -20,-9 -31,-80 -16,-106 5,-9 18,-15 31,-9 11,5 15,16 17,28 4,22 7,7 20,26 6,-6 4,-15 17,-17 9,2 8,9 15,13 6,-4 4,-9 9,-11 17,-15 19,26 32,30 6,-8 7,-38 22,-53 21,-18 50,-1 45,15 -2,4 -6,8 -13,6 -4,0 -19,-19 -30,15 -5,18 9,13 15,5 6,-7 9,-18 22,-18zm32 -50c15,-6 24,3 28,9 17,35 -47,37 -35,0 1,-6 3,-8 7,-9zm76 46c0,-20 13,-33 24,-41 25,-22 45,0 30,11 -5,4 -17,4 -24,10 -17,11 -15,27 -4,26 2,-2 6,-4 8,-8 3,-9 7,-17 13,-18 15,-4 11,13 15,18 7,8 14,-2 18,-7 4,-8 8,-15 13,-19 8,-7 19,-5 23,2 5,17 -17,35 -26,41 -34,28 -36,2 -43,4 -8,3 -17,15 -34,11 -9,-2 -13,-17 -13,-30zm-370 -46c-2,-2 0,1 -2,-4 0,-4 0,-11 2,-15 4,-4 8,-9 6,-17 -8,-2 -12,4 -19,13 -41,54 28,56 56,91 43,56 -28,105 -89,86 -21,-6 -36,-15 -23,-37 6,-6 13,-11 23,-13 11,0 18,9 13,18 -8,10 1,11 16,11 25,-1 69,-18 43,-44 -13,-9 -24,-21 -39,-30 -19,-9 -30,-13 -35,-33 -13,-36 20,-80 44,-90 23,-9 41,-2 36,26 -2,15 -17,45 -32,38zm-125 243l661 0 0 -376 -661 0 0 376z"/>
   <path class="fil20" d="M4767 1118c7,0 18,0 26,0 7,0 11,6 11,13 0,15 -23,12 -37,10l0 -23zm-10 62l10 2 0 -30c42,-4 35,2 37,28l13 2c-9,-17 0,-26 -8,-34l-3 -2c13,-13 9,-28 -2,-33 -10,-4 -36,-2 -47,-2l0 69z"/>
   <path class="fil20" d="M5031 1157l-10 0c4,34 45,28 54,15 8,-11 0,-24 -7,-28 -11,-5 -22,-3 -34,-11 -3,-22 25,-16 28,-13 4,6 4,6 6,11l7 0c0,-18 -16,-27 -35,-20 -17,4 -24,26 -6,33 12,6 43,6 34,25 -6,7 -37,11 -37,-12z"/>
   <path class="fil20" d="M4878 1111c0,13 -2,35 0,50 4,30 52,28 54,-2 2,-15 2,-33 0,-48l-7 0c-2,13 0,28 0,41 0,15 -6,22 -19,22 -24,0 -19,-31 -19,-63l-9 0z"/>
   <polygon class="fil20" points="4614,1118 4638,1118 4638,1182 4648,1180 4648,1118 4672,1118 4672,1111 4614,1111 "/>
   <path class="fil20" d="M4776 903c0,52 26,44 30,22 2,-17 -13,-11 -21,-22 -7,-19 9,-30 9,-32 -16,-9 -18,19 -18,32z"/>
   <polygon class="fil20" points="5155,1118 5180,1118 5180,1182 5189,1182 5189,1118 5213,1118 5213,1111 5155,1111 "/>
   <path class="fil20" d="M5014 858c-2,-4 -6,-4 -7,0 3,0 5,0 7,0z"/>
   <path class="fil20" d="M4798 893c0,0 2,-2 2,-2 0,0 2,0 2,0l-2 -1c0,0 0,0 0,-2 -4,3 -2,0 -2,5z"/>
   <g id="_15240736032">
    <path class="fil20" d="M5799 796c0,16 -11,31 -20,42l-9 13c-11,16 -8,38 3,52 6,6 15,15 24,17 0,27 -47,60 -80,60 -27,0 -46,-4 -64,-20 -16,-18 -23,-42 -29,-49 0,29 6,43 18,65 4,9 11,15 15,26 18,21 45,40 73,52 34,20 82,24 122,11 9,-1 22,-5 29,-11 14,-5 14,-5 27,-16l24 -18c3,-4 7,-7 11,-11l14 -18c13,-17 22,-44 26,-68 2,-1 2,-7 2,-9 0,-5 1,-3 1,-11 -5,4 -3,11 -5,17 -4,16 -13,27 -24,36 -5,6 -16,13 -23,17 -19,7 -24,7 -46,7 -14,0 -38,-9 -51,-18 -14,-13 -24,-26 -29,-44 7,-7 7,-6 13,-13 14,-16 25,-25 25,-51 0,-22 -5,-40 -14,-53 -9,-12 -20,-21 -31,-29 -2,-2 -2,-3 -6,-3 0,12 4,21 4,27z"/>
    <path class="fil20" d="M5866 741l-2 2 2 -2zm0 0c0,-5 2,-7 2,-11l7 0c4,10 22,8 29,20 -1,4 -3,4 -5,10l-11 0c0,-2 0,-4 0,-6 6,0 7,0 11,0 0,-9 0,-7 -11,-7 -2,3 -5,3 -4,11 0,3 4,5 8,7 -2,5 -4,5 -4,7 0,2 0,0 0,2 0,4 0,4 0,6 9,-2 15,-20 26,-26l9 9c3,4 5,6 9,9 2,-2 3,-3 5,-7 -5,-2 -11,-7 -16,-11 -2,-2 -4,-4 -6,-5l-18 -15c-5,-4 -5,0 -7,-2 0,0 0,-2 -2,-2l-7 -3c-4,0 -2,-2 -6,2 0,-10 -1,-4 -1,-13 -4,-13 -2,-24 -17,-27 0,10 4,10 6,18 -4,-4 -4,-6 -13,-6 0,6 2,8 7,11 4,2 6,2 9,6 -5,1 0,1 -5,0 -8,-2 -8,-2 -17,-2 0,0 0,2 0,5l17 6c0,9 -2,11 -6,11l-2 2c-3,0 -7,-2 -7,-6 9,-4 11,4 11,-7 -5,0 -14,0 -14,9 -2,7 3,9 10,9 0,5 0,5 0,13l4 2c4,-2 4,-10 7,-15 0,0 0,0 8,0l0 7c-4,0 -2,2 -8,2 0,20 28,-11 4,-16l-2 3z"/>
    <path class="fil20" d="M5642 809l0 2c2,1 2,1 4,1 2,0 4,-1 4,-1 11,0 23,21 32,7l-20 -11c-3,-2 -3,-2 -7,-4 0,-2 2,-3 2,-7 7,2 16,11 25,16 4,0 4,-1 8,-3 -4,-4 -22,-17 -26,-20 2,-8 2,-4 7,-11 6,-6 2,-4 11,-9l4 3c-7,9 -13,9 -13,18l17 0c-2,-5 0,0 -4,-7l5 -5c10,5 6,11 19,11 -2,-6 -8,-11 -9,-15l-4 -2c-4,-5 -7,-5 -9,-11 2,-1 2,-1 7,-3 6,2 13,16 16,18 4,4 4,2 10,2 -2,-4 -19,-26 -20,-26 3,-5 3,-3 0,-9 -11,6 -6,4 -13,7 -2,2 -2,4 -4,6l-13 9c-1,4 -1,4 -3,5 0,2 -2,4 -4,4l-3 6c0,1 -2,1 -2,1 -2,2 0,2 -2,2 0,2 0,4 -2,6 -4,3 -13,16 -13,20z"/>
    <path class="fil20" d="M5946 789c0,1 0,1 0,5 0,0 -3,2 -3,2l-4 4c-5,-2 0,0 -5,-4 -2,-2 -4,-2 -6,-6 9,0 9,0 15,-5 2,2 2,2 3,4zm0 0l0 0zm9 40l2 0c-2,-4 -3,-9 -3,-11l7 -2 4 2c1,0 3,0 5,-2 -5,-9 -5,-13 -15,-26 -5,-5 -9,-14 -12,-16 -2,-4 -4,-4 -8,-2 -1,4 2,2 2,9 -5,4 -5,0 -9,-5 -5,-4 -5,0 -9,-6 0,-1 0,-1 -2,-3 -11,0 -14,7 -14,16 0,6 0,6 3,7 2,-14 4,-16 11,-16 0,6 -2,4 -3,7 0,4 0,2 1,6 6,-2 2,-6 9,-6 0,9 -7,13 6,20 2,2 0,0 2,2 -8,2 -9,6 -9,13 5,0 22,-13 29,-16 2,1 3,5 5,7 -7,2 -3,5 -12,2 -4,5 -6,7 -6,14 15,0 6,6 11,8 2,0 2,-2 5,-2z"/>
    <path class="fil20" d="M5786 712l0 4c2,0 2,0 6,0 7,0 7,0 14,0l0 7c-2,-2 0,-2 -3,-2 -6,0 -11,0 -13,4 -4,5 -2,11 2,16 1,4 3,6 11,6 -6,-7 -8,-4 -8,-17l11 0c0,4 0,6 0,11 0,4 2,4 2,8 -4,1 -4,1 -5,3 0,4 0,4 0,6 7,0 3,-2 10,-2 0,11 -10,4 -12,0 -4,-4 -6,-6 -11,-7 2,7 11,18 23,18 4,0 6,-4 6,-9 0,-6 -4,-8 -4,-13l0 -29c4,0 6,2 6,-2 0,-4 -4,-4 -6,-4l-27 0c-2,0 -2,0 -2,2z"/>
    <path class="fil20" d="M5604 1045c0,4 0,0 2,4 9,0 16,-16 24,-16 7,0 14,5 0,16 -4,4 -8,7 -11,11 1,4 1,4 3,5 15,-7 13,-16 26,-16 3,0 7,2 7,5 0,10 -20,15 -22,24 4,2 2,2 6,4 3,-2 22,-18 22,-28 0,-5 -6,-10 -15,-10 0,-10 -4,-17 -13,-17 0,-5 0,-4 0,-7 -5,0 -5,2 -9,3l-20 22z"/>
    <path class="fil20" d="M5573 974c0,-12 11,-7 6,-16 -13,2 -15,20 -6,33 9,11 26,7 26,-6 0,-14 -2,-27 5,-27 6,0 9,5 9,13 0,11 -7,5 -2,16 9,-2 13,-13 6,-25 0,-4 -2,-4 -4,-6l0 -2c0,-2 -2,-2 -2,-2 -5,-3 -9,-3 -12,-1 -2,0 -4,1 -4,3 -9,11 4,35 -9,37l-4 0c-5,-2 -9,-13 -9,-17z"/>
    <path class="fil20" d="M5852 1115c0,-13 16,-15 20,1 3,20 -20,20 -20,-1zm11 -33c0,11 1,11 3,18 -7,0 -11,-2 -14,2 -19,9 0,45 18,34 4,-3 4,-3 5,-5 0,4 2,2 6,2 0,-11 -7,-29 -9,-42 -2,-7 -2,-11 -9,-9z"/>
    <path class="fil20" d="M5697 723c11,7 9,-2 18,4 2,0 4,2 6,3 -6,2 -15,6 -19,11l2 2c0,0 0,0 0,0 6,4 9,-2 13,-3 5,-2 4,0 4,1 1,2 1,0 0,2 0,2 -2,2 -4,2 -2,2 -2,0 -2,7 0,6 0,8 4,8 7,7 13,3 16,3 6,0 2,0 7,2 2,-2 2,0 2,-2 0,-5 0,0 -3,-5 -6,-13 -2,-9 -11,-8 0,6 0,2 0,10l-8 0c0,-4 -1,-6 -1,-10 3,0 9,-3 11,-5l-6 -11c9,-4 4,-7 -7,-11 -6,-4 -17,-9 -22,0z"/>
    <path class="fil20" d="M5666 1093c-13,0 -11,-13 -7,-13 7,0 12,4 16,7 -2,4 -4,6 -9,6zm-5 -29c1,3 0,5 5,5 5,0 5,-4 9,0 7,4 7,13 2,11l-11 -4c-9,-5 -20,2 -20,9 0,8 11,13 20,13 0,4 0,4 2,6l3 3c2,-3 17,-27 17,-29 0,-9 -9,-16 -17,-16 -3,0 -7,2 -10,2z"/>
    <path class="fil20" d="M5737 1131c-2,-13 2,-9 20,-9 0,5 -5,11 -13,11l-7 -2zm-2 -24c7,0 4,2 9,0 6,-5 15,-3 15,8 -18,0 -29,-4 -29,10 0,15 22,11 22,11 3,0 0,0 3,0 4,2 2,2 4,4 2,-13 14,-33 0,-38 -9,-6 -24,-6 -24,5z"/>
    <path class="fil20" d="M6017 1011c-9,0 -2,-17 -2,-20 15,0 10,20 2,20zm-25 -15c0,6 2,9 3,9 6,0 4,0 6,0 -11,-16 9,-25 9,-14 0,5 -5,7 -5,14 0,13 16,17 21,6 4,-6 4,-8 4,-15 4,0 4,-2 4,-5 0,-2 -24,-13 -29,-13 -8,0 -13,13 -13,18z"/>
    <path class="fil20" d="M5930 1105c-11,0 -4,-12 0,-12 2,-2 2,-2 2,-4 3,-2 0,-2 5,-4 6,11 0,20 -7,20zm-20 -12c2,-2 7,-2 7,-6 0,0 -3,-5 4,-9 3,-4 9,-2 11,0 0,11 -24,15 -13,29 7,9 22,0 26,-11 5,4 1,2 7,0 0,-3 -6,-7 -9,-14 -8,-9 -8,-13 -15,-13 -14,0 -18,9 -18,24z"/>
    <path class="fil20" d="M5821 1093l-13 36c0,2 0,4 -2,4l0 3c-3,-12 -16,-40 -16,-43l-8 0c0,5 4,9 6,14l15 37 9 0 16 -53c-2,2 -2,2 -7,2z"/>
    <path class="fil20" d="M5963 1020c-2,0 -4,0 -6,0 2,5 2,3 4,7l34 22c4,4 4,4 8,0 0,-9 -24,-11 -24,-24 0,-3 4,-7 9,-7 4,0 17,13 26,15 1,-2 1,-2 1,-6 -10,-7 -34,-31 -40,-4 -1,10 -9,-3 -12,-3z"/>
    <path class="fil20" d="M5602 1023c-16,0 -12,-21 9,-21 13,0 9,21 -9,21zm-18 -9c0,6 4,8 6,11 20,22 52,-16 25,-29 0,-2 -2,-2 -2,-2 -2,-1 -5,-1 -7,-1 -9,1 -22,10 -22,21z"/>
    <path class="fil20" d="M5730 727c2,2 2,3 2,3 3,0 16,-5 20,-5 3,11 5,11 1,16 -3,4 -7,4 -7,0 0,-5 4,-5 7,-9 0,0 -1,-3 -9,-2 -11,6 0,26 15,15 0,7 2,9 9,9l-9 -31c2,-2 2,-2 5,-2l-2 -5c-10,0 -25,5 -32,11z"/>
    <path class="fil20" d="M5901 1113l0 0zm0 0c-4,-2 -11,-8 -13,-13 -7,-9 -9,-7 -14,-6 0,4 1,4 3,6 6,5 24,22 26,25 0,10 -6,8 -8,13 6,4 9,4 11,-2 4,-7 0,-43 -3,-54 -9,0 -2,7 -2,31z"/>
    <path class="fil20" d="M5697 1127l-7 0c0,4 0,6 0,6 3,3 9,3 11,2l31 -33c3,-4 3,-4 5,-8 -4,0 -2,0 -5,0 -2,0 -17,19 -21,21 0,-8 0,-13 0,-21 2,-5 4,-10 -5,-10l-2 38c-2,3 -3,5 -7,5z"/>
    <path class="fil20" d="M5577 792c0,8 5,9 7,17 -5,-2 -7,-4 -15,-4 0,2 0,4 0,7l30 9c0,-1 0,-3 0,-5 -6,-4 -8,-2 -9,-9 12,-2 18,-2 18,-11 -2,2 -18,4 -24,4 0,-4 -2,-8 -4,-13 0,2 -3,2 -3,5z"/>
    <path class="fil20" d="M5963 1073l0 0zm0 0c-4,0 -18,-9 -26,-11l-5 2c3,3 33,21 38,16 4,-4 -9,-31 -11,-36 -5,1 -2,1 -5,1 0,9 7,19 9,28z"/>
    <path class="fil20" d="M5715 678c0,-6 0,-6 2,-6 11,6 7,9 5,11 -1,2 -7,4 -7,-5zm13 9c0,12 -6,2 -13,9 4,7 15,0 18,-4 0,-11 -5,-20 -7,-27 -2,0 -11,4 -13,4 -11,3 -5,18 2,21 6,2 7,-3 13,-3z"/>
    <path class="fil20" d="M5782 654c4,2 4,4 6,7l-7 0c0,-3 0,-3 1,-7zm-14 22l7 0c2,-9 6,-7 15,-7l2 3 7 0c0,0 -2,-3 -4,-5l-2 -6c-3,-5 -5,-18 -11,-18 -3,0 -5,2 -7,5 0,4 -2,8 -2,10l-5 18z"/>
    <path class="fil20" d="M5640 716c0,9 2,5 4,13 -2,-2 -7,-6 -13,-6 -1,7 -1,6 4,15 -4,-2 -13,-9 -15,0 6,2 24,14 24,5 0,-3 -2,-7 -4,-11 4,0 6,4 11,6 6,-8 4,-6 -3,-17 -2,-3 -2,-5 -6,-7 -2,2 -2,2 -2,2z"/>
    <path class="fil20" d="M5943 718c-2,-4 0,-9 5,-11 2,0 4,2 6,3 -2,6 -6,8 -11,8zm-11 -2c11,5 3,3 11,7 5,7 16,-2 16,-11 0,-7 -4,-7 -9,-11 2,-2 5,-3 5,-9 -5,0 -5,-2 -9,6 -1,1 -3,3 -5,3 -2,4 -9,13 -9,15z"/>
    <path class="fil20" d="M5690 687c20,0 5,18 0,5 -2,-3 -2,-3 0,-5zm0 -17c0,4 0,6 1,9 -5,4 -9,4 -9,11 0,6 4,11 13,11 6,0 4,0 9,-3 2,0 2,0 4,-2 0,-6 -7,-20 -11,-24 -2,-2 -4,-3 -7,-2z"/>
    <path class="fil20" d="M5664 831c-2,5 -5,1 -7,9 7,9 9,1 14,-4 4,-2 0,2 4,-2 -2,-3 -2,0 -5,-3 -8,-6 -4,-11 -17,-2 0,-4 4,-8 4,-13 -2,0 -4,0 -7,0 -2,2 -2,4 -4,9 -2,6 -4,7 -2,11 2,4 7,2 11,0 2,-5 2,-5 9,-5z"/>
    <path class="fil20" d="M5955 829l-10 5c-8,2 -8,2 -8,11 8,-2 24,-11 29,-13 4,2 2,4 8,4 5,0 1,-5 0,-11 0,-2 -2,-4 -2,-7 -4,0 -4,2 -7,2l0 7c-4,0 -4,2 -10,2z"/>
    <path class="fil20" d="M6006 960c0,3 0,2 2,3 -3,2 -3,2 -3,8 3,0 12,5 16,5 5,2 13,6 18,6l2 -6 -7 -3c0,0 0,0 0,0 -24,-6 -19,-6 -19,-19 -3,-2 0,-2 -5,-3 -2,1 -4,3 -4,9z"/>
    <path class="fil20" d="M5741 670c0,-3 0,-3 0,-5 3,0 5,-2 5,4 -4,0 -2,0 -5,1zm-9 0c0,17 21,17 23,2 -11,0 -3,4 -11,6 -2,-4 -2,-2 -2,-6 4,0 13,0 13,-2 0,-14 -23,-14 -23,0z"/>
    <path class="fil20" d="M5875 670c6,-1 8,-1 8,2 -4,0 -4,0 -8,0l0 -2zm-9 6c0,9 13,16 20,7 -7,-4 -3,-2 -11,-2 -1,-2 -1,-2 -1,-5 1,0 10,3 14,3 0,-1 4,-16 -11,-16 -7,0 -11,9 -11,13z"/>
    <path class="fil20" d="M5673 699c-2,4 0,2 -2,2 -3,4 -5,2 -3,0 2,-3 2,-2 5,-2zm-12 2c0,18 23,18 23,4 0,-2 -3,-2 -5,0 -4,4 -2,9 -8,5 2,-7 6,-5 10,-9 -4,-12 -20,-9 -20,0z"/>
    <path class="fil20" d="M5826 670c-9,0 -7,-7 -5,-12 5,0 5,0 9,0 2,1 2,3 2,7 0,2 -2,5 -6,5zm-13 -9c0,22 24,17 24,6 0,-24 -24,-15 -24,-6z"/>
    <path class="fil20" d="M6014 794c3,0 5,0 5,2 0,4 -2,5 -4,5 0,-1 -1,-3 -1,-7zm-13 6c0,1 2,5 4,7 1,4 3,2 7,4 0,-11 -9,-8 -4,-15 2,2 6,9 7,13 17,-8 8,-20 -1,-20 -8,0 -13,5 -13,11z"/>
    <path class="fil20" d="M5988 761c6,2 7,8 2,8l0 0c-5,0 -4,-4 -2,-8zm0 -3c-5,0 -9,2 -9,5 0,4 6,7 6,9 3,2 1,-2 3,2 0,2 0,2 2,4l13 -8c2,-3 2,-1 2,-7 0,-7 -4,-11 -13,-11 2,8 11,8 7,11 -4,2 -9,-5 -11,-5z"/>
    <path class="fil20" d="M5965 727c1,-2 1,-2 3,-2 6,0 4,4 4,5l-7 -3zm-10 3c0,13 10,15 15,11 -2,-3 -5,-5 -9,-5l0 -6c7,0 5,6 11,10 11,-8 3,-22 -4,-22 -7,0 -13,5 -13,12z"/>
    <path class="fil20" d="M5613 756c0,-2 0,-2 0,-4 13,-3 13,0 13,9 -6,0 -13,0 -13,-5zm-5 2c0,5 5,11 12,11 15,0 15,-24 -1,-24 -6,0 -11,4 -11,13z"/>
    <path class="fil20" d="M5590 781c1,4 18,15 21,11 4,-9 -12,-3 -12,-16 0,-7 11,4 20,5 0,-3 1,-3 -6,-9 -2,-2 -5,-3 -9,-5 -7,-2 -7,7 -13,13 0,1 0,0 -1,1z"/>
    <path class="fil20" d="M5841 676c14,0 3,-11 12,-15 8,4 2,11 0,18 2,2 4,2 6,2 4,-7 4,-9 4,-20 0,-3 -4,-3 -6,-3 -5,0 0,0 -4,0 0,0 -1,0 -1,0l-4 0c-2,-2 -2,-2 -2,-2 -2,2 -5,16 -5,20z"/>
    <path class="fil20" d="M6019 827c-7,-2 -4,-6 -4,-11l-3 -2c-7,11 2,18 7,18 7,0 6,-7 6,-16l3 0c0,11 -2,11 4,13 5,-15 -11,-28 -13,-13 0,4 0,9 0,11z"/>
    <path class="fil20" d="M5901 698c11,1 14,11 20,5 -2,-4 -7,-7 -13,-7 2,-9 9,-17 11,-24 -4,-3 -5,-2 -11,7 -4,4 -7,11 -7,19z"/>
    <path class="fil20" d="M5681 1113c5,2 5,0 7,-4 5,-5 14,-22 16,-29 -3,0 -3,0 -3,-2 -6,7 -20,27 -20,35z"/>
    <path class="fil20" d="M5961 1038c4,7 22,24 27,26l2 -2c-4,-8 -20,-24 -27,-28l-2 4z"/>
    <path class="fil20" d="M5832 1105c0,11 3,24 3,37 11,0 8,2 4,-29 -2,-6 0,-11 -7,-8z"/>
    <path class="fil20" d="M5994 785c0,5 1,4 5,7 4,-3 2,-3 2,-3 0,-4 0,-4 4,-6 7,-5 3,-2 10,0 2,-3 0,-3 2,-7l2 -2c0,0 0,0 0,-2 -11,-7 -14,2 -16,4 -4,4 -9,4 -9,9z"/>
    <path class="fil20" d="M5803 652l0 20 5 0c4,-14 0,-16 0,-29l-5 0c0,4 0,4 0,9z"/>
    <path class="fil20" d="M5642 703c2,2 15,16 19,24l5 -4c0,-4 -16,-22 -20,-22l-4 2z"/>
    <path class="fil20" d="M5970 749c0,1 0,3 2,5 3,-2 7,-9 14,-9 0,0 2,2 2,2 2,2 0,0 2,2 2,-2 2,-2 4,-2l0 -4c-4,-2 -4,-2 -4,-2 0,-3 -2,-3 -2,-5 -7,2 -14,9 -18,13z"/>
    <path class="fil20" d="M5630 834l7 4c2,-7 7,-17 7,-22 -2,0 -2,-2 -4,-2 -3,6 -7,15 -10,20z"/>
    <path class="fil20" d="M5923 707c0,3 0,2 1,5 8,0 4,-2 10,-11 1,-2 9,-11 0,-11 -2,0 -4,6 -6,9 0,2 -5,6 -5,8z"/>
    <path class="fil20" d="M5924 838c2,2 6,3 6,7 0,4 -6,4 -7,11 5,-2 11,-7 11,-15 0,-5 -2,-5 -2,-9 -4,2 -4,4 -8,6z"/>
    <path class="fil20" d="M5830 1091l0 3c0,6 2,2 7,2l-2 -5c-3,0 -3,0 -5,0z"/>
    <path class="fil20" d="M5702 1074c4,2 4,2 8,2 0,-2 5,-9 -2,-9 -4,0 -6,4 -6,7z"/>
    <path class="fil20" d="M5948 1031l6 3c7,-5 5,-3 0,-9l-6 6z"/>
    <path class="fil20" d="M5935 689c6,0 6,0 10,-2 -2,-2 -2,-2 -6,-4 -2,4 -2,4 -4,6z"/>
   </g>
   <g id="_15240719552">
    <path class="fil20" d="M6546 1070l0 35 -7 0 0 -31c0,-6 0,-6 7,-4zm-7 -13c4,0 7,0 7,2 6,7 -9,11 -7,2l0 -4zm13 6c-2,-6 5,-6 14,-6 6,0 8,0 8,4 2,7 -6,3 -9,3 -4,0 -6,0 -9,0 -4,0 -4,2 -4,-1zm-84 -15c2,-7 18,-5 22,-5 4,0 4,3 7,7l8 7 25 0c7,0 7,0 7,7 -7,2 -20,2 -25,2 -11,0 -7,0 -13,6 -5,7 -5,9 -11,9 -11,0 -18,2 -18,-7l11 1c9,0 9,-1 13,-5 0,-6 3,-7 0,-13 -8,-14 -2,-9 -26,-9zm78 -16c0,11 4,23 -3,23 -6,0 -4,-5 -4,-11 0,-16 2,-12 -11,-23 -5,-4 -5,-6 -5,-22 3,0 2,0 7,-2l0 18c2,2 11,8 13,8 3,0 11,-6 14,-8l0 -16c8,0 2,0 8,2 0,5 -2,7 -2,11 0,12 -2,3 -17,20zm26 -102l2 0c0,0 7,0 9,-2 5,0 7,-2 11,-4 5,0 9,4 14,6 4,3 8,3 17,5 2,11 0,6 -15,11 -7,4 -14,7 -24,7 4,-3 4,-1 6,-3 4,-6 -6,2 7,-8 2,-1 2,-1 2,-3 -4,-4 -9,-2 -16,-2l-11 -4c-4,-1 -2,0 -2,-3zm-60 0c5,-2 33,-8 29,2 0,1 -2,1 -2,5 -2,4 0,13 -7,13 -4,0 -4,0 -6,-2l-3 2c0,5 2,3 9,3 7,0 5,-7 14,-3 2,2 2,2 4,2 7,3 15,3 22,3 11,0 13,6 33,-2 5,-3 9,-9 20,-7 3,9 0,9 12,9 4,0 2,0 4,-2l-5 -1c-6,0 -6,0 -8,-2l0 -24c11,0 13,6 24,6 9,0 18,0 29,0 9,0 20,0 31,0 0,0 27,0 29,1 0,6 0,37 0,46 0,45 0,73 -38,102 -7,5 -27,16 -36,20l-10 2c-5,3 -12,5 -18,7 -2,2 -3,4 -7,4 -4,1 -5,1 -7,3l-31 15c-6,2 -13,7 -18,7 0,-4 1,-5 1,-9 2,-25 0,-53 0,-78 0,-11 0,-89 -1,-93l-4 0 2 96 -17 0c-5,0 -5,0 -5,-1 0,0 0,0 0,0 0,0 0,0 0,0l0 -11c0,-6 -2,-9 0,-13 18,-17 14,-2 14,-31 -1,-2 -14,-13 -16,-13 0,6 2,7 2,13 2,2 2,11 2,14 0,0 -9,6 -11,6 -2,0 -9,-6 -9,-6 -4,-3 0,-14 2,-20 1,-3 1,-1 1,-5 -3,0 -16,9 -16,11l-2 20c2,4 11,9 15,11 3,2 2,20 2,25 -6,0 -26,0 -28,0 -3,-1 -3,-1 -5,-3l-9 -13c-4,0 -9,0 -15,0 -5,0 -9,0 -13,5l-7 10c-2,1 0,1 0,3 2,0 7,-2 11,-3 4,-2 13,-4 16,0 0,0 2,0 2,0 2,1 6,5 6,7 -2,3 -6,11 -8,11 -5,0 -9,0 -14,0 -2,0 -9,-4 -11,-4 0,4 2,4 4,6 1,3 3,10 7,12 3,0 7,0 11,0 14,0 11,-5 23,-16l30 0c1,9 0,20 0,31 0,7 0,11 14,7 2,-9 2,-22 2,-34l0 -2c0,-2 0,-2 0,-2 2,0 4,0 4,0l10 0c2,0 4,0 4,0 4,0 2,0 4,0 2,2 2,45 0,53 0,3 -2,7 -2,7 0,2 0,4 0,5l0 4c0,0 0,0 0,0 -2,2 -2,2 -4,2 -2,0 -2,-2 -5,-4 -2,-2 -6,-2 -9,-3 0,0 -2,-2 -2,-2l-15 -6c0,-1 -3,-1 -7,-3 -4,-2 -5,-2 -7,-4l-44 -18c-2,0 -5,0 -7,-2 -22,-7 -44,-20 -57,-40 -7,-9 -9,-20 -12,-33 -4,-7 -2,-14 -2,-22 -2,-7 0,-63 0,-72 14,-4 76,1 98,1 7,-1 9,-1 13,-3l0 0zm53 0c1,5 7,5 12,9 6,2 8,2 15,2l4 0c0,0 0,0 -4,1 -13,2 -26,-5 -35,-5 6,4 19,7 24,9l4 2c-6,4 -20,-7 -31,-7 3,3 5,3 11,5l9 7c-13,0 -20,-3 -31,-9 0,-3 2,-11 3,-14 4,-4 6,-4 11,-8 6,-1 11,0 17,-1 7,0 11,-2 16,-2 0,3 0,5 -4,5 -10,4 -18,0 -21,6zm74 -53c0,-4 0,-6 4,-9 4,0 5,7 5,7 0,2 -5,2 -9,2zm-40 -7c4,1 6,1 6,7l-9 0c0,-4 0,-2 1,-6 2,-1 0,0 2,-1zm-7 1l0 -9c7,2 5,9 0,9zm11 -3c2,-7 5,-6 7,-6l0 9c-3,0 -5,-1 -7,-3zm44 -6c3,-3 0,-1 5,-3l0 9c-5,0 -5,0 -5,-6zm-10 6l0 -9c2,2 4,3 4,7 -2,2 -2,2 -4,2zm-41 -13l11 0c0,6 0,4 -4,6 -4,3 -2,5 -7,0 0,-2 -2,0 0,-6zm43 -2l9 -2c0,6 -1,2 -3,8 -4,0 -6,-2 -6,-6zm-235 0c11,0 -9,-3 30,-3l29 0c0,0 0,3 0,3 0,2 0,0 2,2 1,-2 0,0 0,-2 0,0 0,-2 0,-2 9,-1 10,2 14,6l4 9c2,5 -11,2 -24,2 -4,0 -56,2 -58,0 -2,-2 0,-6 2,-9l-4 -2 0 -33c4,0 7,-2 11,-2 2,8 -2,15 2,19 3,1 3,0 5,3 -2,2 -2,0 -3,2 -2,0 -10,0 -10,7zm51 -11l-31 0c-10,0 -9,-3 -9,-14 0,-7 0,-17 0,-24 0,-18 -1,-16 29,-16 30,0 24,-6 24,40 0,11 -2,14 -13,14zm-56 -21l0 -11c0,-6 -2,-6 4,-8 3,0 3,-2 7,-2l0 17c-4,2 -4,4 -11,4zm337 23l-24 24c0,3 0,3 -2,3 -2,-18 0,-40 0,-60 0,-7 2,-7 11,-16l11 -13c2,-2 2,-2 6,-2l-2 64zm-213 -58c3,2 11,9 11,11l-19 0c0,-2 2,-2 4,-4 2,-2 4,-5 4,-7zm173 -22c2,-2 2,-2 5,-2 2,2 0,2 2,2l0 26c-2,0 -5,3 -7,1 -2,-1 0,-23 0,-27zm-113 49c-2,-7 -2,-11 3,-14l22 -17c2,-2 8,-7 11,-9 0,2 0,7 2,9 0,4 0,4 2,8 5,0 13,-2 16,-4 4,0 8,0 11,0 4,0 4,-2 9,-2 0,4 0,4 -3,6 -13,12 -2,7 -31,14 -6,2 -15,4 -20,6 -8,0 -15,3 -22,3zm-53 -25c0,0 -2,-4 -4,-4 -1,-2 4,-5 8,-5 0,3 2,9 2,12 -4,-1 -2,-1 -6,-3zm-16 3c0,0 1,-12 1,-12 4,0 8,3 6,5 -2,4 -4,7 -7,7zm165 -16l0 11c4,2 6,0 11,0l0 9c6,2 8,2 13,0 5,-2 5,-4 5,-13 8,0 17,-3 22,-3 -2,3 -12,14 -16,18 -2,2 -2,0 -2,2 -5,5 -4,7 -20,9l-38 3c-4,0 -2,-3 -2,-7 0,-7 2,-7 9,-13 2,-1 2,-3 6,-7 1,-2 1,-2 7,-7 2,-2 0,-2 5,-2zm-142 -2c0,2 0,4 0,7 2,2 6,15 4,17 -4,0 -2,0 -4,-11l-1 -7c0,-2 0,-2 0,-4 0,-2 0,0 1,-2zm-29 26c-2,0 -3,-2 -5,1 2,4 5,0 9,0 5,0 11,0 14,0l22 0c4,0 4,2 4,-1 -2,-2 -4,0 -6,-2 -1,-2 -3,-11 -3,-15 0,-3 -2,-3 -2,-7 7,0 2,2 13,9 3,2 5,2 9,4 0,0 3,2 3,2l2 3 0 93 6 0c3,-5 -2,-76 0,-93l12 0c-1,4 -1,4 -5,6 0,1 -2,1 -2,5 0,0 0,7 0,7 2,4 2,4 4,6 11,2 27,-7 42,-7l23 -8 -1 11c7,4 7,2 14,2 11,-2 22,-4 33,-5 4,0 7,0 13,0l0 65 -53 2c0,-9 2,-24 0,-27 -4,-2 -15,-2 -18,0 -6,3 1,21 -2,25 -2,2 0,2 -2,2 -5,0 -15,0 -20,0 -2,-7 2,-15 0,-22 0,-2 -2,-2 -2,-2 -5,0 -11,0 -16,0 -6,0 -6,0 -6,6l0 18c-7,0 -9,-4 -9,4 9,1 104,0 120,0 13,0 11,-2 17,-10 7,-5 12,-16 20,-21 2,-2 2,-2 5,-4 0,25 0,56 -2,80 -12,2 -85,4 -94,0 -6,-2 -8,-4 -13,-4 -9,0 -7,0 -7,8 -11,0 -18,-4 -28,-8 -11,-5 4,-7 -16,-5 -11,2 -25,0 -35,5 -5,4 -3,2 -9,2 -23,0 -22,2 -36,4 -20,2 -53,0 -77,0l-20 -2c-7,0 -5,-2 -5,-13 0,-3 0,-9 0,-14 0,-7 0,-17 0,-24 2,-7 7,-4 9,-4 22,0 53,2 71,0 6,0 7,-1 9,-3 2,-4 -5,-11 -9,-15 0,0 -2,-3 -4,-5 -1,0 -1,0 -1,0 0,0 -2,0 -2,0l-2 0c-2,-2 -4,-2 -5,-2 3,-9 7,2 7,-22 0,-34 -6,-18 20,-38 9,-6 13,-13 20,-13 0,6 -4,22 -4,26zm22 -26c-2,7 -9,9 -9,0 2,0 7,0 9,0zm-9 -11c0,-3 0,-7 0,-9 2,-3 2,-7 2,-11 2,4 2,4 2,8 3,12 5,12 -4,12zm53 -74c3,1 2,1 5,3 6,6 22,18 29,20 13,8 9,4 19,9 12,6 36,9 49,9 9,0 22,-1 29,-5l7 0c2,-2 2,-2 6,-2l14 -7c9,-6 6,-6 9,-6 0,8 4,59 0,59 0,2 0,2 0,2 -7,1 0,-2 -3,1 -4,2 -26,6 -30,6 -1,-18 2,-17 -7,-18l0 -6c4,-2 6,0 6,-7l-11 2c-4,2 -4,2 -6,5 4,4 4,0 6,6 -2,1 -2,0 -4,1l0 20c-4,2 -4,2 -9,2l-2 -14c-3,0 -9,3 -11,7 -3,5 -3,5 -13,7l-32 2c0,-2 0,-14 -2,-16 -4,0 -6,2 -13,7 -3,4 -13,13 -18,13 -6,2 -13,2 -18,0l0 -100zm-115 94c2,-2 0,0 4,0l14 -11c9,-3 28,-20 35,-29 5,-3 3,-5 9,-5 0,3 -2,3 -2,7 -4,9 0,18 -7,18 -4,2 5,0 0,2 -6,0 -4,-2 -6,2 2,2 0,2 2,2l29 -2c6,2 9,2 9,-2 -3,-2 -5,-2 -9,-2 -1,-5 -1,-12 -3,-18 -2,-5 0,-5 0,-5 2,0 3,1 3,3 15,15 28,18 31,24 0,2 0,5 0,9 0,7 2,13 -2,11 -3,0 -12,-4 -14,-7l-4 -8c-5,-3 -27,-1 -33,-1 -7,0 -9,-2 -12,3 -6,7 -24,20 -31,22l-2 -5c-4,-6 -7,-6 -9,-8 -2,0 0,0 -2,0zm109 -23c-5,0 -12,-6 -16,-8 -4,-3 -11,-7 -13,-12 6,0 9,1 13,1 7,0 13,0 16,0l0 19zm-174 -51c1,5 0,1 5,3 2,0 4,2 5,2l2 2c0,2 0,2 2,2l15 7c5,0 12,4 18,4 16,1 34,1 49,-2 7,0 15,-2 22,-6 9,-1 14,-5 22,-9 5,-3 11,-7 18,-12 2,-4 13,-11 14,-13 0,9 0,18 0,25 0,4 2,24 0,26 -3,2 -20,0 -23,-2 -4,-2 -7,-4 -9,-6 -9,-5 -6,-7 -15,-1l-18 11c-7,3 -16,9 -26,11l-9 3c-11,2 -29,4 -40,6 -5,0 -14,-2 -18,1 7,4 53,-1 58,-5 2,-2 6,-2 8,-2l18 -5c3,-2 16,-9 20,-9 -2,3 -17,14 -20,18 -9,7 -15,11 -24,16 -3,4 -9,6 -14,7 -11,8 -28,0 -35,4 -9,4 -7,9 -9,13 -4,0 -7,2 -13,0 0,-6 0,-15 0,-20 0,-9 -2,-11 2,-18 -2,-6 -2,-15 -2,-20 -2,-6 0,-13 0,-17l-3 31c0,15 0,27 0,40 0,24 1,49 1,75 0,25 0,51 0,76 0,26 -1,55 2,77 0,5 2,9 4,14 2,11 5,20 13,28 1,3 7,7 7,9 13,12 29,23 47,29l42 16c4,2 9,6 13,8 3,1 9,3 14,5 0,0 2,2 6,4 2,0 5,0 7,1 4,2 9,6 13,8 7,2 5,3 14,2 19,-8 35,-17 51,-26l28 -11c3,-2 5,-2 7,-3l20 -8c31,-14 55,-40 60,-74l2 -17c0,-7 2,-13 0,-20 -2,-9 0,-45 0,-56 0,-8 0,-68 0,-77 2,-14 0,-56 2,-74 0,-20 0,-59 -2,-77 -4,0 -4,4 -6,6 -11,3 -27,12 -36,14 -11,2 -27,2 -42,2 -13,-2 -24,-4 -36,-9 -20,-7 -35,-20 -51,-35 -4,0 0,0 -4,-1 -4,0 -4,1 -7,5 -18,18 -42,33 -69,38 -17,2 -37,4 -55,2 -13,-4 -15,-5 -24,-9 -3,0 -16,-7 -18,-7 -2,-2 -2,0 -3,0z"/>
    <path class="fil20" d="M6468 715c9,0 13,0 20,0 6,-2 4,-2 7,-4 10,-2 22,-5 28,-9 9,-7 18,-11 29,-22 0,0 14,-18 16,-18 4,2 4,2 8,4 20,22 10,14 34,33 15,10 44,18 60,18 11,0 18,-2 28,-6 18,-2 32,-14 49,-23 3,-2 3,-6 9,-8l0 290c0,20 2,51 -6,71 -3,7 -5,14 -9,22l-16 20c-6,3 -17,12 -24,16l-11 6c-3,1 -5,1 -7,3 -4,2 -5,2 -9,4 -7,3 -9,3 -17,5 -10,4 -18,8 -25,11l-51 26c-9,5 -7,5 -22,-6 -3,-2 -5,-2 -7,-3 -2,0 -6,0 -7,-2 -8,-2 -11,-6 -17,-8l-14 -5c-17,-5 -35,-13 -49,-18 -2,-2 -2,0 -4,-2l-7 -4c-8,-3 -2,0 -11,-5 -2,0 -2,-2 -6,-2 -3,-2 -11,-9 -16,-13 0,0 -4,-2 -6,-3 -1,-2 -3,-4 -5,-6 -13,-13 -15,-20 -20,-34l-4 -19c0,-7 -2,-5 -2,-11 -1,-25 0,-61 0,-87l0 -244c6,0 15,11 19,13l18 11c3,2 3,2 11,3 3,0 7,2 12,2 10,4 13,4 24,4zm100 -60c-2,2 -3,7 -9,11 -7,5 -7,11 -11,7 -3,-4 -5,-7 -7,-11 0,-4 -2,-5 -2,-11 2,-18 26,-29 42,-23 29,10 15,45 9,47 -4,0 -13,-13 -14,-15 -4,-3 -4,-3 -8,-5zm-27 -20c0,9 -9,7 -2,31 4,11 13,11 0,18 -7,7 -16,13 -27,18 -40,18 -82,9 -117,-16l-11 -9c-3,-2 -3,-4 -5,-6 0,4 2,6 2,9 -2,113 0,222 -2,333 0,6 2,8 2,11l2 10c5,14 11,30 21,41 2,0 2,2 2,2 2,2 2,2 2,4 6,5 11,7 13,11 5,5 16,11 23,13 2,1 2,1 4,1l60 24c2,2 2,2 4,2 18,7 34,13 49,23l13 10c2,-4 7,-6 14,-11l17 -9c5,-4 14,-10 22,-11l12 -6c11,-3 20,-7 29,-11 10,-2 19,-7 28,-12l16 -8c22,-14 37,-36 44,-62 0,-3 0,-7 2,-9 0,-5 0,-7 0,-13 0,-5 1,-7 1,-12l0 -277c0,-15 0,-27 0,-40 0,-5 -1,-7 -1,-13 0,0 0,0 0,0 0,0 0,0 0,0l-6 9c-2,0 -2,0 -5,0l-13 11c-2,2 -4,4 -6,4 -7,4 -16,9 -25,13 -24,7 -56,3 -78,-8l-17 -9c-1,-2 -1,-2 -5,-3 -4,-2 -7,-8 -11,-8 7,-14 11,-12 11,-31 0,-7 -7,-16 -13,-20 -9,-7 -13,-7 -24,-7 -5,0 -1,0 -9,2 -5,2 -9,9 -16,11z"/>
    <path class="fil20" d="M6448 959c17,-4 29,9 31,22 4,16 -7,29 -20,32 -25,4 -44,-25 -27,-43 3,-7 9,-7 16,-11zm-24 -13c0,9 6,6 6,15 -13,0 -9,-15 -20,2 -2,1 -6,7 -4,7 0,3 17,13 2,16 -2,0 -4,2 -5,4 0,2 3,9 3,9 6,11 2,5 6,11 5,2 7,-2 9,-2 2,0 3,0 3,4l0 1c-1,0 -3,4 -3,6 0,2 16,13 18,13 5,-2 7,-17 11,-9l7 9c4,0 20,-4 22,-6 0,-9 -4,-5 -4,-13 11,0 11,11 17,4 2,-4 13,-14 13,-18 -6,-4 -13,-2 -11,-11 3,-4 7,-2 9,-4 0,0 0,0 0,0 0,0 0,0 0,0 0,0 0,0 0,-5 -2,-2 -2,-4 -4,-6 0,-3 -2,-5 -2,-9 -5,0 -7,4 -14,4 0,-5 0,-4 5,-9 2,-4 4,-4 -3,-6 -6,-3 -13,-11 -20,-11 0,2 0,4 0,6 -6,9 -10,4 -11,0 0,-4 -2,-6 -4,-7 -2,0 -7,1 -13,1 -2,2 -7,4 -13,4z"/>
    <path class="fil20" d="M6690 955c8,0 8,4 15,6 7,0 7,-6 13,-6 3,2 3,6 5,8 2,5 4,5 7,7 2,7 -2,3 -7,5 -4,4 -2,4 -4,9 -1,2 -7,4 -9,0 -2,-5 0,-9 -7,-7 -4,4 -4,6 -5,7 -11,2 -2,-3 -11,-12 -4,-2 -4,-4 -2,-8 2,-3 3,-5 5,-9zm11 -14c-11,1 -11,0 -18,9 -4,3 -2,2 -4,5 -3,4 -5,8 -5,18 4,26 38,33 56,13 11,-11 11,-31 -5,-42 -6,-3 -15,-5 -24,-3z"/>
    <path class="fil20" d="M6661 995c2,4 2,6 2,9 0,6 2,8 -4,8 -3,-4 -3,-6 -3,-11 0,-4 0,-8 5,-6zm-24 -2l4 2c0,4 0,6 0,9 0,4 2,6 -2,6 -3,-4 -3,-11 -2,-17zm-16 15l0 -13 4 0c0,0 2,15 -4,13zm-25 -20c1,0 1,-2 1,4 0,0 0,3 0,3 -1,4 -1,2 -1,4 0,0 -2,0 -2,-9 2,-2 0,-2 2,-2zm23 -4c11,0 37,0 46,0l0 8 -55 0c-2,-8 2,-8 9,-8zm-22 -7c11,7 10,7 10,11 -6,0 -4,0 -11,-4 -2,-1 -6,-3 -10,-7l0 -7c4,0 6,2 11,7zm13 -11c11,0 24,0 33,-2 4,0 5,0 7,2 4,4 11,11 11,15l-42 0c-11,0 -11,2 -18,-6 -5,-5 -9,-5 -9,-9l18 0zm-13 -3c-3,0 -9,0 -12,1 -2,15 -4,13 3,20 4,0 0,8 2,13l4 6c2,1 0,0 2,1 1,-1 0,0 1,-3 2,-2 2,-2 4,-2l0 -6c7,-1 2,2 9,2 4,0 6,-2 6,4 0,0 0,5 0,7 1,4 1,4 3,6 4,1 2,1 4,5 2,-2 2,-2 2,-4 2,-9 2,6 2,-18 5,0 7,0 7,4 0,4 0,7 0,13 2,0 3,1 3,1 2,4 0,4 4,4 0,-2 0,-2 0,-4 2,-1 4,0 4,-5 2,-4 -2,-9 0,-13 2,0 5,-2 7,0 4,2 2,6 2,17 9,5 3,3 7,5l6 -7c0,-4 0,-11 0,-13l1 -4c2,-10 0,-12 -5,-20 -2,-1 -13,-10 -13,-10 -3,-2 -45,0 -53,0z"/>
    <path class="fil20" d="M6508 844c0,-3 0,-3 2,-5 4,-2 13,-13 15,-13 1,0 12,11 14,13 4,3 4,0 4,5l-35 0zm37 -5c-4,0 -2,0 -6,-4 -16,-16 -16,-9 -3,-22 1,-2 1,-2 3,-2 2,4 6,22 6,28zm-39 -2c0,-4 2,-7 2,-13 0,-3 0,-7 2,-11 5,2 5,4 9,8 4,3 4,3 -5,10 -6,6 -4,6 -8,6zm42 -20c2,4 6,24 6,25 -6,2 -4,-1 -4,-5l-5 -18c0,-4 -2,-8 -2,-9 5,0 3,1 5,7zm-25 4c0,-2 -2,-4 -4,-6 -4,-2 -5,-2 -5,-5l20 0c-2,3 -8,9 -11,11zm-20 -13c0,2 -2,0 5,2l-3 14c-2,7 -2,13 -4,18 0,0 0,0 0,2l-7 2 0 2c3,2 60,0 67,0 2,-7 -2,-2 -4,-7l-5 -28c-2,-5 0,-3 0,-7l-44 0c-3,0 -3,0 -5,2z"/>
    <path class="fil20" d="M6630 1105c4,0 2,0 6,-2 5,-9 11,-19 21,-24 17,-5 48,4 62,-20 6,-5 11,-18 13,-27 0,-8 0,-9 -5,-8 -9,0 -17,2 -24,4 -2,20 9,13 15,20 1,2 1,6 0,9 -4,6 -6,6 -11,11 -19,11 -39,0 -57,13 -5,3 -7,5 -11,11l-3 3c0,0 0,0 0,0l-2 4c-2,2 -4,2 -4,6z"/>
    <path class="fil20" d="M6632 1057c4,0 13,0 16,2 -1,2 -1,2 -3,4 -2,0 -13,3 -13,-6zm7 -9c0,0 2,-2 8,0 1,0 7,4 7,6 2,3 -7,1 -7,1 -8,0 -17,2 -8,-7zm18 4c-3,-2 0,0 -3,-4 0,0 0,-2 0,-2 -4,0 -6,0 -7,-2 0,-3 3,-5 7,-3 3,2 7,2 9,5 0,4 -2,4 -6,6zm-1 -13c1,-11 12,-7 12,-2 0,4 0,6 -1,6 -4,0 -2,0 -6,-2 -2,0 -4,-2 -5,-2zm-9 40c0,-7 -8,-4 -8,-11 4,-2 6,0 13,-5 2,-4 5,-6 9,-9 18,-17 11,-17 11,-22 9,0 7,3 13,2 -2,-8 -17,-4 -17,-6 -3,0 -3,0 -7,0 -4,0 -7,6 -9,7 -7,6 -4,0 -11,8 -9,11 -18,14 -7,23 3,2 2,0 3,6 2,3 4,7 10,7z"/>
    <path class="fil20" d="M6599 1064c-2,-3 -2,-5 2,-5 11,-2 9,5 6,9 -4,0 -6,0 -8,-4zm-2 -14c4,0 13,-2 13,4 0,3 -9,3 -14,1l1 -5zm0 -4c-1,-3 -1,-3 2,-3 13,-2 11,3 8,3 -2,0 -8,0 -10,0zm2 -9c0,-5 4,-7 8,-7 1,2 1,4 1,7l-9 0zm11 -9c2,-2 9,0 13,0 2,0 0,0 2,0 0,0 0,0 0,0 0,-4 0,-2 -4,-4 -7,0 -11,-1 -18,4 -9,4 -9,9 -9,16 2,17 0,20 7,28 11,7 4,5 26,5l0 -2c-6,-3 -15,2 -19,-3 0,-4 2,-2 4,-9l0 -24c-2,-7 -2,-7 -2,-11z"/>
    <path class="fil20" d="M6423 804c0,-9 1,-7 25,-7 9,0 7,0 11,2l0 32c-4,2 -2,2 -9,2l-18 0c-6,0 -6,0 -9,-2l0 -27zm-2 0c0,6 -2,26 0,27 2,8 13,6 20,6 5,0 14,2 18,0 6,-4 4,-13 4,-16 0,-4 2,-21 0,-24 -2,0 -2,-2 -4,-4l-27 0c-11,0 -11,4 -11,11z"/>
    <path class="fil20" d="M6565 879c1,-2 0,-4 0,-8 0,-3 0,-3 -2,-7 0,-2 -2,-7 -2,-7 0,-4 2,-2 2,-6l-55 2c-3,0 -14,-2 -13,0 0,6 4,0 2,11 -2,4 -2,6 -3,11 0,4 -2,7 3,7 2,-3 4,-23 6,-29l47 2c2,4 2,7 2,13 2,11 0,11 5,11 0,-9 -5,-17 -5,-26 11,0 5,22 13,26z"/>
    <path class="fil20" d="M6694 826c2,11 -2,11 -9,11 -2,0 -2,0 -2,-6 0,-3 -2,-7 11,-5zm-16 11l-10 0c-1,-7 -1,-11 4,-11 7,0 7,2 6,11zm-15 0c-4,0 -9,0 -11,-2 -2,-11 2,-11 11,-9 2,4 2,7 0,11zm-9 2l44 0c0,-2 0,-9 0,-15 -6,-2 -19,0 -28,0 -23,0 -22,-3 -22,11 0,4 0,4 6,4z"/>
    <path class="fil20" d="M6630 826c2,4 2,5 2,11 -4,0 -5,0 -7,0 -4,0 -6,0 -6,-6 0,-3 0,-5 4,-5 2,0 5,0 7,0zm-14 0l0 5c0,6 -2,6 -4,6 -7,2 -7,0 -7,-6 0,-3 0,-7 9,-5 0,0 0,0 2,0zm-15 0c4,11 -2,11 -7,11 -4,0 -4,0 -4,-6 0,-7 4,-5 11,-5zm-15 4l0 9c10,0 42,2 48,0 2,0 2,-2 2,-6 0,-12 1,-9 -26,-9l-18 0c-7,0 -6,0 -6,6z"/>
    <path class="fil20" d="M6435 986c0,-2 0,-3 0,-5 2,-11 19,-18 30,-9 1,1 3,3 5,5 11,27 -31,38 -35,9zm13 -20c-5,2 -11,4 -13,7 -12,17 2,39 24,33 20,-3 22,-27 6,-38 -2,-2 -11,-5 -17,-2z"/>
    <path class="fil20" d="M6688 857c0,-4 4,-4 8,-4 2,2 2,6 0,9 -6,0 -8,2 -8,-5zm-10 0c0,-4 7,-4 7,0 2,7 -2,5 -7,5l0 -5zm-10 -2c4,-4 10,2 6,6 -4,5 -9,-2 -6,-6zm-3 -4c0,2 -2,10 0,13 0,2 5,2 9,2l24 0c3,-2 0,-13 0,-15 -2,-1 -30,-1 -33,0z"/>
    <path class="fil20" d="M6707 897c5,-4 3,0 9,0 0,-9 -11,-7 -13,2 0,7 5,14 11,11 2,0 2,0 2,-2l2 -2c3,2 1,0 3,2 4,4 4,4 9,2 0,-4 2,-4 0,-9l-3 0c0,5 1,1 0,7 -2,0 -2,0 -4,-2 0,-2 -2,-4 -2,-5 2,-8 6,-4 9,-4 0,-5 -5,-11 -11,0l-1 4 -6 0c0,3 0,3 0,7 -5,0 -5,-6 -5,-11z"/>
    <path class="fil20" d="M6652 908c-2,-2 -2,0 -4,-4 0,-2 -3,-9 6,-7 0,0 0,2 0,4 0,7 0,5 -2,7zm11 -11c4,-4 5,0 5,-5l-7 0 -4 5c-1,-2 -1,-2 -3,-4 -4,-5 -9,2 -9,8 0,3 0,9 3,11 4,0 6,0 6,-2l2 -2c1,-4 0,2 1,-2l2 2c0,0 0,0 0,0 2,2 -2,0 2,2l2 -2c2,-9 2,-2 5,-7 0,0 -1,0 -1,0 0,0 0,0 0,0 0,0 0,-2 0,-2 -2,0 -2,0 -2,0 -2,-2 -2,0 -2,-2z"/>
    <path class="fil20" d="M6454 904c0,6 1,8 5,8 4,0 4,-2 6,-4l0 -2c3,0 1,2 3,6 7,0 11,-2 11,-8 -5,0 -2,0 -4,2 -5,4 -7,-2 -7,-4 0,-1 0,-3 0,-5 6,-4 4,0 9,0 0,-5 -5,-9 -11,-2 -1,2 -1,2 -1,4 0,2 0,2 0,3 -2,-1 0,-1 -4,-3 -4,-2 -4,0 -4,-2l8 0c-2,-9 -11,-4 -11,0 0,5 7,2 7,9 -6,4 -2,0 -7,-2z"/>
    <path class="fil20" d="M6563 904c0,-3 -2,-9 3,-7 4,0 2,5 2,9 -2,2 -2,2 -5,-2zm7 8c0,-2 0,-6 4,-8l0 2c2,2 0,2 2,4 1,2 5,2 5,2 2,-2 2,0 2,-4 -2,-2 -6,2 -6,-4 0,-5 2,-7 0,-11 -3,2 0,0 -3,2l-2 2c0,-2 0,0 0,-2 -6,-7 -11,-2 -13,2 0,4 0,7 2,11 4,4 4,4 9,4z"/>
    <path class="fil20" d="M6701 1015l0 9c6,0 26,-3 29,-5l-2 -6c-5,0 -1,0 -12,2 -4,0 -9,0 -15,0z"/>
    <path class="fil20" d="M6494 908c5,7 7,-11 14,2l4 0 0 -13c0,-5 2,-2 0,-4 -2,2 -4,-1 -2,6 0,3 0,5 -2,7 0,0 0,2 -2,-7 -1,-4 2,-6 -5,-6 -2,4 -4,8 -4,13l-3 2z"/>
    <path class="fil20" d="M6694 963c-4,1 -6,5 -4,7 8,14 18,-9 8,-9 -4,0 -4,2 -4,2z"/>
    <path class="fil20" d="M6494 902c0,-1 0,-3 0,-5 0,-2 0,-2 0,-4 -4,0 -4,0 -4,8 -9,0 0,-8 -7,-8 -2,0 -2,0 -2,0l0 9 4 2 0 6c9,0 3,-2 9,-6l0 -2z"/>
    <path class="fil20" d="M6694 904c0,0 0,0 2,0 3,2 -2,6 5,6 0,-4 0,-8 0,-9 0,-9 0,-8 -2,-8 -1,4 0,4 -1,8 -6,-2 0,-6 -8,-8 0,4 2,6 2,9 -2,4 -4,8 2,8l0 -6z"/>
    <path class="fil20" d="M6681 897c2,-2 4,0 6,-2 0,-3 0,-3 -4,-3 -5,0 -5,1 -5,5 0,2 0,11 0,13 3,2 7,2 10,0 -3,-4 -3,0 -7,-4 0,-4 0,-2 2,-4 2,-1 2,2 4,-1 -4,-4 -4,0 -6,-4z"/>
    <path class="fil20" d="M6708 966c0,4 0,6 2,9 4,0 8,-2 8,-5 1,-4 0,-6 -2,-7 -6,-2 -4,0 -8,3z"/>
    <path class="fil20" d="M6601 897c4,-2 9,0 7,-5 -5,-2 -9,0 -11,1 0,4 0,8 0,11 0,6 0,8 6,8 5,0 4,-2 5,-2l-1 -2c-4,0 -6,2 -6,-6 4,0 4,2 6,-1 -2,-4 -4,1 -6,-4z"/>
    <path class="fil20" d="M6430 864c4,2 22,2 25,0 0,-5 -1,-3 -12,-3 -9,0 -13,-2 -13,3z"/>
    <path class="fil20" d="M6417 910c0,-8 -9,-8 -3,-13 5,-4 1,-4 1,-4 -5,2 -1,4 -7,4 -2,-2 0,-2 -2,-4l0 13c0,6 0,4 0,4 0,0 0,2 0,-2 2,0 0,0 2,-2 0,0 0,-2 0,-2 9,-2 0,6 9,6z"/>
    <path class="fil20" d="M6521 897c-6,-2 2,-4 -6,-4 2,8 4,0 4,17l4 0c0,-4 0,-6 0,-9 2,-6 3,-4 2,-8 -4,2 0,2 -4,4z"/>
    <path class="fil20" d="M6435 912c2,-2 2,-2 2,-2 4,-4 2,-2 2,-9 0,-6 2,-8 -2,-8 -2,4 -2,9 -2,15l-5 -2c2,4 4,6 5,6z"/>
    <path class="fil20" d="M6628 897c2,-4 4,0 8,-2 -2,-5 -4,-3 -11,-2l0 9c3,0 5,0 7,0 4,0 4,0 4,-1 -4,-4 -4,0 -8,-4z"/>
    <path class="fil20" d="M6712 1013c-2,-3 -2,-7 -2,-9 -2,-3 -2,-3 -7,-3 0,11 2,12 9,12z"/>
    <path class="fil20" d="M6621 912c4,-4 4,-8 0,-11l-4 0c0,5 2,-2 2,5 -7,2 -2,0 -9,-2 2,6 4,8 11,8z"/>
    <path class="fil20" d="M6718 999c-2,4 -2,11 1,13 6,1 6,-13 0,-13 -3,0 -1,0 -1,0z"/>
    <path class="fil20" d="M6588 893c-2,2 -2,11 -2,13 0,6 10,6 10,4 0,-4 -2,-2 -4,-2 -4,-2 -2,-2 -4,-6 0,-7 4,-7 0,-9z"/>
    <path class="fil20" d="M6526 910c8,-2 2,-6 8,-4 2,0 0,0 3,2l0 -7c-3,0 -1,1 -5,1 -2,0 0,-1 -4,-1l-2 9z"/>
    <path class="fil20" d="M6725 735c0,-6 -6,-9 -13,-9 2,3 2,3 6,5 5,2 3,2 7,4z"/>
    <path class="fil20" d="M6557 904c-5,2 -1,6 -9,0l0 6c2,0 2,2 6,2 2,-2 3,-4 3,-8z"/>
    <path class="fil20" d="M6610 897c7,0 2,-2 9,0 2,0 0,0 4,0 -2,-7 -11,-7 -13,0z"/>
    <path class="fil20" d="M6548 897c2,0 0,0 2,0 2,-4 2,0 6,0 0,-9 -8,-5 -8,0z"/>
    <path class="fil20" d="M6712 731c0,-2 0,-2 -4,-2 0,4 4,10 6,8 2,-2 0,-4 -2,-6z"/>
    <path class="fil20" d="M6630 908c-3,-2 -2,-2 -5,-2l0 4c7,2 9,2 11,0l-2 -2c-6,-2 3,2 -2,0 -2,0 0,0 -2,0z"/>
    <path class="fil20" d="M6708 744c2,-2 0,-5 0,-7l-5 0c0,2 2,5 5,7z"/>
    <path class="fil20" d="M6534 893c-4,0 -4,2 -4,6l6 0 -2 -6z"/>
    <path class="fil20" d="M6470 864c13,4 0,-11 0,0z"/>
    <path class="fil20" d="M6719 841l6 0 0 -4c-4,2 -6,2 -6,4z"/>
    <path class="fil20" d="M6719 739c-3,0 -3,0 -3,1l3 0 0 -1z"/>
    <path class="fil20" d="M6721 853c6,-2 6,-2 6,-5 -6,0 -4,0 -6,5z"/>
    <path class="fil20" d="M6721 824c6,0 6,0 6,-3 -4,0 -4,0 -6,3z"/>
    <path class="fil20" d="M6730 740c4,0 6,0 6,-1 -6,0 -6,0 -6,1z"/>
    <path class="fil20" d="M6435 855l6 0 -2 -2c-4,0 -4,-2 -4,2z"/>
    <path class="fil20" d="M6428 855c4,0 4,0 6,-2 0,0 -2,0 -4,0l-2 2z"/>
    <path class="fil20" d="M6727 833l3 2 0 -4c-3,0 -2,-1 -3,2z"/>
    <path class="fil20" d="M6698 740c0,6 3,4 3,0 -2,-1 -2,-1 -3,0z"/>
   </g>
  </g>
 </g>
</svg>
