<?xml version="1.0" encoding="UTF-8"?>
<!DOCTYPE svg PUBLIC "-//W3C//DTD SVG 1.1//EN" "http://www.w3.org/Graphics/SVG/1.1/DTD/svg11.dtd">
<!-- Creator: CorelDRAW X7 -->
<svg xmlns="http://www.w3.org/2000/svg" xml:space="preserve" width="7.75in" height="3.333in" version="1.1" style="shape-rendering:geometricPrecision; text-rendering:geometricPrecision; image-rendering:optimizeQuality; fill-rule:evenodd; clip-rule:evenodd"
viewBox="0 0 7750 3333"
 xmlns:xlink="http://www.w3.org/1999/xlink">
 <defs>
  <style type="text/css">
   <![CDATA[
    .fil1 {fill:none}
    .fil0 {fill:#3C5486}
    .fil7 {fill:#3D5486}
    .fil3 {fill:#516BA5}
    .fil8 {fill:#90A7D1}
    .fil9 {fill:#ACC1E3}
    .fil5 {fill:#DC6A34}
    .fil2 {fill:#E98536}
    .fil4 {fill:#FAA631}
    .fil6 {fill:#FFCE2E}
    .fil14 {fill:#2B2A29;fill-rule:nonzero}
    .fil13 {fill:#2B2A29;fill-rule:nonzero}
    .fil11 {fill:#00A0E3;fill-rule:nonzero}
    .fil10 {fill:#3C5486;fill-rule:nonzero}
    .fil12 {fill:#FFC22B;fill-rule:nonzero}
   ]]>
  </style>
 </defs>
 <g id="Layer_x0020_1">
  <metadata id="CorelCorpID_0Corel-Layer"/>
  <g id="_749848152768">
   <g id="_2155334432816">
    <path class="fil0" d="M5321 640c2,4 1,6 2,10 2,-1 8,-8 10,-11 2,-2 3,-2 6,-2 2,3 3,5 7,6 2,-3 1,-6 6,-9 6,-1 6,6 10,8 4,-3 4,-13 10,-14 9,2 2,42 6,61 2,12 6,12 4,18 -5,4 -20,-3 -19,-19 1,-13 5,-25 6,-37 -4,2 -3,5 -9,5 -4,-2 -4,-6 -7,-7 -1,2 -1,2 -2,4 -1,2 -3,3 -4,3 -7,0 -4,-3 -9,-5 -4,1 -6,6 -10,8 -6,4 -10,-1 -13,-3 -17,16 -19,8 -23,8 -3,3 -6,5 -10,0 -3,-2 -6,-7 -8,-8 -4,4 -1,12 -8,15 -7,-2 -4,-12 -8,-14 -6,7 0,20 -11,18 -3,-3 -3,-5 -3,-11 0,-5 -1,-9 -4,-10 0,8 2,12 -3,19 -2,4 -10,11 -16,8 -11,-5 -17,-43 -9,-57 3,-5 10,-8 17,-5 6,3 8,9 9,15 2,12 4,4 11,14 3,-3 2,-8 9,-9 5,1 4,5 8,7 3,-2 2,-5 5,-6 9,-8 10,14 17,16 3,-4 4,-20 12,-28 11,-10 27,-1 24,8 -1,2 -3,4 -7,3 -2,0 -10,-10 -16,8 -3,10 5,7 8,3 3,-4 5,-10 12,-10zm17 -27c8,-3 13,2 15,5 9,19 -25,20 -19,0 1,-3 2,-4 4,-5zm41 25c0,-11 7,-18 13,-22 13,-12 24,0 16,6 -3,2 -9,2 -13,5 -9,6 -8,15 -2,14 1,-1 3,-2 4,-4 2,-5 4,-9 7,-10 8,-2 6,7 8,10 4,4 8,-1 10,-4 2,-4 4,-8 7,-10 4,-4 10,-3 12,1 3,9 -9,19 -14,22 -18,15 -19,1 -23,2 -4,2 -9,8 -18,6 -5,-1 -7,-9 -7,-16zm-199 -25c-1,-1 0,1 -1,-2 0,-2 0,-6 1,-8 2,-2 4,-5 3,-9 -4,-1 -6,2 -10,7 -22,29 15,30 30,49 23,30 -15,56 -48,46 -11,-3 -19,-8 -12,-20 3,-3 7,-6 12,-7 6,0 10,5 7,10 -4,5 1,6 9,6 13,-1 37,-10 23,-24 -7,-5 -13,-11 -21,-16 -10,-5 -16,-7 -19,-18 -7,-19 11,-43 24,-48 12,-5 22,-1 19,14 -1,8 -9,24 -17,20zm-67 131l355 0 0 -202 -355 0 0 202z"/>
    <path class="fil0" d="M5212 764c4,0 10,0 14,0 4,0 6,3 6,7 0,8 -12,6 -20,5l0 -12zm-5 33l5 1 0 -16c23,-2 19,1 20,15l7 1c-5,-9 0,-14 -4,-18l-2 -1c7,-7 5,-15 -1,-18 -5,-2 -19,-1 -25,-1l0 37z"/>
    <path class="fil0" d="M5354 785l-5 0c2,18 24,15 29,8 4,-6 0,-13 -4,-15 -6,-3 -12,-2 -18,-6 -2,-12 13,-9 15,-7 2,3 2,3 3,6l4 0c0,-10 -9,-15 -19,-11 -9,2 -13,14 -3,18 6,3 23,3 18,13 -3,4 -20,6 -20,-6z"/>
    <path class="fil0" d="M5272 760c0,7 -1,19 0,27 2,16 28,15 29,-1 1,-8 1,-18 0,-26l-4 0c-1,7 0,15 0,22 0,8 -3,12 -10,12 -13,0 -10,-17 -10,-34l-5 0z"/>
    <polygon class="fil0" points="5130,764 5143,764 5143,798 5148,797 5148,764 5161,764 5161,760 5130,760 "/>
    <path class="fil0" d="M5217 648c0,28 14,24 16,12 1,-9 -7,-6 -11,-12 -4,-10 5,-16 5,-17 -9,-5 -10,10 -10,17z"/>
    <polygon class="fil0" points="5421,764 5434,764 5434,798 5439,798 5439,764 5452,764 5452,760 5421,760 "/>
    <path class="fil0" d="M5345 624c-1,-2 -3,-2 -4,0 2,0 3,0 4,0z"/>
    <path class="fil0" d="M5229 643c0,0 1,-1 1,-1 0,0 1,0 1,0l-1 -1c0,0 0,0 0,-1 -2,2 -1,0 -1,3z"/>
   </g>
   <g id="_2155153123280">
    <path class="fil0" d="M5831 621c0,9 -6,17 -11,23l-5 7c-6,9 -4,21 2,29 3,3 8,8 13,9 0,15 -26,33 -44,33 -15,0 -25,-2 -35,-11 -9,-10 -13,-23 -16,-27 0,16 3,24 10,36 2,5 6,8 8,14 10,12 25,22 40,29 19,11 45,13 67,6 5,-1 12,-3 16,-6 8,-3 8,-3 15,-9l13 -10c2,-2 4,-4 6,-6l8 -10c7,-9 12,-24 14,-37 1,-1 1,-4 1,-5 0,-3 1,-2 1,-6 -3,2 -2,6 -3,9 -2,9 -7,15 -13,20 -3,3 -9,7 -13,9 -10,4 -13,4 -25,4 -8,0 -21,-5 -28,-10 -8,-7 -13,-14 -16,-24 4,-4 4,-3 7,-7 8,-9 14,-14 14,-28 0,-12 -3,-22 -8,-29 -5,-7 -11,-12 -17,-16 -1,-1 -1,-2 -3,-2 0,7 2,12 2,15z"/>
    <path class="fil0" d="M5868 591l-1 1 1 -1zm0 0c0,-3 1,-4 1,-6l4 0c2,5 12,4 16,11 -1,2 -2,2 -3,5l-6 0c0,-1 0,-2 0,-3 3,0 4,0 6,0 0,-5 0,-4 -6,-4 -1,2 -3,2 -2,6 0,2 2,3 4,4 -1,3 -2,3 -2,4 0,1 0,0 0,1 0,2 0,2 0,3 5,-1 8,-11 14,-14l5 5c2,2 3,3 5,5 1,-1 2,-2 3,-4 -3,-1 -6,-4 -9,-6 -1,-1 -2,-2 -3,-3l-10 -8c-3,-2 -3,0 -4,-1 0,0 0,-1 -1,-1l-4 -2c-2,0 -1,-1 -3,1 0,-5 -1,-2 -1,-7 -2,-7 -1,-13 -9,-15 0,6 2,6 3,10 -2,-2 -2,-3 -7,-3 0,3 1,4 4,6 2,1 3,1 5,3 -3,1 0,1 -3,0 -4,-1 -4,-1 -9,-1 0,0 0,1 0,3l9 3c0,5 -1,6 -3,6l-1 1c-2,0 -4,-1 -4,-3 5,-2 6,2 6,-4 -3,0 -8,0 -8,5 -1,4 2,5 6,5 0,3 0,3 0,7l2 1c2,-1 2,-5 4,-8 0,0 0,0 4,0l0 4c-2,0 -1,1 -4,1 0,11 15,-6 2,-9l-1 2z"/>
    <path class="fil0" d="M5745 628l0 1c1,1 1,1 2,1 1,0 2,-1 2,-1 6,0 13,12 18,4l-11 -6c-2,-1 -2,-1 -4,-2 0,-1 1,-2 1,-4 4,1 9,6 14,9 2,0 2,-1 4,-2 -2,-2 -12,-9 -14,-11 1,-4 1,-2 4,-6 3,-3 1,-2 6,-5l2 2c-4,5 -7,5 -7,10l9 0c-1,-3 0,0 -2,-4l3 -3c5,3 3,6 10,6 -1,-3 -4,-6 -5,-8l-2 -1c-2,-3 -4,-3 -5,-6 1,-1 1,-1 4,-2 3,1 7,9 9,10 2,2 2,1 5,1 -1,-2 -10,-14 -11,-14 2,-3 2,-2 0,-5 -6,3 -3,2 -7,4 -1,1 -1,2 -2,3l-7 5c-1,2 -1,2 -2,3 0,1 -1,2 -2,2l-2 3c0,1 -1,1 -1,1 -1,1 0,1 -1,1 0,1 0,2 -1,3 -2,2 -7,9 -7,11z"/>
    <path class="fil0" d="M5912 617c0,1 0,1 0,3 0,0 -2,1 -2,1l-2 2c-3,-1 0,0 -3,-2 -1,-1 -2,-1 -3,-3 5,0 5,0 8,-3 1,1 1,1 2,2zm0 0l0 0zm5 22l1 0c-1,-2 -2,-5 -2,-6l4 -1 2 1c1,0 2,0 3,-1 -3,-5 -3,-7 -8,-14 -3,-3 -5,-8 -7,-9 -1,-2 -2,-2 -4,-1 -1,2 1,1 1,5 -3,2 -3,0 -5,-3 -3,-2 -3,0 -5,-3 0,-1 0,-1 -1,-2 -6,0 -8,4 -8,9 0,3 0,3 2,4 1,-8 2,-9 6,-9 0,3 -1,2 -2,4 0,2 0,1 1,3 3,-1 1,-3 5,-3 0,5 -4,7 3,11 1,1 0,0 1,1 -4,1 -5,3 -5,7 3,0 12,-7 16,-9 1,1 2,3 3,4 -4,1 -2,3 -7,1 -2,3 -3,4 -3,8 8,0 3,3 6,4 1,0 1,-1 3,-1z"/>
    <path class="fil0" d="M5824 575l0 2c1,0 1,0 3,0 4,0 4,0 8,0l0 4c-1,-1 0,-1 -2,-1 -3,0 -6,0 -7,2 -2,3 -1,6 1,9 1,2 2,3 6,3 -3,-4 -4,-2 -4,-9l6 0c0,2 0,3 0,6 0,2 1,2 1,4 -2,1 -2,1 -3,2 0,2 0,2 0,3 4,0 2,-1 6,-1 0,6 -6,2 -7,0 -2,-2 -3,-3 -6,-4 1,4 6,10 13,10 2,0 3,-2 3,-5 0,-3 -2,-4 -2,-7l0 -16c2,0 3,1 3,-1 0,-2 -2,-2 -3,-2l-15 0c-1,0 -1,0 -1,1z"/>
    <path class="fil0" d="M5724 758c0,2 0,0 1,2 5,0 9,-9 13,-9 4,0 8,3 0,9 -2,2 -4,4 -6,6 1,2 1,2 2,3 8,-4 7,-9 14,-9 2,0 4,1 4,3 0,5 -11,8 -12,13 2,1 1,1 3,2 2,-1 12,-10 12,-15 0,-3 -3,-6 -8,-6 0,-5 -2,-9 -7,-9 0,-3 0,-2 0,-4 -3,0 -3,1 -5,2l-11 12z"/>
    <path class="fil0" d="M5707 719c0,-7 6,-4 3,-9 -7,1 -8,11 -3,18 5,6 14,4 14,-3 0,-8 -1,-15 3,-15 3,0 5,3 5,7 0,6 -4,3 -1,9 5,-1 7,-7 3,-14 0,-2 -1,-2 -2,-3l0 -1c0,-1 -1,-1 -1,-1 -3,-2 -5,-2 -7,-1 -1,0 -2,1 -2,2 -5,6 2,19 -5,20l-2 0c-3,-1 -5,-7 -5,-9z"/>
    <path class="fil0" d="M5860 796c0,-7 9,-8 11,1 2,11 -11,11 -11,-1zm6 -18c0,6 1,6 2,10 -4,0 -6,-1 -8,1 -10,5 0,25 10,19 2,-2 2,-2 3,-3 0,2 1,1 3,1 0,-6 -4,-16 -5,-23 -1,-4 -1,-6 -5,-5z"/>
    <path class="fil0" d="M5775 581c6,4 5,-1 10,2 1,0 2,1 3,2 -3,1 -8,3 -10,6l1 1c0,0 0,0 0,0 3,2 5,-1 7,-2 3,-1 2,0 2,1 1,1 1,0 0,1 0,1 -1,1 -2,1 -1,1 -1,0 -1,4 0,3 0,4 2,4 4,4 7,2 9,2 3,0 1,0 4,1 1,-1 1,0 1,-1 0,-3 0,0 -2,-3 -3,-7 -1,-5 -6,-4 0,3 0,1 0,5l-4 0c0,-2 -1,-3 -1,-5 2,0 5,-2 6,-3l-3 -6c5,-2 2,-4 -4,-6 -3,-2 -9,-5 -12,0z"/>
    <path class="fil0" d="M5758 784c-7,0 -6,-7 -4,-7 4,0 7,2 9,4 -1,2 -2,3 -5,3zm-3 -16c1,2 0,3 3,3 3,0 3,-2 5,0 4,2 4,7 1,6l-6 -2c-5,-3 -11,1 -11,5 0,4 6,7 11,7 0,2 0,2 1,3l2 2c1,-2 9,-15 9,-16 0,-5 -5,-9 -9,-9 -2,0 -4,1 -6,1z"/>
    <path class="fil0" d="M5797 805c-1,-7 1,-5 11,-5 0,3 -3,6 -7,6l-4 -1zm-1 -13c4,0 2,1 5,0 3,-3 8,-2 8,4 -10,0 -16,-2 -16,6 0,8 12,6 12,6 2,0 0,0 2,0 2,1 1,1 2,2 1,-7 8,-18 0,-21 -5,-3 -13,-3 -13,3z"/>
    <path class="fil0" d="M5951 739c-5,0 -1,-9 -1,-11 8,0 5,11 1,11zm-14 -8c0,3 1,5 2,5 3,0 2,0 3,0 -6,-9 5,-14 5,-8 0,3 -3,4 -3,8 0,7 9,9 12,3 2,-3 2,-4 2,-8 2,0 2,-1 2,-3 0,-1 -13,-7 -16,-7 -4,0 -7,7 -7,10z"/>
    <path class="fil0" d="M5903 791c-6,0 -2,-7 0,-7 1,-1 1,-1 1,-2 2,-1 0,-1 3,-2 3,6 0,11 -4,11zm-11 -7c1,-1 4,-1 4,-3 0,0 -2,-3 2,-5 2,-2 5,-1 6,0 0,6 -13,8 -7,16 4,5 12,0 14,-6 3,2 1,1 4,0 0,-2 -3,-4 -5,-8 -4,-5 -4,-7 -8,-7 -8,0 -10,5 -10,13z"/>
    <path class="fil0" d="M5843 784l-7 20c0,1 0,2 -1,2l0 2c-2,-7 -9,-22 -9,-24l-4 0c0,3 2,5 3,8l8 20 5 0 9 -29c-1,1 -1,1 -4,1z"/>
    <path class="fil0" d="M5921 744c-1,0 -2,0 -3,0 1,3 1,2 2,4l19 12c2,2 2,2 4,0 0,-5 -13,-6 -13,-13 0,-2 2,-4 5,-4 2,0 9,7 14,8 1,-1 1,-1 1,-3 -6,-4 -19,-17 -22,-2 -1,5 -5,-2 -7,-2z"/>
    <path class="fil0" d="M5723 746c-9,0 -7,-12 5,-12 7,0 5,12 -5,12zm-10 -5c0,3 2,4 3,6 11,12 29,-9 14,-16 0,-1 -1,-1 -1,-1 -1,-1 -3,-1 -4,-1 -5,1 -12,6 -12,12z"/>
    <path class="fil0" d="M5793 583c1,1 1,2 1,2 2,0 9,-3 11,-3 2,6 3,6 1,9 -2,2 -4,2 -4,0 0,-3 2,-3 4,-5 0,0 -1,-2 -5,-1 -6,3 0,14 8,8 0,4 1,5 5,5l-5 -17c1,-1 1,-1 3,-1l-1 -3c-6,0 -14,3 -18,6z"/>
    <path class="fil0" d="M5887 795l0 0zm0 0c-2,-1 -6,-4 -7,-7 -4,-5 -5,-4 -8,-3 0,2 1,2 2,3 3,3 13,12 14,14 0,5 -3,4 -4,7 3,2 5,2 6,-1 2,-4 0,-24 -2,-30 -5,0 -1,4 -1,17z"/>
    <path class="fil0" d="M5775 803l-4 0c0,2 0,3 0,3 2,2 5,2 6,1l17 -18c2,-2 2,-2 3,-4 -2,0 -1,0 -3,0 -1,0 -9,10 -11,11 0,-4 0,-7 0,-11 1,-3 2,-6 -3,-6l-1 21c-1,2 -2,3 -4,3z"/>
    <path class="fil0" d="M5709 619c0,4 3,5 4,9 -3,-1 -4,-2 -8,-2 0,1 0,2 0,4l16 5c0,-1 0,-2 0,-3 -3,-2 -4,-1 -5,-5 7,-1 10,-1 10,-6 -1,1 -10,2 -13,2 0,-2 -1,-4 -2,-7 0,1 -2,1 -2,3z"/>
    <path class="fil0" d="M5921 773l0 0zm0 0c-2,0 -10,-5 -14,-6l-3 1c2,2 18,12 21,9 2,-2 -5,-17 -6,-20 -3,1 -1,1 -3,1 0,5 4,10 5,15z"/>
    <path class="fil0" d="M5785 556c0,-3 0,-3 1,-3 6,3 4,5 3,6 -1,1 -4,2 -4,-3zm7 5c0,7 -3,1 -7,5 2,4 8,0 10,-2 0,-6 -3,-11 -4,-15 -1,0 -6,2 -7,2 -6,2 -3,10 1,12 3,1 4,-2 7,-2z"/>
    <path class="fil0" d="M5822 543c2,1 2,2 3,4l-4 0c0,-2 0,-2 1,-4zm-8 12l4 0c1,-5 3,-4 8,-4l1 2 4 0c0,0 -1,-2 -2,-3l-1 -3c-2,-3 -3,-10 -6,-10 -2,0 -3,1 -4,3 0,2 -1,4 -1,5l-3 10z"/>
    <path class="fil0" d="M5744 577c0,5 1,3 2,7 -1,-1 -4,-3 -7,-3 -1,4 -1,3 2,8 -2,-1 -7,-5 -8,0 3,1 13,8 13,3 0,-2 -1,-4 -2,-6 2,0 3,2 6,3 3,-4 2,-3 -2,-9 -1,-2 -1,-3 -3,-4 -1,1 -1,1 -1,1z"/>
    <path class="fil0" d="M5910 578c-1,-2 0,-5 3,-6 1,0 2,1 3,2 -1,3 -3,4 -6,4zm-6 -1c6,3 2,2 6,4 3,4 9,-1 9,-6 0,-4 -2,-4 -5,-6 1,-1 3,-2 3,-5 -3,0 -3,-1 -5,3 -1,1 -2,2 -3,2 -1,2 -5,7 -5,8z"/>
    <path class="fil0" d="M5771 561c11,0 3,10 0,3 -1,-2 -1,-2 0,-3zm0 -9c0,2 0,3 1,5 -3,2 -5,2 -5,6 0,3 2,6 7,6 3,0 2,0 5,-2 1,0 1,0 2,-1 0,-3 -4,-11 -6,-13 -1,-1 -2,-2 -4,-1z"/>
    <path class="fil0" d="M5757 640c-1,3 -3,1 -4,5 4,5 5,1 8,-2 2,-1 0,1 2,-1 -1,-2 -1,0 -3,-2 -4,-3 -2,-6 -9,-1 0,-2 2,-4 2,-7 -1,0 -2,0 -4,0 -1,1 -1,2 -2,5 -1,3 -2,4 -1,6 1,2 4,1 6,0 1,-3 1,-3 5,-3z"/>
    <path class="fil0" d="M5917 639l-6 3c-4,1 -4,1 -4,6 4,-1 13,-6 16,-7 2,1 1,2 4,2 3,0 1,-3 0,-6 0,-1 -1,-2 -1,-4 -2,0 -2,1 -4,1l0 4c-2,0 -2,1 -5,1z"/>
    <path class="fil0" d="M5945 711c0,2 0,1 1,2 -2,1 -2,1 -2,4 2,0 7,3 9,3 3,1 7,3 10,3l1 -3 -4 -2c0,0 0,0 0,0 -13,-3 -10,-3 -10,-10 -2,-1 0,-1 -3,-2 -1,1 -2,2 -2,5z"/>
    <path class="fil0" d="M5799 552c0,-2 0,-2 0,-3 2,0 3,-1 3,2 -2,0 -1,0 -3,1zm-5 0c0,9 12,9 13,1 -6,0 -2,2 -6,3 -1,-2 -1,-1 -1,-3 2,0 7,0 7,-1 0,-8 -13,-8 -13,0z"/>
    <path class="fil0" d="M5873 552c3,-1 4,-1 4,1 -2,0 -2,0 -4,0l0 -1zm-5 3c0,5 7,9 11,4 -4,-2 -2,-1 -6,-1 -1,-1 -1,-1 -1,-3 1,0 6,2 8,2 0,-1 2,-9 -6,-9 -4,0 -6,5 -6,7z"/>
    <path class="fil0" d="M5762 568c-1,2 0,1 -1,1 -2,2 -3,1 -2,0 1,-2 1,-1 3,-1zm-7 1c0,10 13,10 13,2 0,-1 -2,-1 -3,0 -2,2 -1,5 -4,3 1,-4 3,-3 5,-5 -2,-7 -11,-5 -11,0z"/>
    <path class="fil0" d="M5846 552c-5,0 -4,-4 -3,-7 3,0 3,0 5,0 1,1 1,2 1,4 0,1 -1,3 -3,3zm-7 -5c0,12 13,9 13,3 0,-13 -13,-8 -13,-3z"/>
    <path class="fil0" d="M5949 620c2,0 3,0 3,1 0,2 -1,3 -2,3 0,-1 -1,-2 -1,-4zm-7 3c0,1 1,3 2,4 1,2 2,1 4,2 0,-6 -5,-4 -2,-8 1,1 3,5 4,7 9,-4 4,-11 -1,-11 -4,0 -7,3 -7,6z"/>
    <path class="fil0" d="M5935 602c3,1 4,4 1,4l0 0c-3,0 -2,-2 -1,-4zm0 -2c-3,0 -5,1 -5,3 0,2 3,4 3,5 2,1 1,-1 2,1 0,1 0,1 1,2l7 -4c1,-2 1,-1 1,-4 0,-4 -2,-6 -7,-6 1,4 6,4 4,6 -2,1 -5,-3 -6,-3z"/>
    <path class="fil0" d="M5922 583c1,-1 1,-1 2,-1 3,0 2,2 2,3l-4 -2zm-5 2c0,7 5,8 8,6 -1,-2 -3,-3 -5,-3l0 -3c4,0 3,3 6,5 6,-4 2,-12 -2,-12 -4,0 -7,3 -7,7z"/>
    <path class="fil0" d="M5729 599c0,-1 0,-1 0,-2 7,-2 7,0 7,5 -3,0 -7,0 -7,-3zm-3 1c0,3 3,6 7,6 8,0 8,-13 -1,-13 -3,0 -6,2 -6,7z"/>
    <path class="fil0" d="M5716 613c1,2 10,8 12,6 2,-5 -7,-2 -7,-9 0,-4 6,2 11,3 0,-2 1,-2 -3,-5 -1,-1 -3,-2 -5,-3 -4,-1 -4,4 -7,7 0,1 0,0 -1,1z"/>
    <path class="fil0" d="M5854 555c8,0 2,-6 7,-8 4,2 1,6 0,10 1,1 2,1 3,1 2,-4 2,-5 2,-11 0,-2 -2,-2 -3,-2 -3,0 0,0 -2,0 0,0 -1,0 -1,0l-2 0c-1,-1 -1,-1 -1,-1 -1,1 -3,9 -3,11z"/>
    <path class="fil0" d="M5952 638c-4,-1 -2,-3 -2,-6l-2 -1c-4,6 1,10 4,10 4,0 3,-4 3,-9l2 0c0,6 -1,6 2,7 3,-8 -6,-15 -7,-7 0,2 0,5 0,6z"/>
    <path class="fil0" d="M5887 567c6,1 8,6 11,3 -1,-2 -4,-4 -7,-4 1,-5 5,-9 6,-13 -2,-2 -3,-1 -6,4 -2,2 -4,6 -4,10z"/>
    <path class="fil0" d="M5766 795c3,1 3,0 4,-2 3,-3 8,-12 9,-16 -2,0 -2,0 -2,-1 -3,4 -11,15 -11,19z"/>
    <path class="fil0" d="M5920 754c2,4 12,13 15,14l1 -1c-2,-4 -11,-13 -15,-15l-1 2z"/>
    <path class="fil0" d="M5849 791c0,6 2,13 2,20 6,0 4,1 2,-16 -1,-3 0,-6 -4,-4z"/>
    <path class="fil0" d="M5938 615c0,3 1,2 3,4 2,-2 1,-2 1,-2 0,-2 0,-2 2,-3 4,-3 2,-1 6,0 1,-2 0,-2 1,-4l1 -1c0,0 0,0 0,-1 -6,-4 -8,1 -9,2 -2,2 -5,2 -5,5z"/>
    <path class="fil0" d="M5833 542l0 11 3 0c2,-8 0,-9 0,-16l-3 0c0,2 0,2 0,5z"/>
    <path class="fil0" d="M5745 570c1,1 8,9 10,13l3 -2c0,-2 -9,-12 -11,-12l-2 1z"/>
    <path class="fil0" d="M5925 595c0,1 0,2 1,3 2,-1 4,-5 8,-5 0,0 1,1 1,1 1,1 0,0 1,1 1,-1 1,-1 2,-1l0 -2c-2,-1 -2,-1 -2,-1 0,-2 -1,-2 -1,-3 -4,1 -8,5 -10,7z"/>
    <path class="fil0" d="M5738 642l4 2c1,-4 4,-9 4,-12 -1,0 -1,-1 -2,-1 -2,3 -4,8 -6,11z"/>
    <path class="fil0" d="M5899 572c0,2 0,1 1,3 4,0 2,-1 5,-6 1,-1 5,-6 0,-6 -1,0 -2,3 -3,5 0,1 -3,3 -3,4z"/>
    <path class="fil0" d="M5900 644c1,1 3,2 3,4 0,2 -3,2 -4,6 3,-1 6,-4 6,-8 0,-3 -1,-3 -1,-5 -2,1 -2,2 -4,3z"/>
    <path class="fil0" d="M5848 783l0 2c0,3 1,1 4,1l-1 -3c-2,0 -2,0 -3,0z"/>
    <path class="fil0" d="M5778 774c2,1 2,1 4,1 0,-1 3,-5 -1,-5 -2,0 -3,2 -3,4z"/>
    <path class="fil0" d="M5913 750l3 2c4,-3 3,-2 0,-5l-3 3z"/>
    <path class="fil0" d="M5906 562c3,0 3,0 5,-1 -1,-1 -1,-1 -3,-2 -1,2 -1,2 -2,3z"/>
   </g>
   <g id="_2155146148656">
    <path class="fil0" d="M6308 767l0 19 -4 0 0 -17c0,-3 0,-3 4,-2zm-4 -7c2,0 4,0 4,1 3,4 -5,6 -4,1l0 -2zm7 3c-1,-3 3,-3 8,-3 3,0 4,0 4,2 1,4 -3,2 -5,2 -2,0 -3,0 -5,0 -2,0 -2,1 -2,-1zm-46 -8c1,-4 10,-3 12,-3 2,0 2,2 4,4l4 4 14 0c4,0 4,0 4,4 -4,1 -11,1 -14,1 -6,0 -4,0 -7,3 -3,4 -3,5 -6,5 -6,0 -10,1 -10,-4l6 1c5,0 5,-1 7,-3 0,-3 2,-4 0,-7 -4,-8 -1,-5 -14,-5zm43 -9c0,6 2,13 -2,13 -3,0 -2,-3 -2,-6 0,-9 1,-7 -6,-13 -3,-2 -3,-3 -3,-12 2,0 1,0 4,-1l0 10c1,1 6,4 7,4 2,0 6,-3 8,-4l0 -9c4,0 1,0 4,1 0,3 -1,4 -1,6 0,7 -1,2 -9,11zm14 -56l1 0c0,0 4,0 5,-1 3,0 4,-1 6,-2 3,0 5,2 8,3 2,2 4,2 9,3 1,6 0,3 -8,6 -4,2 -8,4 -13,4 2,-2 2,-1 3,-2 2,-3 -3,1 4,-4 1,-1 1,-1 1,-2 -2,-2 -5,-1 -9,-1l-6 -2c-2,-1 -1,0 -1,-2zm-33 0c3,-1 18,-4 16,1 0,1 -1,1 -1,3 -1,2 0,7 -4,7 -2,0 -2,0 -3,-1l-2 1c0,3 1,2 5,2 4,0 3,-4 8,-2 1,1 1,1 2,1 4,2 8,2 12,2 6,0 7,3 18,-1 3,-2 5,-5 11,-4 2,5 0,5 7,5 2,0 1,0 2,-1l-3 -1c-3,0 -3,0 -4,-1l0 -13c6,0 7,3 13,3 5,0 10,0 16,0 5,0 11,0 17,0 0,0 15,0 16,1 0,3 0,20 0,25 0,25 0,40 -21,56 -4,3 -15,9 -20,11l-5 1c-3,2 -7,3 -10,4 -1,1 -2,2 -4,2 -2,1 -3,1 -4,2l-17 8c-3,1 -7,4 -10,4 0,-2 1,-3 1,-5 1,-14 0,-29 0,-43 0,-6 0,-49 -1,-51l-2 0 1 53 -9 0c-3,0 -3,0 -3,-1 0,0 0,0 0,0 0,0 0,0 0,0l0 -6c0,-3 -1,-5 0,-7 10,-9 8,-1 8,-17 -1,-1 -8,-7 -9,-7 0,3 1,4 1,7 1,1 1,6 1,8 0,0 -5,3 -6,3 -1,0 -5,-3 -5,-3 -2,-2 0,-8 1,-11 1,-2 1,-1 1,-3 -2,0 -9,5 -9,6l-1 11c1,2 6,5 8,6 2,1 1,11 1,14 -3,0 -14,0 -15,0 -2,-1 -2,-1 -3,-2l-5 -7c-2,0 -5,0 -8,0 -3,0 -5,0 -7,3l-4 5c-1,1 0,1 0,2 1,0 4,-1 6,-2 2,-1 7,-2 9,0 0,0 1,0 1,0 1,1 3,3 3,4 -1,2 -3,6 -4,6 -3,0 -5,0 -8,0 -1,0 -5,-2 -6,-2 0,2 1,2 2,3 1,2 2,6 4,7 2,0 4,0 6,0 8,0 6,-3 13,-9l16 0c1,5 0,11 0,17 0,4 0,6 8,4 1,-5 1,-12 1,-19l0 -1c0,-1 0,-1 0,-1 1,0 2,0 2,0l6 0c1,0 2,0 2,0 2,0 1,0 2,0 1,1 1,25 0,29 0,2 -1,4 -1,4 0,1 0,2 0,3l0 2c0,0 0,0 0,0 -1,1 -1,1 -2,1 -1,0 -1,-1 -3,-2 -1,-1 -3,-1 -5,-2 0,0 -1,-1 -1,-1l-8 -3c0,-1 -2,-1 -4,-2 -2,-1 -3,-1 -4,-2l-24 -10c-1,0 -3,0 -4,-1 -12,-4 -24,-11 -31,-22 -4,-5 -5,-11 -7,-18 -2,-4 -1,-8 -1,-12 -1,-4 0,-35 0,-40 8,-2 42,1 54,1 4,-1 5,-1 7,-2l0 0zm29 0c1,3 4,3 7,5 3,1 4,1 8,1l2 0c0,0 0,0 -2,1 -7,1 -14,-3 -19,-3 3,2 10,4 13,5l2 1c-3,2 -11,-4 -17,-4 2,2 3,2 6,3l5 4c-7,0 -11,-2 -17,-5 0,-2 1,-6 2,-8 2,-2 3,-2 6,-4 3,-1 6,0 9,-1 4,0 6,-1 9,-1 0,2 0,3 -2,3 -6,2 -10,0 -12,3zm41 -29c0,-2 0,-3 2,-5 2,0 3,4 3,4 0,1 -3,1 -5,1zm-22 -4c2,1 3,1 3,4l-5 0c0,-2 0,-1 1,-3 1,-1 0,0 1,-1zm-4 1l0 -5c4,1 3,5 0,5zm6 -2c1,-4 3,-3 4,-3l0 5c-2,0 -3,-1 -4,-2zm24 -3c2,-2 0,-1 3,-2l0 5c-3,0 -3,0 -3,-3zm-5 3l0 -5c1,1 2,2 2,4 -1,1 -1,1 -2,1zm-23 -7l6 0c0,3 0,2 -2,3 -2,2 -1,3 -4,0 0,-1 -1,0 0,-3zm24 -1l5 -1c0,3 -1,1 -2,4 -2,0 -3,-1 -3,-3zm-129 0c6,0 -5,-2 16,-2l16 0c0,0 0,2 0,2 0,1 0,0 1,1 1,-1 0,0 0,-1 0,0 0,-1 0,-1 5,-1 6,1 8,3l2 5c1,3 -6,1 -13,1 -2,0 -31,1 -32,0 -1,-1 0,-3 1,-5l-2 -1 0 -18c2,0 4,-1 6,-1 1,4 -1,8 1,10 2,1 2,0 3,2 -1,1 -1,0 -2,1 -1,0 -5,0 -5,4zm28 -6l-17 0c-6,0 -5,-2 -5,-8 0,-4 0,-9 0,-13 0,-10 -1,-9 16,-9 16,0 13,-3 13,22 0,6 -1,8 -7,8zm-31 -12l0 -6c0,-3 -1,-3 2,-4 2,0 2,-1 4,-1l0 9c-2,1 -2,2 -6,2zm185 13l-13 13c0,2 0,2 -1,2 -1,-10 0,-22 0,-33 0,-4 1,-4 6,-9l6 -7c1,-1 1,-1 3,-1l-1 35zm-117 -32c2,1 6,5 6,6l-10 0c0,-1 1,-1 2,-2 1,-1 2,-3 2,-4zm95 -12c1,-1 1,-1 3,-1 1,1 0,1 1,1l0 14c-1,0 -3,2 -4,1 -1,-1 0,-13 0,-15zm-62 27c-1,-4 -1,-6 2,-8l12 -9c1,-1 4,-4 6,-5 0,1 0,4 1,5 0,2 0,2 1,4 3,0 7,-1 9,-2 2,0 4,0 6,0 2,0 2,-1 5,-1 0,2 0,2 -2,3 -7,7 -1,4 -17,8 -3,1 -8,2 -11,3 -4,0 -8,2 -12,2zm-29 -14c0,0 -1,-2 -2,-2 -1,-1 2,-3 4,-3 0,2 1,5 1,7 -2,-1 -1,-1 -3,-2zm-9 2c0,0 1,-7 1,-7 2,0 4,2 3,3 -1,2 -2,4 -4,4zm91 -9l0 6c2,1 3,0 6,0l0 5c3,1 4,1 7,0 3,-1 3,-2 3,-7 4,0 9,-2 12,-2 -1,2 -7,8 -9,10 -1,1 -1,0 -1,1 -3,3 -2,4 -11,5l-21 2c-2,0 -1,-2 -1,-4 0,-4 1,-4 5,-7 1,-1 1,-2 3,-4 1,-1 1,-1 4,-4 1,-1 0,-1 3,-1zm-78 -1c0,1 0,2 0,4 1,1 3,8 2,9 -2,0 -1,0 -2,-6l-1 -4c0,-1 0,-1 0,-2 0,-1 0,0 1,-1zm-16 14c-1,0 -2,-1 -3,1 1,2 3,0 5,0 3,0 6,0 8,0l12 0c2,0 2,1 2,-1 -1,-1 -2,0 -3,-1 -1,-1 -2,-6 -2,-8 0,-2 -1,-2 -1,-4 4,0 1,1 7,5 2,1 3,1 5,2 0,0 2,1 2,1l1 2 0 51 3 0c2,-3 -1,-42 0,-51l7 0c-1,2 -1,2 -3,3 0,1 -1,1 -1,3 0,0 0,4 0,4 1,2 1,2 2,3 6,1 15,-4 23,-4l13 -4 -1 6c4,2 4,1 8,1 6,-1 12,-2 18,-3 2,0 4,0 7,0l0 36 -29 1c0,-5 1,-13 0,-15 -2,-1 -8,-1 -10,0 -3,2 1,12 -1,14 -1,1 0,1 -1,1 -3,0 -8,0 -11,0 -1,-4 1,-8 0,-12 0,-1 -1,-1 -1,-1 -3,0 -6,0 -9,0 -3,0 -3,0 -3,3l0 10c-4,0 -5,-2 -5,2 5,1 57,0 66,0 7,0 6,-1 9,-5 4,-3 7,-9 11,-12 1,-1 1,-1 3,-2 0,14 0,31 -1,44 -7,1 -47,2 -52,0 -3,-1 -4,-2 -7,-2 -5,0 -4,0 -4,4 -6,0 -10,-2 -15,-4 -6,-3 2,-4 -9,-3 -6,1 -14,0 -19,3 -3,2 -2,1 -5,1 -13,0 -12,1 -20,2 -11,1 -29,0 -42,0l-11 -1c-4,0 -3,-1 -3,-7 0,-2 0,-5 0,-8 0,-4 0,-9 0,-13 1,-4 4,-2 5,-2 12,0 29,1 39,0 3,0 4,-1 5,-2 1,-2 -3,-6 -5,-8 0,0 -1,-2 -2,-3 -1,0 -1,0 -1,0 0,0 -1,0 -1,0l-1 0c-1,-1 -2,-1 -3,-1 2,-5 4,1 4,-12 0,-19 -3,-10 11,-21 5,-3 7,-7 11,-7 0,3 -2,12 -2,14zm12 -14c-1,4 -5,5 -5,0 1,0 4,0 5,0zm-5 -6c0,-2 0,-4 0,-5 1,-2 1,-4 1,-6 1,2 1,2 1,4 2,7 3,7 -2,7zm29 -41c2,1 1,1 3,2 3,3 12,10 16,11 7,4 5,2 10,5 7,3 20,5 27,5 5,0 12,-1 16,-3l4 0c1,-1 1,-1 3,-1l8 -4c5,-3 3,-3 5,-3 0,4 2,32 0,32 0,1 0,1 0,1 -4,1 0,-1 -2,1 -2,1 -14,3 -16,3 -1,-10 1,-9 -4,-10l0 -3c2,-1 3,0 3,-4l-6 1c-2,1 -2,1 -3,3 2,2 2,0 3,3 -1,1 -1,0 -2,1l0 11c-2,1 -2,1 -5,1l-1 -8c-2,0 -5,2 -6,4 -2,3 -2,3 -7,4l-18 1c0,-1 0,-8 -1,-9 -2,0 -3,1 -7,4 -2,2 -7,7 -10,7 -3,1 -7,1 -10,0l0 -55zm-63 52c1,-1 0,0 2,0l8 -6c5,-2 15,-11 19,-16 3,-2 2,-3 5,-3 0,2 -1,2 -1,4 -2,5 0,10 -4,10 -2,1 3,0 0,1 -3,0 -2,-1 -3,1 1,1 0,1 1,1l16 -1c3,1 5,1 5,-1 -2,-1 -3,-1 -5,-1 -1,-3 -1,-7 -2,-10 -1,-3 0,-3 0,-3 1,0 2,1 2,2 8,8 15,10 17,13 0,1 0,3 0,5 0,4 1,7 -1,6 -2,0 -7,-2 -8,-4l-2 -4c-3,-2 -15,-1 -18,-1 -4,0 -5,-1 -7,2 -3,4 -13,11 -17,12l-1 -3c-2,-3 -4,-3 -5,-4 -1,0 0,0 -1,0zm60 -13c-3,0 -7,-3 -9,-4 -2,-2 -6,-4 -7,-7 3,0 5,1 7,1 4,0 7,0 9,0l0 10zm-96 -28c1,3 0,1 3,2 1,0 2,1 3,1l1 1c0,1 0,1 1,1l8 4c3,0 7,2 10,2 9,1 19,1 27,-1 4,0 8,-1 12,-3 5,-1 8,-3 12,-5 3,-2 6,-4 10,-7 1,-2 7,-6 8,-7 0,5 0,10 0,14 0,2 1,13 0,14 -2,1 -11,0 -13,-1 -2,-1 -4,-2 -5,-3 -5,-3 -3,-4 -8,-1l-10 6c-4,2 -9,5 -14,6l-5 2c-6,1 -16,2 -22,3 -3,0 -8,-1 -10,1 4,2 29,-1 32,-3 1,-1 3,-1 4,-1l10 -3c2,-1 9,-5 11,-5 -1,2 -9,8 -11,10 -5,4 -8,6 -13,9 -2,2 -5,3 -8,4 -6,4 -15,0 -19,2 -5,2 -4,5 -5,7 -2,0 -4,1 -7,0 0,-3 0,-8 0,-11 0,-5 -1,-6 1,-10 -1,-3 -1,-8 -1,-11 -1,-3 0,-7 0,-9l-2 17c0,8 0,15 0,22 0,13 1,27 1,41 0,14 0,28 0,42 0,14 -1,30 1,42 0,3 1,5 2,8 1,6 3,11 7,15 1,2 4,4 4,5 7,7 16,13 26,16l23 9c2,1 5,3 7,4 2,1 5,2 8,3 0,0 1,1 3,2 1,0 3,0 4,1 2,1 5,3 7,4 4,1 3,2 8,1 10,-4 19,-9 28,-14l15 -6c2,-1 3,-1 4,-2l11 -4c17,-8 30,-22 33,-41l1 -9c0,-4 1,-7 0,-11 -1,-5 0,-25 0,-31 0,-4 0,-37 0,-42 1,-8 0,-31 1,-41 0,-11 0,-32 -1,-42 -2,0 -2,2 -3,3 -6,2 -15,7 -20,8 -6,1 -15,1 -23,1 -7,-1 -13,-2 -20,-5 -11,-4 -19,-11 -28,-19 -2,0 0,0 -2,-1 -2,0 -2,1 -4,3 -10,10 -23,18 -38,21 -9,1 -20,2 -30,1 -7,-2 -8,-3 -13,-5 -2,0 -9,-4 -10,-4 -1,-1 -1,0 -2,0z"/>
    <path class="fil0" d="M6265 572c5,0 7,0 11,0 3,-1 2,-1 4,-2 5,-1 12,-3 15,-5 5,-4 10,-6 16,-12 0,0 8,-10 9,-10 2,1 2,1 4,2 11,12 6,8 19,18 8,6 24,10 33,10 6,0 10,-1 15,-3 10,-1 18,-8 27,-13 2,-1 2,-3 5,-4l0 159c0,11 1,28 -3,39 -2,4 -3,8 -5,12l-9 11c-3,2 -9,7 -13,9l-6 3c-2,1 -3,1 -4,2 -2,1 -3,1 -5,2 -4,2 -5,2 -9,3 -6,2 -10,4 -14,6l-28 14c-5,3 -4,3 -12,-3 -2,-1 -3,-1 -4,-2 -1,0 -3,0 -4,-1 -4,-1 -6,-3 -9,-4l-8 -3c-9,-3 -19,-7 -27,-10 -1,-1 -1,0 -2,-1l-4 -2c-4,-2 -1,0 -6,-3 -1,0 -1,-1 -3,-1 -2,-1 -6,-5 -9,-7 0,0 -2,-1 -3,-2 -1,-1 -2,-2 -3,-3 -7,-7 -8,-11 -11,-19l-2 -10c0,-4 -1,-3 -1,-6 -1,-14 0,-34 0,-48l0 -134c3,0 8,6 10,7l10 6c2,1 2,1 6,2 2,0 4,1 7,1 5,2 7,2 13,2zm55 -33c-1,1 -2,4 -5,6 -4,3 -4,6 -6,4 -2,-2 -3,-4 -4,-6 0,-2 -1,-3 -1,-6 1,-10 14,-16 23,-13 16,6 8,25 5,26 -2,0 -7,-7 -8,-8 -2,-2 -2,-2 -4,-3zm-15 -11c0,5 -5,4 -1,17 2,6 7,6 0,10 -4,4 -9,7 -15,10 -22,10 -45,5 -64,-9l-6 -5c-2,-1 -2,-2 -3,-3 0,2 1,3 1,5 -1,62 0,122 -1,183 0,3 1,4 1,6l1 5c3,8 6,17 12,23 1,0 1,1 1,1 1,1 1,1 1,2 3,3 6,4 7,6 3,3 9,6 13,7 1,1 1,1 2,1l33 13c1,1 1,1 2,1 10,4 19,7 27,13l7 5c1,-2 4,-3 8,-6l9 -5c3,-2 8,-5 12,-6l7 -3c6,-2 11,-4 16,-6 5,-1 10,-4 15,-7l9 -4c12,-8 20,-20 24,-34 0,-2 0,-4 1,-5 0,-3 0,-4 0,-7 0,-3 1,-4 1,-7l0 -152c0,-8 0,-15 0,-22 0,-3 -1,-4 -1,-7 0,0 0,0 0,0 0,0 0,0 0,0l-3 5c-1,0 -1,0 -3,0l-7 6c-1,1 -2,2 -3,2 -4,2 -9,5 -14,7 -13,4 -31,2 -43,-4l-9 -5c-1,-1 -1,-1 -3,-2 -2,-1 -4,-4 -6,-4 4,-8 6,-7 6,-17 0,-4 -4,-9 -7,-11 -5,-4 -7,-4 -13,-4 -3,0 -1,0 -5,1 -3,1 -5,5 -9,6z"/>
    <path class="fil0" d="M6254 706c9,-2 16,5 17,12 2,9 -4,16 -11,18 -14,2 -24,-14 -15,-24 2,-4 5,-4 9,-6zm-13 -7c0,5 3,3 3,8 -7,0 -5,-8 -11,1 -1,1 -3,4 -2,4 0,2 9,7 1,9 -1,0 -2,1 -3,2 0,1 2,5 2,5 3,6 1,3 3,6 3,1 4,-1 5,-1 1,0 2,0 2,2l0 1c-1,0 -2,2 -2,3 0,1 9,7 10,7 3,-1 4,-9 6,-5l4 5c2,0 11,-2 12,-3 0,-5 -2,-3 -2,-7 6,0 6,6 9,2 1,-2 7,-8 7,-10 -3,-2 -7,-1 -6,-6 2,-2 4,-1 5,-2 0,0 0,0 0,0 0,0 0,0 0,0 0,0 0,0 0,-3 -1,-1 -1,-2 -2,-3 0,-2 -1,-3 -1,-5 -3,0 -4,2 -8,2 0,-3 0,-2 3,-5 1,-2 2,-2 -2,-3 -3,-2 -7,-6 -11,-6 0,1 0,2 0,3 -3,5 -5,2 -6,0 0,-2 -1,-3 -2,-4 -1,0 -4,1 -7,1 -1,1 -4,2 -7,2z"/>
    <path class="fil0" d="M6387 704c4,0 4,2 8,3 4,0 4,-3 7,-3 2,1 2,3 3,4 1,3 2,3 4,4 1,4 -1,2 -4,3 -2,2 -1,2 -2,5 -1,1 -4,2 -5,0 -1,-3 0,-5 -4,-4 -2,2 -2,3 -3,4 -6,1 -1,-2 -6,-7 -2,-1 -2,-2 -1,-4 1,-2 2,-3 3,-5zm6 -8c-6,1 -6,0 -10,5 -2,2 -1,1 -2,3 -2,2 -3,4 -3,10 2,14 21,18 31,7 6,-6 6,-17 -3,-23 -3,-2 -8,-3 -13,-2z"/>
    <path class="fil0" d="M6371 726c1,2 1,3 1,5 0,3 1,4 -2,4 -2,-2 -2,-3 -2,-6 0,-2 0,-4 3,-3zm-13 -1l2 1c0,2 0,3 0,5 0,2 1,3 -1,3 -2,-2 -2,-6 -1,-9zm-9 8l0 -7 2 0c0,0 1,8 -2,7zm-14 -11c1,0 1,-1 1,2 0,0 0,2 0,2 -1,2 -1,1 -1,2 0,0 -1,0 -1,-5 1,-1 0,-1 1,-1zm13 -2c6,0 20,0 25,0l0 4 -30 0c-1,-4 1,-4 5,-4zm-12 -4c6,4 5,4 5,6 -3,0 -2,0 -6,-2 -1,-1 -3,-2 -5,-4l0 -4c2,0 3,1 6,4zm7 -6c6,0 13,0 18,-1 2,0 3,0 4,1 2,2 6,6 6,8l-23 0c-6,0 -6,1 -10,-3 -3,-3 -5,-3 -5,-5l10 0zm-7 -2c-2,0 -5,0 -7,1 -1,8 -2,7 2,11 2,0 0,4 1,7l2 3c1,1 0,0 1,1 1,-1 0,0 1,-2 1,-1 1,-1 2,-1l0 -3c4,-1 1,1 5,1 2,0 3,-1 3,2 0,0 0,3 0,4 1,2 1,2 2,3 2,1 1,1 2,3 1,-1 1,-1 1,-2 1,-5 1,3 1,-10 3,0 4,0 4,2 0,2 0,4 0,7 1,0 2,1 2,1 1,2 0,2 2,2 0,-1 0,-1 0,-2 1,-1 2,0 2,-3 1,-2 -1,-5 0,-7 1,0 3,-1 4,0 2,1 1,3 1,9 5,3 2,2 4,3l3 -4c0,-2 0,-6 0,-7l1 -2c1,-6 0,-7 -3,-11 -1,-1 -7,-6 -7,-6 -2,-1 -25,0 -29,0z"/>
    <path class="fil0" d="M6287 643c0,-2 0,-2 1,-3 2,-1 7,-7 8,-7 1,0 7,6 8,7 2,2 2,0 2,3l-19 0zm20 -3c-2,0 -1,0 -3,-2 -9,-9 -9,-5 -2,-12 1,-1 1,-1 2,-1 1,2 3,12 3,15zm-21 -1c0,-2 1,-4 1,-7 0,-2 0,-4 1,-6 3,1 3,2 5,4 2,2 2,2 -3,6 -3,3 -2,3 -4,3zm23 -11c1,2 3,13 3,14 -3,1 -2,-1 -2,-3l-3 -10c0,-2 -1,-4 -1,-5 3,0 2,1 3,4zm-14 2c0,-1 -1,-2 -2,-3 -2,-1 -3,-1 -3,-3l11 0c-1,2 -4,5 -6,6zm-11 -7c0,1 -1,0 3,1l-2 8c-1,4 -1,7 -2,10 0,0 0,0 0,1l-4 1 0 1c2,1 33,0 37,0 1,-4 -1,-1 -2,-4l-3 -15c-1,-3 0,-2 0,-4l-24 0c-2,0 -2,0 -3,1z"/>
    <path class="fil0" d="M6354 786c2,0 1,0 3,-1 3,-5 6,-10 12,-13 9,-3 26,2 34,-11 3,-3 6,-10 7,-15 0,-4 0,-5 -3,-4 -5,0 -9,1 -13,2 -1,11 5,7 8,11 1,1 1,3 0,5 -2,3 -3,3 -6,6 -10,6 -21,0 -31,7 -3,2 -4,3 -6,6l-2 2c0,0 0,0 0,0l-1 2c-1,1 -2,1 -2,3z"/>
    <path class="fil0" d="M6355 760c2,0 7,0 9,1 -1,1 -1,1 -2,2 -1,0 -7,2 -7,-3zm4 -5c0,0 1,-1 4,0 1,0 4,2 4,3 1,2 -4,1 -4,1 -4,0 -9,1 -4,-4zm10 2c-2,-1 0,0 -2,-2 0,0 0,-1 0,-1 -2,0 -3,0 -4,-1 0,-2 2,-3 4,-2 2,1 4,1 5,3 0,2 -1,2 -3,3zm-1 -7c1,-6 7,-4 7,-1 0,2 0,3 -1,3 -2,0 -1,0 -3,-1 -1,0 -2,-1 -3,-1zm-5 22c0,-4 -4,-2 -4,-6 2,-1 3,0 7,-3 1,-2 3,-3 5,-5 10,-9 6,-9 6,-12 5,0 4,2 7,1 -1,-4 -9,-2 -9,-3 -2,0 -2,0 -4,0 -2,0 -4,3 -5,4 -4,3 -2,0 -6,4 -5,6 -10,8 -4,13 2,1 1,0 2,3 1,2 2,4 5,4z"/>
    <path class="fil0" d="M6337 764c-1,-2 -1,-3 1,-3 6,-1 5,3 3,5 -2,0 -3,0 -4,-2zm-1 -8c2,0 7,-1 7,2 0,2 -5,2 -8,1l1 -3zm0 -2c-1,-2 -1,-2 1,-2 7,-1 6,2 4,2 -1,0 -4,0 -5,0zm1 -5c0,-3 2,-4 4,-4 1,1 1,2 1,4l-5 0zm6 -5c1,-1 5,0 7,0 1,0 0,0 1,0 0,0 0,0 0,0 0,-2 0,-1 -2,-2 -4,0 -6,-1 -10,2 -5,2 -5,5 -5,9 1,9 0,11 4,15 6,4 2,3 14,3l0 -1c-3,-2 -8,1 -10,-2 0,-2 1,-1 2,-5l0 -13c-1,-4 -1,-4 -1,-6z"/>
    <path class="fil0" d="M6240 621c0,-5 1,-4 14,-4 5,0 4,0 6,1l0 18c-2,1 -1,1 -5,1l-10 0c-3,0 -3,0 -5,-1l0 -15zm-1 0c0,3 -1,14 0,15 1,4 7,3 11,3 3,0 8,1 10,0 3,-2 2,-7 2,-9 0,-2 1,-11 0,-13 -1,0 -1,-1 -2,-2l-15 0c-6,0 -6,2 -6,6z"/>
    <path class="fil0" d="M6318 662c1,-1 0,-2 0,-4 0,-2 0,-2 -1,-4 0,-1 -1,-4 -1,-4 0,-2 1,-1 1,-3l-30 1c-2,0 -8,-1 -7,0 0,3 2,0 1,6 -1,2 -1,3 -2,6 0,2 -1,4 2,4 1,-2 2,-13 3,-16l26 1c1,2 1,4 1,7 1,6 0,6 3,6 0,-5 -3,-9 -3,-14 6,0 3,12 7,14z"/>
    <path class="fil0" d="M6389 633c1,6 -1,6 -5,6 -1,0 -1,0 -1,-3 0,-2 -1,-4 6,-3zm-9 6l-5 0c-1,-4 -1,-6 2,-6 4,0 4,1 3,6zm-8 0c-2,0 -5,0 -6,-1 -1,-6 1,-6 6,-5 1,2 1,4 0,6zm-5 1l24 0c0,-1 0,-5 0,-8 -3,-1 -10,0 -15,0 -13,0 -12,-2 -12,6 0,2 0,2 3,2z"/>
    <path class="fil0" d="M6354 633c1,2 1,3 1,6 -2,0 -3,0 -4,0 -2,0 -3,0 -3,-3 0,-2 0,-3 2,-3 1,0 3,0 4,0zm-8 0l0 3c0,3 -1,3 -2,3 -4,1 -4,0 -4,-3 0,-2 0,-4 5,-3 0,0 0,0 1,0zm-8 0c2,6 -1,6 -4,6 -2,0 -2,0 -2,-3 0,-4 2,-3 6,-3zm-8 2l0 5c5,0 23,1 26,0 1,0 1,-1 1,-3 0,-7 1,-5 -14,-5l-10 0c-4,0 -3,0 -3,3z"/>
    <path class="fil0" d="M6247 721c0,-1 0,-2 0,-3 1,-6 10,-10 16,-5 1,1 2,2 3,3 6,15 -17,21 -19,5zm7 -11c-3,1 -6,2 -7,4 -7,9 1,21 13,18 11,-2 12,-15 3,-21 -1,-1 -6,-3 -9,-1z"/>
    <path class="fil0" d="M6386 650c0,-2 2,-2 4,-2 1,1 1,3 0,5 -3,0 -4,1 -4,-3zm-6 0c0,-2 4,-2 4,0 1,4 -1,3 -4,3l0 -3zm-5 -1c2,-2 5,1 3,3 -2,3 -5,-1 -3,-3zm-2 -2c0,1 -1,5 0,7 0,1 3,1 5,1l13 0c2,-1 0,-7 0,-8 -1,-1 -16,-1 -18,0z"/>
    <path class="fil0" d="M6396 672c3,-2 2,0 5,0 0,-5 -6,-4 -7,1 0,4 3,8 6,6 1,0 1,0 1,-1l1 -1c2,1 1,0 2,1 2,2 2,2 5,1 0,-2 1,-2 0,-5l-2 0c0,3 1,1 0,4 -1,0 -1,0 -2,-1 0,-1 -1,-2 -1,-3 1,-4 3,-2 5,-2 0,-3 -3,-6 -6,0l-1 2 -3 0c0,2 0,2 0,4 -3,0 -3,-3 -3,-6z"/>
    <path class="fil0" d="M6366 678c-1,-1 -1,0 -2,-2 0,-1 -2,-5 3,-4 0,0 0,1 0,2 0,4 0,3 -1,4zm6 -6c2,-2 3,0 3,-3l-4 0 -2 3c-1,-1 -1,-1 -2,-2 -2,-3 -5,1 -5,4 0,2 0,5 2,6 2,0 3,0 3,-1l1 -1c1,-2 0,1 1,-1l1 1c0,0 0,0 0,0 1,1 -1,0 1,1l1 -1c1,-5 1,-1 3,-4 0,0 -1,0 -1,0 0,0 0,0 0,0 0,0 0,-1 0,-1 -1,0 -1,0 -1,0 -1,-1 -1,0 -1,-1z"/>
    <path class="fil0" d="M6257 676c0,3 1,4 3,4 2,0 2,-1 3,-2l0 -1c2,0 1,1 2,3 4,0 6,-1 6,-4 -3,0 -1,0 -2,1 -3,2 -4,-1 -4,-2 0,-1 0,-2 0,-3 3,-2 2,0 5,0 0,-3 -3,-5 -6,-1 -1,1 -1,1 -1,2 0,1 0,1 0,2 -1,-1 0,-1 -2,-2 -2,-1 -2,0 -2,-1l4 0c-1,-5 -6,-2 -6,0 0,3 4,1 4,5 -3,2 -1,0 -4,-1z"/>
    <path class="fil0" d="M6317 676c0,-2 -1,-5 2,-4 2,0 1,3 1,5 -1,1 -1,1 -3,-1zm4 4c0,-1 0,-3 2,-4l0 1c1,1 0,1 1,2 1,1 3,1 3,1 1,-1 1,0 1,-2 -1,-1 -3,1 -3,-2 0,-3 1,-4 0,-6 -2,1 0,0 -2,1l-1 1c0,-1 0,0 0,-1 -3,-4 -6,-1 -7,1 0,2 0,4 1,6 2,2 2,2 5,2z"/>
    <path class="fil0" d="M6393 737l0 5c3,0 14,-2 16,-3l-1 -3c-3,0 -1,0 -7,1 -2,0 -5,0 -8,0z"/>
    <path class="fil0" d="M6279 678c3,4 4,-6 8,1l2 0 0 -7c0,-3 1,-1 0,-2 -1,1 -2,-1 -1,3 0,2 0,3 -1,4 0,0 0,1 -1,-4 -1,-2 1,-3 -3,-3 -1,2 -2,4 -2,7l-2 1z"/>
    <path class="fil0" d="M6389 708c-2,1 -3,3 -2,4 4,8 10,-5 4,-5 -2,0 -2,1 -2,1z"/>
    <path class="fil0" d="M6279 675c0,-1 0,-2 0,-3 0,-1 0,-1 0,-2 -2,0 -2,0 -2,4 -5,0 0,-4 -4,-4 -1,0 -1,0 -1,0l0 5 2 1 0 3c5,0 2,-1 5,-3l0 -1z"/>
    <path class="fil0" d="M6389 676c0,0 0,0 1,0 2,1 -1,3 3,3 0,-2 0,-4 0,-5 0,-5 0,-4 -1,-4 -1,2 0,2 -1,4 -3,-1 0,-3 -4,-4 0,2 1,3 1,5 -1,2 -2,4 1,4l0 -3z"/>
    <path class="fil0" d="M6382 672c1,-1 2,0 3,-1 0,-2 0,-2 -2,-2 -3,0 -3,1 -3,3 0,1 0,6 0,7 2,1 4,1 6,0 -2,-2 -2,0 -4,-2 0,-2 0,-1 1,-2 1,-1 1,1 2,-1 -2,-2 -2,0 -3,-2z"/>
    <path class="fil0" d="M6397 710c0,2 0,3 1,5 2,0 4,-1 4,-3 1,-2 0,-3 -1,-4 -3,-1 -2,0 -4,2z"/>
    <path class="fil0" d="M6338 672c2,-1 5,0 4,-3 -3,-1 -5,0 -6,1 0,2 0,4 0,6 0,3 0,4 3,4 3,0 2,-1 3,-1l-1 -1c-2,0 -3,1 -3,-3 2,0 2,1 3,-1 -1,-2 -2,1 -3,-2z"/>
    <path class="fil0" d="M6244 654c2,1 12,1 14,0 0,-3 -1,-2 -7,-2 -5,0 -7,-1 -7,2z"/>
    <path class="fil0" d="M6237 679c0,-4 -5,-4 -2,-7 3,-2 1,-2 1,-2 -3,1 -1,2 -4,2 -1,-1 0,-1 -1,-2l0 7c0,3 0,2 0,2 0,0 0,1 0,-1 1,0 0,0 1,-1 0,0 0,-1 0,-1 5,-1 0,3 5,3z"/>
    <path class="fil0" d="M6294 672c-3,-1 1,-2 -3,-2 1,4 2,0 2,9l2 0c0,-2 0,-3 0,-5 1,-3 2,-2 1,-4 -2,1 0,1 -2,2z"/>
    <path class="fil0" d="M6247 680c1,-1 1,-1 1,-1 2,-2 1,-1 1,-5 0,-3 1,-4 -1,-4 -1,2 -1,5 -1,8l-3 -1c1,2 2,3 3,3z"/>
    <path class="fil0" d="M6353 672c1,-2 2,0 4,-1 -1,-3 -2,-2 -6,-1l0 5c2,0 3,0 4,0 2,0 2,0 2,-1 -2,-2 -2,0 -4,-2z"/>
    <path class="fil0" d="M6399 736c-1,-2 -1,-4 -1,-5 -1,-2 -1,-2 -4,-2 0,6 1,7 5,7z"/>
    <path class="fil0" d="M6349 680c2,-2 2,-4 0,-6l-2 0c0,3 1,-1 1,3 -4,1 -1,0 -5,-1 1,3 2,4 6,4z"/>
    <path class="fil0" d="M6402 728c-1,2 -1,6 1,7 3,1 3,-7 0,-7 -2,0 -1,0 -1,0z"/>
    <path class="fil0" d="M6331 670c-1,1 -1,6 -1,7 0,3 5,3 5,2 0,-2 -1,-1 -2,-1 -2,-1 -1,-1 -2,-3 0,-4 2,-4 0,-5z"/>
    <path class="fil0" d="M6297 679c4,-1 1,-3 4,-2 1,0 0,0 2,1l0 -4c-2,0 -1,1 -3,1 -1,0 0,-1 -2,-1l-1 5z"/>
    <path class="fil0" d="M6406 583c0,-3 -3,-5 -7,-5 1,2 1,2 3,3 3,1 2,1 4,2z"/>
    <path class="fil0" d="M6314 676c-3,1 -1,3 -5,0l0 3c1,0 1,1 3,1 1,-1 2,-2 2,-4z"/>
    <path class="fil0" d="M6343 672c4,0 1,-1 5,0 1,0 0,0 2,0 -1,-4 -6,-4 -7,0z"/>
    <path class="fil0" d="M6309 672c1,0 0,0 1,0 1,-2 1,0 3,0 0,-5 -4,-3 -4,0z"/>
    <path class="fil0" d="M6399 581c0,-1 0,-1 -2,-1 0,2 2,5 3,4 1,-1 0,-2 -1,-3z"/>
    <path class="fil0" d="M6354 678c-2,-1 -1,-1 -3,-1l0 2c4,1 5,1 6,0l-1 -1c-3,-1 2,1 -1,0 -1,0 0,0 -1,0z"/>
    <path class="fil0" d="M6397 588c1,-1 0,-3 0,-4l-3 0c0,1 1,3 3,4z"/>
    <path class="fil0" d="M6301 670c-2,0 -2,1 -2,3l3 0 -1 -3z"/>
    <path class="fil0" d="M6266 654c7,2 0,-6 0,0z"/>
    <path class="fil0" d="M6403 641l3 0 0 -2c-2,1 -3,1 -3,2z"/>
    <path class="fil0" d="M6403 585c-2,0 -2,0 -2,1l2 0 0 -1z"/>
    <path class="fil0" d="M6404 648c3,-1 3,-1 3,-3 -3,0 -2,0 -3,3z"/>
    <path class="fil0" d="M6404 632c3,0 3,0 3,-2 -2,0 -2,0 -3,2z"/>
    <path class="fil0" d="M6409 586c2,0 3,0 3,-1 -3,0 -3,0 -3,1z"/>
    <path class="fil0" d="M6247 649l3 0 -1 -1c-2,0 -2,-1 -2,1z"/>
    <path class="fil0" d="M6243 649c2,0 2,0 3,-1 0,0 -1,0 -2,0l-1 1z"/>
    <path class="fil0" d="M6407 637l2 1 0 -2c-2,0 -1,-1 -2,1z"/>
    <path class="fil0" d="M6391 586c0,3 2,2 2,0 -1,-1 -1,-1 -2,0z"/>
   </g>
   <rect class="fil1" x="1292" width="5166" height="2221"/>
   <g>
    <path class="fil2" d="M2792 975l-113 200c-41,-19 -235,-106 -287,-129 -34,-15 -63,-28 -92,-40l100 -252c16,-3 241,137 392,221z"/>
    <polygon class="fil3" points="2809,801 2830,922 2814,930 3129,970 3180,965 "/>
    <polygon class="fil2" points="2180,1854 1292,1432 2343,1623 "/>
    <path class="fil4" d="M2756 457c98,0 177,-80 177,-177 0,-98 -79,-178 -177,-178 -97,0 -177,80 -177,178 0,97 80,177 177,177z"/>
    <polygon class="fil5" points="2792,975 2139,642 2220,493 3091,550 2987,702 "/>
    <path class="fil4" d="M2910 1278c-12,21 -107,176 -123,184l-594 -112c2,-26 97,-327 110,-351 5,15 -8,4 17,16l72 31c173,77 346,153 518,232z"/>
    <polygon class="fil5" points="2499,1403 2180,1854 1999,1768 2193,1350 "/>
    <polygon class="fil2" points="3220,2220 2650,1437 2910,1278 "/>
    <polygon class="fil4" points="2876,857 3091,550 3570,692 "/>
    <polygon class="fil6" points="3570,692 3294,609 3253,0 "/>
    <polygon class="fil7" points="2830,922 2304,1066 3180,965 "/>
    <polygon class="fil3" points="2139,916 2304,1066 2830,922 "/>
    <polygon class="fil8" points="2139,916 1718,721 1592,683 2304,1066 "/>
    <polygon class="fil9" points="1592,683 1566,543 1718,721 "/>
    <polygon class="fil4" points="1841,1255 1955,471 2220,493 "/>
   </g>
   <g>
    <path class="fil10" d="M4275 1324c-21,0 -44,-3 -69,-9 -25,-6 -46,-13 -61,-22l35 -80c10,6 25,11 43,17 18,5 35,8 48,8 16,0 29,-3 38,-10 9,-6 14,-13 14,-21 0,-5 -4,-10 -11,-15 -6,-5 -18,-11 -33,-20l-17 -11c-26,-16 -48,-28 -62,-39 -15,-10 -27,-23 -39,-39 -12,-17 -18,-35 -18,-55 0,-22 7,-42 19,-59 12,-17 29,-30 51,-40 22,-9 48,-15 77,-15 20,0 41,4 62,9 21,6 39,14 54,24l-31 71c-21,-7 -36,-11 -48,-13 -10,-3 -23,-4 -36,-4 -12,0 -21,3 -28,8 -7,6 -10,12 -10,20 0,6 2,10 9,15 6,4 16,11 29,18l21 11c24,14 45,27 61,39 16,12 30,26 41,42 12,16 18,34 18,54 0,23 -7,42 -19,60 -13,18 -32,31 -56,41 -23,10 -51,15 -82,15zm321 -125l0 118 -106 0 0 -395 106 0 0 137 158 -146 82 60 -135 125 160 219 -134 0 -101 -148 -30 30zm318 118l0 -395 165 0c47,0 86,11 117,34 31,22 46,56 46,100 0,23 -5,44 -15,62 -8,17 -22,32 -39,43l87 156 -122 0 -64 -125 -70 0 0 125 -105 0zm218 -261c0,-17 -4,-29 -14,-38 -10,-9 -24,-13 -43,-13l-56 0 0 105 58 0c16,0 30,-6 40,-15 11,-10 15,-23 15,-39zm475 178l10 83 -289 0 0 -395 279 0 10 83 -183 0 0 72 120 0 10 83 -130 0 0 74 173 0zm27 83l148 -395 106 0 147 390 -104 10 -28 -84 -136 0 -28 79 -105 0zm161 -161l77 0 -39 -108 -38 108zm557 -30l-53 72 -43 6 -63 -78 0 191 -105 0 0 -395 72 0 119 150 109 -150 70 0 0 395 -106 0 0 -191z"/>
    <path class="fil10" d="M4150 706l0 74 -30 0 0 -212 30 0 0 97 97 -103 22 18 -76 80 91 120 -37 0 -74 -98 -23 24zm141 84c7,-3 12,-6 16,-7 3,-3 6,-6 7,-9 2,-5 2,-10 2,-17l0 -189 30 0 0 194c0,10 -1,17 -4,23 -2,7 -7,11 -13,15 -6,4 -15,8 -27,12l-11 -22zm156 -6c-10,0 -20,-2 -34,-5 -13,-3 -22,-7 -25,-11l6 -24c7,4 15,7 25,9 10,4 19,5 27,5 15,0 27,-3 35,-8 8,-6 12,-14 12,-22 0,-8 -2,-14 -6,-18 -4,-6 -10,-10 -18,-14 -7,-5 -17,-10 -31,-16 -13,-6 -23,-11 -31,-16 -8,-7 -14,-13 -18,-20 -3,-7 -6,-16 -6,-27 0,-10 3,-19 9,-28 5,-8 13,-15 24,-20 11,-4 23,-7 37,-7 10,0 20,1 30,4 10,3 18,6 26,11l-9 23c-7,-4 -15,-7 -22,-8 -6,-2 -14,-3 -23,-3 -12,0 -22,2 -30,7 -8,5 -12,12 -12,21 0,7 2,13 7,17 3,6 9,10 17,14 7,5 17,10 32,16 18,9 32,17 41,27 9,9 14,21 14,36 0,11 -4,21 -9,29 -6,9 -15,16 -27,20 -11,6 -25,8 -41,8zm199 -221c8,0 17,1 28,3 10,3 19,5 26,10l-9 21c-9,-3 -17,-5 -23,-6 -6,-2 -13,-3 -23,-3 -12,0 -24,4 -34,12 -11,7 -19,17 -25,30 -6,13 -9,27 -9,44 0,16 3,30 8,43 5,12 12,23 23,30 10,8 21,12 36,12 16,0 32,-4 46,-10l11 23c-7,4 -16,6 -26,9 -12,2 -22,3 -30,3 -22,0 -40,-5 -55,-15 -14,-9 -25,-22 -33,-39 -8,-17 -12,-35 -12,-55 0,-21 4,-41 12,-58 9,-16 21,-30 36,-40 15,-9 33,-14 53,-14zm221 193l4 24 -135 0 0 -212 131 0 4 23 -106 0 0 69 73 0 4 23 -77 0 0 73 102 0z"/>
    <path class="fil10" d="M4209 1553c-6,0 -12,1 -18,4 -4,3 -9,6 -11,9l-26 0 5 -99 100 0 -3 23 -73 0 -2 48c9,-4 17,-7 27,-7 20,0 36,5 46,17 10,10 16,25 16,41 0,12 -3,23 -8,32 -6,9 -14,16 -24,22 -10,5 -23,8 -37,8 -10,0 -19,-2 -29,-6 -11,-2 -20,-6 -29,-11l15 -19c7,5 14,7 21,10 6,2 14,3 24,3 11,0 21,-4 29,-11 7,-7 12,-16 12,-28 0,-11 -4,-20 -10,-26 -6,-7 -14,-10 -25,-10zm95 -136l13 0 4 11 -17 0 0 36c0,5 1,7 2,9 2,3 4,4 8,4 2,0 4,-1 6,-2l4 11c-1,0 -3,0 -6,1 -1,1 -4,1 -6,1 -7,0 -12,-2 -16,-5 -4,-4 -6,-9 -6,-16l0 -39 -10 0 0 -11 10 0 0 -17 14 -3 0 20zm93 23l0 46 -13 0 0 -45c0,-4 -1,-9 -3,-11 -1,-2 -4,-4 -8,-4 -4,0 -8,1 -11,4 -4,1 -8,4 -12,8l0 48 -13 0 0 -99 13 -2 0 39c4,-2 8,-5 13,-7 4,-2 8,-3 12,-3 8,0 14,3 17,8 4,4 5,10 5,18zm340 -23l12 0 5 11 -17 0 0 36c0,5 1,7 3,9 0,3 3,4 7,4 1,0 3,-1 7,-2l3 11c-1,0 -3,0 -6,1 -2,1 -3,1 -6,1 -6,0 -12,-2 -16,-5 -4,-4 -6,-9 -6,-16l0 -39 -9 0 -1 -11 10 0 0 -17 14 -3 0 20zm93 23l0 46 -13 0 0 -45c0,-4 -1,-9 -3,-11 -2,-2 -4,-4 -9,-4 -3,0 -7,1 -10,4 -4,1 -7,4 -12,8l0 48 -13 0 0 -99 13 -2 0 39c5,-2 8,-5 13,-7 4,-2 8,-3 12,-3 8,0 13,3 17,8 3,4 5,10 5,18zm-416 100l73 0 3 22 -73 0 -3 -22zm167 -46c0,-9 1,-17 6,-24 5,-8 11,-14 20,-18 9,-5 19,-6 30,-6 13,0 23,1 31,6 9,4 16,10 20,18 4,7 7,15 7,24 0,8 -3,16 -8,22 -5,7 -12,12 -20,16 6,2 12,5 17,9 6,5 10,10 14,17 2,7 4,13 4,20 0,11 -2,19 -7,27 -5,8 -13,16 -23,20 -10,5 -21,7 -35,7 -13,0 -24,-2 -34,-7 -10,-4 -18,-12 -22,-20 -6,-8 -8,-16 -8,-27 0,-6 1,-13 5,-20 3,-6 7,-11 12,-17 7,-4 12,-7 18,-9 -8,-4 -15,-9 -20,-15 -5,-7 -7,-15 -7,-23zm88 0c0,-8 -2,-14 -9,-19 -5,-5 -13,-7 -23,-7 -9,0 -17,2 -23,7 -5,5 -9,11 -9,19 0,7 3,13 9,18 6,6 14,9 23,11 11,-2 18,-5 24,-11 6,-5 8,-11 8,-18zm7 85c0,-9 -2,-17 -9,-24 -7,-6 -17,-11 -30,-13 -12,2 -22,7 -29,13 -6,7 -10,15 -10,24 0,10 4,17 12,23 7,5 17,8 27,8 11,0 21,-3 28,-8 8,-6 11,-13 11,-23zm232 59c6,-2 11,-4 14,-7 3,-2 5,-4 7,-8 1,-3 2,-9 2,-15l0 -173 27 0 0 178c0,8 -2,16 -3,21 -3,5 -7,10 -13,13 -5,5 -13,7 -24,11l-10 -20zm76 -9l73 -194 25 0 74 192 -26 4 -21 -54 -79 0 -19 52 -27 0zm54 -74l63 0 -32 -84 -31 84zm174 -71l0 145 -26 0 0 -194 24 0 100 143 0 -143 28 0 0 194 -24 0 -102 -145z"/>
   </g>
   <polygon class="fil3" points="3860,2180 3896,2180 3896,40 3860,40 "/>
  </g>
  <g id="_749848147680">
   <path class="fil11" d="M4151 2972l-8 0c-3,15 -6,27 -9,36 -2,9 -6,16 -9,22 -4,5 -8,9 -13,11 -5,2 -11,3 -17,3 -18,0 -31,-8 -40,-24 -4,-8 -7,-18 -9,-29 -2,-11 -3,-25 -3,-43 0,-35 4,-61 13,-77 9,-16 22,-25 40,-25 6,0 11,1 15,3 4,1 8,4 11,8 3,4 7,10 9,17 3,7 7,17 10,29 1,1 1,2 1,3 0,1 1,2 1,3l8 0 0 -57c-17,-8 -34,-13 -51,-13 -14,0 -27,3 -39,8 -11,5 -21,12 -29,21 -8,10 -14,21 -19,34 -4,14 -6,28 -6,45 0,15 2,30 6,43 5,12 11,23 19,33 8,8 18,15 29,21 11,4 24,7 38,7 18,0 35,-4 52,-12l0 -67z"/>
   <path class="fil11" d="M4258 3047l40 0 0 -7 -15 0 0 -98c0,-16 -4,-27 -13,-35 -8,-9 -20,-13 -37,-13 -17,0 -33,4 -48,13l0 46 8 0c2,-7 4,-13 6,-18 2,-6 4,-11 6,-15 4,-8 7,-13 10,-15 4,-2 10,-4 17,-4 17,0 26,11 26,33l0 21c-4,2 -7,3 -10,5 -3,1 -6,2 -9,3 -3,1 -6,2 -9,2 -3,1 -7,2 -11,3 -10,2 -17,4 -22,5 -4,2 -8,5 -12,7 -5,4 -8,8 -10,14 -3,5 -4,11 -4,17 0,12 4,22 11,29 8,7 18,11 30,11 23,0 38,-10 46,-31l0 27zm0 -64c0,18 -3,32 -10,42 -7,11 -16,16 -27,16 -15,0 -22,-11 -22,-31 0,-11 2,-19 6,-24 4,-5 11,-9 21,-11 4,-2 8,-3 11,-3 2,-1 5,-2 7,-3 3,-1 5,-1 7,-2 2,-1 4,-2 7,-3l0 19z"/>
   <path class="fil11" d="M4355 2898l-40 0 0 7 15 0 0 135 -15 0 0 7 58 0 0 -7 -18 0 0 -87c0,-14 3,-26 9,-35 6,-9 14,-14 23,-14 7,0 12,3 15,7 4,4 6,11 6,19l0 110 -19 0 0 7 58 0 0 -7 -14 0 0 -112c0,-11 -3,-19 -10,-25 -6,-6 -16,-9 -29,-9 -9,0 -17,3 -23,7 -6,5 -12,12 -16,22l0 -25z"/>
   <path class="fil11" d="M4549 3047l40 0 0 -7 -15 0 0 -98c0,-16 -4,-27 -12,-35 -9,-9 -21,-13 -37,-13 -18,0 -34,4 -49,13l0 46 8 0c2,-7 4,-13 6,-18 2,-6 4,-11 6,-15 4,-8 7,-13 11,-15 3,-2 9,-4 16,-4 17,0 26,11 26,33l0 21c-4,2 -7,3 -10,5 -3,1 -6,2 -9,3 -3,1 -6,2 -9,2 -3,1 -7,2 -11,3 -9,2 -16,4 -21,5 -5,2 -9,5 -13,7 -4,4 -8,8 -10,14 -3,5 -4,11 -4,17 0,12 4,22 11,29 8,7 18,11 31,11 22,0 37,-10 45,-31l0 27zm0 -64c0,18 -3,32 -10,42 -7,11 -16,16 -27,16 -14,0 -21,-11 -21,-31 0,-11 1,-19 5,-24 4,-5 11,-9 21,-11 4,-2 8,-3 11,-3 3,-1 5,-2 7,-3 3,-1 5,-1 7,-2 2,-1 5,-2 7,-3l0 19z"/>
   <path class="fil11" d="M4702 2956l0 -56c-3,-2 -6,-4 -9,-4 -3,-1 -6,-2 -10,-2 -8,0 -15,3 -21,7 -5,4 -11,12 -16,22l0 -25 -39 0 0 7 14 0 0 135 -14 0 0 7 61 0 0 -7 -20 0 0 -71c0,-6 0,-12 0,-17 1,-4 1,-8 2,-12 1,-4 1,-7 2,-11 1,-3 3,-6 4,-9 2,-4 5,-7 8,-10 3,-3 6,-5 9,-5 1,0 2,1 3,1 0,0 1,1 2,2 1,1 1,3 2,5 1,2 2,4 4,8 2,5 4,11 5,16 2,5 3,12 5,19l8 0z"/>
   <path class="fil11" d="M4801 3047l40 0 0 -7 -15 0 0 -98c0,-16 -4,-27 -13,-35 -8,-9 -20,-13 -36,-13 -18,0 -34,4 -49,13l0 46 8 0c2,-7 4,-13 6,-18 2,-6 4,-11 6,-15 4,-8 7,-13 11,-15 3,-2 9,-4 16,-4 17,0 26,11 26,33l0 21c-4,2 -7,3 -10,5 -3,1 -6,2 -9,3 -3,1 -6,2 -9,2 -3,1 -7,2 -11,3 -9,2 -17,4 -21,5 -5,2 -9,5 -13,7 -4,4 -8,8 -10,14 -3,5 -4,11 -4,17 0,12 4,22 11,29 8,7 18,11 30,11 23,0 38,-10 46,-31l0 27zm0 -64c0,18 -3,32 -10,42 -7,11 -16,16 -27,16 -15,0 -22,-11 -22,-31 0,-11 2,-19 6,-24 4,-5 11,-9 21,-11 4,-2 8,-3 11,-3 2,-1 5,-2 7,-3 3,-1 5,-1 7,-2 2,-1 4,-2 7,-3l0 19z"/>
   <path class="fil11" d="M4929 2843l0 7 18 0 0 190 -18 0 0 7 65 0c11,0 22,-1 31,-2 10,-2 18,-4 24,-7 10,-5 18,-11 24,-20 6,-9 9,-18 9,-29 0,-8 -2,-16 -6,-23 -4,-7 -10,-13 -17,-17 -6,-3 -11,-5 -17,-7 -6,-1 -14,-2 -24,-3 16,-2 28,-8 37,-16 9,-9 13,-19 13,-32 0,-8 -1,-14 -5,-21 -3,-6 -8,-11 -15,-16 -5,-4 -12,-7 -19,-8 -7,-2 -17,-3 -29,-3l-71 0zm48 94l0 -87 22 0c13,0 22,4 28,11 6,7 9,17 9,32 0,16 -4,27 -11,34 -7,6 -19,10 -36,10l-12 0zm0 103l0 -96 23 0c9,0 16,1 23,3 6,1 11,4 14,7 5,4 7,9 9,15 2,6 3,13 3,21 0,18 -4,31 -13,39 -8,7 -23,11 -42,11l-17 0z"/>
   <path class="fil11" d="M5186 3047l40 0 0 -7 -15 0 0 -98c0,-16 -4,-27 -13,-35 -8,-9 -20,-13 -36,-13 -18,0 -34,4 -49,13l0 46 8 0c2,-7 4,-13 6,-18 2,-6 4,-11 6,-15 4,-8 7,-13 11,-15 3,-2 9,-4 16,-4 17,0 26,11 26,33l0 21c-4,2 -7,3 -10,5 -3,1 -6,2 -9,3 -3,1 -6,2 -9,2 -3,1 -7,2 -11,3 -9,2 -17,4 -21,5 -5,2 -9,5 -13,7 -4,4 -8,8 -10,14 -3,5 -4,11 -4,17 0,12 4,22 11,29 8,7 18,11 31,11 22,0 37,-10 45,-31l0 27zm0 -64c0,18 -3,32 -10,42 -7,11 -16,16 -27,16 -15,0 -22,-11 -22,-31 0,-11 2,-19 6,-24 4,-5 11,-9 21,-11 4,-2 8,-3 11,-3 2,-1 5,-2 7,-3 3,-1 5,-1 7,-2 2,-1 5,-2 7,-3l0 19z"/>
   <path class="fil11" d="M5283 2898l-39 0 0 7 14 0 0 135 -14 0 0 7 58 0 0 -7 -19 0 0 -87c0,-14 3,-26 9,-35 6,-9 14,-14 24,-14 6,0 11,3 14,7 4,4 6,11 6,19l0 110 -19 0 0 7 58 0 0 -7 -14 0 0 -112c0,-11 -3,-19 -10,-25 -6,-6 -16,-9 -29,-9 -9,0 -17,3 -23,7 -6,5 -12,12 -16,22l0 -25z"/>
   <path class="fil11" d="M5431 2843l-40 0 0 7 15 0 0 190 -15 0 0 7 58 0 0 -7 -18 0 0 -197zm1 126l54 78 38 0 0 -7 -12 0 -59 -84 42 -51 14 0 0 -7 -42 0 0 7 19 0 -54 64z"/>
   <path class="fil11" d="M3715 2603l235 434c29,47 -1,95 -54,86 -17,-2 -127,-17 -265,-36l40 -53 187 20c15,2 22,-2 14,-19 0,0 -177,-355 -178,-359 -6,-11 -13,-7 -18,3 0,0 -173,314 -175,318 -7,12 -4,18 14,20l68 7 -39 49 -89 -14c-22,-3 -29,-17 -17,-40 9,-17 216,-394 216,-394 4,-7 7,-13 11,-20 13,-22 35,-28 50,-2z"/>
   <path class="fil12" d="M3204 2936l309 -55 -26 48 -214 36c-10,3 -9,7 -3,12 0,0 187,129 205,141 14,9 22,13 34,-2 0,0 151,-186 159,-198 12,-16 17,-22 -2,-19l-105 18 27 -49 141 -25c32,-6 45,17 29,40 -13,20 -236,320 -236,320 -15,21 -26,20 -43,5 -20,-17 -284,-236 -284,-236 -18,-14 -12,-32 9,-36z"/>
   <path class="fil11" d="M3015 2947l-1 -2c-5,-8 -13,-14 -21,-14 -1,0 -1,0 -2,0 -5,0 -9,3 -14,11 -4,8 -6,18 -6,33 0,16 2,26 7,33 4,8 8,12 17,12 8,0 14,-4 19,-13l1 -60zm-95 -41l0 134 13 0 0 7 -53 0 0 -7 15 0 0 -29c-2,3 -3,5 -5,7 -6,7 -15,10 -27,10 -6,0 -12,-1 -18,-4 -6,-3 -10,-6 -15,-11 -4,-4 -7,-9 -9,-16 -2,-6 -4,-12 -4,-20l0 -1c0,-7 2,-14 4,-20 2,-6 5,-11 9,-16 5,-4 9,-8 15,-11 6,-2 12,-3 18,-3 12,0 21,3 27,9 2,2 3,5 5,7l0 -36 -72 0 0 -7 288 0 0 7 -72 0 0 33c0,-2 2,-3 3,-4 5,-6 14,-9 25,-9 6,0 12,1 18,3 5,3 10,7 14,11 4,4 7,10 9,16 3,6 4,13 4,20 0,8 -1,15 -4,21 -2,6 -6,12 -10,16 -4,5 -15,14 -27,14 -7,0 -11,-2 -16,-4 -1,0 -1,-1 -2,-1l0 -34 5 0c1,7 2,8 3,14 2,4 3,8 4,11 1,3 4,7 7,7 4,0 7,-5 10,-11 3,-7 4,-16 4,-30 0,-16 -2,-28 -6,-36 -4,-8 -10,-12 -19,-12 -9,0 -14,4 -19,12 -2,3 -3,5 -3,8l0 89 12 0 0 7 -49 0 0 -7 13 0 0 -22c-6,6 -15,10 -26,10 -6,0 -12,-2 -18,-4 -5,-3 -10,-6 -14,-11 -4,-4 -7,-10 -9,-16 -2,-6 -4,-13 -4,-20 0,-8 2,-15 4,-21 3,-6 6,-12 10,-16 4,-5 10,-8 16,-11 6,-2 12,-3 19,-3 10,0 16,4 21,9l1 -29 -95 0zm-27 94l-49 -39c-1,5 -1,11 -1,17 0,15 2,26 6,34 5,8 12,9 19,9 9,0 16,-4 21,-12 2,-3 3,-4 3,-7 1,-1 1,-1 1,-2zm-47 -48l49 39 0 -28c-1,-4 -2,-8 -2,-10 -1,-3 -2,-5 -4,-8 -5,-8 -12,-13 -19,-13 -10,0 -16,4 -21,12 -1,2 -2,5 -3,8zm-383 -13l-1 0 -2 0 -1 0c-4,0 -7,1 -10,3 -3,2 -5,5 -6,9 -1,3 -2,6 -2,10 -1,3 -1,8 -1,13 0,8 0,14 1,18 1,4 2,7 3,10 1,2 3,4 6,5 2,2 5,2 8,2 3,0 6,0 9,-2 2,-1 4,-3 5,-6 2,-3 3,-7 4,-11 0,-5 1,-11 1,-18 0,-6 -1,-11 -1,-15 -1,-4 -2,-8 -3,-10 -2,-3 -4,-5 -6,-6 -1,-1 -3,-1 -4,-2zm-167 8l-1 -2c-5,-8 -13,-14 -20,-14 -1,0 -1,0 -2,0 -5,0 -10,3 -14,11 -4,8 -6,18 -6,33 0,16 2,26 6,33 5,8 8,12 17,12 9,0 15,-4 20,-13l0 -60zm0 -48l24 0 434 0 0 7 -21 0 0 134 15 0 0 7 -52 0 0 -7 12 0 0 -134 -16 0 -36 0c11,2 31,6 31,28 0,9 -3,16 -8,21 -4,5 -15,10 -23,10l-29 0 0 54c0,16 4,23 16,23 5,0 9,-1 11,-3 3,-2 6,-5 8,-11 2,-3 3,-5 4,-9 1,-4 3,-9 4,-14l6 0 0 34c-11,6 -23,9 -35,9 -12,0 -22,-3 -28,-9 -6,-5 -11,-14 -11,-26l0 -48 -19 0 0 -7 7 0 50 0c14,0 19,-15 19,-25 0,-8 -2,-22 -12,-26 -2,-1 -6,-1 -8,-1l-21 0 -13 0 -49 0 0 134 13 0 0 7 -50 0 0 -7 12 0 0 -100 -49 0c3,2 6,2 9,4 4,4 7,8 9,12 2,5 4,10 4,16 0,6 -2,12 -4,18 -2,5 -5,10 -9,13 -4,4 -9,7 -14,9 -6,3 -12,4 -19,4 -6,0 -11,-1 -17,-4 -6,-2 -11,-5 -15,-9 -4,-4 -7,-8 -8,-13 -2,-4 -3,-10 -3,-16 0,-6 1,-11 3,-16 3,-5 6,-10 10,-14 4,-3 9,-6 14,-8 6,-2 12,-3 18,-3l1 0 70 0 0 -27 -211 0 0 33c1,-2 2,-3 3,-4 6,-6 15,-9 26,-9 6,0 12,1 18,3 5,3 10,7 14,11 4,4 7,10 9,16 2,6 3,13 3,20 0,8 -1,15 -3,21 -3,6 -6,12 -10,16 -5,5 -15,14 -27,14 -8,0 -11,-2 -16,-4 -1,0 -2,-1 -3,-1l0 -34 5 0c2,7 2,8 4,14 1,4 2,8 4,11 1,3 3,7 6,7 5,0 8,-5 11,-11 3,-7 4,-16 4,-30 0,-16 -2,-28 -6,-36 -4,-8 -10,-12 -19,-12 -9,0 -14,4 -19,12 -2,3 -3,5 -4,8l0 89 13 0 0 7 -49 0 0 -7 12 0 0 -22c-6,6 -14,10 -25,10 -6,0 -12,-2 -18,-4 -6,-3 -10,-6 -14,-11 -4,-4 -7,-10 -9,-16 -3,-6 -4,-13 -4,-20 0,-8 1,-15 4,-21 2,-6 6,-12 10,-16 4,-5 9,-8 15,-11 6,-2 13,-3 19,-3 11,0 17,4 22,9l0 -29 -62 0 0 -7 62 0z"/>
   <path class="fil11" d="M2284 2881c-7,-4 -13,-9 -18,-15 -5,-6 -9,-13 -12,-21 -1,-3 -2,-5 -3,-8l-11 0 0 -7 50 0 0 7 -13 0c2,28 13,43 29,43l6 0c16,0 27,-15 29,-43l-11 0 0 -7 48 0 0 7 -11 0c-1,3 -1,5 -2,8 -3,8 -7,15 -12,21 -6,6 -12,11 -19,15 -7,3 -17,5 -25,5 -8,0 -18,-2 -25,-5z"/>
   <path class="fil11" d="M2886 2881c-7,-4 -13,-9 -18,-15 -5,-6 -9,-13 -12,-21 -1,-3 -2,-5 -3,-8l-11 0 0 -7 50 0 0 7 -13 0c2,28 13,43 29,43l6 0c16,0 27,-15 29,-43l-11 0 0 -7 48 0 0 7 -11 0c0,3 -1,5 -2,8 -3,8 -7,15 -12,21 -5,6 -12,11 -19,15 -6,3 -17,5 -25,5 -8,0 -18,-2 -25,-5z"/>
   <path class="fil11" d="M2911 2839c-3,0 -7,1 -10,4 -2,3 -4,6 -4,10 0,4 2,7 5,10 2,3 6,4 10,4 4,0 7,-1 9,-4 3,-3 4,-6 4,-10 0,-4 -1,-7 -4,-10 -2,-3 -6,-4 -10,-4z"/>
   <path class="fil13" d="M4656 3232l0 76 -11 0 0 -76 -28 0 0 -11 68 0 0 11 -29 0zm19 44c0,-10 3,-18 8,-24 5,-6 12,-9 20,-9 10,0 17,3 22,9 4,6 7,14 7,24 0,10 -3,19 -8,24 -5,6 -12,9 -21,9 -8,0 -16,-3 -21,-9 -5,-6 -7,-14 -7,-24zm12 0c0,16 5,24 16,24 6,0 10,-2 13,-6 3,-5 4,-10 4,-18 0,-16 -5,-23 -17,-23 -5,0 -9,2 -12,6 -3,4 -4,10 -4,17zm54 50l7 -9c6,4 12,6 18,6 5,0 9,-1 12,-2 2,-2 4,-4 4,-7 0,-5 -4,-8 -11,-8 -1,0 -4,1 -7,1 -3,1 -6,1 -8,1 -9,0 -13,-3 -13,-10 0,-2 1,-4 3,-6 2,-2 5,-3 8,-4 -9,-4 -13,-11 -13,-21 0,-7 2,-13 6,-17 5,-4 11,-7 17,-7 7,0 11,2 15,4l6 -7 7 7 -7 5c3,4 4,9 4,15 0,7 -2,12 -5,16 -4,5 -10,7 -16,8l-9 1c-1,0 -3,0 -5,1 -2,1 -3,2 -3,3 0,2 2,2 6,2 2,0 5,0 8,0 4,-1 6,-1 8,-1 6,0 11,1 15,4 3,3 5,7 5,13 0,5 -3,10 -8,14 -5,3 -12,5 -20,5 -4,0 -8,-1 -13,-2 -4,-1 -8,-3 -11,-5zm24 -74c-4,0 -7,2 -9,5 -3,2 -4,6 -4,10 0,4 1,8 4,11 2,3 5,4 9,4 4,0 7,-1 10,-4 2,-3 3,-7 3,-11 0,-4 -1,-8 -4,-10 -2,-3 -5,-5 -9,-5zm92 25l-45 0c0,8 2,14 6,18 4,3 8,5 14,5 6,0 12,-2 16,-6l5 8c-2,2 -5,4 -8,5 -5,2 -10,2 -15,2 -8,0 -15,-2 -21,-8 -6,-6 -9,-14 -9,-24 0,-10 3,-19 10,-25 5,-6 12,-9 20,-9 9,0 16,3 21,8 5,5 7,11 7,20 0,2 0,4 -1,6zm-27 -24c-5,0 -9,1 -12,5 -4,3 -5,7 -6,11l35 0c0,-4 -1,-8 -4,-11 -3,-4 -7,-5 -13,-5zm44 0l-7 0 0 -9 7 0 0 -13 11 -4 0 17 18 0 0 9 -18 0 0 32c0,5 1,9 3,11 2,3 5,4 9,4 2,0 5,-1 8,-2l2 10c-5,1 -10,1 -15,1 -5,0 -9,-1 -13,-5 -3,-4 -5,-9 -5,-14l0 -37zm83 55l0 -40c0,-5 -1,-8 -4,-11 -2,-3 -5,-4 -10,-4 -2,0 -5,1 -8,2 -2,2 -5,4 -6,6l0 47 -11 0 0 -90 11 0 0 33c2,-2 4,-4 7,-5 4,-2 7,-3 11,-3 6,0 11,3 15,7 4,4 6,10 6,18l0 40 -11 0zm80 -31l-46 0c0,8 2,14 6,18 4,3 9,5 14,5 7,0 12,-2 16,-6l5 8c-2,2 -4,4 -8,5 -4,2 -9,2 -15,2 -8,0 -15,-2 -20,-8 -6,-6 -9,-14 -9,-24 0,-10 3,-19 9,-25 6,-6 12,-9 20,-9 9,0 16,3 21,8 5,5 8,11 8,20 0,2 -1,4 -1,6zm-27 -24c-5,0 -9,1 -13,5 -3,3 -5,7 -5,11l35 0c0,-4 -2,-8 -5,-11 -3,-4 -7,-5 -12,-5zm74 2c-3,-1 -5,-2 -8,-2 -4,0 -7,2 -10,5 -3,4 -4,8 -4,14l0 36 -12 0 0 -64 12 0 0 11c4,-8 10,-12 18,-12 2,0 5,1 8,1l-4 11zm116 54l-4 0 -20 -60 -20 60 -3 0 -28 -88 13 0 17 61 19 -61 4 0 19 61 17 -61 13 0 -27 88zm83 -32l-45 0c0,8 2,14 6,18 3,3 8,5 13,5 7,0 12,-2 16,-6l5 8c-2,2 -4,4 -8,5 -4,2 -9,2 -15,2 -8,0 -14,-2 -20,-8 -6,-6 -9,-14 -9,-24 0,-10 3,-19 9,-25 6,-6 13,-9 20,-9 9,0 16,3 21,8 5,5 8,11 8,20 0,2 0,4 -1,6zm-27 -24c-5,0 -9,1 -13,5 -3,3 -5,7 -5,11l35 0c0,-4 -2,-8 -5,-11 -3,-4 -7,-5 -12,-5zm132 -29l-4 10c-4,-2 -10,-4 -18,-4 -7,0 -14,4 -18,10 -5,7 -7,15 -7,26 0,10 2,18 7,24 5,6 11,9 18,9 8,0 15,-3 19,-9l6 9c-6,7 -15,11 -26,11 -11,0 -20,-4 -27,-13 -6,-8 -9,-19 -9,-32 0,-13 3,-24 10,-33 7,-8 16,-12 27,-12 9,0 17,1 22,4zm52 77c-5,6 -12,8 -21,8 -5,0 -9,-1 -13,-5 -3,-4 -5,-8 -5,-14 0,-6 3,-12 8,-16 6,-4 13,-7 22,-7 2,0 5,1 8,2 0,-10 -5,-16 -14,-16 -7,0 -12,2 -16,6l-5 -9c2,-2 5,-4 9,-5 4,-1 7,-2 11,-2 9,0 15,2 20,7 4,4 6,10 6,20l0 22c0,6 1,10 5,12l0 5c-5,0 -8,0 -10,-2 -3,-1 -4,-3 -5,-6zm-1 -24c-4,-1 -6,-1 -8,-1 -5,0 -10,1 -14,4 -3,3 -5,7 -5,11 0,6 4,9 12,9 5,0 10,-2 15,-8l0 -15zm67 31l0 -37c0,-7 -1,-11 -3,-14 -2,-3 -5,-4 -10,-4 -3,0 -5,1 -8,2 -3,2 -5,4 -6,6l0 47 -12 0 0 -64 8 0 4 9c3,-7 9,-10 18,-10 13,0 20,9 20,26l0 39 -11 0z"/>
   <path class="fil13" d="M4366 3159c1,0 1,1 1,1 0,1 0,1 -1,1 0,0 0,0 -1,0 0,1 -1,1 -2,1 0,0 -1,0 -2,-1 0,0 -1,0 -1,0 0,0 0,0 0,0 0,0 -1,0 -1,-1l-4 -13 -22 0 -4 13c-1,0 -1,1 -1,1 0,0 0,0 0,0 -1,0 -1,0 -1,0 -1,1 -2,1 -2,1 -1,0 -2,0 -2,-1 -1,0 -1,0 -1,0 -1,0 -1,0 -1,-1 0,0 1,-1 1,-1l17 -49c1,-1 1,-1 1,-1 0,0 0,0 1,0 0,0 0,-1 1,-1 0,0 1,0 2,0 1,0 2,0 2,0 1,0 1,1 1,1 1,0 1,0 1,0 0,0 1,1 1,1l17 49zm1056 1c0,0 0,1 0,1 0,0 0,0 0,0 -1,0 -1,0 -1,0 -1,1 -1,1 -2,1 -1,0 -1,0 -2,-1 0,0 -1,0 -1,0 0,0 -1,0 -1,0 0,0 0,-1 0,-1l-16 -20 0 20c0,1 0,1 0,1 0,0 0,0 -1,0 0,0 0,0 -1,0 0,1 -1,1 -1,1 -1,0 -2,0 -2,-1 0,0 -1,0 -1,0 0,0 0,0 -1,0 0,0 0,0 0,-1l0 -54c0,0 0,-1 0,-1 1,0 1,0 1,0 0,0 1,0 1,0 0,0 1,0 2,0 0,0 1,0 1,0 1,0 1,0 1,0 1,0 1,0 1,0 0,0 0,1 0,1l0 33 14 -15c0,-1 0,-1 1,-1 0,0 0,0 0,0 1,0 1,-1 2,-1 0,0 1,0 1,0 1,0 2,0 2,0 1,0 1,1 1,1 0,0 1,0 1,0 0,0 0,0 0,1 0,0 0,0 0,1 0,0 -1,0 -1,1l-13 13 14 19c1,1 1,1 1,1 0,1 0,1 0,1zm15 0c0,1 0,1 0,1 0,0 0,0 -1,0 0,0 0,0 -1,0 0,1 -1,1 -1,1 -1,0 -2,0 -2,-1 0,0 -1,0 -1,0 0,0 -1,0 -1,0 0,0 0,0 0,-1l0 -36c0,-1 0,-1 0,-1 0,0 1,0 1,0 0,0 1,-1 1,-1 0,0 1,0 2,0 0,0 1,0 1,0 1,0 1,1 1,1 1,0 1,0 1,0 0,0 0,0 0,1l0 36zm1 -49c0,2 -1,3 -1,3 -1,1 -2,1 -3,1 -2,0 -3,0 -4,-1 0,0 -1,-1 -1,-3 0,-1 1,-2 1,-3 1,0 2,-1 4,-1 1,0 2,1 3,1 0,1 1,2 1,3zm43 49c0,1 0,1 0,1 0,0 -1,0 -1,0 0,0 0,0 -1,0 0,1 -1,1 -1,1 -1,0 -2,0 -2,-1 -1,0 -1,0 -1,0 0,0 -1,0 -1,0 0,0 0,0 0,-1l0 -21c0,-2 0,-4 0,-5 -1,-2 -1,-3 -2,-4 0,0 -1,-1 -2,-2 -1,0 -2,0 -4,0 -1,0 -3,0 -5,1 -1,2 -3,3 -5,6l0 25c0,1 0,1 0,1 0,0 0,0 -1,0 0,0 0,0 -1,0 0,1 -1,1 -1,1 -1,0 -1,0 -2,-1 0,0 -1,0 -1,0 0,0 0,0 0,0 -1,0 -1,0 -1,-1l0 -36c0,-1 0,-1 1,-1 0,0 0,0 0,0 0,0 1,-1 1,-1 0,0 1,0 1,0 1,0 2,0 2,0 0,0 1,1 1,1 0,0 0,0 0,0 0,0 1,0 1,1l0 4c2,-2 4,-4 6,-5 2,-1 4,-1 6,-1 2,0 4,0 6,1 2,1 3,2 4,3 1,2 2,3 2,5 1,2 1,4 1,7l0 22zm43 -35c0,1 0,2 -1,2 0,1 0,1 -1,1l-5 0c1,1 2,2 2,3 1,1 1,3 1,4 0,2 -1,4 -1,6 -1,1 -2,3 -3,4 -1,1 -3,2 -5,2 -1,1 -3,1 -5,1 -2,0 -3,0 -5,0 -1,-1 -2,-1 -3,-2 0,1 -1,1 -1,2 0,0 0,1 0,2 0,1 0,2 1,2 1,1 2,1 3,1l10 1c2,0 3,0 5,0 1,1 3,2 4,2 1,1 2,2 2,3 1,2 1,3 1,5 0,1 0,3 -1,4 0,2 -1,3 -3,4 -1,2 -3,3 -5,3 -3,1 -5,1 -8,1 -3,0 -6,0 -8,-1 -2,0 -4,-1 -5,-2 -1,-1 -2,-2 -3,-3 -1,-1 -1,-2 -1,-4 0,-1 0,-1 0,-2 1,-1 1,-2 1,-3 1,0 1,-1 2,-2 1,-1 2,-1 2,-2 -1,-1 -2,-1 -2,-3 -1,-1 -1,-2 -1,-3 0,-2 0,-3 1,-4 0,-2 1,-3 2,-4 -1,-1 -1,-2 -2,-3 0,-1 -1,-3 -1,-5 0,-2 1,-4 1,-5 1,-2 2,-3 3,-5 2,-1 3,-2 5,-2 2,-1 3,-1 6,-1 1,0 2,0 3,0 1,0 2,0 2,1l11 0c1,0 1,0 1,0 1,1 1,1 1,2zm-11 10c0,-3 0,-5 -2,-6 -1,-1 -3,-2 -6,-2 -1,0 -2,0 -3,1 -1,0 -2,1 -2,1 -1,1 -1,2 -2,3 0,1 0,2 0,3 0,3 0,4 2,6 1,1 3,2 6,2 1,0 2,0 3,-1 1,0 2,-1 2,-1 1,-1 2,-2 2,-3 0,-1 0,-2 0,-3zm4 29c0,-2 -1,-3 -2,-4 -2,-1 -3,-1 -5,-1l-10 0c-1,0 -2,1 -2,2 -1,0 -1,1 -1,1 -1,1 -1,1 -1,2 0,1 0,1 0,2 0,1 1,3 2,4 2,1 5,1 8,1 2,0 4,0 5,-1 1,0 2,-1 3,-1 1,-1 2,-2 2,-2 0,-1 1,-2 1,-3zm-614 -55c0,0 0,0 0,1 0,0 0,0 0,1 0,0 -1,0 -1,0 0,0 0,0 0,0 0,0 0,0 -1,0 0,0 0,0 -1,-1 0,0 -1,0 -1,0 -1,0 -1,0 -2,0 -1,0 -2,0 -3,0 0,1 -1,1 -1,2 -1,1 -1,1 -1,3 -1,1 -1,2 -1,4l0 4 8 0c1,0 1,0 1,0 0,0 0,0 0,0 1,0 1,1 1,1 0,0 0,1 0,1 0,1 0,2 -1,3 0,0 0,0 -1,0l-8 0 0 32c0,1 0,1 0,1 0,0 0,0 0,0 -1,0 -1,0 -1,0 -1,1 -1,1 -2,1 -1,0 -1,0 -2,-1 0,0 0,0 -1,0 0,0 0,0 0,0 0,0 0,0 0,-1l0 -32 -6 0c0,0 0,0 -1,0 0,-1 0,-2 0,-3 0,0 0,-1 0,-1 0,0 0,-1 0,-1 0,0 1,0 1,0 0,0 0,0 0,0l6 0 0 -4c0,-3 0,-5 0,-7 1,-2 1,-3 2,-4 1,-2 3,-2 4,-3 2,0 3,-1 5,-1 1,0 2,0 3,0 1,1 2,1 2,1 1,0 1,0 1,1 0,0 1,0 1,0 0,1 0,1 0,1 0,1 0,1 0,2zm32 51c0,0 0,1 0,1 0,0 -1,0 -1,0 0,0 -1,0 -1,0 0,1 -1,1 -2,1 0,0 -1,0 -1,-1 -1,0 -1,0 -1,0 -1,0 -1,0 -1,0 0,0 0,-1 0,-1l0 -50c0,-1 0,-1 0,-1 0,0 0,0 1,0 0,0 0,-1 1,-1 0,0 1,0 1,0 1,0 2,0 2,0 0,0 1,1 1,1 0,0 1,0 1,0 0,0 0,0 0,1l0 50zm45 0c0,1 0,1 -1,1 0,0 0,0 0,0 0,0 -1,0 -1,0 -1,1 -1,1 -2,1 0,0 -1,0 -1,-1 -1,0 -1,0 -1,0 -1,0 -1,0 -1,0 0,0 0,0 0,-1l0 -21c0,-2 0,-4 -1,-5 0,-2 0,-3 -1,-4 -1,0 -1,-1 -2,-2 -1,0 -3,0 -4,0 -2,0 -3,0 -5,1 -2,2 -3,3 -5,6l0 25c0,1 0,1 0,1 0,0 -1,0 -1,0 0,0 0,0 -1,0 0,1 -1,1 -2,1 0,0 -1,0 -1,-1 -1,0 -1,0 -1,0 0,0 -1,0 -1,0 0,0 0,0 0,-1l0 -36c0,-1 0,-1 0,-1 0,0 0,0 1,0 0,0 0,-1 1,-1 0,0 1,0 1,0 1,0 1,0 2,0 0,0 0,1 1,1 0,0 0,0 0,0 0,0 0,0 0,1l0 4c2,-2 4,-4 6,-5 2,-1 4,-1 7,-1 2,0 4,0 6,1 1,1 3,2 4,3 1,2 2,3 2,5 0,2 1,4 1,7l0 22zm43 0c0,1 0,1 0,1 0,0 0,0 0,0 -1,0 -1,0 -1,0 -1,1 -1,1 -2,1 0,0 -1,0 -1,-1 0,0 -1,0 -1,0 0,0 0,0 -1,0 0,0 0,-1 0,-1l0 -5c-2,3 -4,4 -6,5 -2,1 -4,2 -7,2 -2,0 -4,0 -6,-2 -2,-1 -4,-2 -5,-4 -1,-2 -2,-4 -3,-6 0,-2 0,-5 0,-8 0,-3 0,-6 1,-8 0,-3 1,-5 3,-7 1,-1 3,-3 5,-4 2,-1 4,-1 6,-1 3,0 4,0 6,1 2,1 4,2 6,4l0 -21c0,0 0,0 0,-1 0,0 0,0 0,0 1,0 1,0 1,0 1,0 1,0 2,0 1,0 1,0 2,0 0,0 0,0 1,0 0,0 0,0 0,0 0,1 0,1 0,1l0 54zm-6 -26c-2,-2 -4,-4 -6,-5 -1,-1 -3,-1 -5,-1 -2,0 -3,0 -4,1 -2,1 -3,2 -3,3 -1,1 -2,3 -2,4 0,2 0,4 0,6 0,1 0,3 0,5 0,2 1,3 2,5 0,1 1,2 2,3 1,1 3,1 5,1 1,0 1,0 2,0 1,0 2,-1 3,-1 1,-1 2,-2 3,-3 0,0 1,-2 3,-3l0 -15zm26 26c0,1 -1,1 -1,1 0,0 0,0 0,0 0,0 -1,0 -1,0 -1,1 -1,1 -2,1 -1,0 -1,0 -2,-1 0,0 0,0 -1,0 0,0 0,0 0,0 0,0 0,0 0,-1l0 -36c0,-1 0,-1 0,-1 0,0 0,0 0,0 1,0 1,-1 1,-1 1,0 1,0 2,0 1,0 1,0 2,0 0,0 1,1 1,1 0,0 0,0 0,0 0,0 1,0 1,1l0 36zm0 -49c0,2 0,3 -1,3 0,1 -1,1 -3,1 -2,0 -3,0 -3,-1 -1,0 -1,-1 -1,-3 0,-1 0,-2 1,-3 0,0 2,-1 3,-1 2,0 3,1 3,1 1,1 1,2 1,3zm40 49c0,1 -1,1 -1,1 0,0 0,0 -1,0 0,1 -1,1 -1,1 -1,0 -2,0 -2,-1 0,0 -1,0 -1,0 0,0 0,0 0,-1l0 -3c-2,1 -4,3 -6,4 -2,1 -4,1 -6,1 -2,0 -4,0 -5,-1 -2,0 -3,-1 -4,-2 -1,-1 -2,-2 -3,-3 0,-2 -1,-3 -1,-5 0,-2 1,-4 2,-5 1,-2 2,-3 3,-4 2,-1 4,-2 6,-3 2,0 5,0 8,0l5 0 0 -3c0,-2 0,-3 -1,-4 0,-1 0,-2 -1,-3 -1,0 -2,-1 -3,-1 -1,-1 -2,-1 -4,-1 -1,0 -3,0 -4,1 -1,0 -2,1 -3,1 -1,1 -2,1 -3,1 -1,1 -1,1 -1,1 -1,0 -1,0 -1,0 0,0 0,0 0,-1 -1,0 -1,0 -1,0 0,-1 0,-1 0,-2 0,0 0,-1 0,-1 0,-1 1,-1 1,-1 0,-1 1,-1 2,-2 1,0 2,0 3,-1 1,0 2,-1 4,-1 1,0 3,0 4,0 3,0 5,0 7,1 2,0 3,1 4,2 1,1 2,3 3,5 0,1 1,3 1,6l0 24zm-7 -16l-6 0c-2,0 -3,0 -5,0 -1,0 -2,1 -3,1 -1,1 -2,2 -2,3 0,0 -1,1 -1,3 0,1 1,3 2,4 1,1 3,2 5,2 2,0 4,-1 5,-2 2,0 3,-2 5,-4l0 -7zm78 -2c0,3 0,6 -1,8 -1,3 -3,5 -4,7 -2,1 -4,3 -7,4 -2,1 -5,1 -8,1 -3,0 -6,0 -8,-1 -3,-1 -5,-2 -6,-4 -2,-2 -3,-4 -4,-6 -1,-3 -2,-5 -2,-9l0 -32c0,-1 0,-1 1,-1 0,0 0,0 0,0 0,0 1,-1 1,-1 1,0 1,0 2,0 1,0 1,0 2,0 0,0 0,1 1,1 0,0 0,0 0,0 0,0 0,0 0,1l0 31c0,3 1,5 1,7 1,2 2,3 3,4 1,2 2,3 4,3 1,1 3,1 5,1 2,0 4,0 6,-1 1,0 3,-1 4,-3 1,-1 2,-2 2,-4 1,-2 1,-4 1,-6l0 -32c0,-1 0,-1 0,-1 0,0 1,0 1,0 0,0 0,-1 1,-1 0,0 1,0 2,0 0,0 1,0 1,0 1,0 1,1 1,1 1,0 1,0 1,0 0,0 0,0 0,1l0 32zm45 18c0,1 0,1 0,1 -1,0 -1,0 -1,0 0,0 -1,0 -1,0 0,1 -1,1 -2,1 0,0 -1,0 -1,-1 -1,0 -1,0 -1,0 -1,0 -1,0 -1,0 0,0 0,0 0,-1l0 -21c0,-2 0,-4 0,-5 -1,-2 -1,-3 -2,-4 -1,0 -1,-1 -2,-2 -1,0 -2,0 -4,0 -1,0 -3,0 -5,1 -1,2 -3,3 -5,6l0 25c0,1 0,1 0,1 0,0 0,0 -1,0 0,0 0,0 -1,0 0,1 -1,1 -1,1 -1,0 -2,0 -2,-1 0,0 -1,0 -1,0 0,0 -1,0 -1,0 0,0 0,0 0,-1l0 -36c0,-1 0,-1 0,-1 0,0 1,0 1,0 0,0 0,-1 1,-1 0,0 1,0 1,0 1,0 1,0 2,0 0,0 1,1 1,1 0,0 0,0 0,0 0,0 0,0 0,1l0 4c2,-2 4,-4 6,-5 3,-1 5,-1 7,-1 2,0 4,0 6,1 2,1 3,2 4,3 1,2 2,3 2,5 1,2 1,4 1,7l0 22zm43 0c0,1 0,1 0,1 0,0 0,0 0,0 0,0 -1,0 -1,0 -1,1 -1,1 -2,1 0,0 -1,0 -1,-1 0,0 -1,0 -1,0 0,0 0,0 0,0 -1,0 -1,-1 -1,-1l0 -5c-1,3 -3,4 -6,5 -2,1 -4,2 -6,2 -3,0 -5,0 -7,-2 -2,-1 -4,-2 -5,-4 -1,-2 -2,-4 -2,-6 -1,-2 -1,-5 -1,-8 0,-3 0,-6 1,-8 0,-3 1,-5 3,-7 1,-1 3,-3 5,-4 2,-1 4,-1 7,-1 2,0 4,0 5,1 2,1 4,2 6,4l0 -21c0,0 0,0 0,-1 0,0 0,0 0,0 1,0 1,0 1,0 1,0 1,0 2,0 1,0 1,0 2,0 0,0 0,0 1,0 0,0 0,0 0,0 0,1 0,1 0,1l0 54zm-6 -26c-2,-2 -4,-4 -6,-5 -1,-1 -3,-1 -5,-1 -2,0 -3,0 -4,1 -1,1 -2,2 -3,3 -1,1 -1,3 -2,4 0,2 0,4 0,6 0,1 0,3 0,5 0,2 1,3 2,5 0,1 1,2 2,3 2,1 3,1 5,1 1,0 2,0 2,0 1,0 2,-1 3,-1 1,-1 2,-2 3,-3 1,0 2,-2 3,-3l0 -15zm50 6c0,1 0,2 -1,3 0,0 -1,0 -2,0l-24 0c0,2 1,4 1,6 0,1 1,3 2,4 1,1 2,2 4,3 1,0 3,1 5,1 2,0 4,-1 5,-1 1,0 3,0 3,-1 1,0 2,0 3,-1 1,0 1,0 1,0 1,0 1,0 1,0 0,0 0,0 0,0 0,1 0,1 0,1 0,1 0,1 0,1 0,1 0,1 0,1 0,1 0,1 0,1 0,0 0,0 0,1 0,0 0,0 0,0 0,0 -1,0 -2,1 0,0 -1,0 -2,1 -2,0 -3,0 -4,1 -2,0 -4,0 -5,0 -3,0 -6,0 -8,-1 -3,-1 -4,-2 -6,-4 -1,-2 -3,-4 -3,-6 -1,-3 -2,-6 -2,-9 0,-3 1,-6 2,-8 0,-3 2,-5 3,-7 2,-2 4,-3 6,-4 2,-1 4,-1 7,-1 3,0 5,0 7,1 2,1 4,2 5,4 2,1 3,3 3,5 1,2 1,5 1,7l0 1zm-7 -2c0,-3 0,-6 -2,-8 -2,-2 -4,-3 -7,-3 -2,0 -3,0 -5,1 -1,1 -2,1 -3,2 -1,1 -1,3 -2,4 0,1 -1,3 -1,4l20 0zm39 -12c0,1 0,1 0,1 0,1 0,1 0,1 0,1 -1,1 -1,1 0,0 0,0 0,0 0,0 -1,0 -1,0 0,0 -1,0 -1,0 0,-1 -1,-1 -1,-1 -1,0 -1,0 -2,0 -1,0 -1,0 -2,0 -1,1 -1,1 -2,2 -1,0 -1,1 -2,2 -1,1 -2,3 -3,4l0 24c0,1 0,1 0,1 0,0 0,0 -1,0 0,0 0,0 -1,0 0,1 -1,1 -1,1 -1,0 -1,0 -2,-1 0,0 -1,0 -1,0 0,0 0,0 0,0 -1,0 -1,0 -1,-1l0 -36c0,-1 0,-1 0,-1 1,0 1,0 1,0 0,0 1,-1 1,-1 0,0 1,0 1,0 1,0 2,0 2,0 0,0 1,1 1,1 0,0 0,0 0,0 0,0 0,0 0,1l0 5c1,-2 2,-3 3,-4 1,-1 2,-1 3,-2 1,0 1,-1 2,-1 1,0 2,0 2,0 1,0 1,0 2,0 0,0 1,0 1,0 1,0 1,0 1,0 1,1 1,1 1,1 0,0 1,0 1,0 0,0 0,0 0,1 0,0 0,0 0,0 0,1 0,1 0,2zm26 32c0,0 0,1 0,1 0,1 0,1 0,1 0,1 -1,1 -1,1 -1,0 -1,0 -2,1 0,0 -1,0 -1,0 -1,0 -2,0 -2,0 -2,0 -4,0 -5,-1 -1,0 -3,-1 -3,-2 -1,-1 -2,-2 -2,-4 -1,-1 -1,-3 -1,-5l0 -22 -5 0c-1,0 -1,0 -1,0 0,-1 0,-2 0,-3 0,0 0,-1 0,-1 0,0 0,-1 0,-1 0,0 0,0 0,0 1,0 1,0 1,0l5 0 0 -9c0,0 0,0 0,-1 0,0 0,0 1,0 0,0 0,0 1,0 0,0 1,0 1,0 1,0 2,0 2,0 1,0 1,0 1,0 0,0 1,0 1,0 0,1 0,1 0,1l0 9 9 0c0,0 1,0 1,0 0,0 0,0 0,0 0,0 0,1 0,1 0,0 0,1 0,1 0,1 0,2 0,3 0,0 0,0 -1,0l-9 0 0 21c0,2 0,4 1,5 1,2 2,2 4,2 1,0 1,0 2,0 0,0 0,0 1,0 0,0 1,-1 1,-1 0,0 0,0 1,0 0,0 0,0 0,0 0,0 0,0 0,1 0,0 0,0 0,0 0,1 0,1 0,2zm36 2c0,1 0,1 0,1 -1,0 -1,0 -1,0 -1,1 -1,1 -2,1 -1,0 -1,0 -2,-1 0,0 0,0 0,0 -1,0 -1,0 -1,-1l0 -3c-1,1 -3,3 -5,4 -2,1 -4,1 -6,1 -2,0 -4,0 -6,-1 -1,0 -3,-1 -4,-2 -1,-1 -2,-2 -2,-3 -1,-2 -1,-3 -1,-5 0,-2 0,-4 1,-5 1,-2 2,-3 4,-4 1,-1 3,-2 6,-3 2,0 4,0 7,0l5 0 0 -3c0,-2 0,-3 0,-4 0,-1 -1,-2 -2,-3 0,0 -1,-1 -2,-1 -1,-1 -3,-1 -4,-1 -2,0 -3,0 -5,1 -1,0 -2,1 -3,1 -1,1 -2,1 -2,1 -1,1 -2,1 -2,1 0,0 0,0 -1,0 0,0 0,0 0,-1 0,0 0,0 0,0 0,-1 0,-1 0,-2 0,0 0,-1 0,-1 0,-1 0,-1 1,-1 0,-1 1,-1 1,-2 1,0 2,0 4,-1 1,0 2,-1 3,-1 2,0 3,0 5,0 2,0 4,0 6,1 2,0 4,1 5,2 1,1 2,3 2,5 1,1 1,3 1,6l0 24zm-7 -16l-5 0c-2,0 -4,0 -5,0 -2,0 -3,1 -4,1 0,1 -1,2 -2,3 0,0 0,1 0,3 0,1 0,3 2,4 1,1 3,2 5,2 1,0 3,-1 5,-2 1,0 3,-2 4,-4l0 -7zm-1029 -28l0 0 -9 26 18 0 -9 -26zm90 0c0,0 0,1 0,1 -1,1 -1,1 -1,1 0,0 0,1 0,1 0,0 0,0 -1,0 0,0 -1,0 -1,-1 -1,0 -2,-1 -3,-2 -2,0 -3,-1 -5,-1 -2,-1 -4,-1 -6,-1 -3,0 -6,0 -8,1 -2,1 -4,3 -6,5 -2,2 -3,4 -4,7 0,2 -1,5 -1,8 0,3 1,6 1,9 1,2 3,5 4,6 2,2 4,4 6,5 3,1 5,1 8,1 2,0 3,0 5,-1 2,0 3,-1 5,-1l0 -16 -13 0c0,0 -1,0 -1,-1 0,0 0,-1 0,-2 0,0 0,-1 0,-1 0,0 0,-1 0,-1 0,0 1,0 1,0 0,-1 0,-1 0,-1l17 0c0,0 1,0 1,1 0,0 1,0 1,0 0,0 0,1 0,1 0,0 1,1 1,1l0 20c0,1 -1,2 -1,2 0,1 -1,1 -1,2 -1,0 -2,0 -3,1 -2,0 -3,1 -4,1 -2,0 -3,1 -4,1 -2,0 -3,0 -4,0 -4,0 -8,-1 -11,-2 -4,-1 -6,-3 -8,-5 -3,-3 -4,-5 -6,-9 -1,-3 -1,-7 -1,-11 0,-4 0,-8 2,-11 1,-3 3,-6 5,-9 2,-2 5,-4 8,-5 3,-2 7,-2 11,-2 2,0 4,0 6,0 1,1 3,1 4,2 2,0 3,1 4,1 1,1 1,1 2,2 0,0 0,0 0,1 1,0 1,1 1,2zm46 26c0,3 0,5 -1,8 -1,2 -2,4 -4,6 -1,2 -3,4 -6,5 -2,1 -5,1 -8,1 -3,0 -5,0 -8,-1 -2,-1 -4,-2 -5,-4 -2,-2 -3,-4 -4,-6 0,-3 -1,-6 -1,-9 0,-3 1,-5 2,-8 0,-3 1,-5 3,-7 2,-1 4,-3 6,-4 2,-1 5,-1 8,-1 3,0 6,0 8,1 2,1 4,2 5,4 2,2 3,4 4,6 1,3 1,5 1,9zm-7 0c0,-2 0,-4 -1,-6 0,-1 -1,-3 -1,-4 -1,-2 -2,-3 -4,-3 -1,-1 -3,-2 -5,-2 -2,0 -4,1 -5,1 -2,1 -3,2 -4,3 -1,2 -2,3 -2,5 0,2 -1,4 -1,6 0,2 1,4 1,5 0,2 1,4 2,5 1,1 2,2 3,3 2,1 3,1 6,1 2,0 3,0 5,-1 1,0 2,-1 3,-3 1,-1 2,-2 2,-4 1,-2 1,-4 1,-6zm47 -18c0,0 0,0 0,0 0,0 0,0 0,0 0,0 -1,1 -1,1 0,0 0,0 0,0l-12 35c0,0 0,1 -1,1 0,0 0,0 0,0 -1,0 -1,0 -2,0 0,1 -1,1 -2,1 -1,0 -1,0 -2,-1 0,0 -1,0 -1,0 -1,0 -1,0 -1,0 0,0 0,-1 0,-1l-13 -35c0,0 0,0 0,-1 0,0 0,0 0,0 0,0 0,0 0,0 0,-1 0,-1 0,-1 0,0 0,0 0,0 1,-1 1,-1 1,-1 1,0 1,0 2,0 1,0 1,0 2,0 0,0 1,1 1,1 0,0 0,0 1,0 0,0 0,0 0,1l10 30 0 0 1 0 10 -30c0,-1 0,-1 0,-1 0,0 0,0 1,0 0,0 0,-1 1,-1 0,0 1,0 1,0 1,0 2,0 2,0 0,0 1,0 1,1 0,0 0,0 0,0 1,0 1,0 1,1zm38 16c0,1 -1,2 -1,3 -1,0 -1,0 -2,0l-24 0c0,2 0,4 1,6 0,1 1,3 2,4 1,1 2,2 3,3 2,0 4,1 6,1 2,0 3,-1 5,-1 1,0 2,0 3,-1 1,0 2,0 2,-1 1,0 2,0 2,0 0,0 0,0 0,0 1,0 1,0 1,0 0,1 0,1 0,1 0,1 0,1 0,1 0,1 0,1 0,1 0,1 0,1 0,1 0,0 0,0 0,1 0,0 -1,0 -1,0 0,0 0,0 -1,1 -1,0 -2,0 -3,1 -1,0 -2,0 -4,1 -1,0 -3,0 -5,0 -3,0 -5,0 -8,-1 -2,-1 -4,-2 -5,-4 -2,-2 -3,-4 -4,-6 -1,-3 -1,-6 -1,-9 0,-3 0,-6 1,-8 1,-3 2,-5 4,-7 1,-2 3,-3 5,-4 2,-1 5,-1 8,-1 2,0 5,0 7,1 2,1 4,2 5,4 1,1 2,3 3,5 0,2 1,5 1,7l0 1zm-7 -2c0,-3 -1,-6 -2,-8 -2,-2 -5,-3 -8,-3 -1,0 -3,0 -4,1 -1,1 -2,1 -3,2 -1,1 -2,3 -2,4 -1,1 -1,3 -1,4l20 0zm38 -12c0,1 0,1 0,1 0,1 0,1 0,1 0,1 0,1 0,1 0,0 0,0 -1,0 0,0 0,0 0,0 -1,0 -1,0 -2,0 0,-1 0,-1 -1,-1 0,0 -1,0 -1,0 -1,0 -2,0 -2,0 -1,1 -2,1 -2,2 -1,0 -2,1 -3,2 -1,1 -1,3 -2,4l0 24c0,1 0,1 0,1 -1,0 -1,0 -1,0 0,0 -1,0 -1,0 0,1 -1,1 -2,1 0,0 -1,0 -1,-1 -1,0 -1,0 -1,0 -1,0 -1,0 -1,0 0,0 0,0 0,-1l0 -36c0,-1 0,-1 0,-1 0,0 0,0 1,0 0,0 0,-1 0,-1 1,0 1,0 2,0 1,0 1,0 1,0 1,0 1,1 1,1 1,0 1,0 1,0 0,0 0,0 0,1l0 5c1,-2 2,-3 3,-4 1,-1 2,-1 2,-2 1,0 2,-1 3,-1 0,0 1,0 2,0 0,0 1,0 1,0 1,0 1,0 2,0 0,0 1,0 1,0 0,1 1,1 1,1 0,0 0,0 0,0 0,0 0,0 0,1 0,0 0,0 0,0 0,1 0,1 0,2zm40 34c0,1 -1,1 -1,1 0,0 0,0 0,0 0,0 -1,0 -1,0 -1,1 -1,1 -2,1 -1,0 -1,0 -1,-1 -1,0 -1,0 -2,0 0,0 0,0 0,0 0,0 0,0 0,-1l0 -21c0,-2 0,-4 -1,-5 0,-2 -1,-3 -1,-4 -1,0 -2,-1 -3,-2 -1,0 -2,0 -3,0 -2,0 -3,0 -5,1 -2,2 -3,3 -5,6l0 25c0,1 0,1 0,1 -1,0 -1,0 -1,0 0,0 -1,0 -1,0 0,1 -1,1 -2,1 0,0 -1,0 -1,-1 -1,0 -1,0 -1,0 -1,0 -1,0 -1,0 0,0 0,0 0,-1l0 -36c0,-1 0,-1 0,-1 0,0 0,0 1,0 0,0 0,-1 1,-1 0,0 0,0 1,0 1,0 1,0 2,0 0,0 0,1 0,1 1,0 1,0 1,0 0,0 0,0 0,1l0 4c2,-2 4,-4 6,-5 2,-1 4,-1 6,-1 3,0 5,0 7,1 1,1 3,2 4,3 1,2 1,3 2,5 0,2 1,4 1,7l0 22zm66 0c0,1 0,1 0,1 0,0 0,0 0,0 -1,0 -1,0 -2,0 0,1 0,1 -1,1 -1,0 -1,0 -2,-1 0,0 -1,0 -1,0 0,0 0,0 0,0 0,0 -1,0 -1,-1l0 -22c0,-2 0,-3 0,-4 0,-2 -1,-3 -1,-4 -1,0 -2,-1 -3,-2 0,0 -2,0 -3,0 -1,0 -3,0 -4,1 -2,2 -4,3 -6,6l0 25c0,1 0,1 0,1 0,0 0,0 0,0 -1,0 -1,0 -1,0 -1,1 -1,1 -2,1 -1,0 -1,0 -2,-1 0,0 0,0 -1,0 0,0 0,0 0,0 0,0 0,0 0,-1l0 -22c0,-2 0,-3 -1,-4 0,-2 -1,-3 -1,-4 -1,0 -1,-1 -2,-2 -1,0 -2,0 -4,0 -1,0 -3,0 -4,1 -2,2 -4,3 -5,6l0 25c0,1 0,1 -1,1 0,0 0,0 0,0 0,0 -1,0 -1,0 -1,1 -1,1 -2,1 0,0 -1,0 -1,-1 -1,0 -1,0 -1,0 -1,0 -1,0 -1,0 0,0 0,0 0,-1l0 -36c0,-1 0,-1 0,-1 0,0 0,0 0,0 1,0 1,-1 1,-1 1,0 1,0 2,0 0,0 1,0 1,0 1,0 1,1 1,1 1,0 1,0 1,0 0,0 0,0 0,1l0 4c2,-2 4,-4 6,-5 2,-1 4,-1 6,-1 1,0 3,0 4,0 1,1 2,1 3,2 1,0 2,1 2,2 1,1 2,2 2,3 1,-1 3,-2 4,-3 1,-1 2,-2 3,-3 1,0 2,-1 3,-1 1,0 2,0 3,0 2,0 4,0 6,1 1,1 2,2 3,3 1,2 2,3 3,5 0,2 0,4 0,6l0 23zm44 -20c0,1 -1,2 -1,3 -1,0 -1,0 -2,0l-24 0c0,2 0,4 1,6 0,1 1,3 2,4 1,1 2,2 3,3 2,0 4,1 6,1 2,0 3,-1 5,-1 1,0 2,0 3,-1 1,0 2,0 3,-1 0,0 1,0 1,0 0,0 0,0 0,0 1,0 1,0 1,0 0,1 0,1 0,1 0,1 0,1 0,1 0,1 0,1 0,1 0,1 0,1 0,1 0,0 0,0 0,1 0,0 0,0 -1,0 0,0 0,0 -1,1 -1,0 -2,0 -3,1 -1,0 -2,0 -4,1 -1,0 -3,0 -5,0 -3,0 -5,0 -8,-1 -2,-1 -4,-2 -5,-4 -2,-2 -3,-4 -4,-6 -1,-3 -1,-6 -1,-9 0,-3 0,-6 1,-8 1,-3 2,-5 4,-7 1,-2 3,-3 5,-4 2,-1 5,-1 8,-1 2,0 5,0 7,1 2,1 4,2 5,4 1,1 2,3 3,5 0,2 1,5 1,7l0 1zm-7 -2c0,-3 -1,-6 -2,-8 -2,-2 -5,-3 -8,-3 -1,0 -3,0 -4,1 -1,1 -2,1 -3,2 -1,1 -2,3 -2,4 -1,1 -1,3 -1,4l20 0zm48 22c0,1 0,1 0,1 0,0 0,0 0,0 0,0 -1,0 -1,0 -1,1 -1,1 -2,1 -1,0 -1,0 -2,-1 0,0 0,0 -1,0 0,0 0,0 0,0 0,0 0,0 0,-1l0 -21c0,-2 0,-4 -1,-5 0,-2 -1,-3 -1,-4 -1,0 -2,-1 -3,-2 -1,0 -2,0 -3,0 -2,0 -3,0 -5,1 -2,2 -3,3 -5,6l0 25c0,1 0,1 0,1 -1,0 -1,0 -1,0 0,0 -1,0 -1,0 0,1 -1,1 -2,1 0,0 -1,0 -1,-1 -1,0 -1,0 -1,0 -1,0 -1,0 -1,0 0,0 0,0 0,-1l0 -36c0,-1 0,-1 0,-1 0,0 0,0 1,0 0,0 0,-1 1,-1 0,0 0,0 1,0 1,0 1,0 2,0 0,0 0,1 0,1 1,0 1,0 1,0 0,0 0,0 0,1l0 4c2,-2 4,-4 6,-5 2,-1 4,-1 6,-1 3,0 5,0 7,1 1,1 3,2 4,3 1,2 1,3 2,5 0,2 0,4 0,7l0 22zm31 -2c0,0 0,1 0,1 0,1 0,1 -1,1 0,1 0,1 -1,1 0,0 -1,0 -1,1 -1,0 -1,0 -2,0 0,0 -1,0 -2,0 -2,0 -3,0 -5,-1 -1,0 -2,-1 -3,-2 -1,-1 -1,-2 -2,-4 0,-1 0,-3 0,-5l0 -22 -6 0c0,0 0,0 -1,0 0,-1 0,-2 0,-3 0,0 0,-1 0,-1 0,0 0,-1 0,-1 1,0 1,0 1,0 0,0 0,0 0,0l6 0 0 -9c0,0 0,0 0,-1 0,0 0,0 0,0 1,0 1,0 1,0 1,0 1,0 2,0 1,0 1,0 2,0 0,0 0,0 1,0 0,0 0,0 0,0 0,1 0,1 0,1l0 9 10 0c0,0 0,0 0,0 0,0 1,0 1,0 0,0 0,1 0,1 0,0 0,1 0,1 0,1 0,2 0,3 -1,0 -1,0 -1,0l-10 0 0 21c0,2 1,4 1,5 1,2 3,2 4,2 1,0 2,0 2,0 1,0 1,0 1,0 1,0 1,-1 1,-1 1,0 1,0 1,0 0,0 0,0 0,0 1,0 1,0 1,1 0,0 0,0 0,0 0,1 0,1 0,2zm62 -16c0,3 -1,5 -1,8 -1,2 -2,4 -4,6 -1,2 -3,4 -6,5 -2,1 -5,1 -8,1 -3,0 -6,0 -8,-1 -2,-1 -4,-2 -5,-4 -2,-2 -3,-4 -4,-6 0,-3 -1,-6 -1,-9 0,-3 1,-5 1,-8 1,-3 2,-5 4,-7 1,-1 3,-3 6,-4 2,-1 5,-1 8,-1 3,0 6,0 8,1 2,1 4,2 5,4 2,2 3,4 4,6 0,3 1,5 1,9zm-7 0c0,-2 0,-4 -1,-6 0,-1 -1,-3 -2,-4 0,-2 -2,-3 -3,-3 -1,-1 -3,-2 -5,-2 -2,0 -4,1 -6,1 -1,1 -2,2 -3,3 -1,2 -2,3 -2,5 -1,2 -1,4 -1,6 0,2 0,4 1,5 0,2 1,4 2,5 0,1 2,2 3,3 2,1 3,1 5,1 2,0 4,0 6,-1 1,0 2,-1 3,-3 1,-1 2,-2 2,-4 1,-2 1,-4 1,-6z"/>
   <path class="fil13" d="M2227 3103c0,-3 1,-5 3,-7 3,-2 5,-3 8,-3 3,0 6,1 8,3 2,2 3,5 4,8l0 20 19 0 0 -21 -15 0 0 -5 32 0 0 5 -11 0 0 51 -6 0 0 -24 -19 0 0 5c0,0 -1,1 -1,1 -1,1 -1,1 -2,1 -2,0 -4,-2 -7,-4 -3,-3 -4,-5 -4,-6 0,-1 0,-1 1,-2 0,0 1,-1 2,-1l5 0 0 -20c0,-2 -1,-3 -2,-4 -1,-1 -2,-1 -4,-1 -1,0 -2,0 -4,1 -1,1 -1,2 -1,3 0,1 0,2 1,3 2,1 3,2 4,2l0 4c-3,0 -5,-1 -8,-3 -2,-1 -3,-3 -3,-6zm56 0l0 -5 26 0 0 5 -10 0 0 51 -6 0 0 -51 -10 0zm24 0l0 -5 42 0 0 5 -9 0 0 13c0,3 -1,6 -3,9 -3,2 -6,3 -9,3 -1,0 -3,0 -5,-1 5,9 12,17 21,23l-4 4c-13,-10 -23,-23 -30,-37l5 -3c1,2 3,5 5,6 3,2 5,3 8,3 2,0 3,-1 5,-2 1,-2 2,-3 2,-5l0 -13 -28 0zm39 0l0 -5 57 0 0 5 -10 0 0 51 -6 0 0 -35 -23 0c-2,0 -4,1 -5,2 -1,2 -2,4 -2,6 0,3 2,7 4,12 3,4 7,8 12,12l-4 3c-6,-4 -10,-9 -13,-14 -3,-5 -5,-9 -5,-13 0,-4 1,-7 4,-10 2,-2 5,-3 9,-3l23 0 0 -11 -41 0zm91 0l0 -5 66 0 0 5 -10 0 0 51 -6 0 0 -27 -16 0 -5 -5 21 0 0 -19 -21 0 0 15c0,3 -1,6 -3,8 -2,2 -4,3 -7,3 -1,0 -1,0 -2,0 0,0 -1,0 -1,-1l18 24 -5 3 -27 -36 5 -4c2,3 3,5 5,6 1,2 3,2 5,2 1,0 3,0 4,-1 1,-1 2,-2 2,-4l0 -15 -23 0zm63 0l0 -5 42 0 0 5 -8 0 0 13c0,3 -1,6 -4,9 -2,2 -5,3 -9,3 -1,0 -2,0 -4,-1 5,9 12,17 20,23l-3 4c-14,-10 -24,-23 -31,-37l6 -3c1,2 2,5 5,6 2,2 5,3 7,3 2,0 4,-1 5,-2 1,-2 2,-3 2,-5l0 -13 -28 0zm40 0l0 -5 70 0 0 5 -31 0 0 15c1,-2 3,-3 5,-5 3,-1 5,-1 7,-1 4,0 8,1 10,4 3,3 4,6 4,11 0,3 -1,7 -3,10 -2,4 -4,7 -8,10l-6 -3c4,-3 7,-5 8,-8 2,-3 3,-6 3,-9 0,-3 -1,-5 -2,-7 -2,-2 -3,-3 -6,-3 -2,0 -5,1 -7,3 -3,2 -4,5 -5,8l0 26 -6 0 0 -17c-2,2 -3,3 -5,4 -2,1 -5,1 -7,1 -5,0 -9,-1 -12,-4 -3,-3 -5,-7 -5,-11 0,-4 2,-8 5,-11 3,-3 7,-4 12,-4 2,0 4,0 7,1l-2 5c-1,-1 -3,-1 -5,-1 -3,0 -6,1 -8,3 -2,2 -3,4 -3,7 0,3 1,5 3,7 2,2 5,3 8,3 2,0 4,-1 7,-2 2,-2 4,-3 5,-6l0 -26 -33 0zm68 0l0 -5 26 0 0 5 -10 0 0 51 -6 0 0 -51 -10 0zm24 0l0 -5 42 0 0 5 -9 0 0 13c0,3 -1,6 -3,9 -3,2 -6,3 -9,3 -1,0 -3,0 -5,-1 5,9 12,17 21,23l-4 4c-13,-10 -23,-23 -30,-37l5 -3c1,2 3,5 5,6 3,2 5,3 8,3 2,0 3,-1 5,-2 1,-2 1,-3 1,-5l0 -13 -27 0zm39 0l0 -5 60 0 0 5 -10 0 0 51 -6 0 0 -17c-2,3 -4,4 -7,5 -3,1 -5,2 -8,2 -4,0 -8,-1 -11,-4 -3,-3 -5,-6 -5,-9 0,-3 1,-6 2,-8 1,-2 3,-4 5,-5l-18 0 0 -5 36 0 0 5 -9 0c-3,1 -5,3 -7,5 -2,3 -3,5 -3,8 0,2 1,4 3,5 2,2 5,2 7,2 3,0 6,0 8,-2 3,-2 5,-4 7,-7l0 -26 -44 0zm57 0l0 -5 27 0 0 5 -10 0 0 51 -6 0 0 -51 -11 0zm60 0l0 -5 46 0 0 5 -7 0 0 16c0,4 -1,6 -2,8 -1,3 -3,4 -5,5l-4 -4c2,-1 3,-2 4,-3 1,-2 1,-4 1,-6l0 -16 -20 0 0 21c0,2 0,3 1,4 0,2 1,3 2,4l21 18c1,1 2,2 3,4 1,1 1,2 1,3 0,2 -1,3 -2,5 -1,1 -3,2 -5,3l-4 -4c1,0 2,-1 3,-2 1,0 2,-1 2,-2 0,-1 0,-1 -1,-2 0,0 -1,-1 -1,-2l-23 -19c-1,-1 -2,-3 -2,-4 -1,-2 -1,-3 -1,-5l0 -22 -7 0zm44 0l0 -5 71 0 0 5 -32 0 0 15c1,-2 3,-3 5,-5 3,-1 5,-1 8,-1 3,0 7,1 9,4 3,3 4,6 4,11 0,3 -1,7 -3,10 -2,4 -4,7 -8,10l-5 -3c3,-3 6,-5 8,-8 1,-3 2,-6 2,-9 0,-3 0,-5 -2,-7 -1,-2 -3,-3 -5,-3 -3,0 -6,1 -8,3 -3,2 -4,5 -5,8l0 26 -6 0 0 -17c-2,2 -3,3 -5,4 -2,1 -4,1 -7,1 -4,0 -8,-1 -12,-4 -3,-3 -5,-7 -5,-11 0,-4 2,-8 5,-11 4,-3 8,-4 12,-4 2,0 5,0 7,1l-1 5c-2,-1 -4,-1 -6,-1 -3,0 -5,1 -8,3 -2,2 -3,4 -3,7 0,3 1,5 4,7 2,2 4,3 7,3 2,0 5,-1 7,-2 2,-2 4,-3 5,-6l0 -26 -33 0zm104 0l0 -5 59 0 0 5 -13 0c3,3 4,6 4,9 0,2 -1,4 -2,6 -1,2 -2,4 -4,5 2,1 5,2 6,5 2,3 2,5 2,9 0,4 -1,8 -4,11 -3,3 -7,4 -12,4 -6,0 -12,-3 -18,-9 -6,-6 -11,-14 -15,-25l5 -2c4,9 8,17 13,23 5,5 10,8 15,8 3,0 5,-1 7,-3 2,-2 3,-4 3,-7 0,-3 -1,-6 -2,-8 -2,-2 -5,-3 -7,-3l-12 0 0 -6 11 0c2,0 4,-1 6,-2 1,-2 2,-4 2,-6 0,-1 0,-3 -1,-5 -1,-1 -3,-3 -4,-4l-39 0zm57 0l0 -5 66 0 0 5 -10 0 0 51 -6 0 0 -15c-3,4 -7,6 -11,8 -4,2 -8,3 -13,3 -4,0 -8,-2 -11,-4 -4,-3 -5,-6 -5,-9 0,-2 0,-3 1,-5 0,-1 1,-2 2,-3 -2,0 -5,-2 -6,-3 -2,-2 -3,-4 -3,-6 0,-3 1,-5 4,-7 2,-2 5,-3 8,-3l12 0 0 -7 -28 0zm26 41c4,0 9,-1 13,-3 4,-2 8,-5 11,-9l0 -29 -16 0 0 12 -18 0c-1,0 -3,1 -4,2 -1,1 -2,2 -2,3 0,1 1,2 2,3 2,1 4,2 6,2 1,0 1,-1 3,-1 0,0 2,0 4,0l4 0 4 5 -8 0c-3,0 -5,1 -7,2 -1,2 -2,4 -2,6 0,2 1,4 3,5 2,1 4,2 7,2zm38 -41l0 -5 55 0 0 5 -11 0 0 51 -6 0 0 -24 -21 0 0 5c0,0 0,1 -1,1 0,1 -1,1 -1,1 -2,0 -4,-1 -7,-4 -3,-3 -5,-5 -5,-6 0,-1 0,-1 1,-2 1,0 1,-1 2,-1l5 0 0 -21 -11 0zm17 21l21 0 0 -21 -21 0 0 21z"/>
  </g>
  <path class="fil14" d="M3531 2465c0,8 -1,15 -4,20 -3,6 -8,11 -13,14 -6,3 -12,5 -20,5 -2,0 -4,-1 -7,-1 -2,-1 -5,-2 -8,-4l0 38 -14 0 0 -109 8 0 3 5c3,-2 6,-4 10,-5 3,-1 6,-2 9,-2 7,0 14,2 19,5 6,3 10,8 13,14 3,6 4,12 4,20zm-15 1c0,-9 -2,-15 -5,-20 -4,-5 -9,-8 -16,-8 -6,0 -11,2 -16,6l0 42c5,4 10,5 16,5 6,0 12,-2 16,-7 3,-5 5,-11 5,-18zm70 -26c-4,0 -8,1 -13,4 -5,2 -10,5 -13,9l0 49 -15 0 0 -74 8 0 5 12c3,-3 7,-6 12,-8 5,-3 9,-4 13,-4l3 12zm41 -14c11,0 19,4 24,11 6,7 8,16 8,27l0 4 -52 0c1,7 3,13 7,17 4,4 10,6 18,6 4,0 7,0 10,-1 3,-1 7,-3 12,-5l5 11c-9,5 -18,8 -27,8 -13,0 -23,-4 -30,-11 -7,-7 -10,-16 -10,-28 0,-8 1,-15 4,-20 3,-6 7,-11 12,-14 6,-3 12,-5 19,-5zm0 12c-6,0 -10,2 -14,6 -3,3 -5,8 -6,14l38 0c-2,-13 -8,-20 -18,-20zm66 66c-3,0 -7,-1 -12,-2 -5,-1 -9,-3 -12,-5l5 -10c7,3 13,5 19,5 5,0 9,-1 12,-3 3,-1 4,-4 4,-7 0,-5 -5,-9 -16,-12 -16,-6 -24,-13 -24,-23 0,-6 2,-11 7,-15 5,-4 12,-6 21,-6 3,0 7,1 12,2 5,1 9,3 11,5l-4 10c-4,-2 -7,-3 -10,-4 -3,-1 -6,-1 -10,-1 -3,0 -7,1 -9,3 -3,1 -4,4 -4,6 0,2 2,4 4,6 3,1 7,3 11,5 17,6 25,14 25,24 0,7 -2,12 -7,16 -6,4 -13,6 -23,6zm75 -78c10,0 18,4 24,11 5,7 8,16 8,27l0 4 -52 0c0,7 3,13 7,17 4,4 10,6 17,6 4,0 8,0 11,-1 2,-1 7,-3 12,-5l4 11c-9,5 -18,8 -27,8 -12,0 -22,-4 -29,-11 -7,-7 -11,-16 -11,-28 0,-8 2,-15 5,-20 3,-6 7,-11 12,-14 5,-3 12,-5 19,-5zm-1 12c-5,0 -10,2 -13,6 -3,3 -5,8 -6,14l38 0c-2,-13 -8,-20 -19,-20zm85 0c-4,0 -8,1 -12,3 -4,2 -8,5 -12,9l0 52 -14 0 0 -74 10 0 2 10c4,-4 9,-7 14,-9 5,-2 10,-3 15,-3 8,0 14,2 17,7 4,5 6,12 6,20l0 49 -14 0 0 -48c0,-5 -1,-9 -3,-12 -2,-3 -5,-4 -9,-4zm62 -9l14 0 4 11 -18 0 0 39c0,4 1,7 3,9 2,3 4,4 8,4 2,0 4,-1 7,-2l4 11c-2,1 -4,2 -6,2 -3,1 -5,1 -7,1 -7,0 -13,-2 -17,-6 -4,-4 -6,-9 -6,-17l0 -41 -11 0 0 -11 11 0 0 -19 14 -3 0 22zm65 -3c10,0 18,4 24,11 5,7 8,16 8,27l0 4 -52 0c0,7 2,13 6,17 4,4 10,6 18,6 4,0 8,0 10,-1 3,-1 7,-3 12,-5l5 11c-9,5 -18,8 -27,8 -13,0 -22,-4 -29,-11 -7,-7 -11,-16 -11,-28 0,-8 2,-15 5,-20 2,-6 6,-11 12,-14 5,-3 11,-5 19,-5zm-1 12c-5,0 -10,2 -13,6 -3,3 -5,8 -6,14l38 0c-2,-13 -8,-20 -19,-20zm109 64l-8 0 -3 -6c-3,3 -6,4 -10,6 -4,1 -7,2 -9,2 -8,0 -14,-2 -20,-5 -5,-3 -10,-8 -13,-14 -3,-6 -4,-13 -4,-21 0,-7 1,-14 5,-20 3,-6 7,-10 12,-13 6,-3 12,-5 20,-5 2,0 4,0 7,1 3,1 6,2 9,4l0 -35 14 -1 0 107zm-30 -11c3,0 6,0 8,-1 3,-1 5,-3 8,-5l0 -41c-3,-2 -5,-3 -8,-4 -2,-1 -5,-2 -8,-2 -7,0 -13,3 -16,8 -4,5 -6,11 -6,18 0,8 2,15 6,20 3,5 9,7 16,7zm153 -26c0,8 -1,15 -4,20 -3,6 -8,11 -13,14 -6,3 -12,5 -20,5 -2,0 -5,-1 -8,-2 -4,-1 -7,-3 -10,-5l-3 5 -8 0 0 -106 14 -2 0 37c3,-2 6,-3 8,-4 3,-1 6,-1 8,-1 7,0 14,2 19,5 6,3 10,8 13,14 3,6 4,12 4,20zm-15 1c0,-9 -2,-15 -5,-20 -4,-5 -10,-8 -16,-8 -6,0 -11,2 -16,6l0 42c5,4 10,5 16,5 6,0 12,-2 16,-7 3,-5 5,-11 5,-18zm90 -38l-27 73 0 36 -14 0 0 -36 -28 -71 14 -5 21 56 19 -53 15 0z"/>
 </g>
</svg>
