<?xml version="1.0" encoding="UTF-8"?>
<!DOCTYPE svg PUBLIC "-//W3C//DTD SVG 1.1//EN" "http://www.w3.org/Graphics/SVG/1.1/DTD/svg11.dtd">
<!-- Creator: CorelDRAW X7 -->
<svg xmlns="http://www.w3.org/2000/svg" xml:space="preserve" width="8.5in" height="11in" version="1.1" style="shape-rendering:geometricPrecision; text-rendering:geometricPrecision; image-rendering:optimizeQuality; fill-rule:evenodd; clip-rule:evenodd"
viewBox="0 0 8500 11000"
 xmlns:xlink="http://www.w3.org/1999/xlink">
 <defs>
  <style type="text/css">
   <![CDATA[
    .fil13 {fill:none}
    .fil3 {fill:#3C5486}
    .fil9 {fill:#3D5486}
    .fil5 {fill:#516BA5}
    .fil10 {fill:#90A7D1}
    .fil11 {fill:#ACC1E3}
    .fil7 {fill:#DC6A34}
    .fil4 {fill:#E98536}
    .fil6 {fill:#FAA631}
    .fil8 {fill:#FFCE2E}
    .fil2 {fill:#2B2A29;fill-rule:nonzero}
    .fil0 {fill:#00A0E3;fill-rule:nonzero}
    .fil12 {fill:#3C5486;fill-rule:nonzero}
    .fil1 {fill:#FFC22B;fill-rule:nonzero}
   ]]>
  </style>
   <clipPath id="id0">
    <path d="M1343 3501l5814 0 0 3998 -5814 0 0 -3998z"/>
   </clipPath>
 </defs>
 <g id="Layer_x0020_1">
  <metadata id="CorelCorpID_0Corel-Layer"/>
  <g>
  </g>
  <g style="clip-path:url(#id0)">
   <g>
    <g id="_2551120449008">
     <g>
      <path class="fil0" d="M4597 7046l-10 0c-4,18 -8,33 -11,45 -4,11 -8,20 -13,27 -4,7 -9,12 -16,14 -5,3 -13,4 -21,4 -23,0 -39,-10 -50,-30 -5,-10 -9,-22 -11,-36 -3,-14 -4,-32 -4,-54 0,-44 6,-77 16,-97 11,-21 28,-31 50,-31 8,0 15,1 20,3 5,2 9,5 13,10 4,5 8,12 12,22 4,9 8,21 12,36 1,1 1,2 1,3 1,2 1,3 2,5l9 0 0 -72c-21,-10 -42,-16 -64,-16 -17,0 -34,4 -48,10 -14,6 -26,15 -37,27 -10,11 -18,26 -23,42 -6,17 -8,35 -8,56 0,20 2,38 8,54 5,16 13,30 23,41 10,11 22,20 36,27 15,6 31,9 48,9 22,0 44,-5 66,-15l0 -84z"/>
      <path class="fil0" d="M4731 7140l50 0 0 -9 -18 0 0 -123c0,-19 -6,-34 -17,-44 -10,-11 -25,-16 -46,-16 -22,0 -42,5 -61,16l0 58 10 0c3,-9 5,-17 8,-23 2,-7 5,-13 7,-19 5,-9 9,-15 13,-18 5,-3 12,-5 21,-5 22,0 33,14 33,41l0 27c-5,2 -9,4 -13,5 -4,2 -7,3 -11,5 -4,1 -7,2 -11,3 -4,0 -9,1 -14,2 -12,3 -21,5 -27,8 -6,2 -11,5 -16,8 -5,5 -10,10 -13,17 -3,7 -4,14 -4,22 0,15 4,27 14,36 9,9 22,14 38,14 28,0 47,-13 57,-39l0 34zm0 -81c0,23 -4,40 -13,54 -8,13 -20,19 -34,19 -18,0 -27,-13 -27,-39 0,-13 3,-23 7,-29 5,-7 14,-12 27,-15 5,-1 9,-3 13,-4 4,-1 7,-2 10,-3 3,-1 5,-2 8,-3 3,-1 6,-2 9,-4l0 24z"/>
      <path class="fil0" d="M4853 6953l-50 0 0 9 18 0 0 169 -18 0 0 9 73 0 0 -9 -23 0 0 -109c0,-18 4,-33 11,-44 7,-11 17,-17 29,-17 9,0 15,3 19,8 5,6 7,14 7,24l0 138 -24 0 0 9 73 0 0 -9 -17 0 0 -140c0,-14 -5,-24 -13,-32 -8,-7 -20,-11 -36,-11 -12,0 -22,3 -30,9 -7,5 -14,15 -19,27l0 -31z"/>
      <path class="fil0" d="M5096 7140l50 0 0 -9 -18 0 0 -123c0,-19 -5,-34 -16,-44 -10,-11 -26,-16 -46,-16 -22,0 -42,5 -61,16l0 58 10 0c3,-9 5,-17 7,-23 3,-7 5,-13 8,-19 4,-9 9,-15 13,-18 5,-3 11,-5 20,-5 22,0 33,14 33,41l0 27c-5,2 -9,4 -13,5 -3,2 -7,3 -10,5 -4,1 -8,2 -12,3 -4,0 -8,1 -14,2 -11,3 -20,5 -27,8 -5,2 -11,5 -15,8 -6,5 -10,10 -13,17 -3,7 -5,14 -5,22 0,15 5,27 14,36 10,9 23,14 38,14 28,0 47,-13 57,-39l0 34zm0 -81c0,23 -4,40 -12,54 -9,13 -20,19 -34,19 -18,0 -27,-13 -27,-39 0,-13 2,-23 7,-29 5,-7 14,-12 26,-15 5,-1 10,-3 14,-4 3,-1 6,-2 9,-3 3,-1 6,-2 9,-3 2,-1 5,-2 8,-4l0 24z"/>
      <path class="fil0" d="M5289 7025l0 -70c-5,-2 -9,-4 -12,-5 -4,-1 -8,-2 -12,-2 -11,0 -20,3 -27,9 -7,5 -13,14 -20,27l0 -31 -49 0 0 9 18 0 0 169 -18 0 0 9 77 0 0 -9 -25 0 0 -89c0,-8 0,-15 0,-21 1,-6 1,-11 2,-16 1,-4 2,-9 3,-13 1,-3 3,-7 5,-11 2,-5 6,-10 10,-13 4,-4 7,-6 10,-6 2,0 3,0 4,1 1,0 2,1 3,3 1,1 2,3 3,5 1,3 3,6 4,11 3,7 5,13 7,20 2,7 4,14 6,23l11 0z"/>
      <path class="fil0" d="M5413 7140l49 0 0 -9 -18 0 0 -123c0,-19 -5,-34 -16,-44 -10,-11 -26,-16 -46,-16 -22,0 -42,5 -61,16l0 58 10 0c3,-9 5,-17 8,-23 2,-7 5,-13 7,-19 5,-9 9,-15 13,-18 5,-3 12,-5 21,-5 22,0 33,14 33,41l0 27c-5,2 -10,4 -14,5 -3,2 -7,3 -10,5 -4,1 -8,2 -12,3 -4,0 -8,1 -14,2 -11,3 -20,5 -26,8 -6,2 -11,5 -16,8 -6,5 -10,10 -13,17 -3,7 -5,14 -5,22 0,15 5,27 14,36 10,9 23,14 38,14 29,0 48,-13 58,-39l0 34zm0 -81c0,23 -5,40 -13,54 -9,13 -20,19 -34,19 -18,0 -27,-13 -27,-39 0,-13 2,-23 7,-29 5,-7 14,-12 26,-15 6,-1 10,-3 14,-4 3,-1 6,-2 9,-3 3,-1 6,-2 9,-3 3,-1 5,-2 9,-4l0 24z"/>
      <path class="fil0" d="M5573 6884l0 9 23 0 0 238 -23 0 0 9 82 0c14,0 27,-1 39,-3 12,-2 22,-5 30,-9 13,-6 23,-14 30,-25 8,-11 11,-23 11,-36 0,-10 -2,-20 -8,-29 -5,-9 -12,-16 -21,-22 -6,-3 -13,-6 -21,-8 -7,-1 -17,-3 -30,-3 20,-3 36,-10 47,-21 11,-11 16,-24 16,-40 0,-10 -2,-18 -6,-26 -5,-8 -11,-15 -19,-20 -7,-5 -15,-9 -24,-11 -9,-2 -21,-3 -36,-3l-90 0zm61 118l0 -109 28 0c16,0 27,4 35,13 7,9 11,22 11,40 0,20 -5,34 -14,43 -9,8 -24,13 -45,13l-15 0zm0 129l0 -121 28 0c12,0 21,2 29,4 7,2 14,5 19,10 5,4 8,10 10,18 3,7 4,16 4,27 0,22 -6,38 -16,48 -11,9 -29,14 -54,14l-20 0z"/>
      <path class="fil0" d="M5896 7140l50 0 0 -9 -18 0 0 -123c0,-19 -6,-34 -16,-44 -11,-11 -26,-16 -47,-16 -21,0 -42,5 -61,16l0 58 10 0c3,-9 6,-17 8,-23 3,-7 5,-13 8,-19 4,-9 8,-15 13,-18 4,-3 11,-5 20,-5 22,0 33,14 33,41l0 27c-5,2 -9,4 -13,5 -4,2 -7,3 -11,5 -3,1 -7,2 -11,3 -4,0 -9,1 -14,2 -12,3 -21,5 -27,8 -6,2 -11,5 -16,8 -5,5 -10,10 -13,17 -3,7 -4,14 -4,22 0,15 5,27 14,36 10,9 22,14 38,14 28,0 47,-13 57,-39l0 34zm0 -81c0,23 -4,40 -13,54 -8,13 -19,19 -34,19 -18,0 -27,-13 -27,-39 0,-13 3,-23 8,-29 5,-7 13,-12 26,-15 5,-1 10,-3 13,-4 4,-1 7,-2 10,-3 3,-1 6,-2 8,-3 3,-1 6,-2 9,-4l0 24z"/>
      <path class="fil0" d="M6018 6953l-50 0 0 9 18 0 0 169 -18 0 0 9 73 0 0 -9 -23 0 0 -109c0,-18 4,-33 11,-44 8,-11 17,-17 30,-17 8,0 14,3 18,8 5,6 7,14 7,24l0 138 -23 0 0 9 72 0 0 -9 -17 0 0 -140c0,-14 -4,-24 -13,-32 -8,-7 -20,-11 -36,-11 -12,0 -22,3 -29,9 -8,5 -15,15 -20,27l0 -31z"/>
      <path class="fil0" d="M6204 6884l-50 0 0 9 18 0 0 238 -18 0 0 9 73 0 0 -9 -23 0 0 -247zm1 157l67 99 48 0 0 -9 -14 0 -75 -106 54 -63 17 0 0 -9 -53 0 0 9 23 0 -67 79z"/>
      <path class="fil0" d="M4049 6582l296 545c35,59 -2,119 -69,109 -21,-4 -159,-22 -332,-46l49 -66 235 25c20,3 29,-3 18,-24 0,0 -222,-445 -224,-451 -7,-13 -15,-9 -22,3 0,0 -217,395 -220,400 -8,15 -5,23 18,25l86 10 -50 60 -111 -17c-28,-4 -37,-21 -22,-50 12,-22 271,-495 271,-495 5,-9 10,-16 15,-25 15,-28 43,-35 62,-3z"/>
      <path class="fil1" d="M3408 7000l388 -68 -33 60 -268 45c-14,3 -13,9 -4,15 0,0 234,162 256,176 19,13 28,18 44,-2 0,0 189,-233 199,-248 15,-20 21,-27 -2,-23l-132 22 34 -61 177 -32c40,-7 56,21 36,51 -17,24 -297,401 -297,401 -18,26 -31,25 -53,6 -26,-21 -357,-296 -357,-296 -22,-18 -15,-41 12,-46z"/>
      <path class="fil0" d="M3170 7014l-1 -2c-7,-10 -17,-18 -26,-18 -1,0 -2,0 -3,0 -6,0 -12,4 -17,14 -5,10 -8,23 -8,41 0,21 3,33 8,42 6,10 10,14 22,14 11,0 18,-4 24,-15l1 -76zm-119 -51l0 168 17 0 0 9 -67 0 0 -9 19 0 0 -36c-2,3 -5,6 -7,9 -8,8 -18,12 -33,12 -8,0 -16,-2 -23,-5 -7,-3 -13,-8 -18,-13 -6,-6 -10,-13 -12,-20 -3,-8 -5,-17 -5,-26l0 -1c0,-9 2,-18 5,-25 2,-8 6,-15 12,-20 5,-6 11,-10 18,-14 7,-3 15,-4 23,-4 15,0 25,3 33,11 2,3 5,6 7,10l0 -46 -91 0 0 -9 362 0 0 9 -91 0 0 41c1,-2 2,-3 4,-5 7,-8 18,-12 32,-12 8,0 15,2 22,5 7,3 13,8 18,14 5,5 9,12 11,20 3,7 5,16 5,25 0,9 -2,18 -5,26 -3,8 -7,15 -12,20 -6,6 -19,18 -34,18 -10,0 -14,-3 -21,-5 0,-1 -1,-1 -2,-1l0 -43 6 0c2,8 2,10 4,17 2,6 3,10 5,14 2,4 5,10 8,10 6,0 10,-7 13,-14 4,-9 6,-21 6,-39 0,-20 -3,-35 -8,-45 -5,-10 -13,-14 -24,-14 -11,0 -18,4 -24,15 -2,3 -3,6 -4,10l0 111 15 0 0 9 -61 0 0 -9 16 0 0 -27c-8,8 -18,11 -32,11 -8,0 -16,-1 -23,-4 -7,-4 -12,-8 -17,-14 -5,-5 -9,-12 -12,-20 -3,-8 -4,-16 -4,-25 0,-10 1,-18 4,-26 3,-8 7,-15 13,-20 5,-6 12,-11 19,-14 8,-3 16,-4 24,-4 13,0 21,4 27,11l1 -36 -119 0zm-33 118l-63 -49c-1,6 -1,13 -1,21 0,19 3,33 8,43 6,10 14,12 24,12 11,0 20,-6 26,-16 2,-3 3,-5 4,-8 1,-1 1,-2 2,-3zm-60 -60l62 48 -1 -35c-1,-5 -2,-9 -2,-12 -1,-3 -3,-7 -5,-10 -6,-10 -15,-16 -24,-16 -12,0 -20,5 -26,14 -2,3 -3,7 -4,11zm-481 -16l-2 0 -1 -1 -2 0c-5,0 -9,1 -12,4 -4,3 -7,7 -8,12 -1,3 -2,7 -3,12 0,4 -1,10 -1,17 0,9 1,17 2,22 0,5 2,9 4,12 1,3 4,5 6,7 3,2 7,2 10,2 5,0 9,0 12,-2 3,-2 5,-4 7,-8 2,-4 3,-8 4,-14 1,-6 1,-14 1,-22 0,-8 0,-14 -1,-19 -1,-6 -2,-10 -4,-13 -1,-3 -4,-6 -7,-7 -1,-1 -3,-2 -5,-2zm-209 9l-1 -2c-6,-10 -17,-18 -26,-18 -1,0 -2,0 -2,0 -7,0 -13,4 -18,14 -5,10 -8,23 -8,41 0,21 3,33 8,42 6,10 10,14 22,14 11,0 18,-4 25,-15l0 -76zm-1 -60l30 0 545 0 0 9 -25 0 0 168 18 0 0 9 -66 0 0 -9 16 0 0 -168 -20 0 -46 0c14,3 40,7 40,34 0,12 -4,21 -10,27 -6,7 -19,13 -30,13l-35 0 0 68c0,20 4,28 19,28 7,0 11,-1 15,-3 3,-2 6,-7 9,-14 2,-4 3,-6 5,-11 2,-5 4,-11 6,-17l7 0 0 42c-14,8 -29,12 -45,12 -14,0 -27,-4 -34,-12 -8,-7 -14,-18 -14,-32l0 -61 -25 0 0 -9 10 0 62 0c18,0 25,-19 25,-32 0,-9 -4,-27 -16,-32 -3,-1 -7,-1 -10,-1l-26 0 -16 0 -62 0 0 168 16 0 0 9 -63 0 0 -9 16 0 0 -125 -62 0c4,2 8,2 11,5 5,4 9,9 12,15 3,6 4,13 4,19 0,9 -1,16 -4,23 -3,7 -7,12 -12,17 -5,5 -11,9 -18,12 -7,2 -14,4 -23,4 -7,0 -14,-2 -22,-5 -7,-2 -13,-6 -18,-12 -5,-4 -8,-10 -11,-15 -2,-6 -3,-13 -3,-21 0,-7 1,-14 4,-20 3,-7 7,-12 12,-17 5,-4 11,-8 18,-11 7,-2 14,-3 23,-3l1 0 88 0 0 -34 -265 0 0 41c1,-2 2,-3 4,-5 7,-8 18,-12 32,-12 8,0 15,2 22,5 7,3 13,8 18,14 5,5 9,12 12,20 2,7 4,16 4,25 0,9 -2,18 -5,26 -3,8 -7,15 -12,20 -6,6 -19,18 -34,18 -10,0 -14,-3 -20,-5 -1,-1 -2,-1 -3,-1l0 -43 6 0c2,8 3,10 5,17 1,6 3,10 4,14 2,4 5,10 8,10 6,0 10,-7 13,-14 4,-9 6,-21 6,-39 0,-20 -3,-35 -8,-45 -5,-10 -13,-14 -24,-14 -11,0 -17,4 -24,15 -2,3 -3,6 -4,10l0 111 15 0 0 9 -61 0 0 -9 16 0 0 -27c-7,8 -18,11 -32,11 -8,0 -16,-1 -23,-4 -6,-4 -12,-8 -17,-14 -5,-5 -9,-12 -12,-20 -3,-8 -4,-16 -4,-25 0,-10 1,-18 4,-26 3,-8 8,-15 13,-20 5,-6 12,-11 20,-14 7,-3 15,-4 23,-4 13,0 21,4 27,11l1 -36 -79 0 0 -9 78 0z"/>
      <path class="fil0" d="M2252 6931c-8,-4 -16,-10 -23,-18 -6,-7 -11,-16 -15,-26 -1,-4 -2,-7 -3,-11l-14 0 0 -8 63 0 0 8 -16 0c2,36 16,54 36,54l8 0c20,0 34,-18 36,-54l-14 0 0 -8 61 0 0 8 -14 0c-1,4 -2,7 -3,11 -4,10 -9,19 -15,26 -7,8 -15,14 -23,18 -9,4 -23,6 -32,6 -10,0 -23,-2 -32,-6z"/>
      <path class="fil0" d="M3008 6931c-8,-4 -16,-10 -22,-18 -7,-7 -12,-16 -16,-26 -1,-4 -2,-7 -3,-11l-14 0 0 -8 63 0 0 8 -16 0c2,36 16,54 36,54l8 0c20,0 34,-18 36,-54l-14 0 0 -8 61 0 0 8 -14 0c-1,4 -2,7 -3,11 -4,10 -9,19 -15,26 -7,8 -15,14 -23,18 -9,4 -23,6 -32,6 -10,0 -23,-2 -32,-6z"/>
      <path class="fil0" d="M3040 6879c-5,0 -9,2 -12,5 -4,3 -5,7 -5,12 0,5 1,9 5,13 3,3 8,5 13,5 4,0 8,-2 12,-5 3,-4 5,-8 5,-12 0,-5 -2,-10 -6,-13 -3,-3 -7,-5 -12,-5z"/>
      <path class="fil2" d="M5231 7372l0 96 -15 0 0 -96 -34 0 0 -14 85 0 0 14 -36 0zm23 56c0,-13 4,-23 10,-30 7,-8 15,-12 26,-12 12,0 20,4 27,11 6,8 9,18 9,31 0,13 -3,23 -10,30 -6,8 -15,11 -26,11 -11,0 -20,-3 -26,-11 -6,-7 -10,-18 -10,-30zm15 0c0,20 7,30 21,30 7,0 12,-3 16,-8 3,-6 5,-13 5,-22 0,-20 -7,-30 -21,-30 -6,0 -11,3 -15,8 -4,5 -6,12 -6,22zm69 62l8 -12c8,6 15,9 22,9 6,0 11,-1 15,-4 4,-2 6,-5 6,-8 0,-6 -5,-10 -14,-10 -2,0 -5,1 -9,2 -4,0 -7,1 -9,1 -12,0 -17,-5 -17,-13 0,-3 1,-5 4,-7 2,-2 6,-4 9,-5 -11,-5 -16,-14 -16,-27 0,-9 3,-16 8,-21 6,-6 13,-9 22,-9 7,0 14,2 18,5l7 -8 9 8 -8 7c3,5 5,11 5,18 0,8 -2,15 -7,21 -5,5 -12,8 -20,9l-12 1c-1,0 -3,1 -5,2 -2,1 -4,2 -4,4 0,2 3,3 8,3 2,0 5,-1 10,-2 4,0 7,-1 10,-1 7,0 13,2 18,6 4,4 6,9 6,16 0,7 -3,13 -9,17 -7,5 -15,7 -25,7 -5,0 -11,-1 -16,-3 -6,-1 -11,-4 -14,-6zm30 -92c-5,0 -9,2 -12,5 -3,4 -5,8 -5,13 0,5 2,10 5,14 3,3 7,5 12,5 5,0 9,-2 11,-5 3,-4 5,-8 5,-14 0,-5 -2,-9 -5,-13 -3,-3 -7,-5 -11,-5zm115 31l-57 0c0,10 3,17 8,22 4,4 10,6 17,6 8,0 15,-2 20,-7l6 11c-2,2 -5,4 -10,5 -5,2 -12,3 -18,3 -10,0 -19,-3 -26,-10 -8,-7 -11,-18 -11,-30 0,-13 4,-24 11,-32 8,-7 16,-11 26,-11 11,0 20,4 26,10 6,6 10,14 10,25 0,3 -1,6 -2,8zm-34 -31c-6,0 -11,2 -15,6 -4,4 -7,9 -7,15l44 0c0,-6 -2,-11 -6,-14 -4,-5 -9,-7 -16,-7zm55 1l-9 0 0 -11 9 0 0 -17 14 -5 0 22 22 0 0 11 -22 0 0 40c0,7 2,11 4,14 2,3 6,4 11,4 3,0 7,-1 11,-2l2 12c-6,2 -12,2 -19,2 -7,0 -12,-2 -16,-7 -5,-4 -7,-10 -7,-18l0 -45zm104 69l0 -50c0,-6 -1,-11 -4,-15 -3,-3 -7,-5 -13,-5 -3,0 -6,1 -10,3 -3,2 -6,5 -8,7l0 60 -14 0 0 -113 14 0 0 42c2,-3 5,-6 9,-8 5,-2 9,-3 13,-3 9,0 15,3 20,9 5,5 7,13 7,23l0 50 -14 0zm101 -39l-57 0c0,10 2,17 7,22 5,4 11,6 18,6 8,0 14,-2 20,-7l6 11c-3,2 -6,4 -10,5 -6,2 -12,3 -19,3 -10,0 -19,-3 -26,-10 -7,-7 -11,-18 -11,-30 0,-13 4,-24 12,-32 7,-7 15,-11 25,-11 11,0 20,4 27,10 6,6 9,14 9,25 0,3 -1,6 -1,8zm-34 -31c-7,0 -12,2 -16,6 -4,4 -6,9 -7,15l44 0c0,-6 -2,-11 -5,-14 -4,-5 -10,-7 -16,-7zm93 4c-3,-3 -7,-4 -10,-4 -5,0 -9,3 -13,7 -3,5 -5,10 -5,17l0 46 -14 0 0 -80 14 0 0 13c5,-10 12,-15 23,-15 2,0 6,1 10,2l-5 14zm145 67l-4 0 -26 -75 -24 75 -5 0 -34 -111 15 0 22 77 24 -77 5 0 24 77 22 -77 15 0 -34 111zm105 -40l-57 0c0,10 2,17 7,22 5,4 11,6 18,6 8,0 14,-2 20,-7l6 11c-3,2 -6,4 -10,5 -6,2 -12,3 -19,3 -10,0 -19,-3 -25,-10 -8,-7 -12,-18 -12,-30 0,-13 4,-24 12,-32 7,-7 15,-11 25,-11 11,0 20,4 27,10 6,6 9,14 9,25 0,3 -1,6 -1,8zm-34 -31c-7,0 -12,2 -16,6 -4,4 -6,9 -7,15l44 0c0,-6 -2,-11 -5,-14 -4,-5 -10,-7 -16,-7zm165 -36l-4 13c-5,-3 -13,-5 -23,-5 -9,0 -17,4 -23,12 -5,9 -8,19 -8,32 0,13 3,23 9,31 5,7 13,11 22,11 10,0 18,-3 24,-11l8 12c-9,8 -20,13 -33,13 -14,0 -25,-5 -34,-16 -8,-10 -12,-24 -12,-41 0,-16 5,-29 13,-40 9,-11 20,-16 34,-16 12,0 21,2 27,5zm66 97c-6,7 -15,10 -26,10 -7,0 -12,-2 -16,-6 -5,-5 -7,-11 -7,-17 0,-9 3,-15 10,-21 7,-6 16,-8 27,-8 3,0 6,0 10,1 0,-12 -6,-19 -17,-19 -9,0 -15,2 -20,7l-6 -12c3,-2 6,-4 11,-5 5,-2 9,-3 13,-3 12,0 20,3 25,8 6,6 8,14 8,25l0 29c0,7 2,12 6,14l0 7c-5,0 -10,-1 -12,-2 -3,-2 -5,-5 -6,-8zm-2 -30c-4,-1 -7,-2 -9,-2 -7,0 -13,2 -17,6 -5,3 -7,8 -7,13 0,8 5,12 14,12 7,0 14,-3 19,-10l0 -19zm85 39l0 -47c0,-8 -1,-14 -4,-18 -2,-3 -7,-5 -13,-5 -3,0 -6,1 -10,3 -3,2 -6,5 -8,7l0 60 -14 0 0 -80 10 0 4 10c5,-8 13,-12 23,-12 17,0 26,11 26,32l0 50 -14 0z"/>
      <path class="fil2" d="M4867 7280c0,1 0,2 0,2 0,1 0,1 0,1 0,0 -1,1 -1,1 -1,0 -2,0 -3,0 -1,0 -2,0 -2,0 -1,0 -1,0 -2,-1 0,0 0,0 -1,0 0,0 0,-1 0,-1l-6 -16 -27 0 -6 16c0,0 0,1 0,1 0,0 0,0 -1,0 0,0 0,1 -1,1 -1,0 -1,0 -2,0 -1,0 -2,0 -3,0 0,0 -1,-1 -1,-1 0,0 -1,0 -1,-1 0,0 1,-1 1,-2l22 -61c0,-1 0,-1 1,-1 0,0 0,-1 1,-1 0,0 1,0 1,0 1,0 2,0 3,0 1,0 2,0 2,0 1,0 2,0 2,0 1,0 1,1 1,1 0,0 1,0 1,1l22 61zm1326 2c0,0 0,1 0,1 0,0 -1,0 -1,0 0,0 -1,1 -1,1 -1,0 -2,0 -3,0 0,0 -1,0 -2,0 0,0 -1,0 -1,-1 -1,0 -1,0 -1,0 -1,0 -1,-1 -1,-1l-19 -25 0 25c0,0 -1,1 -1,1 0,0 0,0 0,0 -1,0 -1,1 -2,1 0,0 -1,0 -2,0 -1,0 -1,0 -2,0 0,0 -1,-1 -1,-1 0,0 -1,0 -1,0 0,0 0,-1 0,-1l0 -68c0,0 0,-1 0,-1 0,0 1,0 1,0 0,-1 1,-1 1,-1 1,0 1,0 2,0 1,0 2,0 2,0 1,0 1,0 2,1 0,0 0,0 0,0 0,0 1,1 1,1l0 41 17 -19c0,0 0,0 1,-1 0,0 0,0 1,0 0,0 1,0 1,0 1,0 2,-1 2,-1 1,0 2,1 3,1 0,0 1,0 1,0 0,0 1,0 1,0 0,0 0,1 0,1 0,0 0,1 0,1 -1,1 -1,1 -1,2l-17 16 19 25c0,0 0,1 1,1 0,0 0,1 0,1zm18 0c0,0 0,1 0,1 0,0 0,0 -1,0 0,0 0,1 -1,1 -1,0 -1,0 -2,0 -1,0 -2,0 -2,0 -1,0 -1,-1 -1,-1 -1,0 -1,0 -1,0 0,0 0,-1 0,-1l0 -46c0,0 0,0 0,-1 0,0 0,0 1,0 0,0 0,0 1,0 0,0 1,-1 2,-1 1,0 1,1 2,1 1,0 1,0 1,0 1,0 1,0 1,0 0,1 0,1 0,1l0 46zm1 -61c0,2 0,3 -1,4 -1,0 -2,1 -4,1 -2,0 -4,-1 -4,-1 -1,-1 -1,-2 -1,-4 0,-2 0,-4 1,-4 1,-1 2,-1 4,-1 2,0 3,0 4,1 1,0 1,2 1,4zm54 61c0,0 0,1 0,1 0,0 0,0 -1,0 0,0 0,1 -1,1 0,0 -1,0 -2,0 -1,0 -1,0 -2,0 -1,0 -1,-1 -1,-1 -1,0 -1,0 -1,0 0,0 0,-1 0,-1l0 -27c0,-2 0,-5 -1,-6 0,-2 -1,-3 -2,-4 0,-1 -1,-2 -3,-3 -1,-1 -2,-1 -4,-1 -2,0 -4,1 -6,2 -2,2 -4,4 -7,7l0 32c0,0 0,1 0,1 0,0 0,0 -1,0 0,0 0,1 -1,1 0,0 -1,0 -2,0 -1,0 -2,0 -2,0 -1,0 -1,-1 -1,-1 -1,0 -1,0 -1,0 0,0 0,-1 0,-1l0 -46c0,0 0,0 0,-1 0,0 0,0 0,0 1,0 1,0 2,0 0,0 1,-1 2,-1 0,0 1,1 1,1 1,0 1,0 2,0 0,0 0,0 0,0 0,1 0,1 0,1l0 6c3,-3 6,-5 8,-6 3,-2 5,-2 8,-2 3,0 6,0 8,1 2,1 3,3 5,4 1,2 2,4 2,7 1,2 1,5 1,8l0 28zm54 -44c0,1 0,2 0,3 -1,0 -1,1 -2,1l-6 0c1,1 2,2 2,4 1,1 1,3 1,4 0,3 0,5 -1,7 -1,2 -2,4 -4,5 -1,2 -3,3 -6,4 -2,1 -4,1 -7,1 -2,0 -3,0 -5,-1 -2,0 -3,-1 -4,-2 -1,1 -1,2 -2,2 0,1 0,2 0,3 0,1 0,2 2,3 1,1 2,1 4,1l12 1c2,0 4,0 6,1 2,0 4,1 5,2 2,1 3,3 3,4 1,2 2,3 2,5 0,2 -1,4 -2,6 -1,2 -2,4 -4,5 -2,2 -4,3 -7,4 -3,1 -6,1 -10,1 -3,0 -7,0 -9,-1 -3,0 -5,-1 -7,-2 -1,-2 -3,-3 -3,-4 -1,-2 -1,-4 -1,-5 0,-1 0,-3 0,-4 0,-1 1,-2 1,-3 1,-1 2,-1 2,-2 1,-1 2,-2 3,-3 -1,-1 -3,-2 -3,-3 -1,-1 -2,-3 -2,-4 0,-2 1,-4 2,-6 0,-2 2,-3 3,-4 -1,-2 -2,-3 -3,-5 0,-1 -1,-3 -1,-5 0,-3 1,-5 2,-7 1,-2 2,-4 3,-6 2,-1 4,-2 6,-3 2,-1 5,-1 7,-1 2,0 3,0 4,0 1,0 2,1 4,1l13 0c1,0 1,0 2,1 0,0 0,1 0,2zm-13 12c0,-3 -1,-5 -3,-7 -1,-2 -4,-3 -7,-3 -2,0 -3,1 -4,1 -1,1 -2,1 -3,2 -1,1 -2,2 -2,4 0,1 -1,2 -1,4 0,3 1,5 3,7 2,2 4,2 7,2 2,0 3,0 5,0 1,-1 2,-2 3,-3 0,-1 1,-2 1,-3 1,-1 1,-2 1,-4zm4 37c0,-2 -1,-4 -2,-5 -2,-1 -4,-1 -7,-2l-12 0c-1,1 -2,2 -2,2 -1,1 -2,2 -2,3 0,0 -1,1 -1,2 0,0 0,1 0,2 0,2 1,4 3,5 3,1 6,2 10,2 2,0 4,-1 6,-1 2,-1 3,-1 4,-2 1,-1 2,-2 2,-3 1,-1 1,-2 1,-3zm-770 -70c0,1 0,1 -1,2 0,0 0,0 0,1 0,0 0,0 0,0 0,0 0,0 -1,0 0,0 0,0 -1,0 0,0 0,0 -1,0 0,-1 -1,-1 -2,-1 0,0 -1,0 -2,0 -1,0 -2,0 -3,0 -1,1 -2,1 -2,2 -1,1 -1,2 -2,4 0,1 0,3 0,5l0 5 10 0c1,0 1,0 1,0 0,0 0,0 0,1 1,0 1,0 1,1 0,0 0,1 0,1 0,2 0,2 -1,3 0,1 0,1 -1,1l-10 0 0 40c0,0 0,1 0,1 0,0 -1,0 -1,0 0,0 -1,1 -1,1 -1,0 -1,0 -2,0 -1,0 -2,0 -2,0 -1,0 -1,-1 -2,-1 0,0 0,0 0,0 0,0 0,-1 0,-1l0 -40 -7 0c-1,0 -1,0 -1,-1 -1,-1 -1,-1 -1,-3 0,0 0,-1 0,-1 1,-1 1,-1 1,-1 0,-1 0,-1 0,-1 0,0 1,0 1,0l7 0 0 -5c0,-3 0,-6 0,-8 1,-3 2,-4 3,-6 1,-1 3,-2 5,-3 2,-1 4,-1 6,-1 2,0 3,0 4,0 1,0 2,1 2,1 1,0 1,0 2,1 0,0 0,0 0,0 0,1 0,1 0,1 1,1 1,2 1,2zm40 65c0,0 0,1 -1,1 0,0 0,0 0,0 -1,0 -1,1 -2,1 0,0 -1,0 -2,0 -1,0 -1,0 -2,0 0,0 -1,-1 -1,-1 -1,0 -1,0 -1,0 0,0 0,-1 0,-1l0 -63c0,-1 0,-1 0,-1 0,0 1,-1 1,-1 0,0 1,0 1,0 1,0 2,0 2,0 1,0 2,0 2,0 1,0 1,0 2,0 0,0 0,1 0,1 1,0 1,0 1,1l0 63zm56 0c0,0 0,1 0,1 0,0 -1,0 -1,0 0,0 -1,1 -1,1 -1,0 -1,0 -2,0 -1,0 -2,0 -2,0 -1,0 -1,-1 -2,-1 0,0 0,0 0,0 0,0 -1,-1 -1,-1l0 -27c0,-2 0,-5 0,-6 -1,-2 -1,-3 -2,-4 -1,-1 -2,-2 -3,-3 -1,-1 -3,-1 -4,-1 -2,0 -4,1 -7,2 -2,2 -4,4 -6,7l0 32c0,0 0,1 0,1 -1,0 -1,0 -1,0 0,0 -1,1 -1,1 -1,0 -2,0 -2,0 -1,0 -2,0 -2,0 -1,0 -1,-1 -2,-1 0,0 0,0 0,0 -1,0 -1,-1 -1,-1l0 -46c0,0 0,0 1,-1 0,0 0,0 0,0 0,0 1,0 1,0 1,0 1,-1 2,-1 1,0 2,1 2,1 1,0 1,0 1,0 1,0 1,0 1,0 0,1 0,1 0,1l0 6c3,-3 5,-5 8,-6 2,-2 5,-2 8,-2 3,0 5,0 7,1 2,1 4,3 5,4 2,2 3,4 3,7 1,2 1,5 1,8l0 28zm55 0c0,0 0,1 0,1 -1,0 -1,0 -1,0 0,0 -1,1 -1,1 -1,0 -1,0 -2,0 -1,0 -1,0 -2,0 0,0 -1,-1 -1,-1 0,0 0,0 -1,0 0,0 0,-1 0,-1l0 -6c-2,3 -5,5 -7,6 -3,2 -6,2 -9,2 -3,0 -6,0 -8,-2 -3,-1 -5,-3 -6,-5 -2,-2 -3,-5 -4,-8 0,-3 -1,-6 -1,-9 0,-4 1,-8 2,-11 1,-3 2,-6 3,-8 2,-2 4,-4 7,-5 2,-2 5,-2 8,-2 3,0 5,0 8,2 2,1 4,2 6,5l0 -27c0,0 0,0 0,-1 1,0 1,0 1,0 0,0 1,0 1,0 1,-1 2,-1 2,-1 1,0 2,0 3,1 0,0 1,0 1,0 0,0 0,0 1,0 0,1 0,1 0,1l0 68zm-9 -32c-2,-3 -4,-5 -6,-7 -2,-1 -5,-2 -7,-2 -2,0 -4,1 -5,2 -2,1 -3,2 -4,4 -1,1 -2,3 -2,5 -1,2 -1,5 -1,7 0,2 0,4 1,7 0,2 1,4 2,5 1,2 2,4 3,5 2,1 3,1 6,1 1,0 2,0 3,0 1,-1 2,-1 3,-2 1,-1 2,-1 3,-3 2,-1 3,-2 4,-4l0 -18zm33 32c0,0 0,1 0,1 0,0 -1,0 -1,0 0,0 -1,1 -1,1 -1,0 -2,0 -2,0 -1,0 -2,0 -2,0 -1,0 -1,-1 -2,-1 0,0 0,0 0,0 -1,0 -1,-1 -1,-1l0 -46c0,0 0,0 1,-1 0,0 0,0 0,0 1,0 1,0 2,0 0,0 1,-1 2,-1 0,0 1,1 2,1 0,0 1,0 1,0 0,0 1,0 1,0 0,1 0,1 0,1l0 46zm1 -61c0,2 -1,3 -1,4 -1,0 -2,1 -4,1 -2,0 -4,-1 -5,-1 0,-1 -1,-2 -1,-4 0,-2 1,-4 1,-4 1,-1 3,-1 5,-1 2,0 3,0 4,1 0,0 1,2 1,4zm49 61c0,1 0,1 0,1 -1,0 -1,0 -1,1 -1,0 -2,0 -3,0 0,0 -1,0 -2,0 0,-1 -1,-1 -1,-1 0,0 0,0 0,-1l0 -4c-2,2 -4,3 -7,5 -2,1 -5,1 -8,1 -2,0 -4,0 -6,-1 -2,0 -4,-1 -5,-2 -2,-2 -3,-3 -4,-5 0,-1 -1,-3 -1,-6 0,-2 1,-5 2,-6 1,-2 2,-4 4,-5 2,-1 5,-2 8,-3 3,-1 6,-1 9,-1l7 0 0 -4c0,-1 0,-3 -1,-4 0,-2 -1,-3 -2,-4 -1,-1 -2,-1 -3,-2 -1,0 -3,0 -5,0 -2,0 -4,0 -5,0 -2,1 -4,1 -5,2 -1,1 -2,1 -3,2 -1,0 -1,0 -2,0 0,0 0,0 0,0 -1,0 -1,0 -1,0 0,-1 0,-1 0,-1 0,-1 0,-1 0,-2 0,-1 0,-1 0,-2 0,0 0,-1 1,-1 0,-1 1,-1 2,-2 1,0 2,-1 4,-2 1,0 3,0 5,-1 1,0 3,0 5,0 3,0 6,0 8,1 3,1 5,2 6,3 1,2 2,3 3,6 1,2 1,4 1,7l0 31zm-8 -21l-8 0c-2,0 -4,0 -6,1 -1,0 -3,1 -4,1 -1,1 -2,2 -2,3 -1,1 -1,3 -1,4 0,2 1,4 2,6 2,1 4,2 7,2 2,0 4,-1 6,-2 2,-1 4,-3 6,-5l0 -10zm98 -2c0,4 -1,8 -2,11 -1,3 -3,6 -5,8 -2,2 -5,4 -8,5 -3,1 -7,1 -11,1 -3,0 -6,0 -9,-1 -4,-1 -6,-3 -8,-5 -2,-2 -4,-5 -5,-8 -1,-3 -2,-6 -2,-10l0 -41c0,-1 0,-1 0,-1 0,0 1,-1 1,-1 0,0 1,0 1,0 1,0 2,0 3,0 0,0 1,0 2,0 0,0 1,0 1,0 0,0 1,1 1,1 0,0 0,0 0,1l0 40c0,3 0,5 1,8 1,2 2,4 3,5 2,2 3,3 5,4 2,0 5,1 7,1 3,0 5,-1 7,-1 2,-1 3,-2 5,-4 1,-1 2,-3 3,-5 1,-2 1,-5 1,-8l0 -40c0,-1 0,-1 0,-1 0,0 1,-1 1,-1 0,0 1,0 1,0 1,0 2,0 3,0 0,0 1,0 2,0 0,0 1,0 1,0 0,0 1,1 1,1 0,0 0,0 0,1l0 40zm56 23c0,0 0,1 0,1 0,0 -1,0 -1,0 0,0 -1,1 -1,1 -1,0 -1,0 -2,0 -1,0 -2,0 -2,0 -1,0 -1,-1 -2,-1 0,0 0,0 0,0 0,0 0,-1 0,-1l0 -27c0,-2 -1,-5 -1,-6 0,-2 -1,-3 -2,-4 -1,-1 -2,-2 -3,-3 -1,-1 -3,-1 -4,-1 -2,0 -4,1 -6,2 -3,2 -5,4 -7,7l0 32c0,0 0,1 0,1 0,0 -1,0 -1,0 0,0 -1,1 -1,1 -1,0 -1,0 -2,0 -1,0 -2,0 -2,0 -1,0 -1,-1 -2,-1 0,0 0,0 0,0 -1,0 -1,-1 -1,-1l0 -46c0,0 0,0 1,-1 0,0 0,0 0,0 1,0 1,0 1,0 1,0 2,-1 2,-1 1,0 2,1 2,1 1,0 1,0 1,0 1,0 1,0 1,0 0,1 0,1 0,1l0 6c3,-3 5,-5 8,-6 2,-2 5,-2 8,-2 3,0 5,0 7,1 2,1 4,3 5,4 2,2 3,4 3,7 1,2 1,5 1,8l0 28zm55 0c0,0 0,1 0,1 0,0 -1,0 -1,0 0,0 -1,1 -1,1 -1,0 -1,0 -2,0 -1,0 -1,0 -2,0 0,0 0,-1 -1,-1 0,0 0,0 0,0 -1,0 -1,-1 -1,-1l0 -6c-2,3 -5,5 -7,6 -3,2 -6,2 -9,2 -3,0 -6,0 -8,-2 -3,-1 -5,-3 -6,-5 -2,-2 -3,-5 -3,-8 -1,-3 -1,-6 -1,-9 0,-4 0,-8 1,-11 1,-3 2,-6 4,-8 1,-2 3,-4 6,-5 2,-2 5,-2 8,-2 3,0 6,0 8,2 2,1 4,2 6,5l0 -27c0,0 0,0 1,-1 0,0 0,0 0,0 1,0 1,0 2,0 0,-1 1,-1 2,-1 0,0 1,0 2,1 0,0 1,0 1,0 0,0 0,0 1,0 0,1 0,1 0,1l0 68zm-9 -32c-2,-3 -4,-5 -6,-7 -2,-1 -5,-2 -7,-2 -2,0 -4,1 -5,2 -2,1 -3,2 -4,4 -1,1 -2,3 -2,5 0,2 -1,5 -1,7 0,2 1,4 1,7 0,2 1,4 2,5 1,2 2,4 3,5 2,1 4,1 6,1 1,0 2,0 3,0 1,-1 2,-1 3,-2 1,-1 2,-1 4,-3 1,-1 2,-2 3,-4l0 -18zm64 7c0,1 -1,2 -1,3 -1,1 -2,1 -3,1l-30 0c0,2 0,5 1,7 0,2 1,4 2,5 2,1 3,3 5,3 2,1 4,2 7,2 2,0 4,-1 6,-1 2,0 3,-1 4,-1 2,-1 3,-1 3,-1 1,-1 2,-1 2,-1 1,0 1,0 1,0 0,0 0,1 0,1 0,0 1,0 1,1 0,0 0,1 0,1 0,1 0,1 0,2 0,0 0,0 -1,0 0,1 0,1 0,1 0,0 0,0 0,1 0,0 -1,0 -2,1 -1,0 -2,0 -3,1 -2,0 -4,1 -6,1 -1,0 -4,0 -6,0 -3,0 -7,0 -10,-1 -2,-1 -5,-3 -7,-5 -2,-2 -3,-5 -4,-8 -1,-3 -2,-7 -2,-11 0,-4 1,-7 2,-10 1,-4 2,-6 4,-8 2,-3 5,-4 7,-5 3,-2 6,-2 9,-2 4,0 7,0 10,2 2,1 4,2 6,4 2,2 3,4 3,7 1,3 2,6 2,9l0 1zm-9 -2c0,-5 -1,-8 -3,-11 -2,-2 -5,-4 -9,-4 -2,0 -4,1 -5,2 -2,0 -3,1 -4,3 -1,1 -2,2 -3,4 0,2 -1,4 -1,6l25 0zm49 -16c0,1 -1,1 -1,2 0,0 0,1 0,1 0,0 0,1 0,1 0,0 0,0 -1,0 0,0 0,0 -1,0 0,0 -1,0 -1,-1 -1,0 -1,0 -2,0 0,0 -1,0 -2,0 -1,0 -1,0 -2,0 -1,1 -2,1 -3,2 -1,1 -2,2 -3,3 -1,1 -2,3 -3,5l0 30c0,0 0,1 0,1 0,0 0,0 -1,0 0,0 -1,1 -1,1 -1,0 -1,0 -2,0 -1,0 -2,0 -2,0 -1,0 -1,-1 -2,-1 0,0 0,0 0,0 0,0 0,-1 0,-1l0 -46c0,0 0,0 0,-1 0,0 0,0 0,0 1,0 1,0 2,0 0,0 1,-1 1,-1 1,0 2,1 2,1 1,0 1,0 1,0 1,0 1,0 1,0 0,1 0,1 0,1l0 7c2,-2 3,-4 4,-5 1,-1 2,-2 3,-2 1,-1 2,-2 3,-2 1,0 2,0 3,0 0,0 1,0 1,0 1,0 1,0 2,0 1,0 1,0 2,1 0,0 1,0 1,0 0,0 0,0 0,1 0,0 0,0 0,0 0,0 0,1 0,1 1,1 1,1 1,2zm33 40c0,1 0,2 0,2 0,1 -1,1 -1,1 0,1 -1,1 -1,1 -1,0 -1,1 -2,1 -1,0 -1,0 -2,0 -1,0 -2,0 -2,0 -3,0 -5,0 -7,-1 -1,0 -3,-1 -4,-3 -1,-1 -2,-2 -2,-4 -1,-2 -1,-5 -1,-7l0 -27 -6 0c-1,0 -1,0 -2,-1 0,-1 0,-1 0,-3 0,0 0,-1 0,-1 0,-1 0,-1 0,-1 1,-1 1,-1 1,-1 0,0 0,0 1,0l6 0 0 -11c0,0 0,-1 0,-1 0,0 1,0 1,0 0,0 1,-1 1,-1 1,0 1,0 2,0 1,0 2,0 2,0 1,0 1,1 2,1 0,0 0,0 0,0 0,0 1,1 1,1l0 11 11 0c1,0 1,0 1,0 0,0 0,0 1,1 0,0 0,0 0,1 0,0 0,1 0,1 0,2 0,2 0,3 -1,1 -1,1 -2,1l-11 0 0 25c0,4 0,6 1,8 1,1 3,2 5,2 1,0 1,0 2,0 1,0 1,-1 2,-1 0,0 1,0 1,0 0,0 1,0 1,0 0,0 0,0 0,0 0,0 1,0 1,0 0,0 0,1 0,1 0,1 0,1 0,2zm45 3c0,1 -1,1 -1,1 0,0 0,0 -1,1 0,0 -1,0 -2,0 -1,0 -2,0 -2,0 -1,-1 -1,-1 -1,-1 -1,0 -1,0 -1,-1l0 -4c-2,2 -4,3 -6,5 -3,1 -6,1 -8,1 -3,0 -5,0 -7,-1 -2,0 -3,-1 -5,-2 -1,-2 -2,-3 -3,-5 -1,-1 -1,-3 -1,-6 0,-2 0,-5 1,-6 1,-2 3,-4 5,-5 2,-1 4,-2 7,-3 3,-1 6,-1 10,-1l6 0 0 -4c0,-1 0,-3 0,-4 -1,-2 -1,-3 -2,-4 -1,-1 -2,-1 -3,-2 -2,0 -3,0 -5,0 -2,0 -4,0 -6,0 -2,1 -3,1 -4,2 -2,1 -3,1 -3,2 -1,0 -2,0 -2,0 -1,0 -1,0 -1,0 0,0 0,0 0,0 -1,-1 -1,-1 -1,-1 0,-1 0,-1 0,-2 0,-1 0,-1 0,-2 0,0 1,-1 1,-1 1,-1 1,-1 2,-2 2,0 3,-1 4,-2 2,0 3,0 5,-1 2,0 4,0 5,0 4,0 7,0 9,1 2,1 4,2 5,3 2,2 3,3 4,6 0,2 1,4 1,7l0 31zm-9 -21l-7 0c-2,0 -4,0 -6,1 -2,0 -3,1 -4,1 -1,1 -2,2 -3,3 0,1 -1,3 -1,4 0,2 1,4 3,6 1,1 3,2 6,2 2,0 4,-1 6,-2 2,-1 4,-3 6,-5l0 -10zm-1292 -35l-1 0 -11 33 23 0 -11 -33zm112 0c0,1 0,1 0,2 0,0 0,1 0,1 0,1 0,1 -1,1 0,0 0,0 0,0 -1,0 -1,0 -2,-1 -1,-1 -3,-1 -4,-2 -2,-1 -4,-2 -6,-2 -2,-1 -5,-1 -8,-1 -3,0 -7,0 -10,2 -3,1 -5,3 -7,5 -2,3 -4,5 -5,9 -1,3 -1,6 -1,10 0,5 0,8 2,12 1,3 2,6 4,8 2,2 5,4 8,5 3,1 6,2 9,2 2,0 4,-1 7,-1 2,-1 4,-1 5,-2l0 -20 -15 0c0,0 -1,0 -1,0 0,-1 -1,-2 -1,-3 0,-1 0,-1 0,-2 1,0 1,-1 1,-1 0,0 0,0 0,-1 1,0 1,0 1,0l21 0c1,0 1,0 1,0 1,1 1,1 1,1 1,0 1,1 1,1 0,1 0,1 0,2l0 25c0,1 0,2 0,2 -1,1 -1,2 -2,2 -1,1 -2,1 -4,2 -2,0 -3,1 -5,1 -2,1 -3,1 -5,1 -2,0 -3,0 -5,0 -5,0 -10,0 -14,-2 -4,-2 -7,-4 -10,-7 -3,-3 -5,-6 -6,-10 -2,-4 -2,-9 -2,-14 0,-5 0,-10 2,-14 1,-5 4,-8 7,-11 2,-3 6,-6 10,-7 4,-2 8,-3 13,-3 3,0 5,1 8,1 2,0 4,1 5,2 2,0 4,1 5,1 1,1 2,2 2,2 1,1 1,1 1,2 0,0 0,1 0,2zm59 33c0,3 -1,7 -2,10 -1,3 -2,6 -4,8 -2,2 -5,4 -8,5 -3,2 -6,2 -10,2 -4,0 -7,0 -10,-1 -3,-1 -5,-3 -7,-5 -2,-2 -3,-5 -4,-8 -1,-3 -1,-7 -1,-10 0,-4 0,-8 1,-11 1,-3 2,-6 4,-8 2,-2 5,-4 8,-5 3,-2 6,-2 10,-2 4,0 7,0 10,1 3,2 5,3 7,5 2,3 3,5 4,8 1,3 2,7 2,11zm-9 0c0,-2 0,-5 -1,-7 0,-2 -1,-4 -2,-6 -1,-1 -3,-3 -5,-4 -1,-1 -4,-1 -6,-1 -3,0 -5,0 -7,1 -2,1 -3,2 -4,4 -1,2 -2,3 -3,6 0,2 -1,4 -1,7 0,2 1,5 1,7 1,2 1,4 2,6 1,1 3,3 5,4 2,1 4,1 7,1 2,0 4,0 6,-1 2,-1 3,-2 4,-4 2,-1 2,-3 3,-6 0,-2 1,-4 1,-7zm58 -23c0,0 0,0 0,0 0,1 0,1 0,1 0,0 0,0 0,0 0,1 0,1 0,1l-16 44c0,0 0,1 0,1 -1,0 -1,0 -1,0 -1,1 -1,1 -2,1 -1,0 -2,0 -3,0 -1,0 -1,0 -2,0 -1,0 -1,-1 -2,-1 0,0 -1,0 -1,0 0,0 0,-1 0,-1l-16 -44c0,0 0,-1 0,-1 0,0 0,0 0,-1 0,0 0,0 0,0 0,0 0,-1 0,-1 0,0 0,0 0,0 1,0 1,0 2,0 0,0 1,-1 2,-1 1,0 1,1 2,1 1,0 1,0 1,0 1,0 1,0 1,0 0,1 0,1 1,1l13 38 0 1 0 -1 13 -38c0,0 0,0 0,-1 0,0 1,0 1,0 0,0 1,0 1,0 1,0 1,-1 2,-1 1,0 2,1 2,1 1,0 1,0 2,0 0,0 0,0 0,0 0,0 0,1 0,1zm48 21c0,1 0,2 -1,3 -1,1 -1,1 -2,1l-30 0c0,2 0,5 0,7 1,2 2,4 3,5 1,1 3,3 5,3 1,1 4,2 7,2 2,0 4,-1 5,-1 2,0 4,-1 5,-1 1,-1 2,-1 3,-1 1,-1 1,-1 2,-1 0,0 0,0 0,0 1,0 1,1 1,1 0,0 0,0 0,1 0,0 0,1 0,1 0,1 0,1 0,2 0,0 0,0 0,0 0,1 0,1 0,1 0,0 -1,0 -1,1 0,0 -1,0 -1,1 -1,0 -3,0 -4,1 -2,0 -3,1 -5,1 -2,0 -4,0 -6,0 -4,0 -7,0 -10,-1 -3,-1 -5,-3 -7,-5 -2,-2 -4,-5 -5,-8 -1,-3 -1,-7 -1,-11 0,-4 0,-7 1,-10 1,-4 3,-6 5,-8 2,-3 4,-4 7,-5 2,-2 5,-2 9,-2 3,0 7,0 9,2 3,1 5,2 6,4 2,2 3,4 4,7 1,3 1,6 1,9l0 1zm-8 -2c0,-5 -1,-8 -3,-11 -2,-2 -6,-4 -10,-4 -2,0 -4,1 -5,2 -2,0 -3,1 -4,3 -1,1 -2,2 -2,4 -1,2 -1,4 -1,6l25 0zm48 -16c0,1 0,1 0,2 0,0 0,1 0,1 0,0 -1,1 -1,1 0,0 0,0 0,0 -1,0 -1,0 -1,0 -1,0 -1,0 -2,-1 0,0 -1,0 -1,0 -1,0 -2,0 -2,0 -1,0 -2,0 -3,0 -1,1 -2,1 -2,2 -1,1 -2,2 -3,3 -1,1 -2,3 -4,5l0 30c0,0 0,1 0,1 0,0 0,0 0,0 -1,0 -1,1 -2,1 0,0 -1,0 -2,0 -1,0 -1,0 -2,0 0,0 -1,-1 -1,-1 0,0 -1,0 -1,0 0,0 0,-1 0,-1l0 -46c0,0 0,0 0,-1 0,0 0,0 1,0 0,0 0,0 1,0 0,0 1,-1 2,-1 1,0 1,1 2,1 0,0 1,0 1,0 0,0 0,0 0,0 1,1 1,1 1,1l0 7c1,-2 2,-4 3,-5 1,-1 2,-2 3,-2 1,-1 2,-2 3,-2 1,0 2,0 3,0 1,0 1,0 2,0 0,0 1,0 1,0 1,0 2,0 2,1 1,0 1,0 1,0 0,0 1,0 1,1 0,0 0,0 0,0 0,0 0,1 0,1 0,1 0,1 0,2zm49 43c0,0 0,1 0,1 0,0 0,0 -1,0 0,0 -1,1 -1,1 -1,0 -1,0 -2,0 -1,0 -2,0 -2,0 -1,0 -1,-1 -2,-1 0,0 0,0 0,0 0,0 0,-1 0,-1l0 -27c0,-2 -1,-5 -1,-6 0,-2 -1,-3 -2,-4 -1,-1 -2,-2 -3,-3 -1,-1 -2,-1 -4,-1 -2,0 -4,1 -6,2 -3,2 -5,4 -7,7l0 32c0,0 0,1 0,1 0,0 -1,0 -1,0 0,0 -1,1 -1,1 -1,0 -1,0 -2,0 -1,0 -2,0 -2,0 -1,0 -1,-1 -2,-1 0,0 0,0 0,0 0,0 0,-1 0,-1l0 -46c0,0 0,0 0,-1 0,0 0,0 0,0 1,0 1,0 1,0 1,0 2,-1 2,-1 1,0 2,1 2,1 1,0 1,0 1,0 1,0 1,0 1,0 0,1 0,1 0,1l0 6c3,-3 5,-5 8,-6 2,-2 5,-2 8,-2 3,0 5,0 7,1 2,1 4,3 5,4 2,2 3,4 3,7 1,2 1,5 1,8l0 28zm84 0c0,0 0,1 0,1 -1,0 -1,0 -1,0 0,0 -1,1 -1,1 -1,0 -2,0 -2,0 -1,0 -2,0 -2,0 -1,0 -1,-1 -2,-1 0,0 0,0 0,0 -1,0 -1,-1 -1,-1l0 -28c0,-2 0,-4 0,-5 -1,-2 -1,-3 -2,-4 -1,-1 -2,-2 -3,-3 -1,-1 -2,-1 -4,-1 -2,0 -4,1 -6,2 -2,2 -4,4 -6,7l0 32c0,0 0,1 0,1 0,0 -1,0 -1,0 0,0 -1,1 -1,1 -1,0 -1,0 -2,0 -1,0 -2,0 -2,0 -1,0 -1,-1 -2,-1 0,0 0,0 0,0 0,0 -1,-1 -1,-1l0 -28c0,-2 0,-4 0,-5 0,-2 -1,-3 -2,-4 -1,-1 -1,-2 -3,-3 -1,-1 -2,-1 -4,-1 -2,0 -4,1 -6,2 -2,2 -4,4 -6,7l0 32c0,0 0,1 0,1 0,0 -1,0 -1,0 0,0 -1,1 -1,1 -1,0 -1,0 -2,0 -1,0 -2,0 -2,0 -1,0 -1,-1 -2,-1 0,0 0,0 0,0 0,0 0,-1 0,-1l0 -46c0,0 0,0 0,-1 0,0 0,0 0,0 1,0 1,0 1,0 1,0 2,-1 2,-1 1,0 2,1 2,1 1,0 1,0 1,0 1,0 1,0 1,0 0,1 0,1 0,1l0 6c3,-3 5,-5 8,-6 2,-2 5,-2 7,-2 2,0 4,0 5,0 2,1 3,1 4,2 1,1 2,2 3,3 1,1 2,3 2,4 2,-2 3,-3 5,-4 1,-2 2,-2 4,-3 1,-1 2,-1 3,-2 2,0 3,0 4,0 3,0 5,0 7,1 2,1 4,3 5,4 2,2 2,4 3,7 1,2 1,4 1,7l0 29zm54 -25c0,1 0,2 -1,3 0,1 -1,1 -2,1l-30 0c0,2 0,5 1,7 0,2 1,4 2,5 1,1 3,3 5,3 2,1 4,2 7,2 2,0 4,-1 6,-1 1,0 3,-1 4,-1 1,-1 2,-1 3,-1 1,-1 2,-1 2,-1 0,0 0,0 1,0 0,0 0,1 0,1 0,0 0,0 0,1 0,0 0,1 0,1 0,1 0,1 0,2 0,0 0,0 0,0 0,1 0,1 0,1 0,0 0,0 -1,1 0,0 0,0 -1,1 -1,0 -2,0 -4,1 -1,0 -3,1 -5,1 -2,0 -4,0 -6,0 -4,0 -7,0 -10,-1 -3,-1 -5,-3 -7,-5 -2,-2 -3,-5 -4,-8 -1,-3 -2,-7 -2,-11 0,-4 1,-7 2,-10 1,-4 2,-6 4,-8 2,-3 4,-4 7,-5 3,-2 6,-2 9,-2 4,0 7,0 9,2 3,1 5,2 7,4 1,2 2,4 3,7 1,3 1,6 1,9l0 1zm-8 -2c0,-5 -1,-8 -3,-11 -2,-2 -5,-4 -9,-4 -2,0 -4,1 -6,2 -1,0 -3,1 -4,3 -1,1 -2,2 -2,4 -1,2 -1,4 -1,6l25 0zm61 27c0,0 0,1 0,1 0,0 -1,0 -1,0 0,0 -1,1 -1,1 -1,0 -2,0 -2,0 -1,0 -2,0 -2,0 -1,0 -1,-1 -2,-1 0,0 0,0 0,0 -1,0 -1,-1 -1,-1l0 -27c0,-2 0,-5 0,-6 -1,-2 -1,-3 -2,-4 -1,-1 -2,-2 -3,-3 -1,-1 -3,-1 -4,-1 -2,0 -5,1 -7,2 -2,2 -4,4 -6,7l0 32c0,0 0,1 0,1 -1,0 -1,0 -1,0 0,0 -1,1 -1,1 -1,0 -2,0 -2,0 -1,0 -2,0 -3,0 0,0 -1,-1 -1,-1 0,0 0,0 -1,0 0,0 0,-1 0,-1l0 -46c0,0 0,0 0,-1 1,0 1,0 1,0 0,0 1,0 1,0 1,0 1,-1 2,-1 1,0 2,1 2,1 1,0 1,0 1,0 0,0 1,0 1,0 0,1 0,1 0,1l0 6c3,-3 5,-5 8,-6 2,-2 5,-2 7,-2 4,0 6,0 8,1 2,1 4,3 5,4 2,2 2,4 3,7 1,2 1,5 1,8l0 28zm38 -3c0,1 0,2 0,2 0,1 0,1 -1,1 0,1 0,1 -1,1 0,0 -1,1 -2,1 0,0 -1,0 -2,0 -1,0 -1,0 -2,0 -3,0 -5,0 -6,-1 -2,0 -3,-1 -5,-3 -1,-1 -1,-2 -2,-4 0,-2 -1,-5 -1,-7l0 -27 -6 0c-1,0 -1,0 -1,-1 -1,-1 -1,-1 -1,-3 0,0 0,-1 0,-1 0,-1 0,-1 1,-1 0,-1 0,-1 0,-1 0,0 1,0 1,0l6 0 0 -11c0,0 0,-1 1,-1 0,0 0,0 0,0 1,0 1,-1 1,-1 1,0 2,0 3,0 0,0 1,0 2,0 0,0 1,1 1,1 0,0 0,0 1,0 0,0 0,1 0,1l0 11 12 0c0,0 0,0 0,0 0,0 1,0 1,1 0,0 0,0 0,1 0,0 0,1 0,1 0,2 0,2 0,3 -1,1 -1,1 -1,1l-12 0 0 25c0,4 0,6 1,8 1,1 3,2 5,2 1,0 2,0 2,0 1,0 1,-1 2,-1 0,0 1,0 1,0 0,0 1,0 1,0 0,0 0,0 1,0 0,0 0,0 0,0 0,0 0,1 0,1 0,1 0,1 0,2zm78 -20c0,3 -1,7 -2,10 -1,3 -2,6 -4,8 -2,2 -4,4 -7,5 -3,2 -7,2 -11,2 -3,0 -7,0 -10,-1 -2,-1 -5,-3 -7,-5 -1,-2 -3,-5 -4,-8 -1,-3 -1,-7 -1,-10 0,-4 0,-8 1,-11 1,-3 3,-6 5,-8 2,-2 4,-4 7,-5 3,-2 6,-2 10,-2 4,0 7,0 10,1 3,2 5,3 7,5 2,3 3,5 4,8 1,3 2,7 2,11zm-9 0c0,-2 0,-5 -1,-7 0,-2 -1,-4 -2,-6 -1,-1 -2,-3 -4,-4 -2,-1 -4,-1 -7,-1 -3,0 -5,0 -6,1 -2,1 -4,2 -5,4 -1,2 -2,3 -2,6 -1,2 -1,4 -1,7 0,2 0,5 0,7 1,2 2,4 3,6 1,1 2,3 4,4 2,1 4,1 7,1 2,0 4,0 6,-1 2,-1 3,-2 5,-4 1,-1 2,-3 2,-6 1,-2 1,-4 1,-7z"/>
      <path class="fil2" d="M2181 7210c0,-3 1,-6 4,-9 3,-2 6,-3 10,-3 4,0 7,1 10,4 3,2 4,5 4,9l0 26 25 0 0 -27 -19 0 0 -6 39 0 0 6 -12 0 0 64 -8 0 0 -30 -25 0 0 6c0,1 0,1 -1,2 0,0 -1,1 -2,1 -2,0 -5,-2 -8,-6 -4,-3 -6,-6 -6,-7 0,-1 0,-1 1,-2 1,-1 2,-1 3,-1l6 0 0 -26c0,-2 -1,-3 -2,-4 -1,-2 -3,-2 -5,-2 -2,0 -3,0 -5,1 -1,1 -2,3 -2,4 0,2 1,3 2,4 2,1 3,2 5,2l0 6c-4,0 -7,-1 -10,-4 -3,-2 -4,-4 -4,-8zm70 0l0 -6 33 0 0 6 -12 0 0 64 -8 0 0 -64 -13 0zm30 0l0 -6 53 0 0 6 -11 0 0 17c0,4 -1,7 -4,11 -3,3 -7,4 -11,4 -2,0 -4,0 -6,-1 6,11 15,20 26,29l-5 4c-16,-13 -29,-29 -38,-47l7 -3c1,3 3,6 6,8 3,2 6,3 10,3 2,0 4,-1 5,-3 2,-1 3,-3 3,-5l0 -17 -35 0zm50 0l0 -6 71 0 0 6 -13 0 0 64 -7 0 0 -43 -29 0c-3,0 -5,1 -6,2 -2,2 -3,4 -3,7 0,5 2,10 5,15 4,5 9,10 15,15l-5 4c-7,-5 -12,-11 -16,-17 -4,-6 -6,-12 -6,-17 0,-5 1,-8 5,-12 3,-3 6,-4 11,-4l29 0 0 -14 -51 0zm113 0l0 -6 83 0 0 6 -13 0 0 64 -7 0 0 -33 -20 0 -6 -7 26 0 0 -24 -26 0 0 19c0,4 -2,7 -4,10 -2,2 -5,4 -9,4 -1,0 -1,0 -2,0 -1,-1 -1,-1 -1,-1l22 30 -6 3 -33 -45 6 -4c1,3 3,5 5,7 2,2 5,3 7,3 2,0 4,-1 5,-2 2,-1 2,-3 2,-5l0 -19 -29 0zm80 0l0 -6 52 0 0 6 -10 0 0 17c0,4 -1,7 -4,11 -3,3 -7,4 -12,4 -1,0 -3,0 -6,-1 7,11 16,20 27,29l-5 4c-17,-13 -29,-29 -38,-47l7 -3c1,3 3,6 6,8 3,2 6,3 9,3 3,0 5,-1 6,-3 2,-1 3,-3 3,-5l0 -17 -35 0zm49 0l0 -6 89 0 0 6 -39 0 0 19c1,-2 4,-4 6,-6 3,-1 6,-2 10,-2 4,0 8,2 12,6 3,3 5,8 5,13 0,4 -1,9 -4,13 -2,5 -6,9 -10,12l-7 -4c4,-3 7,-6 10,-10 2,-3 3,-7 3,-11 0,-3 -1,-6 -3,-9 -2,-2 -4,-3 -6,-3 -4,0 -7,1 -10,4 -3,2 -5,5 -6,9l0 33 -8 0 0 -21c-2,2 -4,4 -7,5 -2,1 -5,2 -8,2 -6,0 -10,-2 -14,-6 -5,-4 -7,-8 -7,-14 0,-5 2,-10 6,-13 4,-4 9,-6 15,-6 3,0 6,1 9,2l-2 6c-2,-1 -4,-1 -7,-1 -3,0 -7,1 -10,4 -2,2 -3,5 -3,8 0,4 1,7 4,9 2,2 5,4 9,4 3,0 6,-1 9,-3 2,-2 5,-4 6,-7l0 -33 -42 0zm86 0l0 -6 33 0 0 6 -12 0 0 64 -8 0 0 -64 -13 0zm30 0l0 -6 53 0 0 6 -11 0 0 17c0,4 -1,7 -4,11 -3,3 -7,4 -11,4 -2,0 -4,0 -6,-1 6,11 15,20 26,29l-5 4c-16,-13 -29,-29 -38,-47l7 -3c1,3 3,6 6,8 3,2 6,3 10,3 2,0 4,-1 5,-3 2,-1 3,-3 3,-5l0 -17 -35 0zm50 0l0 -6 74 0 0 6 -12 0 0 64 -8 0 0 -21c-2,3 -5,5 -8,7 -3,1 -7,2 -10,2 -5,0 -10,-2 -14,-5 -4,-3 -6,-7 -6,-12 0,-4 1,-7 2,-9 2,-3 4,-5 6,-7l-22 0 0 -7 45 0 0 7 -11 0c-4,2 -7,4 -9,7 -2,3 -4,6 -4,9 0,3 2,5 4,7 3,2 6,3 9,3 3,0 7,-1 10,-3 3,-3 6,-6 8,-9l0 -33 -54 0zm71 0l0 -6 33 0 0 6 -12 0 0 64 -8 0 0 -64 -13 0zm76 0l0 -6 57 0 0 6 -9 0 0 21c0,4 -1,7 -2,10 -2,3 -4,4 -7,5l-4 -5c2,0 3,-1 4,-3 1,-2 2,-5 2,-7l0 -21 -26 0 0 27c0,2 1,3 1,5 1,2 2,3 3,4l26 24c2,1 3,2 4,4 1,1 2,3 2,4 0,2 -1,4 -3,6 -1,2 -3,3 -6,4l-6 -5c2,0 4,-1 5,-2 1,-1 2,-2 2,-3 0,-1 0,-1 -1,-2 0,-1 -1,-2 -2,-3l-28 -24c-1,-1 -2,-3 -3,-5 -1,-2 -1,-4 -1,-7l0 -27 -8 0zm54 0l0 -6 89 0 0 6 -39 0 0 19c1,-2 3,-4 6,-6 3,-1 6,-2 9,-2 5,0 9,2 13,6 3,3 5,8 5,13 0,4 -2,9 -4,13 -3,5 -6,9 -11,12l-6 -4c4,-3 7,-6 9,-10 3,-3 4,-7 4,-11 0,-3 -1,-6 -3,-9 -2,-2 -4,-3 -7,-3 -3,0 -7,1 -10,4 -3,2 -4,5 -5,9l0 33 -8 0 0 -21c-2,2 -4,4 -7,5 -2,1 -5,2 -8,2 -6,0 -11,-2 -15,-6 -4,-4 -6,-8 -6,-14 0,-5 2,-10 6,-13 4,-4 9,-6 15,-6 3,0 6,1 9,2l-2 6c-2,-1 -4,-1 -7,-1 -4,0 -7,1 -10,4 -2,2 -4,5 -4,8 0,4 2,7 5,9 2,2 5,4 9,4 3,0 6,-1 8,-3 3,-2 5,-4 7,-7l0 -33 -42 0zm131 0l0 -6 74 0 0 6 -16 0c3,4 5,7 5,12 0,2 -1,5 -2,8 -2,2 -3,4 -6,5 3,1 6,3 8,6 2,4 3,7 3,12 0,5 -2,10 -6,13 -4,4 -9,6 -15,6 -7,0 -15,-3 -22,-11 -7,-8 -14,-19 -19,-32l6 -3c5,12 11,22 17,29 6,7 12,10 18,10 4,0 7,-1 9,-3 3,-3 4,-6 4,-9 0,-4 -1,-7 -3,-10 -3,-3 -5,-4 -9,-4l-15 0 0 -8 14 0c3,0 5,0 7,-2 2,-2 3,-5 3,-7 0,-2 0,-4 -1,-6 -2,-2 -3,-4 -6,-6l-48 0zm71 0l0 -6 84 0 0 6 -13 0 0 64 -7 0 0 -19c-5,5 -9,8 -15,10 -5,3 -10,4 -15,4 -6,0 -11,-2 -15,-5 -4,-3 -6,-7 -6,-11 0,-2 0,-4 1,-6 1,-2 2,-3 3,-4 -3,-1 -6,-2 -8,-4 -2,-3 -3,-5 -3,-8 0,-3 1,-6 4,-9 3,-2 7,-3 11,-3l15 0 0 -9 -36 0zm34 52c5,0 10,-2 15,-4 6,-3 10,-7 15,-12l0 -36 -20 0 0 16 -23 0c-2,0 -4,0 -5,2 -2,1 -3,2 -3,3 0,2 1,3 3,4 2,1 4,2 7,3 1,-1 2,-1 4,-1 1,0 2,-1 4,-1l7 0 4 7 -11 0c-3,0 -5,1 -7,3 -2,2 -4,4 -4,7 0,2 2,4 4,6 3,2 6,3 10,3zm47 -52l0 -6 68 0 0 6 -12 0 0 64 -8 0 0 -30 -27 0 0 6c0,1 0,2 -1,2 0,1 -1,1 -2,1 -1,0 -4,-1 -8,-5 -4,-4 -6,-6 -6,-7 0,-1 0,-2 1,-3 1,-1 2,-1 3,-1l6 0 0 -27 -14 0zm21 27l27 0 0 -27 -27 0 0 27z"/>
     </g>
     <path class="fil2" d="M3768 6360c0,11 -2,21 -6,29 -4,9 -9,16 -17,20 -7,5 -16,8 -26,8 -9,0 -18,-4 -27,-11l0 59 -14 0 0 -158 9 0 3 9c4,-4 9,-7 14,-9 5,-2 10,-3 15,-3 16,0 28,5 36,15 9,11 13,24 13,41zm-14 1c0,-14 -3,-25 -8,-33 -6,-8 -15,-12 -26,-12 -6,0 -11,1 -16,3 -4,2 -9,5 -12,9l0 66c3,3 8,6 12,8 4,2 9,3 15,3 12,0 20,-4 26,-12 6,-9 9,-19 9,-32zm88 -43c-6,0 -13,2 -20,6 -8,4 -14,9 -18,14l0 76 -14 0 0 -107 9 0 4 17c5,-4 11,-8 18,-12 6,-3 12,-5 17,-5l4 11zm58 -14c16,0 27,5 34,16 8,10 11,24 11,41l-79 0c0,14 3,25 10,33 6,8 16,12 30,12 5,0 11,-1 16,-3 6,-1 11,-4 17,-7l5 11c-7,3 -13,5 -18,7 -6,2 -12,3 -20,3 -18,0 -31,-5 -40,-16 -9,-10 -14,-24 -14,-41 0,-17 4,-30 13,-41 8,-10 20,-15 35,-15zm0 12c-10,0 -18,3 -24,9 -5,7 -9,16 -10,27l65 0c-2,-24 -13,-36 -31,-36zm95 101c-5,0 -11,-1 -17,-3 -7,-1 -12,-3 -16,-6l4 -10c11,5 20,8 30,8 9,0 16,-2 21,-5 5,-3 8,-8 8,-13 0,-9 -10,-17 -29,-23 -11,-4 -19,-8 -25,-13 -7,-5 -10,-11 -10,-18 0,-10 4,-17 11,-22 7,-5 16,-8 28,-8 5,0 11,1 18,3 6,1 11,3 14,6l-4 10c-5,-3 -9,-5 -13,-6 -4,-1 -9,-2 -15,-2 -8,0 -14,2 -19,5 -4,3 -7,8 -7,13 0,4 3,8 7,11 5,3 12,6 21,9 24,9 36,20 36,33 0,10 -4,17 -11,23 -8,5 -18,8 -32,8zm106 -113c16,0 27,5 34,16 8,10 11,24 11,41l-79 0c0,14 3,25 10,33 6,8 16,12 30,12 5,0 11,-1 16,-3 6,-1 11,-4 17,-7l5 11c-7,3 -13,5 -18,7 -6,2 -12,3 -20,3 -18,0 -31,-5 -40,-16 -9,-10 -14,-24 -14,-41 0,-17 4,-30 13,-41 8,-10 20,-15 35,-15zm0 12c-10,0 -18,3 -24,9 -5,7 -9,16 -10,27l65 0c-2,-24 -13,-36 -31,-36zm119 0c-6,0 -12,2 -20,6 -7,4 -13,9 -18,16l0 76 -14 0 0 -107 12 0 2 16c4,-5 10,-10 18,-13 8,-4 15,-6 21,-6 11,0 20,3 25,10 6,6 8,15 8,26l0 74 -13 0 0 -72c0,-17 -7,-26 -21,-26zm81 -7l20 0 4 10 -24 0 0 68c0,5 1,10 4,13 2,3 6,5 11,5 3,0 6,-1 9,-2l3 11c-1,0 -2,1 -5,1 -2,1 -5,2 -10,2 -8,0 -14,-3 -19,-8 -4,-5 -7,-12 -7,-21l0 -69 -15 0 -1 -10 16 0 0 -28 14 -5 0 33zm89 -5c15,0 26,5 33,16 8,10 11,24 11,41l-79 0c0,14 3,25 10,33 6,8 16,12 30,12 6,0 11,-1 16,-3 6,-1 11,-4 17,-7l5 11c-7,3 -12,5 -18,7 -5,2 -12,3 -20,3 -18,0 -31,-5 -40,-16 -9,-10 -14,-24 -14,-41 0,-17 5,-30 13,-41 8,-10 20,-15 36,-15zm-1 12c-10,0 -18,3 -24,9 -5,7 -9,16 -10,27l65 0c-2,-24 -12,-36 -31,-36zm150 98l-9 0 -2 -9c-4,4 -9,7 -14,9 -5,2 -10,3 -16,3 -15,0 -27,-5 -35,-16 -9,-10 -13,-24 -13,-41 0,-10 2,-20 6,-29 4,-8 9,-15 17,-20 7,-5 16,-7 26,-7 9,0 18,3 26,10l0 -54 14 -2 0 156zm-14 -20l0 -68c-3,-3 -7,-6 -11,-8 -5,-2 -10,-2 -15,-2 -12,0 -20,4 -26,12 -6,8 -9,19 -9,32 0,14 3,25 8,33 6,8 15,12 26,12 11,0 20,-4 27,-11zm189 -34c0,11 -2,21 -6,29 -3,9 -9,16 -17,20 -7,5 -16,8 -26,8 -10,0 -19,-4 -29,-12l-3 9 -9 0 0 -154 14 -2 0 56c8,-7 18,-10 28,-10 15,0 27,5 36,15 8,11 12,24 12,41zm-13 1c0,-14 -3,-25 -9,-33 -6,-8 -14,-12 -26,-12 -6,0 -11,1 -16,3 -4,2 -8,5 -12,9l0 66c4,3 8,6 12,8 4,2 10,3 16,3 11,0 19,-4 25,-12 6,-9 9,-19 10,-32zm116 -54l-39 107 -1 0 0 51 -14 0 0 -51 -39 -104 12 -6 34 92 33 -89 14 0z"/>
     <g id="_2155334432816">
      <path class="fil3" d="M5877 4222c3,4 1,6 3,11 2,-1 9,-9 11,-13 2,-2 3,-2 7,-2 2,3 3,6 7,7 3,-4 2,-7 7,-10 7,-1 7,6 12,9 4,-4 4,-15 11,-16 10,2 2,47 6,69 3,13 7,13 5,20 -6,4 -23,-3 -21,-22 1,-14 5,-28 6,-41 -4,2 -3,6 -10,5 -4,-2 -4,-6 -8,-7 -1,2 -1,2 -2,4 -1,2 -3,3 -4,4 -8,0 -5,-4 -11,-6 -4,1 -6,7 -11,9 -7,4 -11,-1 -14,-3 -20,18 -22,8 -26,9 -4,3 -7,5 -12,0 -3,-3 -6,-8 -9,-9 -4,4 -1,13 -9,16 -7,-2 -4,-13 -9,-15 -6,8 1,22 -12,20 -3,-3 -3,-6 -3,-12 0,-6 -1,-11 -5,-12 0,9 2,14 -3,22 -3,4 -11,12 -18,9 -13,-6 -19,-49 -10,-64 3,-6 11,-10 19,-6 6,3 9,10 10,17 2,13 4,4 12,15 4,-3 2,-9 10,-10 6,2 5,6 9,8 4,-2 3,-5 6,-7 10,-9 11,16 19,18 4,-4 5,-22 14,-31 12,-11 30,-1 27,9 -1,2 -4,4 -8,3 -2,0 -11,-11 -18,9 -4,12 5,8 9,4 3,-5 5,-11 13,-11zm20 -31c8,-3 14,2 16,6 11,21 -28,22 -21,0 1,-4 2,-5 5,-6zm46 28c0,-12 7,-20 14,-25 15,-13 27,0 18,7 -3,2 -10,3 -14,6 -10,7 -9,17 -3,16 2,-1 4,-3 5,-5 2,-5 4,-10 8,-11 9,-2 6,8 9,11 4,5 9,-1 11,-4 2,-5 4,-9 8,-12 4,-4 11,-3 13,2 4,10 -10,21 -15,24 -21,17 -22,1 -26,2 -5,3 -10,10 -20,7 -6,-1 -8,-10 -8,-18zm-224 -28c-1,-1 0,1 -1,-2 -1,-3 0,-7 1,-9 2,-3 4,-6 3,-10 -5,-1 -7,2 -11,8 -25,32 17,33 34,55 25,33 -17,63 -55,52 -12,-4 -21,-10 -13,-23 3,-3 8,-7 13,-8 7,0 12,6 8,11 -4,6 2,7 10,7 15,-1 42,-11 26,-27 -7,-6 -14,-12 -23,-18 -11,-5 -18,-8 -22,-20 -7,-22 13,-49 27,-54 14,-6 25,-1 22,16 -1,8 -10,27 -19,22zm-76 147l400 0 0 -227 -400 0 0 227z"/>
      <path class="fil3" d="M5755 4361c4,0 11,0 15,0 5,0 7,3 7,8 0,9 -13,7 -22,6l0 -14zm-6 37l6 1 0 -18c25,-2 21,1 22,17l8 1c-6,-10 0,-15 -5,-20l-2 -1c8,-8 6,-17 -1,-20 -5,-3 -21,-2 -28,-2l0 42z"/>
      <path class="fil3" d="M5915 4385l-6 0c2,20 27,16 32,9 5,-7 1,-15 -4,-17 -7,-4 -14,-2 -20,-7 -2,-14 14,-10 17,-8 2,3 2,4 3,7l5 0c0,-11 -11,-17 -22,-13 -10,3 -14,16 -3,21 6,3 26,3 20,14 -3,5 -22,7 -22,-6z"/>
      <path class="fil3" d="M5822 4356c0,8 -1,22 0,31 2,18 32,17 33,-1 1,-9 1,-21 0,-30l-5 0c-1,8 0,17 0,25 0,9 -3,14 -11,14 -15,0 -11,-19 -11,-39l-6 0z"/>
      <polygon class="fil3" points="5662,4361 5677,4361 5677,4399 5683,4398 5683,4361 5697,4361 5697,4356 5662,4356 "/>
      <path class="fil3" d="M5760 4230c0,32 16,27 18,14 1,-10 -8,-7 -12,-14 -5,-11 5,-17 5,-19 -10,-5 -11,12 -11,19z"/>
      <polygon class="fil3" points="5990,4361 6005,4361 6005,4399 6010,4399 6010,4361 6025,4361 6025,4356 5990,4356 "/>
      <path class="fil3" d="M5904 4203c-1,-2 -3,-2 -4,0 2,1 3,1 4,0z"/>
      <path class="fil3" d="M5774 4225c0,0 1,-1 1,-1 0,0 1,0 1,0l-1 -1c0,0 0,0 0,-1 -2,2 -1,0 -1,3z"/>
     </g>
     <g id="_2155153123280">
      <path class="fil3" d="M6451 4200c0,10 -6,19 -12,26l-6 8c-6,10 -4,23 3,32 3,4 9,10 14,11 0,17 -29,37 -49,37 -17,0 -28,-2 -40,-13 -10,-11 -14,-25 -18,-30 0,18 4,27 11,40 3,6 7,10 10,16 11,14 28,25 44,33 22,12 51,14 76,7 6,-2 13,-4 18,-7 9,-4 9,-4 17,-10l14 -11c3,-3 5,-5 7,-7l9 -11c8,-11 14,-28 16,-42 1,-1 1,-5 1,-6 0,-3 1,-2 1,-6 -3,2 -2,6 -3,10 -2,10 -8,16 -15,22 -3,3 -10,8 -14,10 -12,5 -15,5 -28,5 -10,0 -24,-6 -32,-12 -9,-7 -15,-15 -18,-26 4,-5 4,-4 8,-8 9,-10 16,-16 16,-32 0,-13 -4,-25 -10,-33 -5,-7 -12,-13 -19,-18 -1,-1 -1,-2 -3,-2 0,8 2,14 2,17z"/>
      <path class="fil3" d="M6493 4166l-1 1 1 -1zm0 0c0,-3 1,-4 1,-7l5 0c2,6 13,5 18,13 -2,2 -3,2 -4,5l-6 0c0,-1 0,-2 -1,-3 4,0 5,0 7,0 0,-6 0,-4 -7,-4 -1,2 -3,2 -2,6 0,3 2,4 5,5 -1,3 -2,3 -2,4 -1,1 -1,0 0,2 0,2 0,2 0,3 5,-1 9,-12 15,-16l6 6c2,2 3,3 6,5 1,-1 2,-2 3,-4 -3,-1 -7,-5 -10,-7 -1,-1 -2,-2 -4,-3l-11 -9c-3,-2 -3,0 -4,-1 0,0 0,-1 -1,-1l-5 -3c-2,0 -1,-1 -3,1 0,-5 -1,-2 -2,-7 -2,-8 -1,-15 -10,-17 0,6 3,6 4,11 -3,-2 -3,-4 -8,-4 0,4 1,5 4,7 3,1 4,1 6,4 -3,1 0,1 -3,0 -5,-2 -5,-2 -11,-2 0,1 0,2 0,4l11 3c-1,6 -2,7 -4,7l-1 1c-2,0 -4,-1 -4,-3 5,-2 6,2 6,-5 -3,0 -9,0 -9,6 -1,4 3,6 7,6 0,3 0,3 0,7l2 2c3,-2 3,-6 5,-10 0,0 0,1 4,1l0 4c-2,0 -1,1 -4,1 0,13 17,-7 2,-10l-1 2z"/>
      <path class="fil3" d="M6354 4208l0 1c2,1 2,1 3,1 1,0 2,-1 2,-1 7,0 15,14 20,5l-12 -7c-2,-1 -2,-1 -5,-2 0,-2 1,-3 2,-5 4,1 10,7 15,10 2,0 3,-1 5,-2 -2,-2 -14,-10 -16,-12 1,-5 1,-3 4,-7 4,-4 2,-3 7,-6l2 2c-4,6 -7,6 -7,12l10 0c-1,-4 0,0 -3,-5l4 -3c5,3 3,6 11,6 -1,-3 -4,-6 -6,-8l-2 -2c-2,-3 -4,-3 -5,-6 1,-2 1,-2 4,-3 3,2 8,10 10,12 2,2 3,1 6,1 -1,-3 -11,-16 -12,-16 2,-3 2,-2 0,-6 -7,4 -4,3 -8,5 -2,1 -2,2 -3,3l-7 6c-2,2 -2,2 -3,3 0,1 -1,2 -2,3l-2 3c0,1 -1,1 -1,1 -1,1 0,1 -1,1 -1,1 -1,2 -2,4 -2,2 -8,10 -8,12z"/>
      <path class="fil3" d="M6543 4195c-1,2 0,2 -1,4 0,0 -2,1 -2,1l-2 2c-3,-1 0,0 -3,-2 -2,-1 -3,-1 -4,-3 6,0 6,0 9,-4 1,1 1,1 3,2zm0 0l0 0zm5 25l1 0c-1,-2 -2,-5 -2,-6l4 -2 3 2c1,0 2,0 3,-1 -3,-6 -3,-8 -9,-16 -3,-4 -5,-9 -8,-11 -1,-2 -2,-2 -4,-1 -1,3 1,2 1,6 -4,2 -4,0 -6,-3 -3,-3 -3,0 -5,-4 0,-1 0,-1 -1,-2 -7,0 -9,4 -9,10 0,3 0,4 2,5 1,-9 2,-11 6,-11 0,4 -1,3 -2,5 0,2 0,1 1,3 4,-1 1,-3 6,-3 0,6 -5,8 3,13 1,1 0,0 1,1 -4,1 -5,3 -5,8 3,-1 13,-8 18,-11 1,2 2,4 3,5 -4,1 -2,3 -8,1 -2,3 -3,4 -3,9 9,0 3,3 7,4 1,0 1,-1 3,-1z"/>
      <path class="fil3" d="M6443 4148l0 3c2,0 1,0 4,0 4,0 4,-1 9,0l0 4c-1,-1 0,-1 -3,-1 -3,0 -6,0 -7,2 -3,3 -1,7 1,10 1,3 2,4 6,4 -3,-5 -4,-3 -4,-10l7 -1c0,3 0,4 0,7 0,3 1,2 1,5 -2,1 -2,1 -4,2 1,2 1,2 1,3 4,0 2,-1 6,-1 0,7 -6,3 -8,0 -2,-2 -3,-3 -6,-4 1,4 6,11 14,11 2,0 4,-2 4,-6 0,-3 -3,-4 -3,-7l0 -18c3,0 4,1 4,-2 0,-2 -2,-2 -4,-2l-17 0c-1,0 -1,0 -1,1z"/>
      <path class="fil3" d="M6331 4354c0,2 0,0 1,3 6,-1 10,-11 15,-11 4,0 9,4 0,11 -3,2 -5,4 -7,6 1,2 1,2 2,4 9,-5 8,-11 16,-11 2,0 4,2 4,4 0,5 -12,9 -13,15 2,1 1,1 3,2 2,-1 14,-12 14,-17 0,-4 -4,-7 -9,-7 0,-5 -2,-10 -8,-10 0,-3 0,-2 0,-4 -3,0 -4,1 -6,2l-12 13z"/>
      <path class="fil3" d="M6312 4310c0,-7 7,-4 3,-10 -8,1 -9,13 -3,20 5,7 16,5 16,-3 0,-9 -2,-17 3,-17 3,0 6,4 6,8 0,7 -5,4 -2,10 6,-1 8,-8 4,-16 0,-2 -1,-2 -2,-3l-1 -1c0,-1 -1,-1 -1,-1 -3,-2 -5,-2 -8,-1 -1,0 -2,1 -2,2 -5,7 2,21 -5,22l-3 0c-3,-1 -5,-7 -5,-10z"/>
      <path class="fil3" d="M6484 4397c0,-8 10,-9 12,1 3,13 -12,12 -12,-1zm7 -20c0,7 1,6 2,11 -5,0 -7,-1 -9,1 -11,6 0,28 11,21 3,-2 2,-2 4,-3 0,2 1,1 3,1 0,-7 -4,-18 -6,-26 -1,-4 -1,-6 -5,-5z"/>
      <path class="fil3" d="M6388 4155c7,4 6,-1 12,2 1,0 2,1 3,2 -4,2 -9,4 -11,7l1 1c0,0 0,0 0,0 3,3 5,-1 8,-2 3,-1 2,0 2,1 1,1 1,0 0,1 0,1 -1,1 -2,1 -2,2 -2,1 -2,5 0,3 1,4 3,5 4,4 8,2 10,2 3,0 1,0 4,1 1,-1 1,0 2,-1 0,-4 -1,0 -3,-4 -3,-7 -1,-5 -6,-4 -1,3 -1,1 0,5l-5 0c0,-2 -1,-3 -1,-5 2,0 5,-2 7,-3l-4 -7c6,-3 3,-5 -4,-7 -4,-2 -10,-6 -14,0z"/>
      <path class="fil3" d="M6369 4384c-8,0 -7,-8 -4,-8 4,0 7,2 10,4 -1,2 -2,4 -6,4zm-3 -18c1,2 0,3 3,3 3,0 3,-2 6,0 4,2 4,8 1,7l-7 -3c-6,-3 -12,1 -12,6 0,4 7,8 12,8 0,2 0,2 1,3l2 2c2,-2 11,-16 11,-18 0,-5 -6,-10 -11,-10 -2,0 -4,1 -6,2z"/>
      <path class="fil3" d="M6413 4407c-1,-8 1,-6 12,-6 0,4 -3,7 -8,7l-4 -1zm-1 -14c4,0 2,1 5,-1 4,-3 9,-2 9,5 -11,0 -18,-2 -18,7 0,9 14,6 14,6 2,0 0,0 2,1 2,1 1,1 3,2 1,-8 8,-21 0,-24 -6,-3 -15,-3 -15,4z"/>
      <path class="fil3" d="M6586 4333c-5,0 -1,-10 -1,-13 9,1 6,13 1,13zm-15 -9c0,3 1,5 2,6 3,0 2,0 3,-1 -6,-10 6,-15 6,-9 0,4 -3,5 -3,10 0,7 10,10 13,3 2,-3 2,-5 2,-9 3,0 3,-1 3,-3 -1,-2 -15,-8 -19,-8 -4,0 -7,7 -7,11z"/>
      <path class="fil3" d="M6532 4391c-6,0 -2,-7 0,-8 1,-1 1,-1 2,-2 2,-1 0,-1 3,-2 3,7 0,12 -5,12zm-12 -8c1,-1 4,-1 4,-3 0,0 -2,-3 3,-6 2,-2 5,-1 7,0 -1,7 -15,10 -8,18 4,6 13,1 15,-6 4,2 1,1 5,0 0,-2 -4,-5 -6,-9 -4,-6 -4,-8 -9,-8 -9,0 -11,6 -11,14z"/>
      <path class="fil3" d="M6465 4383l-8 23c0,1 0,2 -1,2l0 2c-2,-7 -10,-24 -10,-27l-5 0c0,4 2,6 3,9l10 23 5 0 10 -33c-1,1 -1,1 -4,1z"/>
      <path class="fil3" d="M6553 4338c-2,0 -3,1 -4,1 1,3 1,2 3,4l21 14c2,2 2,2 4,0 0,-6 -14,-7 -14,-15 0,-2 2,-5 5,-5 3,0 11,8 16,9 1,-1 1,-1 1,-3 -7,-5 -21,-19 -25,-2 -1,5 -5,-3 -7,-3z"/>
      <path class="fil3" d="M6330 4341c-10,0 -8,-14 5,-14 8,0 6,14 -5,14zm-11 -6c0,3 2,5 3,7 12,13 32,-10 16,-18 0,-1 -2,-1 -2,-1 -1,-1 -3,-1 -4,-1 -6,1 -13,6 -13,13z"/>
      <path class="fil3" d="M6409 4157c1,1 1,2 1,3 2,-1 10,-4 12,-4 2,7 3,7 1,10 -2,2 -4,2 -4,0 0,-3 2,-3 4,-5 0,0 -1,-3 -5,-1 -7,3 -1,15 8,9 1,4 2,5 6,5l-5 -19c1,-1 1,-1 3,-1l-1 -4c-7,0 -16,4 -20,7z"/>
      <path class="fil3" d="M6514 4396l0 0zm0 0c-2,-1 -6,-5 -8,-8 -4,-6 -5,-4 -8,-3 0,2 1,2 2,3 3,3 14,13 15,16 1,5 -3,4 -4,8 3,2 6,2 7,-2 2,-4 0,-27 -2,-33 -6,0 -2,4 -2,19z"/>
      <path class="fil3" d="M6388 4405l-4 0c0,2 0,3 0,3 2,3 5,2 7,1l19 -20c2,-2 2,-2 3,-4 -2,0 -1,0 -3,0 -1,0 -10,11 -13,12 0,-4 0,-8 0,-12 1,-4 3,-7 -3,-7l-1 23c-1,3 -2,4 -5,4z"/>
      <path class="fil3" d="M6314 4198c0,4 3,6 4,10 -3,-1 -4,-2 -8,-2 0,1 -1,2 -1,4l18 6c1,-1 1,-2 1,-3 -4,-3 -5,-2 -6,-6 8,-1 11,-1 11,-7 -1,1 -11,2 -14,2 0,-2 -2,-4 -3,-8 0,1 -2,2 -2,4z"/>
      <path class="fil3" d="M6553 4371l0 0zm0 0c-3,0 -12,-6 -16,-7l-3 2c2,2 20,13 23,10 2,-3 -6,-20 -7,-23 -3,1 -1,1 -3,1 0,6 4,12 6,17z"/>
      <path class="fil3" d="M6399 4127c0,-3 0,-3 2,-4 6,4 4,6 3,7 -1,1 -5,3 -5,-3zm8 5c0,8 -3,2 -8,6 3,5 10,0 12,-2 0,-7 -4,-12 -5,-17 -1,0 -7,2 -8,2 -6,3 -3,12 1,14 4,1 5,-2 8,-3z"/>
      <path class="fil3" d="M6441 4112c2,1 2,3 3,5l-4 0c0,-2 0,-3 1,-5zm-9 14l5 0c1,-6 3,-5 9,-5l1 3 4 0c0,-1 -1,-3 -2,-4l-1 -3c-2,-4 -4,-11 -7,-11 -2,0 -3,1 -4,3 0,2 -1,4 -1,6l-4 11z"/>
      <path class="fil3" d="M6353 4151c0,5 2,3 3,7 -2,-1 -5,-3 -8,-3 -1,4 -1,3 2,9 -2,-1 -8,-6 -9,0 3,1 15,9 15,3 0,-2 -2,-4 -3,-6 3,0 4,2 7,3 3,-4 2,-3 -2,-10 -1,-2 -1,-4 -4,-5 -1,1 -1,1 -1,2z"/>
      <path class="fil3" d="M6540 4152c-1,-3 0,-6 4,-7 1,0 2,1 3,2 -1,4 -3,5 -7,5zm-6 -1c6,3 2,2 6,4 4,4 10,-1 10,-7 0,-4 -2,-4 -5,-6 1,-2 3,-3 3,-6 -3,0 -3,-1 -6,3 -1,1 -2,2 -3,3 -1,2 -5,7 -5,9z"/>
      <path class="fil3" d="M6384 4132c12,0 3,12 0,4 -1,-2 -1,-2 0,-4zm0 -10c0,3 0,4 1,6 -4,2 -6,2 -6,7 0,3 3,7 8,7 3,0 2,-1 6,-3 1,0 1,0 2,-1 0,-3 -5,-12 -7,-14 -1,-2 -2,-3 -4,-2z"/>
      <path class="fil3" d="M6368 4221c-1,4 -3,2 -4,6 4,6 5,1 9,-2 2,-1 0,1 2,-1 -1,-3 -1,0 -4,-3 -4,-3 -2,-6 -10,-1 0,-2 2,-4 2,-7 -1,0 -2,-1 -4,-1 -1,2 -1,3 -2,6 -1,3 -3,5 -1,7 1,2 4,1 6,0 2,-3 1,-4 6,-4z"/>
      <path class="fil3" d="M6548 4220l-7 4c-4,1 -4,1 -4,6 4,-1 14,-6 18,-7 2,1 1,2 4,2 4,0 1,-4 0,-7 0,-1 -1,-2 -1,-4 -2,0 -2,1 -4,1l0 4c-3,0 -3,1 -6,1z"/>
      <path class="fil3" d="M6580 4301c0,3 0,2 1,3 -2,1 -3,1 -3,4 3,0 8,3 11,4 3,1 8,3 11,3l1 -4 -5 -2c0,0 0,0 0,0 -14,-3 -11,-3 -11,-11 -2,-1 0,-1 -3,-2 -1,1 -2,2 -2,5z"/>
      <path class="fil3" d="M6415 4122c0,-2 0,-2 0,-3 3,0 4,-1 4,2 -3,0 -2,0 -4,1zm-5 0c0,10 13,11 14,2 -6,0 -2,2 -7,3 -1,-2 -1,-1 -1,-3 3,-1 8,-1 8,-2 0,-9 -14,-9 -14,0z"/>
      <path class="fil3" d="M6499 4122c3,-1 4,-1 4,2 -2,0 -2,0 -4,-1l0 -1zm-6 4c0,5 8,10 12,4 -4,-2 -2,-1 -6,-1 -1,-1 -2,-1 -2,-3 2,0 7,2 9,2 0,-1 3,-10 -6,-10 -5,0 -7,5 -7,8z"/>
      <path class="fil3" d="M6374 4140c-1,3 0,1 -2,2 -2,2 -3,1 -2,-1 1,-2 1,-1 4,-1zm-8 2c0,11 14,11 14,2 0,-1 -2,-1 -3,0 -2,2 -1,5 -5,3 2,-4 4,-3 6,-6 -2,-7 -12,-5 -12,1z"/>
      <path class="fil3" d="M6468 4122c-5,0 -4,-4 -3,-8 3,0 3,0 5,1 1,1 1,2 1,4 0,1 -1,3 -3,3zm-8 -5c0,13 15,10 15,3 0,-14 -15,-9 -15,-3z"/>
      <path class="fil3" d="M6584 4199c2,0 3,0 3,1 1,2 -1,3 -2,3 0,-1 -1,-2 -1,-4zm-8 3c0,2 1,4 2,5 2,2 3,1 5,2 0,-7 -6,-4 -2,-9 1,1 3,6 4,8 10,-5 5,-13 -1,-13 -4,0 -8,4 -8,7z"/>
      <path class="fil3" d="M6568 4179c4,1 5,4 2,4l-1 0c-3,0 -2,-2 -1,-4zm0 -3c-3,0 -5,1 -5,4 0,2 3,4 3,5 2,1 1,-1 2,2 0,1 0,1 1,2l8 -5c1,-2 2,-1 2,-4 0,-5 -3,-7 -8,-7 1,5 6,5 4,7 -2,1 -5,-4 -7,-4z"/>
      <path class="fil3" d="M6554 4157c1,-1 1,-1 2,-1 3,0 2,2 2,4l-4 -3zm-6 3c0,7 6,9 9,6 -1,-2 -3,-3 -6,-3l0 -4c5,1 4,4 7,6 7,-4 2,-13 -2,-13 -4,0 -8,3 -8,8z"/>
      <path class="fil3" d="M6337 4175c0,-1 0,-1 0,-2 7,-2 7,0 7,6 -3,0 -7,0 -7,-4zm-4 1c0,4 3,7 8,7 9,0 9,-14 -1,-14 -3,0 -7,2 -7,7z"/>
      <path class="fil3" d="M6322 4191c1,2 11,9 13,7 3,-6 -7,-3 -7,-10 0,-5 6,2 12,3 0,-2 1,-2 -3,-6 -2,-1 -4,-2 -6,-3 -5,-1 -5,4 -8,8 0,1 0,0 -1,1z"/>
      <path class="fil3" d="M6477 4126c9,0 2,-7 8,-9 4,2 1,7 0,11 1,1 2,1 3,1 3,-4 3,-6 3,-12 0,-2 -3,-3 -4,-3 -3,0 0,0 -2,0 0,0 -1,1 -1,1l-2 -1c-1,-1 -1,-1 -2,-1 -1,1 -3,11 -3,13z"/>
      <path class="fil3" d="M6587 4219c-4,-1 -2,-3 -2,-6l-2 -2c-4,7 1,12 4,12 5,0 4,-5 4,-10l2 0c0,6 -1,6 2,7 4,-9 -6,-16 -8,-7 0,2 0,5 0,6z"/>
      <path class="fil3" d="M6514 4139c7,1 9,7 13,4 -1,-3 -5,-5 -8,-5 1,-5 6,-10 7,-15 -3,-2 -4,-1 -7,5 -2,2 -5,7 -5,11z"/>
      <path class="fil3" d="M6378 4396c4,1 4,0 5,-2 3,-4 9,-14 10,-18 -2,0 -2,0 -3,-1 -3,4 -12,16 -12,21z"/>
      <path class="fil3" d="M6551 4350c3,4 14,14 17,16l2 -2c-3,-4 -13,-14 -17,-16l-2 2z"/>
      <path class="fil3" d="M6471 4391c0,7 3,15 3,23 6,0 4,1 2,-18 -1,-4 0,-7 -5,-5z"/>
      <path class="fil3" d="M6572 4193c0,4 1,3 3,5 2,-3 1,-2 1,-3 0,-2 0,-2 2,-3 5,-3 3,-1 7,0 1,-2 0,-2 1,-4l1 -1c1,-1 1,0 1,-2 -7,-4 -9,2 -11,3 -2,2 -5,2 -5,5z"/>
      <path class="fil3" d="M6453 4111l0 13 4 0c2,-9 0,-11 0,-19l-3 0c0,3 -1,3 -1,6z"/>
      <path class="fil3" d="M6354 4143c2,1 9,10 12,14l3 -2c0,-2 -10,-13 -12,-14l-3 2z"/>
      <path class="fil3" d="M6557 4171c0,1 0,2 1,3 3,-1 5,-5 9,-5 0,0 1,1 1,1 2,1 0,0 2,1 1,-1 1,-1 2,-1l0 -3c-2,-1 -2,-1 -3,-1 0,-2 -1,-2 -1,-3 -4,1 -9,5 -11,8z"/>
      <path class="fil3" d="M6347 4224l4 2c1,-4 5,-10 5,-14 -2,0 -1,-1 -3,-1 -2,4 -4,9 -6,13z"/>
      <path class="fil3" d="M6528 4145c0,2 0,1 1,3 4,0 2,-1 6,-6 1,-2 5,-7 0,-7 -2,0 -3,3 -4,5 0,1 -3,4 -3,5z"/>
      <path class="fil3" d="M6529 4226c1,1 3,2 3,4 0,3 -3,3 -4,7 3,-1 7,-4 7,-9 0,-3 -1,-3 -2,-5 -2,1 -2,2 -4,3z"/>
      <path class="fil3" d="M6470 4382l0 3c0,3 2,1 5,1l-1 -4c-2,0 -2,0 -4,0z"/>
      <path class="fil3" d="M6392 4372c2,1 2,1 4,1 0,-1 3,-5 -1,-5 -2,0 -3,2 -3,4z"/>
      <path class="fil3" d="M6544 4345l3 3c5,-4 3,-3 0,-6l-3 3z"/>
      <path class="fil3" d="M6536 4134c3,0 3,0 5,-1 -1,-2 -1,-2 -3,-3 -1,2 -1,2 -2,4z"/>
     </g>
     <g id="_2155146148656">
      <path class="fil3" d="M6988 4364l0 22 -4 0 0 -19c0,-4 0,-4 4,-3zm-4 -7c2,0 4,0 4,1 3,4 -5,6 -4,1l0 -2zm7 3c-1,-4 4,-3 10,-3 3,0 4,0 4,2 1,4 -3,2 -6,2 -2,0 -3,0 -5,0 -2,0 -3,1 -3,-1zm-51 -9c1,-5 11,-4 13,-3 2,0 3,2 5,4l4 5 16 0c4,0 4,0 4,4 -4,1 -12,1 -15,1 -7,0 -5,0 -8,3 -4,5 -4,6 -7,6 -7,0 -11,1 -11,-4l7 1c5,0 5,-1 7,-4 1,-3 3,-4 1,-7 -5,-9 -2,-6 -16,-6zm48 -10c0,7 2,14 -2,14 -3,0 -2,-3 -2,-6 0,-11 1,-8 -7,-15 -4,-2 -3,-3 -3,-13 2,-1 1,-1 4,-2l0 12c1,1 7,4 8,4 2,0 7,-3 9,-4l0 -11c4,1 1,1 4,2 0,3 -1,4 -1,6 0,8 -1,3 -10,13zm16 -63l1 0c0,0 4,0 6,-1 3,0 4,-1 6,-3 4,0 6,3 9,4 3,2 5,2 10,3 2,7 0,3 -9,7 -4,2 -8,4 -14,4 2,-2 2,-1 3,-2 3,-3 -3,1 5,-4 1,-1 1,-1 1,-3 -2,-2 -6,-1 -10,-1l-7 -2c-2,-1 -1,0 -1,-2zm-37 0c3,-1 20,-5 18,1 0,1 -1,1 -1,3 -1,3 0,8 -5,8 -2,0 -2,0 -3,-1l-3 1c0,3 2,2 6,2 5,0 4,-4 9,-2 1,1 1,1 2,1 5,2 9,3 14,3 7,0 8,3 20,-2 4,-2 6,-5 12,-4 3,5 0,5 8,5 3,0 2,0 3,-1l-4 -1c-3,0 -3,0 -4,-1l0 -15c6,0 8,4 14,4 6,0 12,0 18,0 6,0 13,0 19,0 1,0 17,0 18,1 1,3 1,22 1,28 0,28 -1,45 -24,63 -5,4 -17,10 -23,12l-5 2c-4,2 -8,3 -11,4 -2,1 -3,2 -5,2 -2,1 -3,2 -5,3l-19 9c-3,1 -8,4 -11,4 0,-2 1,-3 1,-5 1,-16 0,-33 0,-49 0,-7 0,-55 -1,-57l-2 0 1 59 -10 0c-3,0 -3,0 -4,-1 0,0 0,0 0,0 0,0 0,0 0,0l0 -7c0,-3 -1,-5 1,-7 11,-10 9,-2 9,-19 -2,-2 -10,-8 -11,-8 0,3 2,4 2,7 1,2 1,7 1,10 0,0 -6,3 -7,3 -1,0 -6,-3 -6,-4 -2,-2 0,-9 1,-12 1,-2 1,-1 1,-3 -2,0 -10,5 -10,7l-1 12c1,2 7,5 9,7 2,1 1,12 1,15 -3,0 -15,0 -17,0 -2,-1 -2,-1 -3,-2l-6 -8c-2,0 -5,0 -8,0 -4,0 -6,0 -8,4l-5 5c-1,1 0,1 0,2 1,0 5,-1 7,-2 2,-1 8,-2 10,0 0,0 1,0 1,0 1,1 3,4 3,5 -1,2 -3,6 -4,7 -3,0 -6,0 -9,-1 -1,0 -6,-2 -7,-2 0,3 1,2 2,4 2,2 3,6 5,7 2,0 5,0 7,0 9,0 7,-3 14,-10l18 0c1,6 0,13 0,19 0,5 0,7 9,5 1,-6 1,-14 1,-21l0 -2c0,-1 0,-1 1,-1 1,0 2,0 2,0l7 0c1,0 2,0 2,0 2,0 1,0 2,0 1,1 1,29 0,33 0,2 -1,4 -1,5 0,1 0,2 0,3l0 2c0,0 0,0 0,0 -1,1 -1,1 -2,1 -1,0 -2,-1 -4,-2 -1,-1 -3,-1 -5,-2 0,0 -1,-1 -2,-1l-8 -4c-1,-1 -3,-1 -5,-2 -2,-1 -3,-1 -5,-2l-26 -11c-2,0 -4,-1 -5,-2 -13,-4 -27,-12 -35,-24 -4,-6 -6,-13 -8,-21 -2,-4 -1,-9 -1,-13 -1,-5 0,-39 0,-45 9,-2 47,1 61,1 4,-1 5,-1 8,-2l0 0zm32 0c1,3 5,3 8,5 4,1 5,1 9,1l2 0c0,1 0,1 -2,2 -8,1 -15,-4 -21,-4 3,3 11,5 15,6l2 1c-4,2 -13,-4 -19,-4 2,2 3,2 6,3l6 4c-8,0 -12,-2 -19,-5 0,-3 1,-7 2,-9 2,-3 3,-3 7,-5 3,-1 7,0 10,-1 4,0 7,-1 10,-1 0,2 0,3 -2,3 -7,3 -11,0 -14,4zm47 -33c-1,-2 0,-3 2,-5 2,0 3,4 3,4 0,1 -3,1 -5,1zm-25 -4c2,1 3,1 3,4l-5 0c0,-2 0,-1 1,-3 1,-1 0,0 1,-1zm-5 1l0 -6c5,1 4,6 0,6zm7 -3c1,-4 3,-3 4,-3l0 6c-2,0 -3,-1 -4,-3zm27 -3c2,-2 0,-1 3,-2l0 6c-3,0 -3,-1 -3,-4zm-6 4l0 -6c2,1 3,2 3,4 -1,1 -1,2 -3,2zm-26 -8l7 0c0,3 0,2 -2,3 -2,2 -1,3 -4,0 -1,-1 -2,0 -1,-3zm27 -2l6 -1c0,4 -1,2 -2,5 -2,0 -4,-1 -4,-4zm-145 1c7,-1 -5,-3 18,-3l18 0c0,0 0,2 0,2 0,2 0,1 1,2 2,-1 1,0 1,-1 0,0 0,-2 0,-2 5,-1 6,1 8,4l3 5c1,4 -7,2 -15,2 -2,0 -35,1 -36,0 -1,-2 0,-4 1,-6l-2 -1 0 -20c2,-1 4,-2 7,-2 1,5 -1,9 1,12 2,1 2,0 3,2 -1,1 -1,0 -2,1 -1,0 -6,0 -6,5zm32 -7l-19 0c-7,0 -6,-3 -6,-9 0,-5 0,-10 0,-15 0,-11 -1,-10 18,-10 18,0 15,-3 15,25 0,7 -1,9 -8,9zm-35 -14l0 -7c0,-3 -1,-3 2,-4 2,0 3,-1 5,-1l0 10c-3,1 -3,2 -7,2zm208 15l-14 15c-1,2 0,2 -2,2 -1,-12 0,-25 0,-37 0,-5 1,-5 7,-11l7 -7c1,-2 1,-2 3,-2l-1 40zm-131 -36c2,1 6,5 6,7l-11 0c0,-2 1,-2 2,-3 1,-1 2,-3 3,-4zm106 -14c2,-1 2,-1 4,-1 1,1 0,1 1,1l0 16c-1,0 -3,2 -5,1 -1,-1 0,-15 0,-17zm-69 31c-1,-5 -1,-7 2,-9l13 -11c2,-1 5,-4 7,-5 0,1 0,4 1,5 0,3 0,3 1,5 4,0 8,-1 11,-2 2,0 4,0 6,0 3,0 3,-1 6,-1 0,2 0,2 -2,3 -8,8 -2,4 -19,9 -4,1 -9,2 -13,3 -4,1 -9,3 -13,3zm-33 -16c0,0 -1,-2 -2,-2 -1,-2 2,-4 4,-4 0,2 1,6 1,8 -2,-1 -1,-1 -3,-2zm-10 2c0,0 1,-8 1,-8 2,0 5,2 3,4 -1,2 -2,4 -4,4zm102 -10l0 7c3,1 4,0 7,0l0 5c3,1 4,1 8,0 3,-1 3,-2 3,-8 5,0 10,-2 14,-2 -1,2 -8,9 -10,11 -1,2 -1,1 -2,2 -3,3 -2,4 -12,5l-24 3c-2,0 -1,-3 -1,-5 0,-4 2,-5 6,-8 1,-1 1,-2 3,-4 2,-2 1,-1 5,-5 1,-1 0,-1 3,-1zm-88 -1c1,1 1,2 1,4 1,2 3,9 2,11 -2,0 -1,-1 -2,-7l-2 -5c0,-1 0,-1 0,-2 0,-1 0,0 1,-1zm-17 16c-2,0 -3,-1 -4,1 1,2 4,0 6,0 3,0 6,0 9,0l13 0c2,0 2,1 3,-1 -2,-1 -3,0 -4,-2 -1,-1 -2,-6 -2,-8 0,-3 -1,-3 -1,-5 4,0 1,1 8,6 2,1 3,1 5,2 0,0 2,1 2,1l2 2 0 58 3 0c2,-4 -1,-48 0,-58l8 0c-1,2 -1,2 -3,4 -1,1 -2,1 -2,3 0,0 0,5 0,5 1,2 2,2 3,3 6,1 17,-4 25,-5l15 -4 -1 7c4,2 5,1 9,1 7,-1 13,-2 20,-3 2,-1 5,-1 8,-1l0 41 -32 1c-1,-5 1,-14 -1,-17 -2,-1 -9,-1 -11,0 -3,2 1,14 -1,16 -1,1 0,1 -1,1 -3,0 -9,0 -12,0 -1,-4 1,-9 0,-13 0,-1 -1,-2 -2,-2 -3,0 -6,0 -10,0 -3,0 -3,1 -3,4l0 11c-4,0 -6,-2 -6,2 6,1 65,0 75,0 7,0 6,-1 10,-5 4,-4 8,-10 12,-14 1,-1 1,-1 3,-2 0,16 1,35 -1,50 -7,1 -53,2 -58,-1 -3,-1 -5,-2 -8,-2 -6,0 -5,0 -5,5 -6,0 -11,-3 -16,-5 -7,-3 2,-4 -11,-3 -6,1 -15,0 -21,3 -3,2 -2,1 -6,1 -14,0 -13,2 -22,3 -12,1 -33,0 -47,0l-13 -1c-4,0 -3,-2 -3,-8 0,-3 0,-6 0,-9 0,-5 0,-10 0,-15 1,-4 4,-2 6,-2 13,0 32,1 44,0 3,0 4,-1 5,-2 1,-3 -3,-7 -5,-9 0,-1 -2,-3 -3,-4 -1,0 -1,0 -1,0 0,0 -1,0 -1,0l-1 0c-1,-1 -2,-1 -3,-1 2,-6 4,1 4,-13 0,-22 -3,-12 12,-24 6,-4 8,-8 13,-8 0,3 -2,13 -2,16zm13 -16c-1,4 -6,5 -6,0 1,0 5,0 6,0zm-6 -7c0,-2 0,-4 0,-6 1,-2 1,-4 2,-6 1,2 1,2 1,4 2,8 3,8 -3,8zm33 -46c2,1 1,1 3,2 4,4 14,11 18,13 8,4 6,2 12,5 8,4 22,6 30,6 6,0 13,-1 18,-3l4 -1c2,-1 2,-1 4,-1l9 -4c6,-3 3,-3 6,-3 0,4 2,36 0,36 -1,1 -1,1 -1,1 -4,1 1,-1 -2,1 -2,1 -15,3 -18,3 -1,-11 1,-10 -4,-11l0 -4c2,-1 3,0 3,-4l-7 1c-2,1 -2,1 -3,4 2,2 2,0 3,3 -1,1 -1,0 -2,1l0 12c-2,1 -2,1 -5,1l-2 -9c-2,0 -5,3 -6,5 -3,3 -3,3 -8,4l-21 2c0,-1 0,-9 -1,-10 -2,-1 -3,1 -7,4 -3,2 -8,8 -12,8 -3,1 -8,1 -11,0l0 -62zm-71 59c1,-2 0,0 2,-1l9 -6c6,-3 17,-13 22,-18 3,-3 2,-4 5,-4 0,3 -1,3 -1,5 -2,6 0,11 -4,11 -2,1 3,0 0,1 -4,0 -3,-1 -4,1 1,1 0,1 2,1l17 -1c4,1 6,1 6,-1 -2,-1 -3,-1 -5,-1 -2,-3 -2,-8 -3,-11 -1,-4 0,-3 0,-3 1,0 2,1 3,2 8,9 16,11 19,14 0,2 0,4 0,6 0,5 1,8 -2,7 -2,0 -7,-3 -8,-5l-3 -4c-3,-2 -17,-1 -20,-1 -5,0 -6,-1 -8,2 -3,4 -15,12 -19,13l-1 -3c-2,-3 -5,-3 -6,-4 -1,0 0,0 -1,0zm68 -15c-4,0 -8,-3 -10,-5 -3,-2 -7,-4 -8,-8 3,0 5,2 8,2 4,0 7,0 10,0l0 11zm-108 -32c1,4 0,2 3,3 1,0 2,1 3,1l1 1c1,1 1,1 2,1l9 4c3,1 8,3 11,3 10,1 21,1 30,-1 5,0 9,-2 14,-4 5,-1 9,-3 13,-5 4,-3 7,-5 11,-8 2,-2 8,-7 10,-8 0,6 0,11 0,16 0,2 1,14 0,15 -3,2 -13,0 -15,-1 -2,-1 -5,-2 -6,-3 -5,-4 -3,-5 -9,-1l-11 6c-5,3 -10,6 -16,7l-5 2c-7,2 -18,3 -25,4 -3,0 -9,-1 -11,1 4,2 32,-1 36,-3 1,-1 3,-1 4,-1l11 -4c3,-1 11,-6 13,-6 -1,3 -10,10 -13,12 -5,4 -9,7 -14,10 -3,2 -6,3 -9,4 -7,5 -17,0 -22,3 -5,2 -4,5 -5,7 -2,1 -5,2 -8,1 0,-4 0,-9 0,-13 0,-5 -1,-7 1,-11 -1,-3 -1,-9 -1,-13 -1,-3 0,-7 0,-10l-2 20c0,8 0,16 0,24 0,15 1,31 1,47 0,15 0,31 0,47 0,15 -1,33 1,47 0,3 1,6 2,9 1,7 4,12 8,17 1,2 4,4 5,6 7,7 18,14 29,18l26 10c2,1 5,3 7,4 3,1 6,2 9,4 1,0 2,1 4,2 1,0 3,0 4,1 3,1 6,3 8,4 5,1 4,3 9,1 11,-4 22,-10 32,-15l17 -7c2,-1 3,-1 4,-2l13 -5c19,-9 33,-25 37,-46l1 -10c0,-4 1,-8 0,-12 -1,-6 0,-28 0,-35 0,-5 0,-42 0,-47 1,-9 0,-35 1,-47 0,-12 0,-36 -1,-47 -2,0 -3,2 -4,3 -6,3 -16,8 -22,9 -7,2 -17,2 -26,1 -8,-1 -15,-2 -23,-5 -12,-5 -21,-12 -31,-21 -2,-1 0,0 -2,-2 -2,0 -3,2 -5,4 -11,11 -26,20 -42,23 -11,2 -23,3 -34,1 -8,-2 -9,-3 -15,-5 -2,0 -10,-5 -11,-5 -1,-1 -1,0 -2,0z"/>
      <path class="fil3" d="M6940 4145c5,0 8,0 12,0 3,-1 2,-1 5,-2 5,-1 13,-4 17,-6 5,-4 11,-7 17,-13 1,-1 10,-12 11,-12 2,1 2,1 4,3 12,13 7,8 22,20 8,6 26,11 37,11 6,0 11,-1 16,-3 12,-2 21,-9 31,-15 2,-1 2,-3 6,-4l0 178c0,13 1,32 -4,44 -2,5 -3,9 -6,14l-10 12c-3,3 -10,8 -14,10l-7 4c-2,1 -3,1 -5,2 -2,1 -3,1 -5,2 -5,2 -6,2 -10,4 -7,2 -11,4 -16,6l-32 16c-5,4 -4,4 -13,-3 -2,-1 -3,-1 -5,-2 -1,-1 -3,-1 -4,-2 -4,-1 -7,-3 -10,-4l-9 -4c-10,-3 -21,-7 -30,-11 -2,-1 -2,0 -3,-1l-4 -2c-5,-2 -1,0 -7,-4 -1,0 -1,-1 -3,-1 -3,-1 -7,-5 -10,-7 -1,-1 -3,-2 -4,-3 -1,-1 -2,-2 -3,-3 -8,-8 -9,-12 -13,-22l-2 -11c0,-4 -1,-3 -1,-6 -1,-16 0,-39 0,-55l0 -150c3,0 9,6 11,7l11 7c3,1 3,1 7,2 3,1 5,2 8,2 6,2 8,2 15,2zm62 -37c-2,1 -3,4 -6,7 -4,3 -4,6 -7,4 -2,-2 -3,-4 -4,-7 0,-2 -1,-3 -1,-6 1,-12 15,-19 25,-15 19,7 9,28 6,29 -2,0 -8,-8 -9,-9 -2,-2 -2,-2 -4,-3zm-17 -13c0,6 -6,5 -1,20 2,6 7,6 0,11 -5,4 -11,8 -17,11 -25,11 -51,6 -72,-10l-7 -6c-2,-1 -2,-2 -3,-3 0,2 1,3 1,6 -1,69 0,137 -1,206 0,3 1,4 1,6l1 6c3,9 7,19 13,26 1,0 1,1 2,1 1,1 1,1 1,2 3,3 6,5 8,7 3,3 10,7 14,8 1,1 1,1 2,1l38 15c1,1 1,1 2,1 11,4 21,8 30,14l8 6c1,-2 4,-4 9,-7l10 -6c4,-2 9,-5 14,-6l8 -4c6,-2 12,-4 18,-6 5,-2 11,-5 16,-8l10 -5c14,-9 23,-22 27,-38 1,-2 1,-4 2,-6 0,-3 0,-4 0,-8 0,-3 1,-4 1,-7l0 -172c0,-8 0,-16 0,-24 0,-4 -1,-5 -1,-8 0,0 0,0 0,0 0,0 0,0 0,0l-4 5c-1,1 -1,1 -3,1l-8 6c-1,1 -2,2 -3,2 -5,3 -10,6 -16,8 -15,5 -35,3 -49,-4l-10 -6c-1,-1 -1,-1 -3,-2 -2,-1 -4,-4 -7,-5 5,-9 7,-7 7,-19 0,-4 -5,-10 -8,-12 -6,-4 -8,-4 -14,-5 -4,0 -2,0 -6,2 -3,1 -6,5 -10,6z"/>
      <path class="fil3" d="M6927 4296c10,-2 18,5 20,13 2,10 -5,18 -13,20 -16,3 -27,-15 -17,-27 3,-4 6,-4 10,-6zm-14 -8c0,5 3,3 3,9 -8,0 -5,-9 -12,1 -1,1 -4,4 -3,5 0,2 11,7 2,10 -2,0 -3,1 -4,2 0,1 2,6 3,6 3,6 1,3 3,6 3,1 4,-1 6,-1 1,0 2,0 2,2l0 1c-1,1 -3,3 -2,4 0,1 10,8 11,8 3,-1 4,-10 7,-6l4 6c2,0 12,-3 13,-4 0,-5 -2,-3 -2,-7 7,-1 7,6 10,2 2,-2 8,-9 8,-11 -3,-3 -8,-2 -7,-7 3,-2 5,-1 6,-2 0,0 0,-1 0,-1 0,0 0,0 0,0 0,0 0,0 0,-3 -1,-1 -1,-2 -2,-3 0,-2 -1,-4 -1,-6 -4,0 -5,2 -9,2 0,-3 0,-2 3,-5 1,-2 2,-2 -2,-4 -3,-2 -8,-6 -12,-6 0,1 -1,2 -1,3 -3,6 -5,2 -6,0 0,-2 -1,-3 -2,-4 -2,0 -5,1 -8,1 -2,1 -5,2 -8,2z"/>
      <path class="fil3" d="M7077 4294c5,-1 4,2 9,3 5,0 5,-3 8,-3 2,1 2,3 3,4 1,3 3,3 5,4 1,5 -1,3 -5,4 -2,2 -1,2 -2,6 -1,1 -5,2 -6,-1 -1,-3 0,-5 -4,-4 -2,2 -2,3 -3,5 -7,1 -2,-3 -7,-8 -2,-2 -3,-3 -1,-5 1,-2 2,-3 3,-5zm7 -10c-7,2 -7,1 -12,6 -2,2 -1,1 -2,3 -2,3 -3,5 -3,12 2,15 24,20 35,8 6,-7 6,-19 -4,-26 -3,-2 -9,-4 -14,-3z"/>
      <path class="fil3" d="M7059 4318c1,2 1,4 1,6 0,3 1,4 -2,4 -2,-2 -2,-3 -2,-6 0,-3 0,-5 3,-4zm-15 -1l3 1c0,2 0,4 0,6 0,2 1,3 -2,3 -2,-2 -2,-7 -1,-10zm-10 9l0 -8 2 0c0,0 2,9 -2,8zm-16 -12c2,0 2,-1 2,2 0,0 0,2 0,2 -1,2 -1,1 -1,2 -1,0 -2,0 -2,-5 1,-1 0,-1 1,-1zm15 -2c7,0 23,-1 28,0l0 4 -33 0c-2,-5 1,-4 5,-4zm-13 -5c6,5 5,4 5,7 -3,0 -2,0 -6,-3 -2,-1 -4,-2 -6,-4l0 -4c2,0 3,1 7,4zm7 -7c7,0 15,0 21,-1 2,0 3,0 4,1 2,2 7,7 7,9l-26 0c-7,0 -7,1 -11,-3 -4,-4 -6,-3 -6,-6l11 0zm-7 -2c-3,0 -6,0 -8,1 -1,9 -2,8 2,12 2,1 0,5 1,8l2 4c1,1 0,0 1,1 2,-1 1,0 2,-2 1,-1 1,-1 2,-1l0 -4c4,-1 1,1 5,1 3,0 4,-1 4,2 0,1 0,4 0,5 1,2 1,2 2,3 2,2 1,2 2,4 2,-1 1,-1 1,-3 2,-5 2,4 2,-11 3,0 4,0 4,3 0,2 0,4 0,7 1,0 2,1 2,2 1,2 0,2 3,2 0,-1 0,-1 0,-3 1,-1 2,0 2,-3 1,-2 -1,-5 0,-8 1,0 3,-1 4,0 3,1 1,4 2,10 5,4 2,3 4,4l3 -5c0,-2 0,-6 0,-8l2 -2c1,-7 -1,-8 -4,-12 -1,-1 -8,-7 -8,-7 -2,-1 -28,0 -32,0z"/>
      <path class="fil3" d="M6964 4225c0,-2 1,-2 2,-3 2,-2 7,-8 9,-8 1,0 7,6 9,8 2,2 2,0 2,3l-22 0zm23 -4c-2,0 -1,0 -3,-2 -10,-10 -10,-5 -3,-13 1,-1 1,-1 3,-1 1,2 3,13 3,16zm-24 -1c0,-2 1,-4 1,-7 1,-3 0,-5 2,-7 3,1 3,2 5,4 3,3 2,2 -3,7 -3,3 -2,3 -5,3zm26 -12c1,2 4,15 4,16 -4,1 -3,-1 -3,-4l-3 -11c0,-2 -1,-4 -1,-6 3,1 2,2 3,5zm-15 2c-1,-1 -2,-2 -3,-3 -2,-1 -3,-1 -3,-4l12 0c-1,3 -4,6 -6,7zm-13 -8c0,2 -1,0 3,2l-2 9c-1,4 -1,7 -2,11 0,0 0,0 0,1l-4 1 0 1c2,1 37,0 41,0 1,-4 -1,-1 -2,-4l-4 -17c-1,-4 0,-2 0,-5l-27 0c-2,0 -2,0 -3,1z"/>
      <path class="fil3" d="M7040 4386c2,0 1,0 3,-1 4,-6 7,-12 14,-15 10,-3 29,2 38,-12 3,-4 7,-12 8,-17 0,-5 0,-6 -4,-5 -5,0 -10,1 -14,2 -1,13 6,8 9,13 1,1 1,3 0,5 -2,4 -4,4 -7,7 -11,7 -23,0 -35,8 -3,2 -4,4 -7,7l-2 2c0,0 0,0 0,0l-1 2c-1,2 -2,2 -2,4z"/>
      <path class="fil3" d="M7041 4357c2,0 8,0 10,1 -1,1 -1,1 -2,2 -1,0 -8,2 -8,-3zm5 -6c0,0 1,-1 4,0 1,0 5,2 5,3 1,3 -5,1 -5,1 -4,0 -10,1 -4,-4zm11 2c-2,-1 0,0 -2,-2 0,0 -1,-1 -1,-1 -2,0 -3,0 -4,-1 0,-3 2,-4 5,-3 2,1 4,2 5,4 0,2 -1,2 -3,3zm-1 -8c1,-6 8,-4 8,-1 0,2 0,4 -2,4 -2,0 -1,-1 -3,-2 -1,0 -2,-1 -3,-1zm-6 25c0,-5 -5,-2 -4,-7 2,-1 3,0 7,-3 2,-2 4,-4 6,-6 11,-10 7,-10 7,-13 5,0 4,2 8,1 -1,-5 -10,-2 -11,-3 -2,0 -2,-1 -4,0 -2,0 -4,3 -6,4 -4,3 -2,0 -6,5 -6,6 -12,9 -5,14 2,1 1,0 2,3 1,3 3,5 6,5z"/>
      <path class="fil3" d="M7021 4361c-1,-2 -1,-3 1,-3 7,-1 5,3 3,5 -2,0 -3,0 -4,-2zm-1 -9c2,0 7,-1 7,2 0,3 -5,2 -8,1l1 -3zm0 -2c-1,-2 -1,-3 1,-3 8,-1 6,3 4,3 -1,0 -4,0 -5,0zm1 -6c0,-3 2,-4 4,-4 1,1 1,2 1,4l-5 0zm6 -5c2,-2 6,-1 8,0 1,0 0,0 1,0 1,-1 1,0 1,-1 0,-2 0,-1 -3,-2 -4,0 -6,-1 -11,2 -6,3 -6,6 -6,11 1,10 0,12 5,16 7,5 2,4 16,4l0 -1c-4,-2 -9,1 -12,-2 0,-3 2,-2 3,-6l0 -15c-1,-4 -2,-4 -2,-6z"/>
      <path class="fil3" d="M6912 4200c0,-6 1,-5 15,-5 6,0 5,0 7,2l0 20c-2,1 -1,1 -5,1l-12 0c-3,0 -3,0 -5,-1l0 -17zm-2 0c0,3 -1,16 0,17 2,4 8,3 13,3 3,0 9,1 11,0 3,-2 2,-7 2,-10 0,-2 1,-12 0,-14 -1,-1 -1,-2 -2,-3l-17 0c-6,0 -7,2 -7,7z"/>
      <path class="fil3" d="M6999 4246c1,-1 0,-2 0,-4 0,-2 0,-3 -1,-5 0,-1 -1,-4 -1,-4 0,-3 1,-1 1,-4l-34 1c-2,0 -8,-1 -7,1 0,3 2,-1 1,6 -1,2 -1,4 -2,7 0,2 -2,5 2,5 1,-3 2,-15 3,-18l29 1c1,2 1,4 2,7 1,7 0,7 3,7 0,-5 -3,-10 -3,-15 6,0 3,13 7,15z"/>
      <path class="fil3" d="M7079 4214c1,6 -1,6 -5,6 -2,0 -2,0 -2,-3 0,-2 -1,-4 7,-3zm-10 6l-6 0c-1,-4 -1,-6 3,-6 4,0 4,1 3,6zm-9 0c-2,0 -5,0 -7,-1 -1,-6 1,-6 7,-5 1,2 1,4 0,6zm-6 2l27 0c1,-2 1,-6 1,-9 -4,-2 -12,-1 -17,-1 -15,0 -14,-2 -14,7 0,3 0,3 3,3z"/>
      <path class="fil3" d="M7040 4214c1,2 1,3 1,6 -2,0 -3,0 -5,0 -2,0 -3,0 -3,-3 0,-2 0,-3 2,-3 2,0 4,0 5,0zm-9 0l0 3c0,3 -1,3 -2,3 -5,1 -5,0 -5,-3 0,-2 0,-4 6,-3 0,0 0,0 1,0zm-9 0c2,6 -1,6 -5,6 -2,0 -2,0 -2,-3 0,-4 2,-3 7,-3zm-9 2l0 6c6,0 26,1 29,-1 1,0 1,-1 1,-3 0,-8 1,-6 -16,-6l-11 0c-4,0 -3,0 -3,4z"/>
      <path class="fil3" d="M6919 4313c0,-1 0,-3 0,-4 2,-6 12,-11 19,-5 1,1 2,2 3,3 7,17 -19,24 -22,6zm8 -13c-3,1 -6,2 -8,5 -7,10 2,23 15,20 12,-2 14,-17 4,-24 -2,-1 -7,-3 -11,-1z"/>
      <path class="fil3" d="M7076 4233c0,-2 2,-3 4,-2 1,1 1,3 0,5 -3,0 -4,1 -4,-3zm-7 0c0,-3 5,-3 5,0 1,4 -2,3 -5,3l0 -3zm-6 -1c3,-3 6,1 4,3 -2,3 -6,-1 -4,-3zm-2 -3c0,2 -1,6 0,8 0,1 4,1 6,1l14 0c3,-1 1,-8 1,-9 -2,-1 -19,-1 -21,0z"/>
      <path class="fil3" d="M7087 4258c4,-3 2,-1 6,0 0,-6 -7,-5 -8,1 0,4 3,9 7,6 1,0 1,0 1,-1l1 -1c2,1 1,0 2,1 2,3 2,2 6,1 0,-2 1,-2 0,-5l-3 0c1,3 2,1 1,4 -2,0 -2,0 -3,-1 0,-1 -1,-2 -1,-3 1,-5 4,-3 6,-2 0,-4 -4,-7 -7,0l-1 2 -3 0c0,2 0,2 0,4 -4,0 -4,-3 -4,-6z"/>
      <path class="fil3" d="M7053 4264c-1,-1 -1,0 -2,-2 0,-1 -2,-6 3,-5 0,1 1,2 1,3 0,4 -1,3 -2,4zm7 -6c2,-3 4,0 4,-4l-5 0 -2 3c-1,-1 -1,-1 -2,-2 -3,-3 -6,1 -6,5 0,2 0,5 2,6 2,0 3,0 4,-1l1 -1c1,-2 0,1 1,-1l1 1c0,0 0,0 0,0 1,1 -1,0 1,1l1 -1c1,-5 1,-1 3,-4 0,0 -1,0 -1,0 0,0 0,0 0,0 0,0 0,-1 0,-1 -1,0 -1,0 -1,0 -1,-1 -1,0 -1,-1z"/>
      <path class="fil3" d="M6931 4262c0,3 1,4 3,4 2,0 2,-1 3,-2l1 -1c2,0 1,1 2,3 4,0 6,-1 6,-4 -3,0 -1,0 -2,1 -3,2 -4,-1 -4,-2 0,-1 0,-2 0,-3 3,-3 2,-1 5,0 0,-4 -3,-6 -6,-2 -1,2 -1,1 -1,3 0,1 0,1 -1,2 -1,-1 0,-1 -2,-2 -2,-1 -2,0 -2,-2l4 0c-1,-5 -6,-2 -6,1 0,3 4,1 4,5 -3,2 -1,0 -4,-1z"/>
      <path class="fil3" d="M6998 4262c0,-2 -1,-6 3,-5 2,0 1,4 1,6 -2,1 -2,1 -4,-1zm5 4c0,-1 0,-3 2,-4l0 1c1,1 0,1 1,2 1,2 4,1 4,1 1,-1 1,0 1,-2 -2,-1 -4,1 -4,-2 0,-3 1,-5 0,-7 -2,1 0,0 -2,1l-1 1c0,-1 0,0 0,-1 -3,-4 -7,-1 -8,2 0,2 0,4 1,6 2,2 2,2 6,2z"/>
      <path class="fil3" d="M7084 4331l0 5c3,0 15,-2 18,-3l-1 -3c-4,-1 -1,0 -8,1 -3,0 -6,0 -9,0z"/>
      <path class="fil3" d="M6955 4264c4,5 5,-6 9,1l3 0 0 -8c0,-3 1,-1 0,-2 -1,1 -2,-1 -1,4 0,2 0,3 -1,4 -1,0 -1,1 -2,-4 -1,-3 1,-4 -3,-4 -1,2 -2,5 -2,8l-3 1z"/>
      <path class="fil3" d="M7079 4298c-2,1 -3,3 -2,5 5,9 11,-6 4,-6 -2,0 -2,1 -2,1z"/>
      <path class="fil3" d="M6955 4261c0,-1 1,-2 1,-3 0,-2 0,-2 -1,-3 -2,0 -2,0 -2,5 -5,0 0,-5 -4,-5 -1,0 -1,0 -1,0l0 6 2 1 0 3c5,0 2,-1 5,-3l0 -1z"/>
      <path class="fil3" d="M7079 4262c0,0 0,0 1,0 3,1 -1,3 4,3 0,-2 0,-4 0,-5 0,-6 0,-5 -1,-5 -1,2 0,2 -1,5 -4,-1 0,-4 -5,-5 0,2 1,4 1,6 -1,2 -2,4 1,4l0 -3z"/>
      <path class="fil3" d="M7071 4257c1,-1 3,0 4,-1 0,-2 0,-2 -2,-2 -4,0 -4,1 -4,3 0,2 0,7 0,8 2,1 5,2 7,0 -2,-2 -2,0 -5,-2 0,-2 0,-1 2,-2 1,-1 1,1 2,-1 -3,-2 -3,0 -4,-3z"/>
      <path class="fil3" d="M7088 4300c0,3 0,4 1,6 3,0 5,-1 5,-3 1,-3 0,-4 -1,-5 -4,-1 -3,0 -5,2z"/>
      <path class="fil3" d="M7022 4257c2,-1 5,0 4,-3 -3,-1 -5,0 -6,1 0,2 0,5 0,7 0,3 0,4 3,4 3,0 2,-1 3,-1l-1 -1c-2,0 -3,1 -3,-3 2,0 2,1 3,-1 -1,-3 -2,1 -3,-3z"/>
      <path class="fil3" d="M6916 4237c2,1 14,1 16,0 0,-3 -1,-2 -8,-2 -6,0 -8,-1 -8,2z"/>
      <path class="fil3" d="M6908 4265c0,-4 -5,-4 -2,-8 3,-2 1,-2 1,-2 -3,1 -1,2 -4,3 -1,-2 0,-2 -2,-3l0 8c0,3 0,2 1,2 0,0 0,1 0,-1 1,0 0,0 1,-1 0,0 0,-1 0,-1 5,-1 0,3 5,3z"/>
      <path class="fil3" d="M6972 4257c-3,-1 1,-2 -3,-2 1,5 2,0 2,10l2 0c0,-2 0,-3 1,-5 1,-4 2,-3 1,-5 -3,1 0,1 -3,2z"/>
      <path class="fil3" d="M6920 4266c1,-1 1,-1 1,-1 2,-2 1,-1 1,-5 0,-4 1,-5 -1,-5 -2,2 -1,6 -1,9l-4 -1c1,2 2,3 4,3z"/>
      <path class="fil3" d="M7039 4258c1,-3 2,-1 4,-2 -1,-3 -2,-2 -6,-1l0 6c2,0 3,0 4,0 2,0 2,0 2,-1 -2,-2 -2,0 -4,-2z"/>
      <path class="fil3" d="M7090 4329c-1,-2 -1,-4 -1,-5 -1,-2 -1,-2 -4,-2 0,6 1,7 5,7z"/>
      <path class="fil3" d="M7034 4266c2,-2 2,-4 0,-6l-2 0c0,3 1,-1 1,3 -4,1 -1,0 -5,-1 1,3 2,5 6,4z"/>
      <path class="fil3" d="M7094 4321c-1,2 -1,6 1,7 3,2 3,-7 0,-7 -2,0 -1,0 -1,0z"/>
      <path class="fil3" d="M7014 4255c-1,1 -1,7 -1,8 0,4 5,3 5,2 0,-2 -1,-1 -2,-1 -2,-1 -1,-1 -2,-3 0,-5 2,-5 0,-6z"/>
      <path class="fil3" d="M6976 4265c4,-1 1,-3 4,-2 1,0 0,0 2,1l0 -4c-2,0 -1,1 -3,1 -1,0 0,-1 -2,-1l-1 5z"/>
      <path class="fil3" d="M7098 4157c0,-3 -3,-5 -7,-5 1,2 1,2 3,3 3,1 2,1 4,2z"/>
      <path class="fil3" d="M6995 4262c-4,1 -1,3 -6,0l0 3c1,0 1,1 4,1 1,-1 2,-2 2,-4z"/>
      <path class="fil3" d="M7028 4258c4,-1 1,-2 5,-1 1,0 0,0 2,0 -1,-4 -6,-4 -7,1z"/>
      <path class="fil3" d="M6989 4258c1,0 0,0 1,-1 2,-2 1,0 4,0 0,-5 -5,-3 -5,1z"/>
      <path class="fil3" d="M7091 4155c-1,-1 -1,-1 -3,-1 0,2 2,5 4,4 1,-1 0,-2 -1,-3z"/>
      <path class="fil3" d="M7040 4264c-2,-1 -1,-1 -3,-1l0 2c4,1 5,2 6,0l-1 -1c-3,-1 2,1 -1,0 -1,0 0,0 -1,0z"/>
      <path class="fil3" d="M7088 4163c1,-1 0,-3 0,-5l-3 0c0,2 1,4 3,5z"/>
      <path class="fil3" d="M6980 4255c-2,0 -2,1 -2,4l3 0 -1 -4z"/>
      <path class="fil3" d="M6941 4237c8,2 0,-7 0,0z"/>
      <path class="fil3" d="M7095 4223l3 0 0 -3c-2,1 -3,1 -3,3z"/>
      <path class="fil3" d="M7095 4159c-2,0 -2,0 -2,2l2 0 0 -2z"/>
      <path class="fil3" d="M7096 4230c3,-1 3,-1 3,-3 -3,0 -2,0 -3,3z"/>
      <path class="fil3" d="M7096 4213c3,0 3,0 3,-3 -2,0 -2,0 -3,3z"/>
      <path class="fil3" d="M7102 4161c2,0 3,0 3,-2 -3,0 -3,0 -3,2z"/>
      <path class="fil3" d="M6920 4232l3 0 -1 -2c-2,0 -2,-1 -2,2z"/>
      <path class="fil3" d="M6915 4232c2,0 2,0 3,-1 0,-1 -1,-1 -2,-1l-1 2z"/>
      <path class="fil3" d="M7100 4218l2 1 0 -2c-3,0 -1,-1 -2,1z"/>
      <path class="fil3" d="M7082 4161c0,3 2,2 2,0 -1,-1 -1,-1 -2,0z"/>
     </g>
     <g id="_2525478225392">
      <g>
       <path class="fil4" d="M3031 4599l-127 224c-46,-21 -265,-119 -323,-145 -38,-17 -71,-31 -104,-45l113 -283c18,-4 271,154 441,249z"/>
       <polygon class="fil5" points="3050,4403 3074,4539 3056,4548 3410,4593 3468,4587 "/>
       <polygon class="fil4" points="2342,5588 1343,5113 2526,5328 "/>
       <path class="fil6" d="M2991 4015c110,0 199,-89 199,-199 0,-110 -89,-200 -199,-200 -110,0 -200,90 -200,200 0,110 90,199 200,199z"/>
       <polygon class="fil7" points="3031,4599 2296,4224 2387,4056 3368,4120 3251,4291 "/>
       <path class="fil6" d="M3164 4940c-14,23 -121,197 -139,207l-668 -127c2,-29 109,-367 124,-395 6,17 -9,5 19,18l81 35c195,87 389,173 583,262z"/>
       <polygon class="fil7" points="2701,5080 2342,5588 2139,5491 2357,5020 "/>
       <polygon class="fil4" points="3513,6000 2871,5118 3164,4940 "/>
       <polygon class="fil6" points="3126,4466 3368,4120 3907,4280 "/>
       <polygon class="fil8" points="3907,4280 3596,4187 3550,3501 "/>
       <polygon class="fil9" points="3074,4539 2482,4701 3468,4587 "/>
       <polygon class="fil5" points="2296,4532 2482,4701 3074,4539 "/>
       <polygon class="fil10" points="2296,4532 1822,4313 1681,4270 2482,4701 "/>
       <polygon class="fil11" points="1681,4270 1651,4112 1822,4313 "/>
       <polygon class="fil6" points="1961,4914 2089,4031 2387,4056 "/>
      </g>
      <g>
       <path class="fil12" d="M4700 4991c-24,0 -49,-3 -78,-10 -28,-7 -51,-15 -68,-25l39 -90c12,7 28,13 49,19 20,6 39,9 54,9 18,0 32,-3 42,-11 11,-7 16,-15 16,-23 0,-6 -4,-12 -12,-17 -7,-6 -20,-13 -37,-23l-20 -12c-29,-18 -53,-32 -69,-44 -17,-11 -31,-26 -44,-44 -14,-19 -20,-39 -20,-62 0,-25 7,-47 21,-66 13,-19 33,-34 57,-45 25,-11 54,-17 87,-17 23,0 46,4 70,10 23,7 44,16 61,27l-35 80c-24,-8 -41,-13 -54,-15 -12,-3 -26,-4 -41,-4 -13,0 -23,3 -31,9 -8,6 -12,13 -12,22 0,7 3,12 10,17 7,5 18,12 33,20l24 13c27,16 50,30 69,44 18,13 33,29 46,47 13,18 20,38 20,61 0,25 -8,47 -22,67 -14,20 -35,35 -62,46 -27,12 -58,17 -93,17zm361 -141l0 133 -119 0 0 -444 119 0 0 154 178 -164 92 67 -151 141 180 246 -151 0 -114 -166 -34 33zm358 133l0 -444 186 0c53,0 97,12 132,38 34,25 51,63 51,113 0,26 -5,49 -16,69 -10,20 -25,36 -44,49l98 175 -138 0 -72 -140 -79 0 0 140 -118 0zm246 -293c0,-19 -5,-33 -16,-43 -11,-10 -27,-15 -48,-15l-64 0 0 118 66 0c18,0 33,-6 45,-17 12,-11 17,-25 17,-43zm534 200l11 93 -325 0 0 -444 314 0 11 93 -206 0 0 81 136 0 11 94 -147 0 0 83 195 0zm31 93l166 -444 119 0 166 439 -117 11 -32 -94 -153 0 -31 88 -118 0zm181 -181l87 0 -44 -121 -43 121zm627 -34l-60 81 -48 7 -71 -88 0 215 -119 0 0 -444 81 0 134 169 123 -169 79 0 0 444 -119 0 0 -215z"/>
       <path class="fil12" d="M4560 4296l0 83 -34 0 0 -239 34 0 0 110 109 -116 24 20 -85 90 102 135 -41 0 -84 -110 -25 27zm158 94c8,-3 14,-6 18,-8 4,-3 7,-6 8,-10 2,-5 2,-11 2,-19l0 -213 34 0 0 219c0,11 -1,19 -4,26 -3,7 -8,12 -15,17 -7,4 -17,9 -30,13l-13 -25zm176 -7c-11,0 -23,-2 -38,-5 -15,-4 -25,-8 -29,-12l7 -27c8,4 17,7 28,10 11,4 22,5 31,5 17,0 30,-3 39,-9 9,-6 14,-15 14,-25 0,-8 -3,-15 -7,-20 -5,-6 -11,-11 -20,-16 -8,-5 -20,-11 -35,-17 -15,-7 -26,-13 -35,-19 -9,-7 -16,-14 -20,-22 -4,-8 -7,-18 -7,-30 0,-12 3,-22 10,-32 6,-9 15,-17 27,-22 12,-5 26,-8 42,-8 11,0 22,1 33,4 11,4 21,7 30,12l-11 26c-8,-4 -16,-7 -24,-9 -7,-2 -16,-3 -26,-3 -14,0 -25,2 -34,8 -9,5 -13,13 -13,23 0,8 2,15 7,20 4,6 11,11 19,16 8,5 20,11 36,18 21,10 37,19 47,30 10,10 15,23 15,40 0,13 -4,24 -10,33 -7,10 -17,18 -30,23 -13,6 -28,8 -46,8zm224 -248c9,0 19,1 31,3 12,3 22,6 30,11l-11 24c-10,-3 -19,-6 -25,-7 -7,-2 -15,-3 -26,-3 -14,0 -27,4 -39,13 -12,8 -21,19 -28,34 -7,15 -10,31 -10,50 0,18 3,33 9,48 6,14 14,26 26,34 11,9 24,13 40,13 19,0 37,-4 52,-11l13 26c-8,4 -18,7 -30,10 -13,2 -24,4 -34,4 -24,0 -44,-6 -61,-17 -16,-11 -29,-25 -38,-44 -8,-19 -13,-40 -13,-62 0,-24 5,-46 14,-65 10,-19 23,-34 40,-45 17,-11 37,-16 60,-16zm248 217l5 27 -152 0 0 -239 147 0 5 26 -119 0 0 78 82 0 4 26 -86 0 0 82 114 0z"/>
       <path class="fil12" d="M4626 5249c-7,0 -14,1 -20,5 -5,3 -10,6 -13,10l-29 0 6 -112 112 0 -3 26 -82 0 -3 54c10,-5 20,-8 31,-8 22,0 40,6 51,19 12,12 18,28 18,47 0,13 -3,25 -9,35 -6,11 -15,19 -27,25 -11,6 -25,9 -41,9 -11,0 -22,-2 -33,-6 -12,-3 -22,-7 -32,-13l16 -21c8,5 16,8 24,11 7,2 16,3 27,3 13,0 24,-4 33,-12 8,-8 13,-18 13,-31 0,-13 -4,-23 -11,-30 -7,-8 -16,-11 -28,-11zm107 -153l14 0 5 12 -19 0 0 41c0,5 1,8 2,10 2,3 5,4 9,4 2,0 4,-1 7,-2l4 12c-1,1 -3,1 -6,2 -2,1 -5,1 -7,1 -8,0 -14,-2 -18,-6 -5,-4 -7,-10 -7,-18l0 -44 -11 0 0 -12 11 0 0 -19 16 -4 0 23zm105 26l0 52 -15 0 0 -51c0,-5 -1,-10 -3,-12 -2,-3 -5,-5 -10,-5 -4,0 -8,1 -12,4 -4,2 -9,5 -13,9l0 55 -15 0 0 -112 15 -2 0 44c4,-3 9,-6 14,-8 5,-2 9,-3 14,-3 9,0 15,3 19,8 4,5 6,12 6,21zm382 -26l14 0 5 12 -19 0 0 41c0,5 1,8 3,10 1,3 4,4 8,4 2,0 4,-1 8,-2l4 12c-2,1 -4,1 -7,2 -2,1 -4,1 -7,1 -7,0 -13,-2 -18,-6 -4,-4 -7,-10 -7,-18l0 -44 -10 0 -1 -12 11 0 0 -19 16 -4 0 23zm105 26l0 52 -15 0 0 -51c0,-5 -1,-10 -3,-12 -2,-3 -5,-5 -10,-5 -4,0 -8,1 -12,4 -4,2 -8,5 -13,9l0 55 -15 0 0 -112 15 -2 0 44c5,-3 9,-6 14,-8 5,-2 10,-3 14,-3 9,0 15,3 19,8 4,5 6,12 6,21zm-468 112l82 0 3 25 -82 0 -3 -25zm187 -52c0,-10 2,-19 7,-27 6,-9 13,-15 23,-20 10,-5 21,-7 34,-7 14,0 25,2 35,7 10,5 17,11 22,20 5,8 8,17 8,27 0,9 -3,18 -9,25 -6,8 -14,14 -23,18 7,2 14,6 20,11 6,5 11,11 15,19 3,7 5,14 5,22 0,12 -3,22 -8,31 -6,9 -15,17 -26,22 -11,6 -24,8 -39,8 -15,0 -28,-2 -39,-8 -11,-5 -20,-13 -25,-22 -6,-9 -9,-19 -9,-31 0,-7 2,-14 6,-22 3,-7 8,-13 14,-19 7,-5 13,-9 20,-11 -9,-4 -17,-10 -23,-17 -5,-8 -8,-16 -8,-26zm100 0c0,-8 -3,-15 -10,-21 -6,-6 -15,-8 -26,-8 -11,0 -20,2 -26,8 -6,6 -10,13 -10,21 0,8 3,15 10,21 6,6 15,10 26,12 12,-2 20,-6 27,-12 6,-6 9,-13 9,-21zm8 96c0,-10 -3,-19 -11,-27 -8,-7 -19,-12 -33,-14 -14,2 -25,7 -33,14 -7,8 -11,17 -11,27 0,11 4,19 13,26 8,6 19,9 31,9 12,0 23,-3 31,-9 9,-7 13,-15 13,-26zm260 67c7,-3 13,-5 16,-8 4,-2 6,-5 8,-9 1,-4 2,-10 2,-17l0 -195 31 0 0 201c0,9 -2,17 -4,23 -3,6 -7,11 -14,15 -6,5 -15,8 -27,12l-12 -22zm86 -11l82 -218 28 0 84 216 -30 5 -23 -61 -89 0 -22 58 -30 0zm61 -83l71 0 -36 -94 -35 94zm196 -80l0 163 -30 0 0 -218 27 0 113 161 0 -161 32 0 0 218 -28 0 -114 -163z"/>
      </g>
      <polygon class="fil5" points="4233,5955 4274,5955 4274,3546 4233,3546 "/>
     </g>
    </g>
   </g>
  </g>
  <polygon class="fil13" points="1343,3501 7157,3501 7157,7499 1343,7499 "/>
 </g>
</svg>
